<svg xmlns="http://www.w3.org/2000/svg" version="1.1" viewBox="-5.0 -10.0 110.0 135.0">
 <path d="m95.484 9.8477c-0.046875-0.27734-0.23047-0.50781-0.49219-0.60547l-2.0352-0.78125c-0.039062-0.015626-0.078125-0.027344-0.12109-0.039063-0.83203-1.9883-2.4102-3.5703-4.3984-4.4062-0.007812-0.039063-0.019531-0.078125-0.03125-0.11328l-0.78125-2.0352c-0.10156-0.26172-0.33594-0.44531-0.60938-0.48828-0.27734-0.042968-0.55469 0.0625-0.72656 0.27734l-1.3672 1.6953v0.003907c-0.011719 0.011719-0.019531 0.023437-0.03125 0.035156-1.25 0.0625-2.4727 0.41016-3.5703 1.0195l-1.6641-0.73438c-0.25391-0.11328-0.55078-0.082031-0.77734 0.082031-0.22656 0.16797-0.34375 0.4375-0.31641 0.71875l0.21875 2.0391c-1.3828 1.4258-2.7383 2.8242-4.0703 4.1953l-0.027344-0.007813-2.1094-0.5625 0.007812-0.007813c-0.27344-0.074218-0.55859 0.003907-0.75781 0.19922-0.19531 0.19922-0.27344 0.48438-0.19922 0.75391l0.5625 2.1094c0 0.023438 0.015625 0.054688 0.027344 0.078126-1.3945 1.4336-2.7617 2.8281-4.1016 4.1953l-2.0508-0.54688v-0.003906c-0.26953-0.074219-0.55859 0.003906-0.75391 0.20312-0.19922 0.19531-0.27734 0.48438-0.20312 0.75391l0.55859 2.0859c-1.4453 1.4727-2.8555 2.9023-4.2383 4.2969l-1.9219-0.51562c-0.26953-0.070313-0.55469 0.007812-0.75391 0.20312-0.19531 0.19922-0.27344 0.48438-0.19922 0.75391l0.51562 1.9375c-1.4688 1.4805-2.9023 2.9102-4.2969 4.2969l-1.9531-0.52344v0.003906c-0.26953-0.074218-0.55859 0.003907-0.75391 0.19922-0.19922 0.19922-0.27734 0.48438-0.20312 0.75781l0.51953 1.9375c-1.457 1.4531-2.8672 2.8555-4.2383 4.2031l-1.8984-0.50781c-0.26953-0.070312-0.55859 0.003906-0.75391 0.20312-0.19922 0.19531-0.27734 0.48438-0.20703 0.75391l0.5 1.8633c-0.97266 0.94922-1.9219 1.8711-2.8477 2.7656-0.125-0.15234-0.25-0.30469-0.375-0.45312l0.003906-0.003907c-0.93359-1.4219-2.457-2.3555-4.1523-2.5352-1.6953-0.17578-3.3789 0.41406-4.5898 1.6133-0.85156 0.73828-1.6836 1.4648-2.4961 2.1875 0.066406-3.3711 0.23047-6.9414 0.49219-10.711v-0.054688c0.023438-0.88672-0.31641-1.7461-0.9375-2.3828s-1.4727-0.99609-2.3633-0.99609c-0.88672 0-1.7383 0.35938-2.3594 0.99609s-0.96094 1.4961-0.9375 2.3828v0.042969c0.32031 5.8828 0.46094 11.164 0.41406 15.934-4.7188 4.4922-8.6641 8.6953-11.93 12.711v0.003907c-1.7188 1.7344-2.1328 4.3711-1.0312 6.543l-7.1562 15.094c-1.8867 3.957-1.0742 8.6719 2.0195 11.773l2.2852 2.2852c2.1523 2.1523 5.6445 2.1523 7.8008 0l12.82-12.82-0.003906 0.003906c1.9844 0.27344 3.9766-0.40234 5.3828-1.8281l0.03125-0.03125c0.78125-0.86719 1.5469-1.7188 2.2969-2.5625l-0.003907 0.003906c0.085938-0.050781 0.16406-0.11719 0.22656-0.19531l0.35156-0.44531c4.5078-4.9688 8.8242-9.4453 13.648-13.328v-0.003906c0.023437-0.015625 0.042968-0.035156 0.0625-0.054688 1.8633-1.8828 2.1875-4.8008 0.78125-7.0469-0.41797-0.84375-0.84375-1.6719-1.2812-2.4922 1.5781-1.6836 3.2148-3.4062 4.9023-5.1641l2.1094 0.5625-0.003906 0.003906c0.0625 0.015625 0.12891 0.023437 0.19531 0.023437 0.24219 0 0.46875-0.11328 0.61719-0.30469 0.14453-0.19141 0.19531-0.4375 0.13672-0.67188l-0.5625-2.1094c0-0.023438-0.015625-0.042969-0.023437-0.066406 1.3438-1.3789 2.7148-2.7812 4.1172-4.2109l1.8242 0.48828v0.003907c0.0625 0.019531 0.12891 0.027343 0.19531 0.027343 0.24219 0 0.46875-0.11328 0.61719-0.30469 0.14453-0.19141 0.19531-0.4375 0.13672-0.67188l-0.49219-1.8438c1.3828-1.3906 2.793-2.8008 4.2344-4.2305h-0.003906c0.046875 0.023438 0.09375 0.042969 0.14453 0.058594l2.1094 0.5625v0.003906c0.0625 0.015625 0.12891 0.023438 0.19531 0.023438 0.23828 0 0.46875-0.11328 0.61719-0.30469 0.14453-0.1875 0.19531-0.4375 0.13672-0.67188l-0.5625-2.1094c-0.015625-0.042969-0.03125-0.085938-0.050781-0.125 1.3906-1.3711 2.8086-2.7578 4.25-4.1641l1.9688 0.52344-0.003907 0.003906c0.26953 0.070313 0.55469-0.007812 0.75391-0.20312 0.19531-0.19922 0.27344-0.48438 0.20312-0.75391l-0.51172-1.9102c1.3867-1.3438 2.7969-2.707 4.2344-4.0781l-0.003907-0.003907c0.082032 0.066407 0.17578 0.10938 0.27344 0.13672l2.1055 0.5625c0.0625 0.019531 0.12891 0.027344 0.19531 0.027344 0.24219 0 0.46875-0.10938 0.61719-0.30078 0.14453-0.19141 0.19531-0.44141 0.13672-0.67578l-0.5625-2.1094v0.003906c-0.023438-0.070313-0.050782-0.13281-0.085938-0.19531 1.3555-1.293 2.7305-2.5938 4.125-3.9062h0.015625l2.168 0.23438h-0.003906c0.027343 0.003906 0.058593 0.003906 0.085937 0 0.26562 0 0.51172-0.13281 0.65234-0.35156 0.14453-0.22266 0.16797-0.5 0.0625-0.74219l-0.78125-1.7695c0.58984-1.0781 0.92969-2.2734 0.99219-3.5039l0.058594-0.039063 1.6953-1.3672h0.003907c0.23828-0.17188 0.36328-0.46484 0.31641-0.75781zm-67.836 24.867c0.26953-0.007813 0.49609 0.20312 0.50781 0.47266l0.26562 7.668v-0.003907c0.003906 0.13281-0.042969 0.25781-0.12891 0.35156-0.089844 0.097656-0.21094 0.15234-0.33984 0.15625h-0.023437c-0.26172 0-0.47656-0.20703-0.48438-0.46875l-0.26953-7.6719h-0.003906c-0.003906-0.12891 0.042969-0.25781 0.13281-0.35156 0.089843-0.09375 0.21484-0.14844 0.34375-0.15234zm21.258 19.273c0.015625 0.027344 0.03125 0.054688 0.046875 0.085938l-0.21875-0.125h0.003906c0.054688 0.019531 0.10938 0.035156 0.16797 0.039062zm-15.297-10.52 0.85547 0.85547-0.003906-0.003907c0.50391 0.50391 0.51172 1.3125 0.023437 1.8281-1.1719 0.99219-2.2188 1.9062-3.1797 2.7578-0.011719-1.1016-0.011719-2.2305 0-3.3828 0.74219-0.67969 1.5117-1.3633 2.3047-2.0547zm-8.0078 7.3438c-0.027343 1.2422-0.066406 2.457-0.11719 3.6328-1.7422 1.8047-3.0078 3.2969-4.2578 4.7656-0.375 0.44531-0.75 0.88281-1.1406 1.3359l-0.003907-0.003906c-0.51172 0.49219-1.3242 0.48438-1.8281-0.019531l-0.99609-0.99609c2.4453-2.793 5.2109-5.6875 8.3438-8.7148zm-15.023 27.797c-0.066406 0-0.13281-0.015625-0.19531-0.046875-0.24609-0.11328-0.35156-0.40234-0.23437-0.64844l2.5469-5.5156c0.050782-0.12109 0.14844-0.22266 0.27344-0.26953 0.125-0.050781 0.26172-0.046875 0.38672 0.011719 0.12109 0.054687 0.21484 0.16016 0.25391 0.28516 0.042969 0.12891 0.035156 0.26562-0.03125 0.38672l-2.5547 5.5078c-0.082032 0.17578-0.25391 0.28906-0.44531 0.28906zm3.5 16.406h-0.26953c-0.26953 0-0.48828-0.21875-0.48828-0.48828 0-0.26953 0.21875-0.48828 0.48828-0.48828h0.26953c0.26953 0 0.48828 0.21875 0.48828 0.48828 0 0.26953-0.21875 0.48828-0.48828 0.48828zm0.19531-3.8672c-0.14844 0.15234-0.34766 0.23437-0.55859 0.23437-0.20703 0-0.41016-0.082031-0.55859-0.23437l-1.0234-1.0234c-1.1445-1.1445-1.4453-2.8867-0.75781-4.3516l5.9492-11.699c2.1523 2.5234 4.582 4.8008 7.2461 6.7852zm7.9492-1.9297-0.13672 0.13672c-0.1875 0.18359-0.49219 0.18359-0.68359-0.003907-0.1875-0.1875-0.19141-0.49219-0.003906-0.6875l0.13281-0.13281c0.19141-0.18359 0.49609-0.18359 0.68359 0.003906 0.19141 0.1875 0.19141 0.49219 0.007812 0.68359zm16.934-14.934-2.5547-2.5469c-0.09375-0.089843-0.14453-0.21484-0.14844-0.34766 0-0.12891 0.050781-0.25781 0.14453-0.34766 0.09375-0.09375 0.21875-0.14453 0.35156-0.14453 0.12891 0.003906 0.25391 0.054687 0.34766 0.14844l2.5469 2.5586c0.18359 0.19141 0.18359 0.49609-0.007812 0.68359-0.1875 0.1875-0.49219 0.19141-0.68359 0.007813zm2.832-0.95703-3.9062-3.9062v0.003906c-0.94141-0.94141-2.2891-1.3398-3.5898-1.0664-1.3008 0.27344-2.375 1.1836-2.8555 2.4219l-0.15625-0.015625h0.003906c-0.27344-0.03125-0.51562 0.16406-0.54297 0.43359-0.03125 0.26953 0.16406 0.51172 0.43359 0.54297h0.027344c-0.070313 0.57422-0.007813 1.1602 0.17578 1.7109 0.28125 0.80078 0.83594 1.4766 1.5625 1.9141 1.293 0.8125 2.5508 2.3047 3.5703 3.6562-0.66797 0.74219-1.3438 1.4961-2.0234 2.2578-1.7578 1.7617-4.5742 1.8828-6.4805 0.28125-0.32422-0.27344-0.66406-0.52734-1.0117-0.76562-0.20312-0.13281-0.40625-0.27344-0.60937-0.41406l-0.88672-0.65625-0.015625 0.015626c-3.8828-2.8438-7.3594-6.4727-10.352-10.812-0.25-0.36719-0.52344-0.71094-0.78125-1.0234l-0.003906-0.007812c-1.332-1.6367-1.2031-4.0156 0.29688-5.4961v-0.003906c0.019531-0.015626 0.039062-0.035157 0.054688-0.054688 0.4375-0.53516 0.88672-1.0781 1.3516-1.625l0.91406 0.91406h-0.003906c1.1211 1.1172 2.9336 1.1172 4.0547 0l0.039062-0.042968c0.39062-0.46094 0.78125-0.91406 1.1719-1.3672 0.90625-1.0703 1.8281-2.1484 2.9297-3.3555-0.039063 0.625-0.082031 1.25-0.12891 1.8555v0.0625-0.003906c0.042969 1.793 1.5078 3.2227 3.3008 3.2227 1.7891 0 3.2539-1.4297 3.3008-3.2227v-0.078125c-0.082031-0.84766-0.15625-1.7188-0.21875-2.6172l-1.1719-0.53125-0.003906 0.003906c-0.12109-0.050782-0.21484-0.14844-0.26172-0.27344-0.050781-0.12109-0.046875-0.25781 0.007813-0.37891 0.054687-0.11719 0.15625-0.21094 0.28125-0.25391 0.12109-0.046875 0.25781-0.039063 0.375 0.015625l0.69531 0.3125c-0.082031-1.293-0.14062-2.6328-0.17969-4.0195 1.2109-1.0977 2.5859-2.3047 4.1758-3.6523l0.003906 0.003906c0.015625-0.011719 0.03125-0.023438 0.046875-0.039062 1.1172-1.1211 1.1172-2.9375 0-4.0547l-0.78125-0.78125 0.070313-0.0625 0.039062-0.039062c0.42188-0.42188 0.92578-0.74219 1.4805-0.94531l-0.42188 1.0234c-0.10156 0.24609 0.015625 0.53125 0.26562 0.63281 0.058593 0.027344 0.12109 0.039063 0.1875 0.039063h-0.003907c0.19922 0 0.37891-0.11719 0.45313-0.30078l0.67578-1.6445c0.089843 0 0.17969-0.015625 0.26562-0.015625l0.003906 0.003906c0.14844-0.003906 0.29688 0.007813 0.44531 0.023438 0.0625 0 0.125 0.015625 0.18359 0.023437l-1.0742 1.4023c-0.16016 0.21484-0.12109 0.51953 0.09375 0.6875 0.082031 0.0625 0.1875 0.097656 0.29687 0.097656 0.15234 0 0.29688-0.074219 0.39063-0.19531l1.2969-1.6992c0.24609 0.10547 0.48047 0.23828 0.70313 0.39062l-1.2266 1.0508c-0.10156 0.085938-0.16016 0.20312-0.17188 0.33203-0.007812 0.13281 0.03125 0.25781 0.11719 0.35937 0.17578 0.20313 0.48437 0.22656 0.69141 0.050782l1.3281-1.1406v0.003906c0.14062 0.16016 0.27344 0.33203 0.39062 0.51172 0.007812 0.015625 0.019531 0.03125 0.03125 0.046875l-0.66016 0.30078c-0.23828 0.11719-0.34375 0.40234-0.23047 0.64062 0.10938 0.24219 0.39062 0.35156 0.63672 0.25l0.89844-0.40625 0.37109 0.46094-0.48438-0.042968v-0.003906c-0.13281-0.011719-0.26172 0.03125-0.35938 0.11328-0.10156 0.082031-0.16406 0.20312-0.17578 0.33203-0.023438 0.26953 0.17187 0.50781 0.44531 0.53125l1.3984 0.125c0.15625 0.19531 0.3125 0.40625 0.46875 0.61719l-0.74219-0.21875c-0.26172-0.074219-0.53125 0.074218-0.60938 0.33203-0.074219 0.26172 0.074219 0.53125 0.33203 0.60547l1.9727 0.58594 0.40234 0.5625-0.85547-0.32031v0.003907c-0.25391-0.09375-0.53516 0.03125-0.62891 0.28516s0.03125 0.53516 0.28516 0.62891l2.1484 0.80469h0.015625c0.15234 0.22266 0.30469 0.45312 0.45312 0.67969l-0.97656-0.61328v0.003906c-0.10937-0.070312-0.24219-0.09375-0.36719-0.0625-0.12891 0.027344-0.23828 0.10547-0.30469 0.21484-0.14453 0.23047-0.074219 0.53125 0.15625 0.67578l2.1484 1.3438c0.074219 0.046875 0.16406 0.074219 0.25781 0.074219 0.039062 0 0.082031-0.007813 0.125-0.015625 0.14062 0.22266 0.28125 0.45312 0.41797 0.67969l-0.95312-0.61719 0.003907-0.003906c-0.22656-0.14844-0.53125-0.082032-0.67969 0.14453-0.14453 0.22656-0.078125 0.52734 0.14844 0.67578l2.2227 1.4375h-0.003906c-0.23438-0.10156-0.50781-0.003906-0.625 0.22266-0.11719 0.22656-0.042969 0.50781 0.17578 0.64063l1.7578 1c0.085938 0.15234 0.17188 0.30469 0.25391 0.46094l-0.054688-0.027344c-0.23438-0.11719-0.51953-0.027343-0.64453 0.20703-0.125 0.23047-0.042969 0.51953 0.18359 0.65234l1.3438 0.72266 0.09375 0.17969-0.066406-0.03125h-0.003906c-0.25-0.10938-0.53516 0.003906-0.64453 0.25391s0.003906 0.53516 0.25391 0.64453l1.1406 0.48828 0.082031 0.16406c0.015625 0.023438 0.027344 0.050781 0.042969 0.074219 0.050781 0.078125 0.09375 0.15625 0.14062 0.23828-0.22656-0.066406-0.46484 0.039063-0.57031 0.24219-0.10937 0.20703-0.054687 0.46094 0.12891 0.60938l0.92969 0.74219c0.011719 0.14844 0.019532 0.30078 0.019532 0.44922-0.16406-0.20312-0.45313-0.24219-0.66406-0.09375s-0.26562 0.4375-0.12891 0.65625l0.51562 0.86719v-0.003907c-0.066406 0.17188-0.14062 0.33984-0.23047 0.5-0.14062-0.097656-0.32422-0.11719-0.48047-0.042969-0.15625 0.070313-0.26172 0.21875-0.27734 0.39063l-0.078124 0.69531c-3.2383 2.6602-6.3047 5.5156-9.1875 8.5586zm9.1562-18.555c-0.35547-0.63672-0.71484-1.2695-1.082-1.8984l17.148-17.148-0.8125 0.039063h-0.023438 0.007812c-0.27344 0.007813-0.49609-0.20703-0.5-0.47656-0.007812-0.26953 0.20703-0.49219 0.47656-0.5l1.6406-0.078124v0.003906c0.070312-0.003906 0.13281 0.007812 0.19531 0.03125l19.922-19.922c1.6914-1.6914 1.6914-4.4258 0-6.1133-1.6875-1.6914-4.4219-1.6914-6.1094 0l-36.797 36.797c-0.42578-0.57812-0.85547-1.1445-1.293-1.6992 9.6953-9.375 21.773-21.531 36.68-36.934 2.582-2.5859 6.7734-2.5898 9.3594-0.007812 2.5859 2.582 2.5859 6.7734 0.003907 9.3594-15.172 14.32-28.203 27.266-38.812 38.547zm4.1719-12.516 0.13672 0.13672c0.13672 0.13672 0.17969 0.34766 0.10547 0.52734-0.078125 0.18359-0.25391 0.30078-0.44922 0.30469-0.13281 0-0.25391-0.050781-0.34375-0.14453l-0.13281-0.13281h-0.003906c-0.10156-0.089844-0.16016-0.21875-0.16406-0.35156-0.003906-0.13672 0.050781-0.26562 0.14453-0.35938s0.22266-0.14844 0.35938-0.14453c0.13281 0.003906 0.26172 0.0625 0.35156 0.16406zm-0.42969-1.1328v-0.53906h0.003906c0-0.27344 0.21484-0.48828 0.48828-0.48828 0.26953 0 0.48828 0.21484 0.48828 0.48828v0.53906c0 0.26953-0.21875 0.48828-0.48828 0.48828-0.27344 0-0.48828-0.21875-0.48828-0.48828zm14.406-16.758 0.94141-0.94141v-0.003906c0.19141-0.18359 0.49609-0.18359 0.68359 0.003906 0.19141 0.1875 0.19141 0.49219 0.007812 0.6875l-0.94141 0.94141c-0.19141 0.18359-0.49609 0.17969-0.68359-0.007813-0.19141-0.1875-0.19141-0.49219-0.007812-0.68359zm3.0938-3.0938 8.6133-8.6133c0.1875-0.1875 0.49219-0.18359 0.68359 0.003906 0.1875 0.1875 0.19141 0.49219 0.003906 0.68359l-8.6094 8.6094v0.003907c-0.089844 0.089843-0.21484 0.14062-0.34375 0.14062-0.13281 0-0.25391-0.050781-0.34375-0.14062-0.09375-0.09375-0.14453-0.21875-0.14453-0.34766 0.003906-0.12891 0.054687-0.25391 0.14453-0.34375z"/>
 <path d="m42.082 56.977c-0.30469-0.30078-0.79688-0.30078-1.1055 0l-2.5625 2.5625-0.75-0.070312c-0.25-0.015625-0.47656 0.16406-0.51172 0.41797-0.039063 0.25 0.125 0.48828 0.37109 0.54688l-1.4453 1.4414c-0.30469 0.30469-0.30469 0.80078 0 1.1055 0.30859 0.30469 0.80078 0.30469 1.1094 0l4.8984-4.8984-0.003907 0.003907c0.14844-0.14844 0.23047-0.34766 0.23047-0.55469s-0.082031-0.40625-0.23047-0.55469z"/>
 <path d="m44.977 59.875c-0.14844-0.14844-0.34375-0.23047-0.55469-0.23047-0.20703 0-0.40234 0.082031-0.55078 0.23047l-4.8984 4.8984 0.003906-0.003907c-0.30469 0.30469-0.30469 0.79688 0 1.1055 0.14453 0.14453 0.34375 0.22656 0.55078 0.22656 0.20703 0 0.40625-0.082031 0.55078-0.22656l4.8984-4.8984c0.30469-0.30469 0.30469-0.79687 0-1.1016z"/>
 <path d="m46.766 62.766-4.8984 4.8984c-0.30469 0.30469-0.30469 0.79688 0 1.1016 0.30469 0.30859 0.80078 0.30859 1.1055 0l4.8945-4.8984c0.29297-0.30859 0.28906-0.78906-0.011719-1.0898-0.29688-0.30078-0.78125-0.30859-1.0898-0.015625z"/>
 <path d="m23.609 68.148c0.070313-0.25391-0.078125-0.51953-0.33594-0.58984-0.25391-0.074219-0.51953 0.070312-0.59766 0.32422l-0.070312 0.19531h-1.1211c-0.26953 0-0.48828 0.21875-0.48828 0.49219 0 0.26953 0.21875 0.48438 0.48828 0.48438h0.8125c-0.015625 0.22266 0.12109 0.42969 0.32812 0.5 0.054688 0.015624 0.10547 0.027343 0.16016 0.027343 0.20703 0 0.39453-0.13281 0.46094-0.33203l0.070312-0.19531h0.054688-0.003906c0.22266 0 0.41016-0.14453 0.46875-0.35547 0.058593-0.21094-0.03125-0.4375-0.21875-0.55078z"/>
 <path d="m30.664 64.188-0.67187 0.13281c-0.24609 0.050782-0.41406 0.28125-0.39063 0.52734 0.027344 0.25 0.23438 0.44141 0.48438 0.44141h0.003906c0.03125 0.003907 0.0625 0.003907 0.09375 0l0.67188-0.13281c0.26562-0.054688 0.4375-0.3125 0.38281-0.57812-0.054687-0.26562-0.3125-0.4375-0.57812-0.38281z"/>
 <path d="m29.07 79.523-0.40234 0.40234v0.003907c-0.19141 0.1875-0.19141 0.5 0 0.6875 0.1875 0.19141 0.5 0.19141 0.69141 0l0.40234-0.40234h-0.003907c0.10156-0.089844 0.16016-0.21484 0.16406-0.35156 0.003906-0.13281-0.046875-0.26172-0.14062-0.35938-0.097656-0.09375-0.22656-0.14453-0.35938-0.14062-0.13672 0.003907-0.26172 0.0625-0.35156 0.16406z"/>
 <path d="m36.949 51.969c0.10547 0 0.20703-0.03125 0.28906-0.09375l0.61719-0.45312h0.003906c0.13281-0.027344 0.25-0.11328 0.32031-0.23438l1.0781-0.79688c0.21484-0.16016 0.25781-0.46875 0.097657-0.68359-0.16016-0.21484-0.46875-0.25781-0.68359-0.097656l-1.1562 0.84766h-0.30469c-0.26953 0-0.48438 0.21875-0.48438 0.48828-0.003906 0.027344-0.003906 0.058594 0 0.085938l-0.078124 0.054688v0.003906c-0.17188 0.125-0.24609 0.34375-0.17969 0.54688 0.066406 0.19922 0.25391 0.33594 0.46875 0.33594z"/>
 <path d="m46.332 58.789c0.17969 0.19141 0.48047 0.20703 0.67969 0.035157 0.19531-0.17188 0.22266-0.47266 0.058593-0.67578l-0.10156-0.11719 0.28125-0.28125c0.10156-0.089844 0.16016-0.21875 0.16406-0.35156 0.003907-0.13672-0.050781-0.26563-0.14453-0.35938s-0.22266-0.14844-0.35938-0.14453c-0.13281 0.003907-0.26172 0.0625-0.34766 0.16406l-0.23438 0.23438-0.054687-0.0625h-0.007813c-0.17578-0.20703-0.48438-0.22656-0.6875-0.046875-0.20312 0.17578-0.22266 0.48438-0.046875 0.6875z"/>
<text x="0.0" y="117.5" font-size="5.0" font-weight="bold" font-family="Arbeit Regular, Helvetica, Arial-Unicode, Arial, Sans-serif" fill="#000000">Created by iconfield</text><text x="0.0" y="122.5" font-size="5.0" font-weight="bold" font-family="Arbeit Regular, Helvetica, Arial-Unicode, Arial, Sans-serif" fill="#000000">from Noun Project</text></svg>