<svg xmlns="http://www.w3.org/2000/svg" xmlns:xlink="http://www.w3.org/1999/xlink" version="1.1" x="0px" y="0px" viewBox="0 0 417.1504 390.57675000000006" enable-background="new 0 0 417.1504 312.4614" xml:space="preserve"><g><path d="M13.5596,191.5303h23.1899c-0.0493,8.1945,0.7488,19.9396,2.4019,35.646l0.0186,0.1748   c0.9199,8.7407-4.0361,26.4795-5.0947,29.021c-0.8457,2.0278-14.792,27.9844-23.96,44.9365l3.5176,1.9033   c0.1489-0.2755,0.373-0.6899,0.6597-1.2202c4.0015-7.4025,20.4612-37.8874,23.1453-43.3804   c3.5647,2.5652,12.4252,8.7722,16.4705,10.0767l0.6133-1.9033c-3.8914-1.2549-13.1476-7.7997-16.3184-10.0893   c0.1842-0.5574,0.3997-1.2521,0.6348-2.0519c5.174,3.3234,19.7831,12.2419,30.0938,13.9605l0.3281-1.9727   c-10.1649-1.6948-25.3022-11.0707-29.8512-14.0043c1.9019-6.9563,4.474-18.7164,3.7399-25.6949l-0.0186-0.1748   c-3.4619-32.8901-2.5146-43.3804-1.1104-46.3892c0.0225-0.0488,0.0439-0.0991,0.0625-0.1504   c0.4971-1.3408,12.1934-32.8911,13.2793-37.2344c0.2168-0.8691,0.4062-1.7764,0.5957-2.686   c0.6436-3.0947,1.3096-6.2949,3.1201-7.2002c2.5898-1.2949,6.5566-5.3291,10.7373-9.7046   c0.9639-1.0083,1.7959-1.8794,2.2354-2.2915c1.7129-1.605,5.8965-4.1909,8.167-4.4751l0.2666-0.0332   c1.4224-0.1773,2.8723-0.3659,4.2783-0.5662c-2.9988,2.4324-5.3688,4.4907-5.7959,4.8875   c-0.3857,0.3574-1.0498,0.8481-1.8184,1.4165c-2.2451,1.6582-5.3193,3.9297-7.3184,7.0708   c-1.5918,2.502-3.8818,10.2109-6.9434,20.8281c-1.3896,4.8208-2.7021,9.3745-3.4805,11.4482   c-1.7256,4.604-4.9775,5.644-5.1143,5.686l1.0938,3.8477c0.2148-0.0601,5.2949-1.5386,7.7666-8.1294   c0.832-2.2197,2.1045-6.6338,3.5781-11.7446c2.1387-7.4185,5.0684-17.5791,6.4746-19.7886   c1.5996-2.5137,4.3281-4.5293,6.3203-6.0015c0.8652-0.6392,1.6133-1.1919,2.1631-1.7021   c1.9434-1.8057,13.9277-11.8115,17.6514-13.1558c2.2559-0.8149,7.1455-1.4004,10.7148-1.8281   c0.465-0.0557,0.895-0.1076,1.2952-0.1566c0.8097,0.8468,1.9395,1.8716,2.9617,2.2323l1.1589,0.4091   c-4.3171,3.4518-12.7551,9.8505-14.4285,10.5299c-3.335,1.355-7.1074,7.4595-8.1113,10.2173   c-0.9033,2.4858-12.6562,27.6406-14.2139,30.9399c-0.9316,1.9722-3.5557,4.2651-4.4883,4.9824l2.4346,3.1738   c0.4209-0.3223,4.1572-3.2446,5.6709-6.4482c1.0527-2.229,13.335-28.4731,14.3555-31.2808   c0.9492-2.6069,4.1973-7.2041,5.8584-7.8784c2.9219-1.187,16.5986-11.8525,18.2021-13.4551c0.916-0.917,4.626-2.1289,6.9639-2.2749   c0.5615-0.0352,1.2441-0.0581,1.9746-0.0825c2.2883-0.0776,4.0775-0.1652,5.4332-0.4191c3.3401,3.0823,4.4518,3.4089,4.8275,3.5177   c0.4863,0.1406,1.0498,0.1963,1.6318,0.1963c0.8126,0,1.6553-0.1093,2.3867-0.2422c0.0103,0.0375,0.0303,0.0778,0.0332,0.1133   c0,1.9336-4.7871,7.1245-11.0732,8.8662c-0.3252,0.0898-0.6221,0.2607-0.8633,0.4966   c-1.7578,1.7163-10.5977,10.4507-12.0312,13.8232c-1.3076,3.0791-3.4717,6.2051-4.0283,6.6943   c-1.5303,1.252-9.6328,18.4048-9.543,22.8584c0.0146,0.7295,0.4268,1.3936,1.0732,1.7319   c0.8973,0.4692,1.8177,0.9894,2.5078,1.4045c-3.9933,6.4774-7.6497,12.3926-7.7266,12.5168l3.4023,2.1035   c0.6621-1.0703,16.2227-26.2451,17.8828-29.0913c0.252-0.4326,0.5889-1.0195,0.9873-1.7144   c2.0508-3.5757,6.3164-11.0161,8.29-13.186c1.9414-2.1367,6.001-8.1406,9.2617-12.9648c1.5713-2.3247,3.3525-4.959,3.7168-5.3721   c0.8083-0.8936,1.6448-1.7664,2.4612-2.5771c1.4509,1.0237,6.939,2.0209,8.4011,2.0209c0.0791,0,0.1465-0.0029,0.2012-0.0093   c0.9321-0.1036,2.6609-1.1707,4.1821-2.4149c-0.7462,4.7651-4.1964,14.8128-9.2622,24.2005   c-0.042,0.0771-0.0791,0.1577-0.1104,0.2397c-0.0303,0.0806-3.0967,8.1206-6.9131,15.1748   c-4.04,7.4702-12.8008,30.0933-13.8291,33.1768c-0.9678,2.9038-1.626,7.8506,0.5293,9.5752   c0.7295,0.5835,1.6846,0.666,3.5869,0.8315c2.9346,0.2549,7.8447,0.6812,9.8145,3.0513c0.3535,0.4248,0.8662,0.6851,1.418,0.7183   c0.3857,0.0239,2.3555,0.0747,3.6738-1.1665c0.71-0.6689,1.0859-1.5596,1.0811-2.478c0.2783-1.9922,6.4014-13.9907,8.9736-15.748   c0.0857-0.0585,0.1479-0.1382,0.2219-0.2076c0.5259,0.1964,1.073,0.3696,1.4871,0.4215l0.1992-1.5879   c-0.2507-0.0313-0.6383-0.1528-1.0552-0.3066c-0.0022-0.1472-0.002-0.2948-0.0376-0.442   c-0.0537-0.2231-5.252-22.3872,6.4512-31.7783c2.5398-2.0379,3.9418-2.4135,4.6473-2.4026   c-1.4379,1.7685-2.9921,4.1743-3.1493,6.4539c-0.2578,3.7451,1.085,7.3936,2.1592,8.3604   c0.6313,0.5681,2.0398,1.0437,3.2965,1.1823c0.5924,3.4568,2.3668,8.8625,3.8529,10.8177   c1.0967,1.4434,2.2803,7.3389,1.1143,11.0469c-0.5391,1.71-2.5371,6.7915-4.6523,12.1714   c-3.2568,8.2822-6.624,16.8467-7.2158,19.4077c-1.2305,5.3354-3.4229,9.1104-6.7021,11.5415   c-2.4092,1.7861-12.2979,8.6758-21.0225,14.7539c-9.4365,6.5742-15.2578,10.6343-16.0039,11.231   c-0.1201,0.0869-0.3066,0.1885-0.5576,0.333c-11.5674,6.687-26.3076,24.7539-43.8096,53.6982l1.2493,0.7551l2.1746,1.3143   c11.79-19.498,28.7139-44.3999,42.3877-52.3047c0.4463-0.2573,0.7676-0.4434,1.0381-0.6597   c0.6973-0.5576,8.3789-5.9092,15.8076-11.085c9.1748-6.3921,18.6621-13.0015,21.1191-14.8232   c4.0752-3.021,6.7637-7.5532,8.2168-13.8545c0.5254-2.2725,4.1377-11.4609,7.041-18.8438   c1.4312-3.6403,2.7354-6.9578,3.6421-9.3604h53.2219c0.9065,2.4025,2.2106,5.7199,3.6418,9.3604   c2.9033,7.3828,6.5156,16.5713,7.04,18.8433c1.4541,6.3018,4.1426,10.834,8.2178,13.855   c2.457,1.8218,11.9443,8.4312,21.1191,14.8232c7.4287,5.1758,15.1104,10.5273,15.8076,11.0845   c0.2705,0.2168,0.5918,0.4028,1.0381,0.6606c13.6748,7.9043,30.5986,32.8062,42.3877,52.3042l2.1746-1.3143l1.2493-0.7551   c-17.502-28.9443-32.2412-47.0107-43.8096-53.6982c-0.251-0.1445-0.4375-0.2461-0.542-0.3208   c-0.7617-0.6089-6.583-4.6689-16.0195-11.2432c-8.7246-6.0781-18.6133-12.9678-21.0225-14.7544   c-3.2793-2.4307-5.4717-6.2056-6.7031-11.5415c-0.5908-2.5605-3.958-11.125-7.2148-19.4072   c-2.1152-5.3799-4.1133-10.4614-4.6514-12.1709c-1.167-3.7085,0.0166-9.604,1.1133-11.0474   c1.4861-1.955,3.2604-7.3602,3.8528-10.8176c1.2581-0.1385,2.6667-0.6145,3.2957-1.1819c1.0762-0.9678,2.4189-4.6167,2.1602-8.3613   c-0.1573-2.2794-1.7117-4.6852-3.1499-6.4539c0.7053-0.0113,2.1074,0.3643,4.6479,2.4031   c11.7031,9.3911,6.5049,31.5552,6.4512,31.7783c-0.0356,0.1472-0.0354,0.2949-0.0376,0.4421   c-0.4166,0.1537-0.8042,0.2751-1.0552,0.3064l0.1992,1.5879c0.4141-0.0519,0.9612-0.2252,1.4871-0.4215   c0.074,0.0695,0.1362,0.1491,0.2219,0.2076c2.5723,1.7573,8.6953,13.7559,8.9688,15.6499c0,1.0166,0.376,1.9072,1.0859,2.5762   c1.3184,1.2417,3.293,1.1904,3.6738,1.1665c0.5518-0.0332,1.0645-0.2935,1.418-0.7183c1.9697-2.3701,6.8799-2.7964,9.8145-3.0513   c1.9023-0.1655,2.8574-0.248,3.5879-0.832c2.1543-1.7241,1.4961-6.6709,0.5283-9.5752   c-1.0283-3.083-9.7891-25.7061-13.8291-33.1763c-3.8164-7.0542-6.8828-15.0942-6.9131-15.1748   c-0.0312-0.082-0.0684-0.1626-0.1104-0.2397c-5.0675-9.3908-8.5183-19.4422-9.2645-24.2023   c1.5219,1.2449,3.2518,2.313,4.1844,2.4166c0.0547,0.0063,0.1221,0.0093,0.2012,0.0093c1.4622,0,6.9503-0.9972,8.4011-2.0209   c0.816,0.8102,1.6516,1.6824,2.4592,2.5751c0.3662,0.415,2.1475,3.0493,3.7188,5.374c3.2607,4.8242,7.3203,10.8281,9.2627,12.9653   c1.9727,2.1694,6.2383,9.6099,8.2891,13.1855c0.3984,0.6948,0.7354,1.2817,0.9873,1.7139   c1.6602,2.8467,17.2207,28.0215,17.8828,29.0918l3.4023-2.1035c-0.0769-0.1243-3.7324-6.038-7.7251-12.5144   c0.6962-0.4217,1.6128-0.9398,2.5063-1.407c0.6465-0.3384,1.0576-1.0024,1.0732-1.7319   c0.0898-4.4536-8.0127-21.6064-9.5361-22.8525c-0.5635-0.4951-2.7275-3.6211-4.0352-6.7012   c-1.4336-3.3716-10.2734-12.106-12.0312-13.8223c-0.2412-0.2358-0.5381-0.4067-0.8633-0.4966   c-6.2861-1.7417-11.0732-6.9326-11.0732-8.8623c0.0031-0.0366,0.0234-0.0782,0.0342-0.117c0.7312,0.1329,1.5735,0.242,2.3857,0.242   c0.582,0,1.1455-0.0557,1.6318-0.1963c0.3757-0.1088,1.4873-0.4354,4.8279-3.5176c1.3556,0.2538,3.1448,0.3414,5.4329,0.419   c0.7305,0.0244,1.4131,0.0474,1.9746,0.0825c2.3379,0.146,6.0479,1.3579,6.9648,2.2759   c1.6025,1.6016,15.2793,12.2671,18.2012,13.4541c1.6611,0.6743,4.9092,5.2715,5.8574,7.8774   c1.0215,2.8086,13.3047,29.0527,14.3564,31.2827c1.5137,3.2026,5.251,6.125,5.6729,6.4478l2.4336-3.1748   c-0.9326-0.7168-3.5576-3.0098-4.4893-4.981c-1.5576-3.3003-13.3105-28.4551-14.2148-30.9419   c-1.0029-2.7568-4.7754-8.8613-8.1104-10.2163c-1.6733-0.6795-10.1121-7.0786-14.4287-10.5298l1.1592-0.4091   c1.0222-0.3607,2.152-1.3855,2.9617-2.2323c0.4001,0.049,0.8302,0.1009,1.2952,0.1566c3.5693,0.4277,8.459,1.0132,10.7158,1.8286   c3.7227,1.3438,15.707,11.3496,17.6514,13.1558c0.5488,0.5098,1.2969,1.0625,2.1621,1.7017   c1.9922,1.4722,4.7207,3.4878,6.3203,6.0015c1.4062,2.2095,4.3359,12.3701,6.4746,19.7886   c1.4736,5.1108,2.7461,9.5249,3.5781,11.7446c2.4717,6.5908,7.5518,8.0693,7.7666,8.1294l1.0938-3.8477   c-0.1367-0.042-3.3887-1.082-5.1143-5.686c-0.7783-2.0737-2.0908-6.6274-3.4805-11.4482   c-3.0615-10.6172-5.3516-18.3262-6.9434-20.8281c-1.999-3.1411-5.0732-5.4126-7.3184-7.0708   c-0.7686-0.5684-1.4326-1.0591-1.8174-1.416c-0.4275-0.397-2.7977-2.4555-5.7966-4.888c1.4058,0.2003,2.8558,0.3889,4.2781,0.5662   l0.2666,0.0332c2.2705,0.2842,6.4541,2.8701,8.166,4.4746c0.4404,0.4126,1.2725,1.2837,2.2363,2.292   c4.1807,4.3755,8.1475,8.4097,10.7373,9.7041c1.8105,0.9058,2.4766,4.106,3.1201,7.2007c0.1895,0.9097,0.3789,1.8169,0.5957,2.686   c1.0859,4.3433,12.7822,35.8936,13.2793,37.2344c0.0186,0.0513,0.04,0.1016,0.0625,0.1504   c1.4043,3.0088,2.3516,13.499-1.1104,46.3892l-0.0186,0.1748c-0.7341,6.9786,1.8381,18.7388,3.7395,25.6951   c-4.5493,2.934-19.6862,12.3093-29.8508,14.0042l0.3281,1.9727c10.3103-1.7185,24.9189-10.6367,30.0934-13.9602   c0.235,0.7999,0.4503,1.4946,0.6344,2.052c-3.1711,2.29-12.4265,8.8341-16.3176,10.0889l0.6133,1.9033   c4.045-1.3044,12.9048-7.5106,16.4698-10.0762c2.6855,5.4943,19.1447,35.9777,23.1459,43.3799   c0.2866,0.5303,0.5107,0.9448,0.6597,1.2202l3.5176-1.9033c-9.168-16.9521-23.1143-42.9087-23.96-44.9365   c-1.0586-2.5415-6.0146-20.2803-5.0947-29.021l0.0186-0.1748c1.6531-15.7064,2.4512-27.4515,2.4019-35.646h23.1899   c7.4766,0,13.5596-6.083,13.5596-13.5596V13.5596C417.1504,6.083,411.0674,0,403.5908,0H13.5596C6.083,0,0,6.083,0,13.5596   v164.4111C0,185.4473,6.083,191.5303,13.5596,191.5303z M4,13.5596C4,8.2886,8.2881,4,13.5596,4h390.0312   c5.2715,0,9.5596,4.2886,9.5596,9.5596v164.4111c0,5.271-4.2881,9.5596-9.5596,9.5596h-23.2959   c-0.2058-4.1122-0.7061-7.0134-1.5029-8.7739c-0.8186-2.2075-1.787-4.8301-2.8203-7.642v-4.6852   c0-1.8314-1.3215-3.3544-3.0593-3.6802c-0.0735-0.2019-0.1467-0.4035-0.2201-0.6052c1.8436-0.2345,3.2794-1.7958,3.2794-3.7025   v-5.1255c0-2.0679-1.6826-3.75-3.75-3.75h-4.0415c-0.2526-0.7189-0.4924-1.4057-0.7156-2.0498h31.2571   c1.8301,0,3.3193-1.4888,3.3193-3.3188V125.356c0-1.8301-1.4893-3.3188-3.3193-3.3188h-47.1443   c-0.4897-0.5082-0.9486-0.9878-1.3499-1.4077c-0.2603-0.2724-0.5068-0.5303-0.7385-0.772h1.0159c2.0674,0,3.75-1.6821,3.75-3.75   V98.1279c0-2.0679-1.6826-3.75-3.75-3.75h-17.9795c-2.0674,0-3.75,1.6821-3.75,3.75v13.2659   c-0.3953-0.0729-0.7697-0.1447-1.1084-0.215V98.1279c0-2.0679-1.6826-3.75-3.75-3.75h-17.9795c-2.0674,0-3.75,1.6821-3.75,3.75   v5.9262c-0.3433-0.1244-0.7141-0.1858-1.1084-0.1862v-5.7401c0-2.0679-1.6826-3.75-3.75-3.75h-17.9795   c-2.0674,0-3.75,1.6821-3.75,3.75v7.6447c-0.0134,0.0041-0.0286,0.0085-0.042,0.0125c-0.2965,0.0897-0.6643,0.261-1.0664,0.4899   v-8.1471c0-2.0679-1.6826-3.75-3.75-3.75h-17.9795c-2.0674,0-3.75,1.6821-3.75,3.75v17.9795c0,1.9238,1.4617,3.4952,3.3291,3.7075   c0.1304,0.7064,0.2922,1.4489,0.4834,2.2222h-13.3564c-2.0674,0-3.75,1.6821-3.75,3.75v17.979c0,2.0679,1.6826,3.75,3.75,3.75   h1.5251c-0.3376,0.2126-0.6246,0.5038-0.8142,0.8677c-0.2075,0.3981-0.3811,0.8942-0.5337,1.4414h-62.1396   c-0.1526-0.5472-0.3262-1.0433-0.5337-1.4414c-0.1896-0.3639-0.4766-0.655-0.8142-0.8677h1.5251c2.0674,0,3.75-1.6821,3.75-3.75   v-17.979c0-2.0679-1.6826-3.75-3.75-3.75h-13.3564c0.1912-0.7734,0.353-1.5158,0.4834-2.2222   c1.8674-0.2123,3.3291-1.7837,3.3291-3.7075V98.1279c0-2.0679-1.6826-3.75-3.75-3.75h-17.9795c-2.0674,0-3.75,1.6821-3.75,3.75   v8.1468c-0.4017-0.2286-0.7693-0.4-1.0654-0.4896c-0.0137-0.0042-0.0292-0.0087-0.043-0.0128v-7.6444   c0-2.0679-1.6826-3.75-3.75-3.75h-17.9795c-2.0674,0-3.75,1.6821-3.75,3.75v5.7402c-0.3944,0.0001-0.7651,0.0615-1.1084,0.1859   v-5.9261c0-2.0679-1.6826-3.75-3.75-3.75H93.2334c-2.0674,0-3.75,1.6821-3.75,3.75v13.0509   c-0.3387,0.0703-0.7131,0.1422-1.1084,0.215V98.1279c0-2.0679-1.6826-3.75-3.75-3.75H66.6455c-2.0674,0-3.75,1.6821-3.75,3.75   v17.9795c0,2.0679,1.6826,3.75,3.75,3.75h1.0159c-0.2317,0.2416-0.4783,0.4996-0.7385,0.772   c-0.4012,0.4199-0.8601,0.8995-1.3499,1.4077H18.4287c-1.8301,0-3.3193,1.4888-3.3193,3.3188v18.8413   c0,1.8301,1.4893,3.3188,3.3193,3.3188h31.2571c-0.2499,0.7215-0.5203,1.4947-0.8068,2.3091h-3.4318   c-2.0674,0-3.75,1.6821-3.75,3.75v16.127c-1.2273,3.3448-2.3848,6.4809-3.3389,9.0541c-0.7969,1.7606-1.2971,4.6617-1.5029,8.7739   H13.5596c-5.2715,0-9.5596-4.2886-9.5596-9.5596V13.5596z M372.1648,160.6914c-1.2384-3.4147-2.4326-6.7352-3.4556-9.6255h3.5125   c1.2402,0,2.25,1.0093,2.25,2.25v5.1255c0,1.2407-1.0098,2.25-2.25,2.25H372.1648z M374.4717,167.0233   c-0.2845-0.778-0.5708-1.5614-0.8575-2.3475c0.5182,0.4125,0.8575,1.041,0.8575,1.7534V167.0233z M365.6699,142.0137   c-0.2051-0.8188-0.3818-1.6738-0.5605-2.5308c-0.7988-3.8398-1.7041-8.1919-5.2471-9.9639   c-1.5298-0.7642-4.3669-3.4841-6.8252-5.9819h45.6846c1.0029,0,1.8193,0.8159,1.8193,1.8188v18.8413   c0,1.0029-0.8164,1.8188-1.8193,1.8188h-31.7726C366.293,144.0912,365.8345,142.6724,365.6699,142.0137z M347.835,118.1821   c-2.1797-2.0435-7.0088-5.1001-10.4053-5.5249l-0.2676-0.0337c-2.7446-0.3422-5.0374-0.6655-6.8867-0.9694V98.1279   c0-1.2407,1.0098-2.25,2.25-2.25h17.9795c1.2402,0,2.25,1.0093,2.25,2.25v17.9795c0,1.2407-1.0098,2.25-2.25,2.25h-2.4897   C347.9565,118.3007,347.8876,118.2314,347.835,118.1821z M306.5479,164.5127c-0.5247,0.2894-1.0516,0.5925-1.5387,0.8915   c-2.1417-3.4773-4.2179-6.8544-5.7377-9.3393v-2.4897c0-1.1764,0.9109-2.1337,2.0621-2.231   C303.4377,155.8195,305.9332,161.7054,306.5479,164.5127z M300.6611,149.9344c-1.6526,0.3912-2.8896,1.8702-2.8896,3.6408v0.028   c-0.355-0.5859-0.6204-1.0283-0.7666-1.2789c-0.249-0.4263-0.5801-1.0044-0.9727-1.6885c-0.5903-1.0297-1.1943-2.079-1.7998-3.1196   h5.2168C299.8048,148.1951,300.2163,149.0156,300.6611,149.9344z M272.9912,107.2875c-0.7141,0.5511-1.4044,1.1861-1.9197,1.8121   c-1.1013,1.0701-1.9211,2.3586-1.9211,3.8359c0,0.141,0.0249,0.2877,0.0378,0.4316c-1.7266-1.5145-3.5251-2.8337-4.8542-3.166   c-0.5046-0.1262-1.1426-0.2297-1.855-0.2934c-0.9126-0.2333-1.8096-0.3704-2.6313-0.3961c-2.4761-0.0879-5.1038,1.092-6.243,2.7316   c-0.4833,0.4705-0.9008,1.0145-1.2072,1.6639c-0.4574,0.9695-0.5259,2.4758-0.3005,4.3385   c-0.9146-0.2856-1.5852-1.1306-1.5852-2.1383V98.1279c0-1.2407,1.0098-2.25,2.25-2.25h17.9795c1.2402,0,2.25,1.0093,2.25,2.25   V107.2875z M276.4258,108.6567c0.8203-0.248,1.6582-0.5015,2.541-0.5869c-1.5303,1.332-2.3506,1.8398-2.5986,1.9165   c-0.4346,0.126-1.1904,0.0908-1.9473-0.0068C275.1094,109.3872,275.9072,108.8135,276.4258,108.6567z M256.0518,113.9487   c0.3389-0.5259,1.9971-1.4893,3.7021-1.439c2.1514,0.0674,5.1455,1.0991,6.7471,3.2041c0.0605,0.1846,0.1172,0.4028,0.1504,0.5864   c-1.4043,0.4927-5.1963,1.2686-5.9775,1.2686c-0.0137,0-0.0264-0.0005-0.0391-0.001   C259.8174,117.3442,256.7695,115.0728,256.0518,113.9487z M278.0752,123.5371c1.4546,0.8087,2.9978,1.4915,4.5723,1.9717   c1.1287,1.1102,2.3875,2.3851,3.6377,3.6886v6.4045c-2.0295-2.5963-5.3954-7.5728-7.9609-11.3676   c-0.1677-0.248-0.3158-0.4668-0.4717-0.6973H278.0752z M293.354,146.0161c-1.0189-1.7303-2.0239-3.393-2.9604-4.8604v-7.4978   c1.5457,1.7693,2.7178,3.2624,3.043,4.0272c1.2832,3.021,3.6562,6.8296,5.0156,8.0859c0.0471,0.0667,0.1018,0.1513,0.1604,0.2451   H293.354z M288.8936,138.8983c-0.3943-0.564-0.7653-1.0654-1.1084-1.4938v-6.624c0.3781,0.4045,0.7471,0.8046,1.1084,1.2004   V138.8983z M282.1475,105.272c-0.9431-0.6743-2.3989-0.5624-3.9048-0.1344c-0.4011,0.0562-0.7789,0.1356-1.1431,0.2219v-7.2316   c0-1.2407,1.0098-2.25,2.25-2.25h17.9795c1.2402,0,2.25,1.0093,2.25,2.25v5.613c-2.1772-0.0447-4.6497,1.6328-6.0691,2.8068   c-1.4114-0.3824-2.7882-0.6232-3.8225-0.6879c-0.5947-0.0371-1.3164-0.062-2.0898-0.0884   C286.0771,105.7202,282.9365,105.6138,282.1475,105.272z M299.0151,109.1057c-0.5479-0.487-1.2734-0.9316-2.0984-1.3253   c0.98-0.6118,2.0088-1.0902,2.6389-1.046c0.8428,0.0483,2.1455,0.3306,3.3262,0.6294c-0.418,0.376-0.7959,0.6577-1.04,0.7441   L299.0151,109.1057z M303.6875,104.3889v-6.2609c0-1.2407,1.0098-2.25,2.25-2.25h17.9795c1.2402,0,2.25,1.0093,2.25,2.25v12.6974   c-0.4208-0.1152-0.7517-0.2263-0.9973-0.3334c-2.363-1.6759-4.5385-3.037-5.9988-3.5643   c-2.6865-0.9702-7.6279-1.5625-11.5986-2.0381C306.2607,104.7325,304.7527,104.5513,303.6875,104.3889z M272.6836,167.9224   c0.8091,1.8691,1.6489,3.8631,2.4833,5.8823h-0.2333c-1.2402,0-2.25-1.0093-2.25-2.25V167.9224z M274.9336,175.3047h0.8502   c1.8441,4.5027,3.6041,8.9707,4.8541,12.2256h-17.0813c-1.094-1.7025-2.1841-3.1942-3.1426-4.1929   c0.3088-1.5481,0.8011-4.4606,0.9993-8.0327h5.1462c1.8301,0,3.3193-1.4888,3.3193-3.3188V161.735   c0.4078,0.8414,0.8453,1.7802,1.3047,2.7941v7.0255C271.1836,173.6226,272.8662,175.3047,274.9336,175.3047z M282.3682,192.1787   c0.7383,2.2139,0.7646,4.1499,0.6318,5.0337c-0.3789,0.0435-0.8711,0.0859-1.2998,0.1235   c-3.2451,0.2817-8.4863,0.7363-11.6846,3.5918c-0.2789-1.7077-2.001-5.5907-4.0913-9.3975h16.2163   C282.2362,191.7959,282.3154,192.0208,282.3682,192.1787z M255.053,151.3252h9.6969c1.0338,2.3097,2.2714,4.9223,3.629,7.4916   v13.169c0,1.0029-0.8164,1.8188-1.8193,1.8188h-5.0815C261.6808,166.7765,260.5977,157.748,255.053,151.3252z M264.0868,149.8252   H253.626c-0.4155-0.3948-0.845-0.781-1.3027-1.1484c-0.5397-0.433-1.0608-0.8131-1.5708-1.1606h6.6948   c2.0674,0,3.75-1.6821,3.75-3.75v-0.6623c0.1777,0.3405,0.355,0.6759,0.5312,1.0036   C261.9424,144.6641,262.8047,146.8804,264.0868,149.8252z M244.1436,161.9751c-0.3721,0.2041-1.2891,0.436-1.8496,0.4644   c-0.3584-1.978-0.6953-8.4189,0.1592-11.6221c1.7275,2.0059,2.7842,3.916,2.876,5.2373   C245.5303,158.9756,244.5,161.4434,244.1436,161.9751z M235.8164,173.8047H181.334c-0.0037-0.0049-0.0071-0.0112-0.0107-0.0161   c-1.1699-1.5396-3.1719-7.8799-3.2451-10.2783c-0.0078-0.27,0.0303-0.936,0.0703-1.6411c0.1367-2.3774,0.3312-5.7819-0.0881-8.8835   c-0.0591-0.5767-0.1318-1.1342-0.2223-1.6605h61.4744c-0.0905,0.5262-0.1632,1.0839-0.2223,1.6605   c-0.4193,3.1016-0.2249,6.506-0.0881,8.8835c0.04,0.7051,0.0781,1.3711,0.0703,1.6401c-0.0732,2.3994-2.0752,8.7397-3.2451,10.2793   C235.8235,173.7935,235.8201,173.7998,235.8164,173.8047z M233.8341,187.5303H183.317c0.9022-3.9327,0.2205-9.1628-1.1393-12.2256   h52.7949C233.613,178.3673,232.9312,183.5974,233.8341,187.5303z M173.0068,161.9746c-0.3564-0.5317-1.3857-2.999-1.1855-5.9199   c0.0918-1.3213,1.1494-3.2314,2.875-5.2373c0.8555,3.2031,0.5186,9.644,0.1602,11.6221   C174.2959,162.4111,173.3789,162.1792,173.0068,161.9746z M163.5244,149.8252h-10.4608c1.2821-2.9448,2.1444-5.1611,2.3583-5.7178   c0.1763-0.3277,0.3535-0.6631,0.5312-1.0036v0.6623c0,2.0679,1.6826,3.75,3.75,3.75h6.6948   c-0.51,0.3475-1.0311,0.7277-1.5708,1.1606C164.3694,149.0442,163.9399,149.4304,163.5244,149.8252z M155.6724,173.8047h-13.6888   c2.3549-5.6991,4.7642-11.2307,6.3505-14.1641c1.5298-2.8276,2.9221-5.7585,4.0665-8.3154h9.6969   C156.5527,157.748,155.4696,166.7765,155.6724,173.8047z M156.7363,183.3374c-0.9586,0.9986-2.0488,2.4904-3.1428,4.1929h-17.0811   c1.2502-3.255,3.01-7.7229,4.8542-12.2256h14.3704C155.9352,178.8768,156.4275,181.7893,156.7363,183.3374z M134.1504,197.2124   c-0.1328-0.8838-0.1064-2.8198,0.6318-5.0332c0.0527-0.158,0.1321-0.3831,0.2275-0.6489h16.2161   c-2.0901,3.8065-3.8118,7.6893-4.0901,9.3975c-3.1992-2.8555-8.4404-3.3101-11.6855-3.5918   C135.0215,197.2983,134.5293,197.2559,134.1504,197.2124z M174.4451,146.0161c-0.0383-0.0211-0.0701-0.0502-0.1091-0.0703   c-1.5066-0.7765-3.2373-0.7457-5.2217,0.0703h-9.4111c-1.2402,0-2.25-1.0093-2.25-2.25v-3.6496   c2.5549-5.2842,5.042-11.4392,6.4771-16.5794h13.7524c1.2402,0,2.25,1.0093,2.25,2.25v17.979c0,1.2407-1.0098,2.25-2.25,2.25   H174.4451z M259.6973,143.7661c0,1.2407-1.0098,2.25-2.25,2.25h-9.4119c-1.984-0.8155-3.7146-0.8461-5.2209-0.0703   c-0.0391,0.0201-0.0708,0.0493-0.1091,0.0703h-3.2375c-1.2402,0-2.25-1.0093-2.25-2.25v-17.979c0-1.2407,1.0098-2.25,2.25-2.25   h13.7524c1.4351,5.1402,3.9221,11.2952,6.4771,16.5793V143.7661z M120.1455,152.3247c-0.004,0.007-0.0112,0.0189-0.0154,0.0261   c-0.5106-1.465-1.8911-2.5256-3.5276-2.5256h-0.0604c0.4244-0.8744,0.8175-1.6575,1.1588-2.3091h5.217   c-0.6055,1.0406-1.2095,2.0899-1.7998,3.1196C120.7256,151.3198,120.3945,151.8979,120.1455,152.3247z M118.8525,154.47   c-1.5193,2.4952-4.0643,6.6367-6.7112,10.9343c-0.4871-0.2991-1.0142-0.6021-1.5388-0.8915   c0.6155-2.8112,3.1169-8.7099,5.2229-13.1875h0.7771c1.2402,0,2.25,1.0093,2.25,2.25V154.47z M69.1348,118.3574h-2.4893   c-1.2402,0-2.25-1.0093-2.25-2.25V98.1279c0-1.2407,1.0098-2.25,2.25-2.25H84.625c1.2402,0,2.25,1.0093,2.25,2.25v13.5262   c-1.8494,0.3039-4.1421,0.6273-6.8867,0.9694l-0.2676,0.0337c-3.3965,0.4248-8.2256,3.4814-10.4062,5.5254   C69.2621,118.2317,69.1934,118.3008,69.1348,118.3574z M91.981,110.4919c-0.2456,0.1071-0.5767,0.2182-0.9976,0.3334V98.1279   c0-1.2407,1.0098-2.25,2.25-2.25h17.9795c1.2402,0,2.25,1.0093,2.25,2.25v6.2609c-1.0652,0.1625-2.5732,0.3437-3.8848,0.5008   c-3.9707,0.4756-8.9121,1.0679-11.5977,2.0376C96.5198,107.4547,94.3442,108.8159,91.981,110.4919z M115.3086,108.1079   c-0.2441-0.0864-0.6221-0.3682-1.04-0.7441c1.1807-0.2988,2.4834-0.5811,3.3262-0.6294c0.0234-0.0015,0.0488-0.002,0.0742-0.002   c0.6523,0,1.6365,0.4603,2.5714,1.0446c-0.828,0.3947-1.556,0.8403-2.1051,1.3286L115.3086,108.1079z M123.6375,106.5485   c-1.4238-1.173-3.9021-2.8491-6.0662-2.8074v-5.6132c0-1.2407,1.0098-2.25,2.25-2.25h17.9795c1.2402,0,2.25,1.0093,2.25,2.25   v7.2318c-0.3623-0.0858-0.7382-0.1648-1.1368-0.2208c-1.5082-0.4295-2.9667-0.5422-3.911,0.133   c-0.7891,0.3418-3.9297,0.4482-5.4502,0.4995c-0.7734,0.0264-1.4951,0.0513-2.0898,0.0884   C126.4279,105.9246,125.0498,106.1656,123.6375,106.5485z M164.7529,113.9072c-0.3066-0.6505-0.7249-1.1951-1.2091-1.666   c-1.1425-1.6384-3.7957-2.8168-6.2411-2.7295c-0.8231,0.0257-1.7217,0.1633-2.6357,0.3973   c-0.7104,0.0637-1.3467,0.1667-1.8506,0.2921c-1.3291,0.3323-3.1277,1.6516-4.8542,3.166c0.0129-0.144,0.0378-0.2906,0.0378-0.4316   c0-1.4771-0.8198-2.7656-1.9209-3.8357c-0.5154-0.6262-1.2058-1.2614-1.9199-1.8125v-9.1594c0-1.2407,1.0098-2.25,2.25-2.25   h17.9795c1.2402,0,2.25,1.0093,2.25,2.25v17.9795c0,1.0078-0.6707,1.8527-1.5852,2.1383   C165.2788,116.3831,165.2103,114.8768,164.7529,113.9072z M140.7256,108.6572c0.5176,0.1562,1.3154,0.73,2.0039,1.3223   c-0.7559,0.0962-1.5127,0.1323-1.9463,0.0073c-0.249-0.0771-1.0693-0.585-2.6006-1.917   C139.0664,108.1553,139.9043,108.4087,140.7256,108.6572z M126.7568,141.156c-0.9366,1.4673-1.9415,3.1299-2.9604,4.8601h-5.2587   c0.0587-0.0939,0.1134-0.1785,0.1605-0.2451c1.3594-1.2563,3.7324-5.0649,5.0156-8.085c0.3252-0.7651,1.4973-2.2584,3.043-4.0279   V141.156z M128.2568,131.9809c0.3613-0.3958,0.7303-0.7958,1.1084-1.2003v6.6249c-0.3433,0.4283-0.7141,0.9297-1.1084,1.4934   V131.9809z M130.8652,129.1974c1.2502-1.3035,2.509-2.5784,3.6377-3.6886c1.5745-0.4802,3.1177-1.163,4.5723-1.9717h0.2227   c-0.1559,0.2305-0.304,0.4492-0.4717,0.6973c-2.5658,3.7952-5.9319,8.7722-7.9609,11.3683V129.1974z M150.499,116.3003   c0.0312-0.1772,0.0859-0.3916,0.1514-0.5874c1.6016-2.104,4.5947-3.1357,6.7461-3.2031c1.7217-0.0469,3.3643,0.9131,3.7021,1.439   c-0.7188,1.1245-3.7617,3.3945-4.4922,3.605C155.8193,117.603,151.9297,116.8018,150.499,116.3003z M52.041,139.4829   c-0.1787,0.8569-0.3555,1.7119-0.5605,2.5308c-0.1646,0.6587-0.623,2.0776-1.2792,4.0024H18.4287   c-1.0029,0-1.8193-0.8159-1.8193-1.8188V125.356c0-1.0029,0.8164-1.8188,1.8193-1.8188h45.6846   c-2.4581,2.4979-5.2954,5.2179-6.8252,5.9824C53.7451,131.291,52.8398,135.6431,52.041,139.4829z M48.3491,151.3252   c-1.4954,4.2208-3.3408,9.3201-5.1519,14.2794v-12.0294c0-1.2407,1.0098-2.25,2.25-2.25H48.3491z"/><path d="M18.8594,32.0566h19.0791c2.0674,0,3.75-1.6821,3.75-3.75v-8.3311c0-2.0679-1.6826-3.75-3.75-3.75H18.8594   c-2.0674,0-3.75,1.6821-3.75,3.75v8.3311C15.1094,30.3745,16.792,32.0566,18.8594,32.0566z M16.6094,19.9756   c0-1.2407,1.0098-2.25,2.25-2.25h19.0791c1.2402,0,2.25,1.0093,2.25,2.25v8.3311c0,1.2407-1.0098,2.25-2.25,2.25H18.8594   c-1.2402,0-2.25-1.0093-2.25-2.25V19.9756z"/><path d="M46.5791,32.0566h19.0791c2.0674,0,3.75-1.6821,3.75-3.75v-8.3311c0-2.0679-1.6826-3.75-3.75-3.75H46.5791   c-2.0674,0-3.75,1.6821-3.75,3.75v8.3311C42.8291,30.3745,44.5117,32.0566,46.5791,32.0566z M44.3291,19.9756   c0-1.2407,1.0098-2.25,2.25-2.25h19.0791c1.2402,0,2.25,1.0093,2.25,2.25v8.3311c0,1.2407-1.0098,2.25-2.25,2.25H46.5791   c-1.2402,0-2.25-1.0093-2.25-2.25V19.9756z"/><path d="M74.2979,32.0566h19.0801c2.0674,0,3.75-1.6821,3.75-3.75v-8.3311c0-2.0679-1.6826-3.75-3.75-3.75H74.2979   c-2.0674,0-3.75,1.6821-3.75,3.75v8.3311C70.5479,30.3745,72.2305,32.0566,74.2979,32.0566z M72.0479,19.9756   c0-1.2407,1.0098-2.25,2.25-2.25h19.0801c1.2402,0,2.25,1.0093,2.25,2.25v8.3311c0,1.2407-1.0098,2.25-2.25,2.25H74.2979   c-1.2402,0-2.25-1.0093-2.25-2.25V19.9756z"/><path d="M102.0176,32.0566h19.0791c2.0674,0,3.75-1.6821,3.75-3.75v-8.3311c0-2.0679-1.6826-3.75-3.75-3.75h-19.0791   c-2.0674,0-3.75,1.6821-3.75,3.75v8.3311C98.2676,30.3745,99.9502,32.0566,102.0176,32.0566z M99.7676,19.9756   c0-1.2407,1.0098-2.25,2.25-2.25h19.0791c1.2402,0,2.25,1.0093,2.25,2.25v8.3311c0,1.2407-1.0098,2.25-2.25,2.25h-19.0791   c-1.2402,0-2.25-1.0093-2.25-2.25V19.9756z"/><path d="M129.7373,32.0566h19.0791c2.0674,0,3.75-1.6821,3.75-3.75v-8.3311c0-2.0679-1.6826-3.75-3.75-3.75h-19.0791   c-2.0674,0-3.75,1.6821-3.75,3.75v8.3311C125.9873,30.3745,127.6699,32.0566,129.7373,32.0566z M127.4873,19.9756   c0-1.2407,1.0098-2.25,2.25-2.25h19.0791c1.2402,0,2.25,1.0093,2.25,2.25v8.3311c0,1.2407-1.0098,2.25-2.25,2.25h-19.0791   c-1.2402,0-2.25-1.0093-2.25-2.25V19.9756z"/><path d="M157.4561,32.0566h19.0801c2.0674,0,3.75-1.6821,3.75-3.75v-8.3311c0-2.0679-1.6826-3.75-3.75-3.75h-19.0801   c-2.0674,0-3.75,1.6821-3.75,3.75v8.3311C153.7061,30.3745,155.3887,32.0566,157.4561,32.0566z M155.2061,19.9756   c0-1.2407,1.0098-2.25,2.25-2.25h19.0801c1.2402,0,2.25,1.0093,2.25,2.25v8.3311c0,1.2407-1.0098,2.25-2.25,2.25h-19.0801   c-1.2402,0-2.25-1.0093-2.25-2.25V19.9756z"/><path d="M185.1758,32.0566h19.0791c2.0674,0,3.75-1.6821,3.75-3.75v-8.3311c0-2.0679-1.6826-3.75-3.75-3.75h-19.0791   c-2.0674,0-3.75,1.6821-3.75,3.75v8.3311C181.4258,30.3745,183.1084,32.0566,185.1758,32.0566z M182.9258,19.9756   c0-1.2407,1.0098-2.25,2.25-2.25h19.0791c1.2402,0,2.25,1.0093,2.25,2.25v8.3311c0,1.2407-1.0098,2.25-2.25,2.25h-19.0791   c-1.2402,0-2.25-1.0093-2.25-2.25V19.9756z"/><path d="M212.8955,32.0566h19.0791c2.0674,0,3.75-1.6821,3.75-3.75v-8.3311c0-2.0679-1.6826-3.75-3.75-3.75h-19.0791   c-2.0674,0-3.75,1.6821-3.75,3.75v8.3311C209.1455,30.3745,210.8281,32.0566,212.8955,32.0566z M210.6455,19.9756   c0-1.2407,1.0098-2.25,2.25-2.25h19.0791c1.2402,0,2.25,1.0093,2.25,2.25v8.3311c0,1.2407-1.0098,2.25-2.25,2.25h-19.0791   c-1.2402,0-2.25-1.0093-2.25-2.25V19.9756z"/><path d="M240.6143,32.0566h19.0801c2.0674,0,3.75-1.6821,3.75-3.75v-8.3311c0-2.0679-1.6826-3.75-3.75-3.75h-19.0801   c-2.0674,0-3.75,1.6821-3.75,3.75v8.3311C236.8643,30.3745,238.5469,32.0566,240.6143,32.0566z M238.3643,19.9756   c0-1.2407,1.0098-2.25,2.25-2.25h19.0801c1.2402,0,2.25,1.0093,2.25,2.25v8.3311c0,1.2407-1.0098,2.25-2.25,2.25h-19.0801   c-1.2402,0-2.25-1.0093-2.25-2.25V19.9756z"/><path d="M268.334,32.0566h19.0791c2.0674,0,3.75-1.6821,3.75-3.75v-8.3311c0-2.0679-1.6826-3.75-3.75-3.75H268.334   c-2.0674,0-3.75,1.6821-3.75,3.75v8.3311C264.584,30.3745,266.2666,32.0566,268.334,32.0566z M266.084,19.9756   c0-1.2407,1.0098-2.25,2.25-2.25h19.0791c1.2402,0,2.25,1.0093,2.25,2.25v8.3311c0,1.2407-1.0098,2.25-2.25,2.25H268.334   c-1.2402,0-2.25-1.0093-2.25-2.25V19.9756z"/><path d="M296.0537,32.0566h19.0791c2.0674,0,3.75-1.6821,3.75-3.75v-8.3311c0-2.0679-1.6826-3.75-3.75-3.75h-19.0791   c-2.0674,0-3.75,1.6821-3.75,3.75v8.3311C292.3037,30.3745,293.9863,32.0566,296.0537,32.0566z M293.8037,19.9756   c0-1.2407,1.0098-2.25,2.25-2.25h19.0791c1.2402,0,2.25,1.0093,2.25,2.25v8.3311c0,1.2407-1.0098,2.25-2.25,2.25h-19.0791   c-1.2402,0-2.25-1.0093-2.25-2.25V19.9756z"/><path d="M323.7725,32.0566h19.0801c2.0674,0,3.75-1.6821,3.75-3.75v-8.3311c0-2.0679-1.6826-3.75-3.75-3.75h-19.0801   c-2.0674,0-3.75,1.6821-3.75,3.75v8.3311C320.0225,30.3745,321.7051,32.0566,323.7725,32.0566z M321.5225,19.9756   c0-1.2407,1.0098-2.25,2.25-2.25h19.0801c1.2402,0,2.25,1.0093,2.25,2.25v8.3311c0,1.2407-1.0098,2.25-2.25,2.25h-19.0801   c-1.2402,0-2.25-1.0093-2.25-2.25V19.9756z"/><path d="M351.4922,32.0566h19.0791c2.0674,0,3.75-1.6821,3.75-3.75v-8.3311c0-2.0679-1.6826-3.75-3.75-3.75h-19.0791   c-2.0674,0-3.75,1.6821-3.75,3.75v8.3311C347.7422,30.3745,349.4248,32.0566,351.4922,32.0566z M349.2422,19.9756   c0-1.2407,1.0098-2.25,2.25-2.25h19.0791c1.2402,0,2.25,1.0093,2.25,2.25v8.3311c0,1.2407-1.0098,2.25-2.25,2.25h-19.0791   c-1.2402,0-2.25-1.0093-2.25-2.25V19.9756z"/><path d="M379.2119,32.0566h19.0791c2.0674,0,3.75-1.6821,3.75-3.75v-8.3311c0-2.0679-1.6826-3.75-3.75-3.75h-19.0791   c-2.0674,0-3.75,1.6821-3.75,3.75v8.3311C375.4619,30.3745,377.1445,32.0566,379.2119,32.0566z M376.9619,19.9756   c0-1.2407,1.0098-2.25,2.25-2.25h19.0791c1.2402,0,2.25,1.0093,2.25,2.25v8.3311c0,1.2407-1.0098,2.25-2.25,2.25h-19.0791   c-1.2402,0-2.25-1.0093-2.25-2.25V19.9756z"/><path d="M18.8594,64.5396h17.9795c2.0674,0,3.75-1.6821,3.75-3.75V42.8101c0-2.0679-1.6826-3.75-3.75-3.75H18.8594   c-2.0674,0-3.75,1.6821-3.75,3.75v17.9795C15.1094,62.8574,16.792,64.5396,18.8594,64.5396z M16.6094,42.8101   c0-1.2407,1.0098-2.25,2.25-2.25h17.9795c1.2402,0,2.25,1.0093,2.25,2.25v17.9795c0,1.2407-1.0098,2.25-2.25,2.25H18.8594   c-1.2402,0-2.25-1.0093-2.25-2.25V42.8101z"/><path d="M45.4473,64.5396h17.9795c2.0674,0,3.75-1.6821,3.75-3.75V42.8101c0-2.0679-1.6826-3.75-3.75-3.75H45.4473   c-2.0674,0-3.75,1.6821-3.75,3.75v17.9795C41.6973,62.8574,43.3799,64.5396,45.4473,64.5396z M43.1973,42.8101   c0-1.2407,1.0098-2.25,2.25-2.25h17.9795c1.2402,0,2.25,1.0093,2.25,2.25v17.9795c0,1.2407-1.0098,2.25-2.25,2.25H45.4473   c-1.2402,0-2.25-1.0093-2.25-2.25V42.8101z"/><path d="M90.0146,64.5396c2.0674,0,3.75-1.6821,3.75-3.75V42.8101c0-2.0679-1.6826-3.75-3.75-3.75H72.0352   c-2.0674,0-3.75,1.6821-3.75,3.75v17.9795c0,2.0679,1.6826,3.75,3.75,3.75H90.0146z M69.7852,60.7896V42.8101   c0-1.2407,1.0098-2.25,2.25-2.25h17.9795c1.2402,0,2.25,1.0093,2.25,2.25v17.9795c0,1.2407-1.0098,2.25-2.25,2.25H72.0352   C70.7949,63.0396,69.7852,62.0303,69.7852,60.7896z"/><path d="M116.6025,64.5396c2.0674,0,3.75-1.6821,3.75-3.75V42.8101c0-2.0679-1.6826-3.75-3.75-3.75H98.623   c-2.0674,0-3.75,1.6821-3.75,3.75v17.9795c0,2.0679,1.6826,3.75,3.75,3.75H116.6025z M96.373,60.7896V42.8101   c0-1.2407,1.0098-2.25,2.25-2.25h17.9795c1.2402,0,2.25,1.0093,2.25,2.25v17.9795c0,1.2407-1.0098,2.25-2.25,2.25H98.623   C97.3828,63.0396,96.373,62.0303,96.373,60.7896z"/><path d="M121.4609,42.8101v17.9795c0,2.0679,1.6826,3.75,3.75,3.75h17.9795c2.0674,0,3.75-1.6821,3.75-3.75V42.8101   c0-2.0679-1.6826-3.75-3.75-3.75h-17.9795C123.1436,39.0601,121.4609,40.7422,121.4609,42.8101z M122.9609,42.8101   c0-1.2407,1.0098-2.25,2.25-2.25h17.9795c1.2402,0,2.25,1.0093,2.25,2.25v17.9795c0,1.2407-1.0098,2.25-2.25,2.25h-17.9795   c-1.2402,0-2.25-1.0093-2.25-2.25V42.8101z"/><path d="M169.7793,64.5396c2.0674,0,3.75-1.6821,3.75-3.75V42.8101c0-2.0679-1.6826-3.75-3.75-3.75h-17.9795   c-2.0674,0-3.75,1.6821-3.75,3.75v17.9795c0,2.0679,1.6826,3.75,3.75,3.75H169.7793z M149.5498,60.7896V42.8101   c0-1.2407,1.0098-2.25,2.25-2.25h17.9795c1.2402,0,2.25,1.0093,2.25,2.25v17.9795c0,1.2407-1.0098,2.25-2.25,2.25h-17.9795   C150.5596,63.0396,149.5498,62.0303,149.5498,60.7896z"/><path d="M196.3672,39.0601h-17.9795c-2.0674,0-3.75,1.6821-3.75,3.75v17.9795c0,2.0679,1.6826,3.75,3.75,3.75h17.9795   c2.0674,0,3.75-1.6821,3.75-3.75V42.8101C200.1172,40.7422,198.4346,39.0601,196.3672,39.0601z M198.6172,60.7896   c0,1.2407-1.0098,2.25-2.25,2.25h-17.9795c-1.2402,0-2.25-1.0093-2.25-2.25V42.8101c0-1.2407,1.0098-2.25,2.25-2.25h17.9795   c1.2402,0,2.25,1.0093,2.25,2.25V60.7896z"/><path d="M222.9551,39.0601h-17.9795c-2.0674,0-3.75,1.6821-3.75,3.75v17.9795c0,2.0679,1.6826,3.75,3.75,3.75h17.9795   c2.0674,0,3.75-1.6821,3.75-3.75V42.8101C226.7051,40.7422,225.0225,39.0601,222.9551,39.0601z M225.2051,60.7896   c0,1.2407-1.0098,2.25-2.25,2.25h-17.9795c-1.2402,0-2.25-1.0093-2.25-2.25V42.8101c0-1.2407,1.0098-2.25,2.25-2.25h17.9795   c1.2402,0,2.25,1.0093,2.25,2.25V60.7896z"/><path d="M249.543,64.5396c2.0674,0,3.75-1.6821,3.75-3.75V42.8101c0-2.0679-1.6826-3.75-3.75-3.75h-17.9795   c-2.0674,0-3.75,1.6821-3.75,3.75v17.9795c0,2.0679,1.6826,3.75,3.75,3.75H249.543z M229.3135,60.7896V42.8101   c0-1.2407,1.0098-2.25,2.25-2.25h17.9795c1.2402,0,2.25,1.0093,2.25,2.25v17.9795c0,1.2407-1.0098,2.25-2.25,2.25h-17.9795   C230.3232,63.0396,229.3135,62.0303,229.3135,60.7896z"/><path d="M276.1309,64.5396c2.0674,0,3.75-1.6821,3.75-3.75V42.8101c0-2.0679-1.6826-3.75-3.75-3.75h-17.9795   c-2.0674,0-3.75,1.6821-3.75,3.75v17.9795c0,2.0679,1.6826,3.75,3.75,3.75H276.1309z M255.9014,60.7896V42.8101   c0-1.2407,1.0098-2.25,2.25-2.25h17.9795c1.2402,0,2.25,1.0093,2.25,2.25v17.9795c0,1.2407-1.0098,2.25-2.25,2.25h-17.9795   C256.9111,63.0396,255.9014,62.0303,255.9014,60.7896z"/><path d="M302.7188,64.5396c2.0674,0,3.75-1.6821,3.75-3.75V42.8101c0-2.0679-1.6826-3.75-3.75-3.75h-17.9795   c-2.0674,0-3.75,1.6821-3.75,3.75v17.9795c0,2.0679,1.6826,3.75,3.75,3.75H302.7188z M282.4893,60.7896V42.8101   c0-1.2407,1.0098-2.25,2.25-2.25h17.9795c1.2402,0,2.25,1.0093,2.25,2.25v17.9795c0,1.2407-1.0098,2.25-2.25,2.25h-17.9795   C283.499,63.0396,282.4893,62.0303,282.4893,60.7896z"/><path d="M329.3066,64.5396c2.0674,0,3.75-1.6821,3.75-3.75V42.8101c0-2.0679-1.6826-3.75-3.75-3.75h-17.9795   c-2.0674,0-3.75,1.6821-3.75,3.75v17.9795c0,2.0679,1.6826,3.75,3.75,3.75H329.3066z M309.0771,60.7896V42.8101   c0-1.2407,1.0098-2.25,2.25-2.25h17.9795c1.2402,0,2.25,1.0093,2.25,2.25v17.9795c0,1.2407-1.0098,2.25-2.25,2.25h-17.9795   C310.0869,63.0396,309.0771,62.0303,309.0771,60.7896z"/><path d="M355.8945,64.5396c2.0674,0,3.75-1.6821,3.75-3.75V42.8101c0-2.0679-1.6826-3.75-3.75-3.75H337.915   c-2.0674,0-3.75,1.6821-3.75,3.75v17.9795c0,2.0679,1.6826,3.75,3.75,3.75H355.8945z M335.665,60.7896V42.8101   c0-1.2407,1.0098-2.25,2.25-2.25h17.9795c1.2402,0,2.25,1.0093,2.25,2.25v17.9795c0,1.2407-1.0098,2.25-2.25,2.25H337.915   C336.6748,63.0396,335.665,62.0303,335.665,60.7896z"/><path d="M398.7217,39.0601h-34.6494c-1.8301,0-3.3193,1.4893-3.3193,3.3193v18.8408c0,1.8301,1.4893,3.3193,3.3193,3.3193h34.6494   c1.8301,0,3.3193-1.4893,3.3193-3.3193V42.3794C402.041,40.5493,400.5518,39.0601,398.7217,39.0601z M400.541,61.2202   c0,1.0034-0.8164,1.8193-1.8193,1.8193h-34.6494c-1.0029,0-1.8193-0.8159-1.8193-1.8193V42.3794   c0-1.0034,0.8164-1.8193,1.8193-1.8193h34.6494c1.0029,0,1.8193,0.8159,1.8193,1.8193V61.2202z"/><path d="M398.291,66.7192h-17.9795c-2.0674,0-3.75,1.6821-3.75,3.75v17.9795c0,2.0679,1.6826,3.75,3.75,3.75h17.9795   c2.0674,0,3.75-1.6821,3.75-3.75V70.4692C402.041,68.4014,400.3584,66.7192,398.291,66.7192z M400.541,88.4487   c0,1.2407-1.0098,2.25-2.25,2.25h-17.9795c-1.2402,0-2.25-1.0093-2.25-2.25V70.4692c0-1.2407,1.0098-2.25,2.25-2.25h17.9795   c1.2402,0,2.25,1.0093,2.25,2.25V88.4487z"/><path d="M375.4531,88.4487V70.4692c0-2.0679-1.6826-3.75-3.75-3.75h-17.9795c-2.0674,0-3.75,1.6821-3.75,3.75v17.9795   c0,2.0679,1.6826,3.75,3.75,3.75h17.9795C373.7705,92.1987,375.4531,90.5166,375.4531,88.4487z M351.4736,88.4487V70.4692   c0-1.2407,1.0098-2.25,2.25-2.25h17.9795c1.2402,0,2.25,1.0093,2.25,2.25v17.9795c0,1.2407-1.0098,2.25-2.25,2.25h-17.9795   C352.4834,90.6987,351.4736,89.6895,351.4736,88.4487z"/><path d="M345.1152,66.7192h-17.9795c-2.0674,0-3.75,1.6821-3.75,3.75v17.9795c0,2.0679,1.6826,3.75,3.75,3.75h17.9795   c2.0674,0,3.75-1.6821,3.75-3.75V70.4692C348.8652,68.4014,347.1826,66.7192,345.1152,66.7192z M347.3652,88.4487   c0,1.2407-1.0098,2.25-2.25,2.25h-17.9795c-1.2402,0-2.25-1.0093-2.25-2.25V70.4692c0-1.2407,1.0098-2.25,2.25-2.25h17.9795   c1.2402,0,2.25,1.0093,2.25,2.25V88.4487z"/><path d="M318.5273,66.7192h-17.9795c-2.0674,0-3.75,1.6821-3.75,3.75v17.9795c0,2.0679,1.6826,3.75,3.75,3.75h17.9795   c2.0674,0,3.75-1.6821,3.75-3.75V70.4692C322.2773,68.4014,320.5947,66.7192,318.5273,66.7192z M320.7773,88.4487   c0,1.2407-1.0098,2.25-2.25,2.25h-17.9795c-1.2402,0-2.25-1.0093-2.25-2.25V70.4692c0-1.2407,1.0098-2.25,2.25-2.25h17.9795   c1.2402,0,2.25,1.0093,2.25,2.25V88.4487z"/><path d="M291.9395,66.7192H273.96c-2.0674,0-3.75,1.6821-3.75,3.75v17.9795c0,2.0679,1.6826,3.75,3.75,3.75h17.9795   c2.0674,0,3.75-1.6821,3.75-3.75V70.4692C295.6895,68.4014,294.0068,66.7192,291.9395,66.7192z M294.1895,88.4487   c0,1.2407-1.0098,2.25-2.25,2.25H273.96c-1.2402,0-2.25-1.0093-2.25-2.25V70.4692c0-1.2407,1.0098-2.25,2.25-2.25h17.9795   c1.2402,0,2.25,1.0093,2.25,2.25V88.4487z"/><path d="M265.3506,66.7192h-17.9785c-2.0674,0-3.75,1.6821-3.75,3.75v17.9795c0,2.0679,1.6826,3.75,3.75,3.75h17.9785   c2.0674,0,3.75-1.6821,3.75-3.75V70.4692C269.1006,68.4014,267.418,66.7192,265.3506,66.7192z M267.6006,88.4487   c0,1.2407-1.0098,2.25-2.25,2.25h-17.9785c-1.2402,0-2.25-1.0093-2.25-2.25V70.4692c0-1.2407,1.0098-2.25,2.25-2.25h17.9785   c1.2402,0,2.25,1.0093,2.25,2.25V88.4487z"/><path d="M217.0332,70.4692v17.9795c0,2.0679,1.6826,3.75,3.75,3.75h17.9795c2.0674,0,3.75-1.6821,3.75-3.75V70.4692   c0-2.0679-1.6826-3.75-3.75-3.75h-17.9795C218.7158,66.7192,217.0332,68.4014,217.0332,70.4692z M241.0127,70.4692v17.9795   c0,1.2407-1.0098,2.25-2.25,2.25h-17.9795c-1.2402,0-2.25-1.0093-2.25-2.25V70.4692c0-1.2407,1.0098-2.25,2.25-2.25h17.9795   C240.0029,68.2192,241.0127,69.2285,241.0127,70.4692z"/><path d="M190.4453,70.4692v17.9795c0,2.0679,1.6826,3.75,3.75,3.75h17.9795c2.0674,0,3.75-1.6821,3.75-3.75V70.4692   c0-2.0679-1.6826-3.75-3.75-3.75h-17.9795C192.1279,66.7192,190.4453,68.4014,190.4453,70.4692z M214.4248,70.4692v17.9795   c0,1.2407-1.0098,2.25-2.25,2.25h-17.9795c-1.2402,0-2.25-1.0093-2.25-2.25V70.4692c0-1.2407,1.0098-2.25,2.25-2.25h17.9795   C213.415,68.2192,214.4248,69.2285,214.4248,70.4692z"/><path d="M189.3369,88.4487V70.4692c0-2.0679-1.6826-3.75-3.75-3.75h-17.9795c-2.0674,0-3.75,1.6821-3.75,3.75v17.9795   c0,2.0679,1.6826,3.75,3.75,3.75h17.9795C187.6543,92.1987,189.3369,90.5166,189.3369,88.4487z M165.3574,88.4487V70.4692   c0-1.2407,1.0098-2.25,2.25-2.25h17.9795c1.2402,0,2.25,1.0093,2.25,2.25v17.9795c0,1.2407-1.0098,2.25-2.25,2.25h-17.9795   C166.3672,90.6987,165.3574,89.6895,165.3574,88.4487z"/><path d="M158.999,66.7192h-17.9795c-2.0674,0-3.75,1.6821-3.75,3.75v17.9795c0,2.0679,1.6826,3.75,3.75,3.75h17.9795   c2.0674,0,3.75-1.6821,3.75-3.75V70.4692C162.749,68.4014,161.0664,66.7192,158.999,66.7192z M161.249,88.4487   c0,1.2407-1.0098,2.25-2.25,2.25h-17.9795c-1.2402,0-2.25-1.0093-2.25-2.25V70.4692c0-1.2407,1.0098-2.25,2.25-2.25h17.9795   c1.2402,0,2.25,1.0093,2.25,2.25V88.4487z"/><path d="M132.4111,66.7192h-17.9795c-2.0674,0-3.75,1.6821-3.75,3.75v17.9795c0,2.0679,1.6826,3.75,3.75,3.75h17.9795   c2.0674,0,3.75-1.6821,3.75-3.75V70.4692C136.1611,68.4014,134.4785,66.7192,132.4111,66.7192z M134.6611,88.4487   c0,1.2407-1.0098,2.25-2.25,2.25h-17.9795c-1.2402,0-2.25-1.0093-2.25-2.25V70.4692c0-1.2407,1.0098-2.25,2.25-2.25h17.9795   c1.2402,0,2.25,1.0093,2.25,2.25V88.4487z"/><path d="M105.8232,66.7192H87.8438c-2.0674,0-3.75,1.6821-3.75,3.75v17.9795c0,2.0679,1.6826,3.75,3.75,3.75h17.9795   c2.0674,0,3.75-1.6821,3.75-3.75V70.4692C109.5732,68.4014,107.8906,66.7192,105.8232,66.7192z M108.0732,88.4487   c0,1.2407-1.0098,2.25-2.25,2.25H87.8438c-1.2402,0-2.25-1.0093-2.25-2.25V70.4692c0-1.2407,1.0098-2.25,2.25-2.25h17.9795   c1.2402,0,2.25,1.0093,2.25,2.25V88.4487z"/><path d="M79.2354,66.7192H61.2559c-2.0674,0-3.75,1.6821-3.75,3.75v17.9795c0,2.0679,1.6826,3.75,3.75,3.75h17.9795   c2.0674,0,3.75-1.6821,3.75-3.75V70.4692C82.9854,68.4014,81.3027,66.7192,79.2354,66.7192z M81.4854,88.4487   c0,1.2407-1.0098,2.25-2.25,2.25H61.2559c-1.2402,0-2.25-1.0093-2.25-2.25V70.4692c0-1.2407,1.0098-2.25,2.25-2.25h17.9795   c1.2402,0,2.25,1.0093,2.25,2.25V88.4487z"/><path d="M18.4287,92.1987h34.6494c1.8301,0,3.3193-1.4893,3.3193-3.3193V70.0381c0-1.8301-1.4893-3.3188-3.3193-3.3188H18.4287   c-1.8301,0-3.3193,1.4888-3.3193,3.3188v18.8413C15.1094,90.7095,16.5986,92.1987,18.4287,92.1987z M16.6094,70.0381   c0-1.0029,0.8164-1.8188,1.8193-1.8188h34.6494c1.0029,0,1.8193,0.8159,1.8193,1.8188v18.8413   c0,1.0034-0.8164,1.8193-1.8193,1.8193H18.4287c-1.0029,0-1.8193-0.8159-1.8193-1.8193V70.0381z"/><path d="M244.1533,94.3779h-17.9795c-2.0674,0-3.75,1.6821-3.75,3.75v17.9795c0,2.0679,1.6826,3.75,3.75,3.75h17.9795   c2.0674,0,3.75-1.6821,3.75-3.75V98.1279C247.9033,96.0601,246.2207,94.3779,244.1533,94.3779z M246.4033,116.1074   c0,1.2407-1.0098,2.25-2.25,2.25h-17.9795c-1.2402,0-2.25-1.0093-2.25-2.25V98.1279c0-1.2407,1.0098-2.25,2.25-2.25h17.9795   c1.2402,0,2.25,1.0093,2.25,2.25V116.1074z"/><path d="M217.5654,94.3779h-17.9795c-2.0674,0-3.75,1.6821-3.75,3.75v17.9795c0,2.0679,1.6826,3.75,3.75,3.75h17.9795   c2.0674,0,3.75-1.6821,3.75-3.75V98.1279C221.3154,96.0601,219.6328,94.3779,217.5654,94.3779z M219.8154,116.1074   c0,1.2407-1.0098,2.25-2.25,2.25h-17.9795c-1.2402,0-2.25-1.0093-2.25-2.25V98.1279c0-1.2407,1.0098-2.25,2.25-2.25h17.9795   c1.2402,0,2.25,1.0093,2.25,2.25V116.1074z"/><path d="M194.7266,116.1074V98.1279c0-2.0679-1.6826-3.75-3.75-3.75h-17.9795c-2.0674,0-3.75,1.6821-3.75,3.75v17.9795   c0,2.0679,1.6826,3.75,3.75,3.75h17.9795C193.0439,119.8574,194.7266,118.1753,194.7266,116.1074z M170.7471,116.1074V98.1279   c0-1.2407,1.0098-2.25,2.25-2.25h17.9795c1.2402,0,2.25,1.0093,2.25,2.25v17.9795c0,1.2407-1.0098,2.25-2.25,2.25h-17.9795   C171.7568,118.3574,170.7471,117.3481,170.7471,116.1074z"/><path d="M18.4287,119.8574h39.918c1.8301,0,3.3193-1.4893,3.3193-3.3193V97.6973c0-1.8301-1.4893-3.3193-3.3193-3.3193h-39.918   c-1.8301,0-3.3193,1.4893-3.3193,3.3193v18.8408C15.1094,118.3682,16.5986,119.8574,18.4287,119.8574z M16.6094,97.6973   c0-1.0034,0.8164-1.8193,1.8193-1.8193h39.918c1.0029,0,1.8193,0.8159,1.8193,1.8193v18.8408c0,1.0034-0.8164,1.8193-1.8193,1.8193   h-39.918c-1.0029,0-1.8193-0.8159-1.8193-1.8193V97.6973z"/><path d="M398.7217,94.3779h-39.918c-1.8301,0-3.3193,1.4893-3.3193,3.3193v18.8408c0,1.8301,1.4893,3.3193,3.3193,3.3193h39.918   c1.8301,0,3.3193-1.4893,3.3193-3.3193V97.6973C402.041,95.8672,400.5518,94.3779,398.7217,94.3779z M400.541,116.5381   c0,1.0034-0.8164,1.8193-1.8193,1.8193h-39.918c-1.0029,0-1.8193-0.8159-1.8193-1.8193V97.6973   c0-1.0034,0.8164-1.8193,1.8193-1.8193h39.918c1.0029,0,1.8193,0.8159,1.8193,1.8193V116.5381z"/><path d="M230.8594,122.0371h-17.9795c-2.0674,0-3.75,1.6821-3.75,3.75v17.979c0,2.0679,1.6826,3.75,3.75,3.75h17.9795   c2.0674,0,3.75-1.6821,3.75-3.75v-17.979C234.6094,123.7192,232.9268,122.0371,230.8594,122.0371z M233.1094,143.7661   c0,1.2407-1.0098,2.25-2.25,2.25h-17.9795c-1.2402,0-2.25-1.0093-2.25-2.25v-17.979c0-1.2407,1.0098-2.25,2.25-2.25h17.9795   c1.2402,0,2.25,1.0093,2.25,2.25V143.7661z"/><path d="M204.2705,122.0371H186.292c-2.0674,0-3.75,1.6821-3.75,3.75v17.979c0,2.0679,1.6826,3.75,3.75,3.75h17.9785   c2.0674,0,3.75-1.6821,3.75-3.75v-17.979C208.0205,123.7192,206.3379,122.0371,204.2705,122.0371z M206.5205,143.7661   c0,1.2407-1.0098,2.25-2.25,2.25H186.292c-1.2402,0-2.25-1.0093-2.25-2.25v-17.979c0-1.2407,1.0098-2.25,2.25-2.25h17.9785   c1.2402,0,2.25,1.0093,2.25,2.25V143.7661z"/><path d="M18.8594,175.3047h17.9795c2.0674,0,3.75-1.6821,3.75-3.75v-17.9795c0-2.0679-1.6826-3.75-3.75-3.75H18.8594   c-2.0674,0-3.75,1.6821-3.75,3.75v17.9795C15.1094,173.6226,16.792,175.3047,18.8594,175.3047z M16.6094,153.5752   c0-1.2407,1.0098-2.25,2.25-2.25h17.9795c1.2402,0,2.25,1.0093,2.25,2.25v17.9795c0,1.2407-1.0098,2.25-2.25,2.25H18.8594   c-1.2402,0-2.25-1.0093-2.25-2.25V153.5752z"/><path d="M398.291,162.6792h-17.9795c-2.0674,0-3.75,1.6821-3.75,3.75v5.1255c0,2.0679,1.6826,3.75,3.75,3.75h17.9795   c2.0674,0,3.75-1.6821,3.75-3.75v-5.1255C402.041,164.3613,400.3584,162.6792,398.291,162.6792z M400.541,171.5547   c0,1.2407-1.0098,2.25-2.25,2.25h-17.9795c-1.2402,0-2.25-1.0093-2.25-2.25v-5.1255c0-1.2407,1.0098-2.25,2.25-2.25h17.9795   c1.2402,0,2.25,1.0093,2.25,2.25V171.5547z"/></g><text x="0" y="327.4614" fill="#000000" font-size="5px" font-weight="bold" font-family="'Helvetica Neue', Helvetica, Arial-Unicode, Arial, Sans-serif">Created by Gan Khoon Lay</text><text x="0" y="332.4614" fill="#000000" font-size="5px" font-weight="bold" font-family="'Helvetica Neue', Helvetica, Arial-Unicode, Arial, Sans-serif">from the Noun Project</text></svg>