<svg xmlns="http://www.w3.org/2000/svg" version="1.1" viewBox="-5.0 -10.0 110.0 135.0">
 <path d="m89.062 57.812h-31.172c0.35938-0.40625 0.5-0.98438 0.3125-1.5156l-0.29688-0.85938 1.2969 0.42188c0.5 0.15625 1.0625 0.0625 1.4688-0.26562l4.3594-3.5312c0.5-0.40625 0.70312-1.0938 0.5-1.7188l-0.28125-0.82812 1.2656 0.42188c0.5 0.15625 1.0625 0.0625 1.4688-0.26562l5.4219-4.3906 7.3594-0.8125c1.7656-0.1875 3.4219-0.98438 4.6875-2.2188l10.672-10.531c1.4844-1.4688 2.3125-3.4219 2.3125-5.5s-0.8125-4.0312-2.3125-5.5l-17.547-17.312c-2.4375-2.4062-6.4219-2.4062-8.875 0l-15.578 15.359c-1.1875 1.1719-1.8438 2.7344-1.8438 4.4062 0 1 0.26562 1.9531 0.70312 2.8125l-32.281 31.844h-9.7812c-5.3438 0-9.375 8.7344-9.375 20.312s4.0312 20.312 9.375 20.312h78.125c5.3438 0 9.375-8.7344 9.375-20.312s-4.0312-20.312-9.375-20.312zm-22.375-11.109-3.4219-1.125c-0.5625-0.1875-1.1875-0.03125-1.5938 0.39062s-0.5625 1.0469-0.375 1.5938l0.9375 2.75-2.8594 2.3125-3.4531-1.125c-0.5625-0.1875-1.1719-0.03125-1.5938 0.39062s-0.5625 1.0469-0.375 1.5938l0.9375 2.7969-2.8438 2.2969-3.4688-1.1406c-0.5625-0.1875-1.1719-0.046875-1.5938 0.375s-0.5625 1.0312-0.375 1.5938l0.9375 2.8125-2.8281 2.2812-3.5-1.1562c-0.5625-0.1875-1.1875-0.03125-1.5938 0.39062-0.42188 0.42188-0.5625 1.0469-0.375 1.5938l0.95312 2.8281-2.7969 2.2812-3.5312-1.1562c-0.5625-0.1875-1.1875-0.03125-1.5938 0.39062s-0.5625 1.0469-0.375 1.5938l0.96875 2.8594-2.7812 2.25-3.5625-1.1719c-0.5625-0.1875-1.1719-0.03125-1.5938 0.39062s-0.5625 1.0469-0.375 1.5938l0.96875 2.875-2.7188 2.2188-11.219-11.078 43.391-42.812 15.453 15.25-3.75 3.0469zm-10.359-25.734 15.578-15.359c0.625-0.60938 1.4219-0.90625 2.2344-0.90625s1.625 0.3125 2.2344 0.90625l17.547 17.312c0.89062 0.875 1.375 2.0469 1.375 3.2812s-0.48438 2.4062-1.375 3.2812l-10.672 10.531c-0.76562 0.75-1.7656 1.2188-2.8281 1.3438l-7.0781 0.78125-13.672-13.5-3.3438-3.2969c-0.59375-0.57812-0.92188-1.3594-0.92188-2.1719s0.32812-1.5938 0.92188-2.1875zm-45.391 74.344c-2.9531 0-6.25-7.3438-6.25-17.188s3.2969-17.188 6.25-17.188h6.6094l-9.2812 9.1562c-0.29688 0.29688-0.46875 0.6875-0.46875 1.1094s0.17188 0.8125 0.46875 1.1094l13.344 13.172c0.29688 0.29688 0.70312 0.45312 1.0938 0.45312 0.34375 0 0.70312-0.10938 0.98438-0.34375l4.6562-3.7812c0.5-0.40625 0.70312-1.0938 0.5-1.7031l-0.32812-0.95312 1.4062 0.46875c0.5 0.17188 1.0625 0.0625 1.4688-0.26562l4.2812-3.4844c0.5-0.40625 0.70312-1.0938 0.5-1.7188l-0.3125-0.92188 1.375 0.45312c0.5 0.15625 1.0625 0.0625 1.4688-0.26562l4.2969-3.5c0.5-0.40625 0.70312-1.0938 0.5-1.7188l-0.29688-0.89062 1.3281 0.4375c0.5 0.15625 1.0625 0.0625 1.4688-0.26562l4.3281-3.5c0.51562-0.40625 0.70312-1.0938 0.5-1.7188l-0.29688-0.875 1.3125 0.4375c0.5 0.17188 1.0625 0.0625 1.4688-0.26562l0.75-0.59375h29.828s-0.046875 0.078125-0.078125 0.10938c-0.29688 0.40625-0.57812 0.84375-0.84375 1.3125-0.03125 0.046875-0.046875 0.10938-0.078125 0.15625-0.23438 0.4375-0.46875 0.89062-0.67188 1.375-0.078125 0.17188-0.14062 0.34375-0.21875 0.51562-0.15625 0.39062-0.3125 0.8125-0.46875 1.2344-0.0625 0.20312-0.14062 0.39062-0.20312 0.59375-0.15625 0.48438-0.29688 1-0.4375 1.5156-0.03125 0.14062-0.078125 0.26562-0.10938 0.40625-0.17188 0.67188-0.3125 1.3594-0.4375 2.0781-0.03125 0.17188-0.0625 0.35938-0.09375 0.54688-0.09375 0.54688-0.17188 1.1094-0.25 1.6875-0.03125 0.25-0.0625 0.5-0.09375 0.76562-0.0625 0.54688-0.10938 1.1094-0.14062 1.6719-0.015625 0.25-0.03125 0.48438-0.046875 0.73438-0.046875 0.8125-0.0625 1.625-0.0625 2.4688s0.03125 1.6719 0.0625 2.4688c0 0.25 0.03125 0.48438 0.046875 0.73438 0.03125 0.5625 0.078125 1.125 0.14062 1.6719 0.03125 0.25 0.0625 0.51562 0.09375 0.76562 0.078125 0.57812 0.15625 1.1406 0.25 1.6875 0.03125 0.17188 0.0625 0.35938 0.09375 0.54688 0.125 0.71875 0.28125 1.4062 0.4375 2.0781 0.03125 0.14062 0.078125 0.26562 0.10938 0.40625 0.14062 0.51562 0.28125 1.0312 0.4375 1.5156 0.0625 0.20312 0.14062 0.39062 0.20312 0.59375 0.14062 0.42188 0.29688 0.82812 0.46875 1.2344 0.078125 0.17188 0.14062 0.34375 0.21875 0.51562 0.21875 0.48438 0.4375 0.95312 0.67188 1.375 0.03125 0.046875 0.046875 0.10938 0.078125 0.15625 0.26562 0.46875 0.54688 0.90625 0.84375 1.3125 0.03125 0.03125 0.046875 0.078125 0.078125 0.10938zm78.125 0c-2.9531 0-6.25-7.3438-6.25-17.188s3.2969-17.188 6.25-17.188 6.25 7.3438 6.25 17.188-3.2969 17.188-6.25 17.188zm1.5625-17.188c0-0.85938 0.70312-1.5625 1.5625-1.5625s1.5625 0.70312 1.5625 1.5625c0 8.0156-2.1719 12.969-3.4531 14.625-0.3125 0.39062-0.76562 0.60938-1.2344 0.60938-0.32812 0-0.67188-0.10938-0.95312-0.32812-0.6875-0.53125-0.8125-1.5-0.28125-2.1875 0.78125-1.0156 2.7969-5.25 2.7969-12.719zm-14.062-10.938c0 0.85938-0.70312 1.5625-1.5625 1.5625h-17.188c-0.85938 0-1.5625-0.70312-1.5625-1.5625s0.70312-1.5625 1.5625-1.5625h17.188c0.85938 0 1.5625 0.70312 1.5625 1.5625zm-6.25 10.938h-20.312c-0.85938 0-1.5625-0.70312-1.5625-1.5625s0.70312-1.5625 1.5625-1.5625h20.312c0.85938 0 1.5625 0.70312 1.5625 1.5625s-0.70312 1.5625-1.5625 1.5625zm3.125 7.8125c0 0.85938-0.70312 1.5625-1.5625 1.5625h-10.938c-0.85938 0-1.5625-0.70312-1.5625-1.5625s0.70312-1.5625 1.5625-1.5625h10.938c0.85938 0 1.5625 0.70312 1.5625 1.5625zm-6.2031-54.234c0.42188 0.40625 1.0312 0.54688 1.5781 0.375l2.9844-0.98438c1.7188-0.5625 3.5781-0.125 4.8594 1.125l3.9219 3.875c0.29688 0.29688 0.70312 0.45312 1.0938 0.45312s0.79688-0.15625 1.0938-0.45312l8.9062-8.7812c0.29688-0.29688 0.46875-0.6875 0.46875-1.1094s-0.17188-0.8125-0.46875-1.1094l-16.438-16.219c-0.60938-0.59375-1.5938-0.59375-2.1875 0l-13.344 13.172c-0.29688 0.29688-0.46875 0.6875-0.46875 1.1094s0.17188 0.8125 0.46875 1.1094l7.5469 7.4375zm6.9062-19.531 14.219 14.031-6.6719 6.5781-2.8281-2.7969c-1.5-1.4844-3.4844-2.2812-5.5312-2.2812-0.82812 0-1.6719 0.125-2.5 0.40625l-2.0781 0.6875-5.7344-5.6562zm-50.312 55.719c0.59375 0.59375 0.92188 1.375 0.92188 2.2031s-0.32812 1.625-0.92188 2.2031c-0.60938 0.60938-1.4062 0.90625-2.2031 0.90625s-1.6094-0.29688-2.2188-0.90625c-0.59375-0.59375-0.92188-1.375-0.92188-2.2031s0.32812-1.625 0.92188-2.2031c1.2188-1.2031 3.2031-1.2031 4.4219 0zm-1.7812-26.578c0.26562 0.53125 0.8125 0.85938 1.3906 0.85938h0.14062c0.64062-0.0625 1.1719-0.5 1.3594-1.1094l4.6875-15.625c0.15625-0.54688 0.015625-1.1406-0.39062-1.5469s-1-0.5625-1.5469-0.40625l-10.938 3.125c-0.45312 0.125-0.8125 0.45312-1 0.875s-0.17188 0.90625 0.03125 1.3281l6.25 12.5zm3.7656-14.031-2.7344 9.1094-3.6406-7.2969 6.375-1.8281zm-23.031 21.125 14.062 3.125c0.10938 0.03125 0.21875 0.03125 0.34375 0.03125 0.5 0 0.98438-0.23438 1.2812-0.65625 0.35938-0.51562 0.39062-1.2031 0.046875-1.7344l-7.8125-12.5c-0.28125-0.45312-0.76562-0.71875-1.2969-0.73438-0.5 0.0625-1.0312 0.25-1.3281 0.70312l-6.25 9.375c-0.28125 0.42188-0.34375 0.96875-0.15625 1.4531s0.60938 0.82812 1.1094 0.9375zm6.5469-8.0156 4.5469 7.2812-8.2031-1.8281 3.6406-5.4688z"/>
<text x="0.0" y="117.5" font-size="5.0" font-weight="bold" font-family="Arbeit Regular, Helvetica, Arial-Unicode, Arial, Sans-serif" fill="#000000">Created by baihaki</text><text x="0.0" y="122.5" font-size="5.0" font-weight="bold" font-family="Arbeit Regular, Helvetica, Arial-Unicode, Arial, Sans-serif" fill="#000000">from Noun Project</text></svg>