<svg xmlns="http://www.w3.org/2000/svg" data-name="Слой 1" viewBox="0 0 100 125" x="0px" y="0px"><title>Drill</title><g><path d="M74.68869,50.91434c-0.66988-.03833-1.179-0.07892-1.68894-0.09477q-4.86163-.15117-9.72354-0.29369a3.18193,3.18193,0,0,1-2.75953-1.17778c-0.20614-.28726-0.54529-0.48287-0.73493-0.77748-0.64347-.99951-1.6669-0.99443-2.65443-1.024a26.86174,26.86174,0,0,1-9.18955-1.41185,4.06524,4.06524,0,0,0-.45144-0.16189c-1.60481-.41958-3.06665-1.008-3.37524-2.93947-2.27281,0-4.46242-.00176-6.65205.00158-0.40068.00062-.80257,0.04742-1.20175,0.02813a0.8658,0.8658,0,0,1-.96234-1.074c0.03709-.58323.11355-1.164,0.18-1.819a10.12927,10.12927,0,0,0-2.24887-.11406,21.09666,21.09666,0,0,1-3.93246-.02536,3.19908,3.19908,0,0,1-3.32393-2.22786c-0.40634-.97-0.48077-1.00224-1.76319-0.99651-2.60353.01163-5.20743,0.038-7.81051,0.00473-1.23973-.01586-2.47691-0.179-3.71711-0.22993-1.03555-.0425-2.07857.04073-3.1095-0.04158a14.19165,14.19165,0,0,1-2.8207-.47924,1.20689,1.20689,0,0,1-.84691-1.79793,1.88357,1.88357,0,0,1,1.686-1.44074,64.06481,64.06481,0,0,1,8.14974-.24929c2.99934,0.12407,6.00732.05174,9.01143,0.03967,0.85468-.00344.90829-0.09083,1.092-0.94525a2.565,2.565,0,0,1,2.79792-2.40543c1.677-.06112,3.35785-0.0163,5.037-0.01652,0.20036,0,.40083.016,0.60106,0.01264,1.13961-.01937,1.239-0.12084,1.224-1.23311-0.0298-2.20428.31431-2.5664,2.53271-2.64444,1.59773-.05622,3.19574-0.10407,4.79363-0.15607a1.95942,1.95942,0,0,0,1.65987-.78992,4.49765,4.49765,0,0,1,2.22394-1.3562,24.918,24.918,0,0,1,6.70868-1.22456c0.98991-.08431,1.98944-0.05486,2.98455-0.07923,2.31826-.05679,4.63633-0.14567,6.95483-0.1595,1.15707-.0069,2.31565.18783,3.47234,0.17574,2.0338-.02123,4.06634-0.144,6.1-0.20086a40.0219,40.0219,0,0,1,7.99612.193c0.98161,0.16959,2.00992.0835,2.98393,0.27871a38.30294,38.30294,0,0,1,3.93141,1.0559,4.687,4.687,0,0,1,3.155,3.64147c0.50433,1.97233.87582,3.98365,1.476,5.92519a9.81714,9.81714,0,0,1-.63575,7.00633c-0.74929,1.76627-1.36326,3.59351-1.95515,5.42028a2.54214,2.54214,0,0,0,.142,1.39719c0.42951,1.40959.9669,2.7873,1.3702,4.20365,0.73228,2.57172,1.48731,5.14255,2.06707,7.7506a31.68134,31.68134,0,0,1,.73991,8.46633c-0.068,1.39357-.20753,2.77574-0.36819,4.15055a13.18251,13.18251,0,0,1-.8269,3.24224c-1.006,2.567-3.16958,3.52389-5.71764,3.9172a40.87111,40.87111,0,0,1-7.6776.18929,15.5563,15.5563,0,0,1-3.97086-.81654,2.3811,2.3811,0,0,1-1.182-3.42032A6.24275,6.24275,0,0,1,76.7224,71.604a9.38511,9.38511,0,0,0,2.39822-2.91921c0.99987-1.50754.56825-3.08336,0.5483-4.63761-0.01431-1.11492-.2486-2.22629-0.37072-3.34078-0.1-.913-0.144-0.94342-1.11953-1.00536a10.719,10.719,0,0,1-1.65588-.21682c-2.048-.458-2.22986-1.44656-2.14451-2.88561,0.08748-1.47479.2104-2.94746,0.307-4.42176C74.70843,51.82249,74.68869,51.46531,74.68869,50.91434Zm13.61083-12.5139a1.1983,1.1983,0,0,0,.3946-0.36358,18.05432,18.05432,0,0,0,1.39353-5.06,18.68428,18.68428,0,0,0-.49427-5.71169,2.91088,2.91088,0,0,0-1.88868-2.4299,16.35928,16.35928,0,0,0-4.71113-1.16079,4.02449,4.02449,0,0,1-.45768-0.13858c-1.213-.16213-2.42688-0.61108-3.64053.03161a1.0194,1.0194,0,0,1-.57788.01933,11.231,11.231,0,0,0-1.40227-.24619c-1.748-.03636-3.49794-0.06031-5.245-0.01143a15.97183,15.97183,0,0,1-1.63622.03624c-1.57947-.113-3.16968-0.56236-4.76121-0.021a1.62918,1.62918,0,0,1-.67673-0.09594,9.1842,9.1842,0,0,0-1.51022-.23185c-1.72052.01506-3.44073,0.08007-5.16069,0.13722-1.67469.05564-3.3512,0.09147-5.02214,0.20579-0.62226.04258-1.22426,0.3258-1.84739,0.42322-1.02427.16013-2.06434,0.22129-3.08662,0.39122a3.85526,3.85526,0,0,0-3.2135,2.54494c-0.29234.7825-.64722,1.54845-0.86217,2.35175a12.21075,12.21075,0,0,0-.02421,7.093,15.20486,15.20486,0,0,1,.6128,2.80448,10.32654,10.32654,0,0,0,2.05519,4.924,1.59714,1.59714,0,0,0,.76329.54463c1.37626,0.4205,2.74987.87909,4.157,1.16241A28.26525,28.26525,0,0,0,58.028,46.132a2.4141,2.4141,0,0,0,1.89857-.47249,2.67705,2.67705,0,0,1,1.49527-.19194,6.11288,6.11288,0,0,0,.82336.10732,21.118,21.118,0,0,1,5.26163-.00125A53.47679,53.47679,0,0,0,78.04079,45.118c2.37116-.35114,4.72927-0.8057,7.07549-1.29837a2.52512,2.52512,0,0,0,1.48687-.89567,25.04243,25.04243,0,0,0,1.77221-3.3604A2.90715,2.90715,0,0,0,88.29952,38.40044ZM80.0697,70.645c0.60728-.06435,1.03957-0.09209,1.46591-0.15832,2.491-.3871,4.9817-0.77631,7.46911-1.18547a1.92953,1.92953,0,0,0,.83655-0.34864,1.13167,1.13167,0,0,1,1.56327.13732,3.09824,3.09824,0,0,1-.69444.37963c-1.44524.29731-2.88942,0.60914-4.3462,0.83847-1.85784.29245-3.73187,0.48252-5.58887,0.77961a3.99951,3.99951,0,0,0-1.64375.61478c-0.7749.54956-1.40821,1.29683-2.17479,1.86067a2.84541,2.84541,0,0,0-1.028,1.41913c-0.33507.93584-.2291,1.287,0.70492,1.48208a25.43112,25.43112,0,0,0,2.83473.33731,28.41792,28.41792,0,0,0,8.47992-.29617,4.85653,4.85653,0,0,0,3.96933-3.852,23.91094,23.91094,0,0,0,.83364-6.28411c-0.01786-1.10139.0209-1.102-.99925-1.57409l0.96049-.33366a2.9148,2.9148,0,0,0,.04-0.54454,49.1834,49.1834,0,0,0-1.27694-7.44,5.42844,5.42844,0,0,0-.82236-1.25795,0.71692,0.71692,0,0,0,.26235-0.35612,4.22784,4.22784,0,0,0-.62962-1.88185,2.00176,2.00176,0,0,0-1.79754-.49577c-0.96516.19533-1.95656,0.26088-2.9367,0.38216,1.34893-.97562,2.97485-0.50823,4.57016-0.86685-0.4315-1.4071-.77941-2.67562-1.21141-3.91482a6.28041,6.28041,0,0,1-.28177-4.2229c0.24342-.71519.4776-1.43368,0.73082-2.14537,0.5899-1.658,1.21745-3.30333,1.767-4.97443a8.16458,8.16458,0,0,0,.19716-1.652l-0.23756-.03161c-0.40866,1.41059-.76992,2.83722-1.24011,4.227a18.42,18.42,0,0,1-1.48829,3.64491,4.67479,4.67479,0,0,1-3.39466,2.39607c-2.1716.3147-4.32395,0.76039-6.48823,1.12824a19.48363,19.48363,0,0,1-2.49941.31629c-1.75382.06754-3.51056,0.08847-5.26585,0.07939-1.7589-.0091-3.51774-0.11889-5.27615-0.10786-1.42225.00892-2.84378,0.13175-4.3971,0.21074,0.34542,0.55221.58723,0.95651,0.8467,1.34913a1.5884,1.5884,0,0,0,1.42.73911c1.38786,0.00934,2.77607.04585,4.163,0.10045,2.91658,0.11481,5.83225.25184,8.74865,0.37121a1.584,1.584,0,0,1,1.30576.68307,10.12125,10.12125,0,0,1,1.37012,2.16913,4.825,4.825,0,0,0,.68119.96931c0,0.44727-.00748.73733,0.00132,1.0269,0.03476,1.14512.75181,2.09926,0.81988,3.272,0.10632,1.83183.4403,3.65114,0.699,5.47277a6.23043,6.23043,0,0,0,.27884.94972l1.11393,0.31976-0.044.20545-1.18651.37a15.15288,15.15288,0,0,1-.04072,2.89826A15.9781,15.9781,0,0,1,80.0697,70.645ZM41.29461,29.11086h1.10833c0.26918-.68376.77958-1.27079,0.243-1.86264l0.56556-.49589-0.1384-.24745-3.75643.5838c-0.58964-.69522-1.41778-0.229-2.32323-0.21269,0,0.42478-.00341.77684,0.00059,1.12883,0.01725,1.51747.05763,3.035,0.05009,4.55235-0.00972,1.95612-.07969,3.91211-0.07424,5.868a12.90093,12.90093,0,0,0,.29568,1.87046c-0.44312.77809-.34808,1.19985,0.49556,1.25,1.67,0.09928,3.34365.14324,5.01645,0.1818a2.59541,2.59541,0,0,0,.749-0.21592c-0.29684-2.18238-1.15459-4.15594-1.23732-6.296a14.23723,14.23723,0,0,1-.09682-4.05321,1.27112,1.27112,0,0,0-.51725-1.47064A2.60276,2.60276,0,0,1,41.29461,29.11086ZM32.147,30.57955a6.33442,6.33442,0,0,0-.09313.885c0.05153,1.82921.1227,3.65784,0.1828,5.48682a4.11729,4.11729,0,0,0,.03045,1.07008,0.93768,0.93768,0,0,0,.59672.58945,5.8665,5.8665,0,0,0,2.61737-.33606c0.02569-2.55475.42917-5.07459,0.07971-7.69531H32.147Zm-2.96712.21183c-1.62394-.03105-1.80576.08172-1.95794,1.3267a29.40685,29.40685,0,0,0-.265,3.344,6.81263,6.81263,0,0,0,.37386,1.86272,1.31407,1.31407,0,0,0,1.5898.97432C29.0071,35.79451,29.09213,33.33211,29.17987,30.79138ZM76.58808,51.46874l-0.33023.07481c-0.05868.5048-.13032,1.0085-0.17348,1.51462-0.10167,1.19221-.2157,2.38428-0.27535,3.57888a1.13063,1.13063,0,0,0,1.16026,1.47479c0.61133,0.0965,1.23879.09072,1.93152,0.1355C78.49219,55.74062,78.12311,53.39259,76.58808,51.46874ZM22.60872,34.02434c0.55754,1.45849,1.32283,1.755,2.90716,1.23911V33.87367Zm-4.16.09388c1.00313,1.55967,1.63,1.839,2.98186,1.39494C20.46344,33.699,20.4605,33.69756,18.44877,34.11822ZM17.173,35.418c-0.57512-1.25071-1.14651-1.82226-2.77484-1.50654C15.09476,34.864,15.65636,35.98821,17.173,35.418ZM10.76553,34.0145c0.45671,1.428,1.50332,1.27375,2.55174,1.20226C12.88055,33.72593,12.50149,33.63486,10.76553,34.0145Zm-1.2282,1.13093c-0.87546-1.1069-.97025-1.11521-2.06742-0.27738Z"/><path d="M71.38066,35.45718c-0.10334-2.58216-.20292-4.97486-0.29075-7.368a4.36978,4.36978,0,0,1,.05541-1.07517,1.244,1.244,0,0,1,1.32243-1.10748,2.17885,2.17885,0,0,0,1.96373-.60939,0.35781,0.35781,0,0,1,.65224.13732c0.11262,0.48316.46291,0.34805,0.76052,0.35141,1.99208,0.02247,3.98424.04839,5.97639,0.05,0.51733,0.00041,1.03462-.1179,1.5521-0.11929,1.79455-.00484,2.68416.833,2.70909,2.6177,0.01727,1.23759-.06106,2.47685-0.10835,3.71491-0.0333.87156-.04624,1.7468-0.142,2.61224a0.87343,0.87343,0,0,1-1.06268.9909,89.617,89.617,0,0,1-12.33751-.00992C72.08254,35.611,71.739,35.52176,71.38066,35.45718Zm1.64955-1.36806a50.7859,50.7859,0,0,0,11.23992-.08082,6.29419,6.29419,0,0,0,.2254-1.05062c0.05354-1.23824.0763-2.478,0.09229-3.71751a6.24463,6.24463,0,0,0-.0939-0.95423,1.13939,1.13939,0,0,0-1.1601-1.01431c-0.953-.0755-1.911-0.11782-2.86694-0.11947-2.16128-.00371-4.3227.02139-6.48391,0.04616-0.41962.00482-.83864,0.06139-1.28368,0.09611A26.27491,26.27491,0,0,0,73.03022,34.08912Z"/><path d="M53.84654,36.44c0,1.31629-.01,2.6327.00529,3.94882,0.00546,0.47172-.00867.90262-0.59243,1.001a0.84531,0.84531,0,0,1-.98392-0.93114c-0.07235-.67418-0.10453-1.35439-0.11921-2.03271-0.04745-2.19512-.06681-4.39089-0.122-6.58578-0.02311-.91945.39169-1.25494,1.19956-0.9263a0.67294,0.67294,0,0,1,.4459.74452c-0.01883,1.59359-.008,3.18752-0.008,4.78133Z"/><path d="M48.01691,41.58147c-0.89967.21125-1.24163-.17552-1.28495-0.82394-0.08515-1.27494-.09347-2.55481-0.16357-3.831-0.09388-1.7088-.20051-3.41728-0.33627-5.12315-0.03909-.49119-0.02093-0.924.53659-1.02268a0.78474,0.78474,0,0,1,.947.711,18.05084,18.05084,0,0,1,.31014,2.495c0.0607,1.95753.05948,3.91714,0.06807,5.876C48.09632,40.41435,48.046,40.96621,48.01691,41.58147Z"/><path d="M49.27671,36.42q-0.159-2.09189-.31669-4.18388a5.36917,5.36917,0,0,1-.02369-0.71809,0.72,0.72,0,0,1,.685-0.712,0.69217,0.69217,0,0,1,.77873.59289,2.47214,2.47214,0,0,1,.06123.47371q0.12734,1.61215.24954,3.2247,0.169,2.27075.32954,4.54213a2.13936,2.13936,0,0,1-.00294.832,1.05737,1.05737,0,0,1-.54164.65029,0.95311,0.95311,0,0,1-.78708-0.34033,2.05573,2.05573,0,0,1-.30331-1.00625c-0.09432-1.11461-.14286-2.23309-0.209-3.35006Z"/><path d="M56.32537,42.7678a3.10082,3.10082,0,0,1-1.87843,1.27233A2.45333,2.45333,0,0,1,56.32537,42.7678Z"/><path d="M74.26882,37.086l-1.50748,1.25375C72.97923,37.45226,72.97923,37.45226,74.26882,37.086Z"/><path d="M89.21967,28.14959l-1.033.81682a1.11338,1.11338,0,0,1,.86521-1.03915Z"/><path d="M58.16025,41.47473c0.40612-.57077.65781-0.70461,0.948-0.41094a0.7869,0.7869,0,0,1,.01484.41094H58.16025Z"/><path d="M55.66169,24.15035c-0.1133.57406-.3965,0.65287-0.91673,0.4667A0.61288,0.61288,0,0,1,55.66169,24.15035Z"/><path d="M60.63,23.823l0.6638-.194,0.08558,0.23912-0.66558.27Z"/><path d="M89.25771,32.28543l-0.78207.66414-0.15637-.16343,0.70263-.75471Z"/><path d="M77.94558,37.13383l0.298-.547a0.71622,0.71622,0,0,1,.18379.11973c-0.05523.18977-.133,0.373-0.20423,0.55811Z"/><path d="M68.53833,34.62062a1.83845,1.83845,0,0,1-.39372.32066,0.61156,0.61156,0,0,1-.2516-0.171,1.56835,1.56835,0,0,1,.29787-0.30716A0.90879,0.90879,0,0,1,68.53833,34.62062Z"/><path d="M50.03811,26.13484a1.9206,1.9206,0,0,1-.44085.23447,0.559,0.559,0,0,1-.21285-0.19044,1.40567,1.40567,0,0,1,.33156-0.24062A0.86854,0.86854,0,0,1,50.03811,26.13484Z"/><path d="M85.03784,41.80853a1.01671,1.01671,0,0,1,.23431.30453,1.37082,1.37082,0,0,1-.265.30468,0.6087,0.6087,0,0,1-.211-0.21446A1.503,1.503,0,0,1,85.03784,41.80853Z"/><path d="M65.10256,34.75234a0.97018,0.97018,0,0,1-.33614.18173,0.54242,0.54242,0,0,1-.21923-0.1774A0.74187,0.74187,0,0,1,64.80936,34.59,0.75357,0.75357,0,0,1,65.10256,34.75234Z"/><path d="M66.624,26.01272a1.53147,1.53147,0,0,1-.42378.16656,0.71781,0.71781,0,0,1-.26588-0.1336,0.63209,0.63209,0,0,1,.19484-0.23079A1.47881,1.47881,0,0,1,66.624,26.01272Z"/><path d="M81.55278,72.09074a27.15718,27.15718,0,0,1,10.15857-.74326c-0.77531.55591-1.62489,0.07242-2.43653,0.1808-0.86929.11606-1.75024,0.142-2.624,0.22822-0.83513.08236-1.66993,0.17513-2.50059,0.29345-0.85358.12154-1.702,0.27953-2.55262,0.42156Z"/><path d="M89.90671,74.2775c-2.693.87111-5.49956,0.86779-8.28774,1.05929,1.37984-.258,2.75091-0.59241,4.142-0.75222C87.13365,74.42692,88.49229,73.87088,89.90671,74.2775Z"/><path d="M89.142,68.81982H85.10481L85.046,68.653a3.1112,3.1112,0,0,1,.64271-0.27957c0.66614-.12756,1.34394-0.195,2.00909-0.32669A1.08753,1.08753,0,0,1,89.142,68.81982Z"/><path d="M91.024,63.84935a2.20814,2.20814,0,0,1-2.05491.2636C89.9593,63.01152,90.17155,62.97527,91.024,63.84935Z"/><path d="M81.58267,49.2083c1.1168-.06048,2.167-0.63287,3.359-0.14132l-3.32907.48054Z"/><path d="M83.66715,73.76769a7.26326,7.26326,0,0,1-3.16248.49224C81.59638,73.55328,82.69445,74.03089,83.66715,73.76769Z"/><path d="M89.71116,58.3262H87.1585C88.26064,57.724,89.12245,57.74809,89.71116,58.3262Z"/><path d="M91.45687,68.036l-2.00071.09448-0.01069-.27159c0.67864,0.02469,1.32953-.38746,2.02579-0.08539Z"/><path d="M87.62226,73.51588l-1.75057.11036-0.01758-.17044,1.69934-.292Z"/><path d="M91.90058,61.29645l-1.72535-.29814C90.756,61.0227,91.40433,60.58006,91.90058,61.29645Z"/><path d="M88.66961,51.009l-1.13755-.06272a0.8146,0.8146,0,0,1,1.15823-.2711Z"/><path d="M85.553,61.70507l-0.80523.07691-0.02729-.15738,0.78871-.19494Z"/><path d="M74.18913,47.86158l-0.18681-.379a0.57316,0.57316,0,0,1,.288-0.10084,0.93638,0.93638,0,0,1,.23308.28971Z"/><path d="M90.17216,59.82266l0.714,0.07011-0.00162.188H90.15474Z"/><path d="M37.25491,38.41592a1.54252,1.54252,0,0,1,.41683-0.13926,0.88044,0.88044,0,0,1,.299.127,1.38088,1.38088,0,0,1-.24606.31329A2.16019,2.16019,0,0,1,37.25491,38.41592Z"/><path d="M78.71641,30.40229c-0.12145,1.82293-.9947,2.91847-2.29348,2.73841-1.80467-.25018-2.77715-0.85027-2.68365-2.27864a2.72494,2.72494,0,0,1,2.55522-2.786A2.28615,2.28615,0,0,1,78.71641,30.40229Zm-2.485-.62864a1.225,1.225,0,0,0-.93378,1.06211,1.11021,1.11021,0,0,0,1.15223.79479,1.09092,1.09092,0,0,0,.90067-0.952A1.50971,1.50971,0,0,0,76.23145,29.77365Z"/></g><text x="0" y="115" fill="#000000" font-size="5px" font-weight="bold" font-family="'Helvetica Neue', Helvetica, Arial-Unicode, Arial, Sans-serif">Created by Olga</text><text x="0" y="120" fill="#000000" font-size="5px" font-weight="bold" font-family="'Helvetica Neue', Helvetica, Arial-Unicode, Arial, Sans-serif">from the Noun Project</text></svg>