<svg xmlns="http://www.w3.org/2000/svg" xmlns:xlink="http://www.w3.org/1999/xlink" xml:space="preserve" style="shape-rendering:geometricPrecision;text-rendering:geometricPrecision;image-rendering:optimizeQuality;" viewBox="0 0 11556.9 11345.1375" x="0px" y="0px" fill-rule="evenodd" clip-rule="evenodd"><defs><style type="text/css">
   
    .fil1 {fill:black}
    .fil0 {fill:black;fill-rule:nonzero}
   
  </style></defs><g><path class="fil0" d="M5764.91 3126.32c-0.695663,6.11215 -0.449996,14.0597 -0.183069,22.6982 1.43503,46.463 3.23383,104.672 -52.444,190.146 -144.365,221.62 -353.123,566.512 -534.36,882.386 -157.427,274.375 -292.63,524.334 -343.863,647.496 -199.85,480.429 -341.622,962.547 -438.771,1453.58 -97.4342,492.468 -150.029,993.126 -171.3,1509.41 -3.36848,81.6654 -4.13146,163.297 -0.447634,238.979 3.56336,73.2313 11.3101,140.347 24.9647,195.463 10.8566,43.8292 128.64,91.087 319.586,135.902 222.064,52.1181 530.022,89.8906 881.952,107.231 712.031,35.0843 1600.19,82.6174 2346.5,125.131 696.304,39.6646 1270.58,74.9509 1469.09,91.9032 320.652,-25.8907 656.756,-208.484 954.547,-437.341 485.167,-372.859 863.081,-860.316 915.886,-1004.65l6.44876 -13.4597c155.18,-250.011 228.5,-504.716 256.582,-766.103 28.4761,-265.064 10.9204,-538.265 -15.4983,-820.528l-0.206691 0.0248029c-8.95504,-71.8742 -19.0061,-168.297 -30.1108,-274.856 -42.7662,-410.329 -102.017,-978.796 -258.129,-1464.55 -91.7815,-285.581 -181.001,-479.779 -331.014,-612.431 -150.348,-132.951 -368.661,-210.566 -720.026,-264.199l21.3116 -141.892c379.846,57.9798 620.193,145.722 793.494,298.97 173.641,153.547 273.079,366.398 372.518,675.806 160.742,500.16 220.886,1077.2 264.297,1493.71 10.1668,97.5594 19.3687,185.84 30.1108,272.052l0 2.24289c27.3033,291.241 45.478,573.657 15.705,850.788 -30.0399,279.624 -108.431,552.569 -274.002,821.264 -67.6967,166.735 -462.262,678.241 -960.438,1061.1 -319.268,245.362 -683.241,441.104 -1036.68,467.55l-11.4968 0c-199.044,-17.2711 -774.999,-52.7818 -1470.25,-92.3862 -750.647,-42.7603 -1638.68,-90.3099 -2345.38,-125.131 -361.414,-17.8073 -678.389,-56.7668 -907.75,-110.597 -244.669,-57.4235 -400.95,-139.619 -426.146,-241.338 -15.9424,-64.3471 -24.8892,-140.715 -28.8907,-222.944 -3.88343,-79.7757 -3.08738,-165.592 0.447634,-251.316 21.6187,-524.736 74.9108,-1032.76 173.544,-1531.29 98.9177,-499.966 243.401,-991.173 447.183,-1481.06 53.9771,-129.758 191.995,-385.39 351.715,-663.762 180.771,-315.059 391.262,-662.549 538.849,-889.116 31.3072,-48.0622 30.2726,-81.5403 29.4482,-108.264 -0.452358,-14.6574 -0.870465,-28.1395 0.745269,-42.328l142.452 15.7038z"/><polygon class="fil0" points="6561.87,2688.02 7871.98,2643.16 7876.47,2786.17 6566.36,2831.03 "/><path class="fil0" d="M6007.75 2956.95c0,-39.6457 -32.1411,-71.7868 -71.7868,-71.7868 -39.6457,0 -71.7868,32.1411 -71.7868,71.7868 0,0.171258 -0.00472437,58.7464 19.3451,165.166l70.3848 -12.6188 -70.6293 12.842c7.09128,39.0068 44.4646,64.8786 83.4713,57.7873 5.53106,-1.00511 10.7975,-2.62084 15.744,-4.76335 508.075,-175.151 1243.11,-214.667 1956.91,-167.375 818.388,54.2228 1603.99,221.894 1984.56,429.631 136.936,74.7431 272.891,314.393 394.392,607.813 190.224,459.381 338.575,1043.4 407.056,1357.5 -64.738,199.92 -138.811,357.302 -228.663,548.204 -49.9779,106.186 -104.778,222.616 -166.612,364.676l65.6179 28.6025 -65.8223 -28.6498c-15.8219,36.3517 0.820859,78.6501 37.1725,94.472 32.6005,14.1896 69.9821,2.26297 88.7614,-26.5687 139.189,-180.321 288.483,-394.787 424.6,-624.207 116.042,-195.582 222.943,-402.754 306.553,-610.033l6.33538 -15.6944c48.648,-120.488 84.5284,-209.352 88.5985,-282.69 8.27355,-149.054 -79.3044,-209.925 -352.838,-225.107 -103.561,-5.7472 -204.837,-6.63065 -259.088,-6.60703 -63.538,-211.604 -137.577,-430.914 -219.313,-628.304 -132.745,-320.574 -288.341,-586.256 -458.329,-679.039 -397.739,-217.105 -1206.76,-391.544 -2044.01,-447.016 -695.419,-46.0744 -1413.64,-10.5058 -1936.3,150.244 -4.32516,-38.1918 -4.32398,-58.1782 -4.32398,-58.2692zm4704.08 1805.61c70.1947,247.405 124.407,474.069 157.777,629.047l0.124015 -0.0271651c2.92675,13.5932 1.78935,27.1132 -2.58659,39.302 -18.5632,58.3873 -37.8292,113.112 -57.9479,165.9 92.5953,-163.145 177.028,-332.35 244.905,-500.627l6.33538 -15.6944c43.5941,-107.97 75.747,-187.602 78.5025,-237.263 2.50155,-45.0811 -51.6126,-65.025 -217.676,-74.2411 -78.9643,-4.38185 -155.002,-5.922 -209.434,-6.3968zm-80.8068 0.0118109l-1.68188 -143.014c-39.491,0.464169 -71.1301,32.8568 -70.6659,72.3478 0.464169,39.491 32.8568,71.1301 72.3478,70.6659z"/><path class="fil0" d="M6503.27 2961.47c-0.327163,-37.7477 3.86453,-93.1988 8.05623,-148.645 3.27989,-43.3945 6.55979,-86.789 7.67119,-119.132 -18.2715,-6.23853 -35.6088,-8.7767 -52.757,-8.33851 -23.8817,0.611806 -48.7827,7.01215 -76.1202,17.3077l-138.115 73.1202 -110.216 298.297 -67.301 -24.6777 114.978 -311.185 16.9652 -19.3487 152.548 -80.7607 3.92595 -1.82243c34.8056,-13.2637 67.7026,-21.5667 101.653,-22.436 34.8292,-0.891725 69.3112,6.08499 105.998,23.5533l20.1329 9.58693 0.197242 22.5211c0.328344,37.7465 -3.86453,93.1965 -8.05505,148.644 -4.16926,55.1428 -8.33733,110.29 -8.05623,142.756l-71.5057 0.559838z"/><path class="fil0" d="M6224.8 2714.81l188.443 8.96921 69.2061 3.29407 -42.7071 54.472c-0.292911,0.373225 -102.082,129.31 -109.681,237.756l-71.5057 -4.76689c5.67279,-80.9627 52.1842,-167.871 86.7819,-222.322l-123.904 -5.89719 3.36611 -71.5057z"/><polygon class="fil0" points="6392.65,2729.1 6536.2,2639.37 6574.06,2700.22 6430.5,2789.95 "/><path class="fil0" d="M6044.04 3154.76c-0.666136,0.12992 -230.155,42.0859 -440.441,354.897l-118.896 -79.6387c244.054,-363.041 531.584,-415.866 532.418,-416.028l26.9195 140.77z"/><path class="fil0" d="M9874.12 3328.92c28.1915,-56.7161 56.3842,-113.434 81.434,-169.743 23.6844,-53.2366 45.1012,-107.194 62.0983,-162.544 -11.1176,-46.7618 -22.2553,-94.1059 -33.6304,-150.857 -18.9034,-1.65471 -39.1497,-2.42242 -57.981,-1.89447 -16.6014,0.46535 -31.7029,1.86022 -42.9658,4.45508 -10.1704,13.6593 -23.2014,32.0478 -37.5457,52.2858 -33.2796,46.9555 -73.4309,103.607 -105.551,140.179 -2.69289,38.3985 -9.17591,71.5021 -15.6577,104.602 -6.79364,34.6958 -13.5896,69.3927 -15.2963,107.099l-71.5057 -3.08501c1.99605,-44.1138 9.2078,-80.9355 16.4184,-117.755 6.79246,-34.6934 13.5885,-69.3892 15.2951,-107.093l9.67433 -22.9935c30.0541,-32.0608 73.1486,-92.8657 108.296,-142.455 18.1451,-25.6002 34.2292,-48.296 46.0827,-63.5723l15.7038 -11.6373c19.1939,-7.23419 46.2516,-10.7279 75.0891,-11.5357 31.9285,-0.895268 66.8345,1.35235 94.9645,5.29366l25.4584 3.56808 4.82594 25.175c13.142,68.5612 26.6915,125.516 40.2304,182.427l0.116928 0.491334 -0.561019 18.3672c-18.3613,61.7487 -41.9784,121.657 -68.2211,180.643 -26.1742,58.8361 -54.3657,115.552 -82.556,172.266l-64.216 -31.6863z"/><polygon class="fil0" points="9704.98,2990.22 9876.76,2990.22 9920.18,2990.22 9911.95,3032.84 9857.33,3315.9 9786.94,3302.44 9833.34,3062.01 9704.98,3062.01 "/><polygon class="fil0" points="9846.62,3006.77 9984.02,2793.79 10044.3,2832.49 9906.91,3045.46 "/><path class="fil0" d="M9796.03 2971.34c-2.44014,-0.292911 -850.016,-102.433 -935.794,-116.73l23.5557 -141.33c79.1013,13.1834 926.624,115.315 929.064,115.608l-16.8258 142.452z"/><path class="fil0" d="M9172.8 3072.56c303.762,56.9972 505.173,157.76 631.433,356.45 123.919,195.004 171.784,482.213 170.095,914.412 19.005,368.365 1.29684,806.093 -53.1255,1256.31 -50.9818,421.762 -134.296,855.28 -249.951,1253.92 -178.271,825.86 -356.399,816.421 -1047.19,779.785 -62.501,-3.31415 -129.311,-6.85742 -198.436,-9.89519l-1.26141 0c-604.868,-47.6287 -1178.18,-92.5055 -1751.49,-137.38 -596.328,-46.6768 -1192.5,-93.3441 -1750.46,-137.277 -238.897,-0.101574 -388.491,-34.6344 -470.631,-164.538 -78.8863,-124.76 -87.0642,-334.243 -44.8319,-686.224 47.8189,-398.561 147.817,-803.396 282.575,-1192.19 146.455,-422.543 333.843,-825.697 539.817,-1180.9 36.4804,-62.9097 76.3151,-132.611 113.867,-198.316 362.457,-634.204 504.204,-882.223 1175.91,-1000.87l12.3377 70.6648c-638.464,112.773 -775.523,352.588 -1125.99,965.815 -33.6363,58.855 -69.3242,121.298 -114.148,198.597 -204.027,351.841 -389.482,750.719 -534.209,1168.28 -132.958,383.601 -231.659,783.356 -278.928,1177.33 -40.1949,334.993 -34.6355,530.848 34.1761,639.675 65.4384,103.49 197.198,130.891 411.11,130.891l2.80391 0.14055c605.005,47.6382 1178.55,92.5339 1751.93,137.415 596.732,46.7087 1193.47,93.4185 1751.77,137.38l-0.00472437 0.0555113c71.8931,3.16533 136.902,6.61412 197.74,9.83968 642.538,34.0769 808.145,42.8571 973.525,-723.534l0.701569 -2.52281c114.644,-394.636 197.333,-825.054 248.042,-1244.56 54.0114,-446.815 71.6273,-880.358 52.8421,-1244.35l0 -1.96298c1.774,-418.893 -42.974,-694.757 -159.156,-877.586 -114.017,-179.426 -300.594,-271.297 -584.041,-324.483l13.1786 -70.3837z"/><path class="fil0" d="M5623.98 6509.25l-127.576 499.675c515.632,6.53262 1043.78,26.525 1551.67,63.6313 461.841,33.7414 909.256,81.6962 1318.47,146.613 58.529,-169.995 79.2974,-328.958 102.8,-508.891l0.5622 -4.30862 -2845.92 -196.719zm-289.17 552.493l164.879 -645.779 8.04324 -31.5021 29.5332 -14.766 0.00236218 -0.00118109 36.7343 -7.57198 2981.58 206.097 76.3777 5.27948 -10.1987 75.7612c-4.87201,36.1946 -7.72671,58.0448 -10.5318,79.5253 -27.184,208.123 -50.8673,389.426 -131.073,596.265l-21.0376 54.2523 -57.1979 -9.38614c-419.187,-68.7892 -883.034,-119.211 -1363.94,-154.346 -538.93,-39.3741 -1096.15,-59.4727 -1634.19,-64.6542l-91.5252 -0.882276 22.5423 -88.2914z"/><path class="fil0" d="M6310.3 3940.1c-16.6877,28.4525 -30.2844,62.9132 -41.441,99.494 -15.751,51.6409 -26.4458,108.316 -34.1076,159.384 -2.59486,40.9745 -4.60272,64.0412 -6.60821,87.1079l-1.13621 13.0995 585.938 11.3786c32.0005,-70.3742 55.7653,-143.647 81.7174,-223.676 3.48304,-10.742 4.84956,-14.9999 5.50389,-17.0703 -11.4838,-44.7469 -38.278,-82.1591 -65.2648,-117.672 -87.6146,-2.02912 -176.424,-4.0606 -265.224,-6.09089 -86.8363,-1.98305 -173.67,-3.96965 -259.377,-5.95389zm-178.285 57.9928c19.8105,-64.9518 47.1776,-126.93 85.6103,-174.974l21.7581 -27.2006 34.045 0 0.00118109 0 1.40196 0.279919c98.0767,2.27833 197.861,4.56256 297.649,6.84207 100.584,2.29959 201.18,4.60154 300.04,6.89876l34.9592 0.813773 20.8439 27.7887c3.55863,4.74445 5.00665,6.46884 13.5471,17.6514 42.8571,56.109 87.8083,114.96 102.962,205.83l-2.52281 33.9304c-16.788,51.4047 -8.65623,26.3254 -11.3645,34.6792 -32.6466,100.672 -62.0144,191.227 -109.912,284.851l-20.3833 39.8406 -44.3937 -0.862197 -707.611 -13.7408 -75.0253 -1.45629 4.64051 -74.2565c2.7236,-43.6012 4.7976,-67.4356 6.86923,-91.2606 2.50746,-28.8375 5.01846,-57.6786 6.8716,-87.3642l0.561019 -6.17003c8.34678,-56.0416 20.486,-119.935 39.4532,-182.121z"/><path class="fil0" d="M6165.05 4154.82l598.902 26.3265 4.28973 -11.7282c30.5584,-83.5127 63.6987,-174.08 67.1215,-288.972l71.5057 1.96298c-3.77831,126.804 -38.9217,222.847 -71.3262,311.406 -3.75942,10.272 -7.47986,20.4388 -13.0759,36.1568l-8.90071 24.9978 -26.4317 -1.16219 -625.17 -27.4817 3.08501 -71.5057z"/><path class="fil0" d="M6166.04 4489.67c-16.6877,28.4513 -30.2832,62.9132 -41.441,99.4952 -15.751,51.6397 -26.4458,108.317 -34.1076,159.384 -2.59604,40.9815 -4.60272,64.0317 -6.60703,87.0914l-1.13739 13.116 585.938 11.3786c32.0005,-70.373 55.7641,-143.644 81.7162,-223.673 3.31651,-10.2271 4.76689,-14.7424 5.50625,-17.0703 -11.4838,-44.7492 -38.278,-82.1615 -65.266,-117.677 -87.2308,-2.02085 -175.644,-4.04288 -264.054,-6.06373 -87.226,-1.9925 -174.453,-3.98737 -260.547,-5.98105zm-178.285 57.994c19.8105,-64.9542 47.1787,-126.932 85.6103,-174.975l21.7581 -27.2006 34.045 0 0.00118109 0 1.40196 0.279919c98.4606,2.28778 198.641,4.58028 298.819,6.86923 100.196,2.29014 200.394,4.58264 298.871,6.8716l34.958 0.813773 20.8451 27.7887c3.52556,4.69957 4.97949,6.43577 13.5495,17.655 42.8571,56.1102 87.8059,114.959 102.959,205.827l-2.52281 33.9304c-16.4113,50.2543 -8.56174,26.0348 -11.3657,34.684 -32.6466,100.67 -62.0144,191.225 -109.911,284.848l-20.3833 39.8394 -44.3937 -0.861016 -707.611 -13.7408 -75.0265 -1.45747 4.64169 -74.2553c2.72596,-43.6201 4.79878,-67.451 6.87041,-91.2772 2.50746,-28.834 5.01846,-57.6857 6.87041,-87.3477l0.561019 -6.17003c8.34678,-56.0416 20.4849,-119.935 39.4532,-182.121z"/><path class="fil0" d="M6020.79 4704.42l601.454 26.4388c16.5046,-36.4249 31.4832,-76.8832 43.2941,-121.717 14.1235,-53.6098 23.6018,-113.168 25.5659,-179.095l71.5057 1.96298c-2.14959,72.1588 -12.457,137.093 -27.8076,195.359 -15.3306,58.1971 -35.8119,110.059 -58.2763,155.99l-10.3086 21.0742 -23.3419 -1.02519 -625.17 -27.4817 3.08501 -71.5057z"/><path class="fil0" d="M6035.5 5039.28c-16.6877,28.4525 -30.2832,62.9132 -41.441,99.4952 -15.751,51.6397 -26.4458,108.317 -34.1076,159.384 -2.59604,40.9815 -4.60272,64.0329 -6.60703,87.0937l-1.13739 13.1137 585.938 11.3786c32.0005,-70.3766 55.7653,-143.65 81.7186,-223.681 3.22674,-9.95306 4.71492,-14.5794 5.50389,-17.0597 -11.4814,-44.7504 -38.278,-82.1639 -65.266,-117.679 -86.8469,-2.0114 -174.865,-4.02516 -262.885,-6.03656 -87.6158,-2.00195 -175.239,-4.00627 -261.716,-6.00822zm-178.285 57.994c19.8105,-64.9518 47.1776,-126.93 85.6103,-174.975l21.7581 -27.2006 34.045 0 0.00118109 0 1.40196 0.279919c98.8433,2.29722 199.42,4.59917 299.988,6.8964 99.8047,2.28069 199.607,4.56492 297.701,6.84443l34.958 0.812592 20.8451 27.7899c3.49958,4.6665 4.9724,6.42514 13.5483,17.6538 42.8571,56.109 87.8083,114.959 102.959,205.829l-2.52281 33.9304c-16.0617,49.1854 -8.60662,26.1754 -11.3621,34.6745 -32.6478,100.672 -62.0156,191.229 -109.914,284.856l-20.3833 39.8394 -44.3937 -0.861016 -707.611 -13.7408 -75.0265 -1.45747 4.64169 -74.2553c2.72596,-43.6177 4.79878,-67.4498 6.87041,-91.2748 2.50746,-28.8364 5.01846,-57.6893 6.87041,-87.35l0.561019 -6.17003c8.34678,-56.0416 20.4849,-119.935 39.4532,-182.121z"/><path class="fil0" d="M5890.25 5254.03l601.755 26.4529c14.3207,-31.984 31.1017,-79.6493 44.611,-134.817 12.6684,-51.7354 22.2624,-109.442 23.9478,-166.01l71.5057 1.96298c-1.85431,62.2459 -12.2278,124.997 -25.9108,180.872 -18.1959,74.3013 -42.6044,137.554 -60.7341,171.597l-10.6074 19.9156 -22.4821 -0.987393 -625.17 -27.4817 3.08501 -71.5057z"/><path class="fil0" d="M5911.86 5588.88c-16.6888,28.4525 -30.2844,62.9144 -41.4422,99.4952 -15.7499,51.6397 -26.4447,108.316 -34.1064,159.386 -2.59368,40.9508 -4.60154,64.0247 -6.60703,87.0796l-1.13857 13.1255 585.939 11.3786c32.0017,-70.3777 55.7676,-143.655 81.721,-223.689 3.72989,-11.5015 4.9783,-15.4026 5.49798,-17.0621 -11.4838,-44.7457 -38.2768,-82.1544 -65.2624,-117.668 -87.5886,-2.02912 -176.371,-4.05941 -265.145,-6.08853 -86.8634,-1.98424 -173.723,-3.97319 -259.456,-5.95743zm-178.286 57.994c19.8116,-64.953 47.1799,-126.93 85.6115,-174.974l21.7581 -27.2006 34.045 0 0.00118109 0 1.40196 0.279919c98.1015,2.27951 197.913,4.56374 297.729,6.84443 100.558,2.29841 201.127,4.59917 299.961,6.8964l34.9592 0.812592 20.8439 27.7899c3.61296,4.81768 5.00074,6.46176 13.5459,17.6502 42.8571,56.109 87.8107,114.96 102.962,205.831l-2.52281 33.9304c-17.5806,53.8436 -8.4082,25.5647 -11.3597,34.6662 -32.6478,100.676 -62.0168,191.235 -109.916,284.864l-20.3833 39.8394 -44.3937 -0.861016 -707.611 -13.7408 -75.0218 -1.45747 4.63697 -74.2553c2.72478,-43.626 4.79878,-67.4498 6.87041,-91.2866 2.50864,-28.8305 5.0161,-57.6538 6.87041,-87.3382l0.561019 -6.17003c8.34678,-56.0416 20.4849,-119.935 39.452,-182.121z"/><path class="fil0" d="M5766.61 5803.61l624.914 27.4698c7.5708,-0.625979 -4.18461,-37.4855 9.10976,-86.378 17.2109,-63.2995 33.1285,-142.884 36.0103,-208.465 0.145274,-3.30942 0.239762,-5.64444 0.279919,-7.00033l71.5057 1.96298c-0.107479,3.64485 -0.201967,6.35428 -0.279919,8.12237 -3.16415,72.0171 -20.0467,157.213 -38.252,224.169 -21.966,80.782 -55.9436,139.844 -80.6119,139.108l-0.420469 0 -0.0295273 -0.00118109 -0.14055 0 -625.17 -27.4817 3.08501 -71.5057z"/><path class="fil0" d="M7330.58 3985.23c-16.6877,28.4525 -30.2844,62.9132 -41.441,99.494 -15.751,51.6397 -26.4458,108.316 -34.1076,159.384 -2.59604,40.9815 -4.60272,64.0329 -6.60703,87.0926l-1.13739 13.1148 585.938 11.3786c32.0017,-70.3777 55.7676,-143.655 81.721,-223.689 3.73107,-11.5038 4.9783,-15.405 5.49798,-17.0632 -11.4838,-44.7457 -38.2792,-82.1556 -65.2636,-117.668 -87.2308,-2.01967 -175.644,-4.04288 -264.053,-6.06255 -87.226,-1.9925 -174.454,-3.98737 -260.547,-5.98105zm-178.285 57.9928c19.8105,-64.9518 47.1776,-126.93 85.6103,-174.974l21.7581 -27.2006 34.045 0 0.00118109 0 1.40196 0.279919c98.4606,2.28778 198.641,4.58028 298.819,6.86923 100.194,2.28896 200.394,4.58264 298.871,6.87041l34.9568 0.812592 20.8463 27.7899c3.4984,4.66413 4.97122,6.42514 13.5483,17.6538 42.8571,56.109 87.8083,114.959 102.959,205.829l-2.52281 33.9304c-17.5794,53.8401 -8.4082,25.5636 -11.3597,34.6662 -32.6478,100.676 -62.0168,191.235 -109.916,284.864l-20.3833 39.8406 -44.3937 -0.862197 -707.611 -13.7408 -75.0265 -1.45629 4.64169 -74.2565c2.72596,-43.6189 4.79878,-67.4498 6.87041,-91.276 2.50746,-28.834 5.01846,-57.6869 6.87041,-87.3489l0.561019 -6.17003c8.34678,-56.0428 20.486,-119.936 39.4532,-182.121z"/><path class="fil0" d="M7185.61 4199.96l606.678 31.9403c2.60195,-1.22834 7.74206,-38.1658 23.0892,-87.5886 19.5424,-62.9298 36.328,-142.254 39.7827,-207.89 0.245667,-4.66531 0.408658,-8.28772 0.484248,-10.8353l71.5057 1.96298c-0.152361,5.13421 -0.315352,9.30346 -0.484248,12.5172 -3.77713,71.7643 -21.8549,157.611 -42.8677,225.276 -24.9281,80.2741 -61.0259,139.069 -93.6122,138.098l-0.279919 0 -0.157085 -0.00590546 -0.561019 0 -607.222 -31.9686 3.64485 -71.5057z"/><path class="fil0" d="M7212.78 4533.73c-16.6877,28.4525 -30.2844,62.9144 -41.4422,99.4952 -15.751,51.6397 -26.4458,108.316 -34.1076,159.384 -2.59486,40.9745 -4.60272,64.04 -6.60821,87.1067l-1.13621 13.1007 585.936 11.3786c31.997,-70.3683 55.7605,-143.634 81.7103,-223.654 3.59879,-11.0975 4.90508,-15.177 5.5098,-17.0975 -11.4838,-44.7457 -38.278,-82.1568 -65.2624,-117.669 -86.8126,-2.01022 -174.795,-4.0228 -262.781,-6.03302 -87.65,-2.00313 -175.308,-4.00863 -261.819,-6.01176zm-178.286 57.994c19.8116,-64.953 47.1787,-126.93 85.6115,-174.975l22.1856 -27.7344 35.0194 0.813773c98.8763,2.29841 199.49,4.60035 300.092,6.89994 99.7704,2.27951 199.537,4.56256 297.597,6.84089l34.9615 0.813773 20.8416 27.7887c3.47359,4.63106 5.04917,6.52553 13.5507,17.6561 42.8559,56.109 87.8036,114.96 102.957,205.827l-2.52281 33.9304c-16.9877,52.0141 -8.70819,26.4872 -11.3716,34.7017 -32.6442,100.662 -62.0085,191.211 -109.904,284.829l-20.3833 39.8394 -44.3937 -0.861016 -707.611 -13.7408 -75.0253 -1.45747 4.64051 -74.2553c2.7236,-43.6036 4.7976,-67.4356 6.86923,-91.2618 2.50746,-28.8375 5.01846,-57.6798 6.8716,-87.363l0.561019 -6.17003c8.34678,-56.0416 20.4849,-119.935 39.4532,-182.121z"/><path class="fil0" d="M7066.69 4748.45l602.735 14.0207c14.9196,0.344879 37.6284,-123.613 58.2987,-236.456 4.14091,-22.6096 8.21922,-44.8685 10.683,-57.6869l70.3837 13.4597c-4.63343,24.1037 -7.63694,40.4961 -10.683,57.1271 -25.9084,141.442 -54.3716,296.813 -130.086,295.062l-602.735 -14.0207 1.40314 -71.5057z"/><path class="fil0" d="M7088.3 5085.59c-16.6877,28.4525 -30.2844,62.9132 -41.441,99.494 -15.751,51.6409 -26.4458,108.317 -34.1076,159.384 -2.59722,40.9827 -4.60272,64.04 -6.60703,87.0949l-1.13739 13.1125 585.938 11.3786c32.0017,-70.3777 55.7676,-143.655 81.721,-223.689 3.72989,-11.5015 4.9783,-15.4026 5.49798,-17.0621 -11.4838,-44.7445 -38.2768,-82.1556 -65.2624,-117.668 -87.6158,-2.02912 -176.423,-4.0606 -265.224,-6.09089 -86.8363,-1.98305 -173.67,-3.96965 -259.377,-5.95389zm-178.285 57.9928c19.8105,-64.9518 47.1776,-126.928 85.6103,-174.974l21.7581 -27.2006 34.045 0 0.00118109 0 1.40196 0.279919c98.0767,2.27833 197.861,4.56256 297.649,6.84207 100.584,2.29959 201.18,4.60154 300.04,6.89876l34.9592 0.812592 20.8439 27.7899c3.61296,4.81768 5.00074,6.46176 13.5459,17.6502 42.8571,56.109 87.8107,114.96 102.962,205.831l-2.52281 33.9304c-17.5806,53.8436 -8.4082,25.5647 -11.3597,34.6662 -32.6478,100.676 -62.0168,191.235 -109.916,284.864l-20.3833 39.8394 -44.3937 -0.861016 -707.611 -13.7408 -75.0242 -1.45747 4.63933 -74.2553c2.72478,-43.6189 4.79878,-67.4416 6.87041,-91.2736 2.50746,-28.8423 5.01728,-57.6893 6.87041,-87.3512l0.561019 -6.17003c8.34678,-56.0416 20.486,-119.935 39.4532,-182.121z"/><path class="fil0" d="M6942.35 5300.35l593.761 14.0207c21.1912,0.498421 52.659,-163.239 76.5891,-287.765l1.22597 -6.37672 70.3837 13.4597 -1.22597 6.37672c-28.8683,150.22 -66.8274,347.737 -148.655,345.811l-593.761 -14.0207 1.68188 -71.5057z"/><path class="fil0" d="M6967.14 5650.91c-16.6888,28.4525 -30.2844,62.9144 -41.4422,99.4952 -15.7499,51.6409 -26.4447,108.317 -34.1064,159.385 -2.59486,40.965 -4.60154,64.027 -6.60585,87.0796l-1.13857 13.1278 585.938 11.3775c32.0017,-70.3777 55.7665,-143.653 81.7198,-223.686 3.58343,-11.0503 4.89327,-15.1357 5.50035,-17.0632 -11.4838,-44.7469 -38.278,-82.1568 -65.2636,-117.67 -87.5886,-2.02912 -176.371,-4.05941 -265.145,-6.08853 -86.8634,-1.98424 -173.723,-3.97319 -259.456,-5.95743zm-178.286 57.994c19.8116,-64.953 47.1799,-126.93 85.6115,-174.974l21.7581 -27.2006 34.045 0 0.00118109 0 1.40196 0.279919c98.1015,2.27951 197.913,4.56374 297.729,6.84443 100.558,2.29841 201.127,4.59917 299.961,6.8964l34.9592 0.812592 20.8439 27.7899c3.61296,4.81768 5.00074,6.46176 13.5459,17.6502 42.8571,56.109 87.8107,114.96 102.962,205.831l-2.52281 33.9304c-16.9688,51.9598 -8.69993,26.4647 -11.3609,34.6698 -32.6478,100.674 -62.0144,191.234 -109.915,284.861l-20.3833 39.8394 -44.3937 -0.861016 -707.611 -13.7396 -75.023 -1.45747 4.63815 -74.2553c2.7236,-43.6083 4.79878,-67.4498 6.8716,-91.289 2.50746,-28.834 5.0161,-57.6716 6.86923,-87.3371l0.561019 -6.17003c8.3456,-56.0405 20.4849,-119.933 39.452,-182.121z"/><path class="fil0" d="M6821.89 5865.66l589.281 27.4817c15.0081,0.698026 43.8858,-133.376 68.8931,-249.49 3.83737,-17.818 7.57907,-35.1847 12.9826,-59.2353l69.8238 15.7038c-2.98816,13.2979 -7.78812,35.5816 -12.7015,58.3944 -30.9493,143.707 -66.6892,309.641 -142.083,306.133l-589.281 -27.4817 3.08501 -71.5057z"/><path class="fil0" d="M8360.27 4049.18c-16.6888,28.4525 -30.2844,62.9144 -41.4422,99.4952 -15.7499,51.6397 -26.4447,108.316 -34.1064,159.386 -2.59368,40.9497 -4.60154,64.0247 -6.60703,87.0796l-1.13857 13.1255 585.939 11.3786c32.0017,-70.3777 55.7676,-143.655 81.721,-223.689 3.72989,-11.5003 4.9783,-15.4014 5.49798,-17.0621 -11.4838,-44.7457 -38.2768,-82.1544 -65.2624,-117.668 -87.5886,-2.02912 -176.371,-4.05941 -265.145,-6.08853 -86.8634,-1.98424 -173.723,-3.97319 -259.456,-5.95743zm-178.286 57.994c19.8116,-64.953 47.1799,-126.931 85.6115,-174.974l21.7581 -27.2006 34.045 0 0.00118109 0 1.40196 0.279919c98.1015,2.27951 197.913,4.56374 297.729,6.84443 100.558,2.29841 201.127,4.59917 299.961,6.8964l34.9592 0.813773 20.8439 27.7887c3.61178,4.81531 5.00074,6.46176 13.5459,17.6502 42.8571,56.109 87.8107,114.96 102.962,205.831l-2.52281 33.9304c-17.5794,53.8401 -8.4082,25.5636 -11.3597,34.6662 -32.6478,100.676 -62.0168,191.235 -109.916,284.864l-20.3833 39.8394 -44.3937 -0.861016 -707.611 -13.7408 -75.023 -1.45747 4.63815 -74.2553c2.72478,-43.6272 4.79878,-67.4498 6.87041,-91.2866 2.50864,-28.8305 5.0161,-57.6527 6.87041,-87.3382l0.561019 -6.17003c8.34678,-56.0428 20.486,-119.936 39.452,-182.121z"/><path class="fil0" d="M8215.02 4263.9l593.456 26.662c7.7586,-15.0105 18.0105,-45.778 29.0407,-84.4965 18.7144,-65.6912 36.543,-149.297 48.2382,-221.306l70.6648 11.4968c-12.1971,75.0962 -30.6564,161.818 -49.92,229.439 -17.8959,62.8199 -38.317,112.4 -58.4593,129.06l-24.3966 8.13182 -611.709 -27.4817 3.08501 -71.5057z"/><path class="fil0" d="M8239.11 4601.04c-16.6888,28.4525 -30.2844,62.9144 -41.4422,99.4952 -15.751,51.6397 -26.4447,108.316 -34.1076,159.384 -2.59486,40.9745 -4.60272,64.0412 -6.60821,87.1079l-1.13621 13.0995 585.938 11.3786c32.0017,-70.3777 55.7676,-143.655 81.721,-223.689 3.72989,-11.5015 4.9783,-15.4026 5.49798,-17.0621 -11.4838,-44.7457 -38.2768,-82.1544 -65.2624,-117.668 -87.5804,-2.02912 -176.354,-4.05941 -265.119,-6.08735 -86.8717,-1.98542 -173.74,-3.97319 -259.481,-5.95861zm-178.286 57.994c19.8116,-64.953 47.1799,-126.93 85.6115,-174.974l22.1845 -27.7344 35.0206 0.813773c98.111,2.27951 197.931,4.56374 297.755,6.84561 100.55,2.29722 201.109,4.59799 299.935,6.89522l34.9592 0.813773 20.8439 27.7887c3.61178,4.81649 5.00074,6.46176 13.5459,17.6502 42.8571,56.109 87.8107,114.96 102.962,205.831l-2.52281 33.9304c-17.5806,53.8436 -8.4082,25.5647 -11.3597,34.6662 -32.6478,100.676 -62.0168,191.235 -109.916,284.864l-20.3833 39.8394 -44.3937 -0.861016 -707.611 -13.7408 -75.0253 -1.45747 4.64051 -74.2553c2.7236,-43.6 4.7976,-67.4356 6.86923,-91.2606 2.50746,-28.8375 5.01846,-57.6786 6.8716,-87.3642l0.561019 -6.17003c8.34796,-56.0416 20.4849,-119.934 39.4532,-182.121z"/><path class="fil0" d="M8093.86 4815.76l598.255 27.4817c11.5298,0.524405 -4.01099,-43.711 14.2074,-99.794 21.3093,-65.5967 44.3606,-145.408 58.6944,-208.932l69.8238 15.7038c-14.9786,66.3821 -38.6489,148.495 -60.3763,215.38 -27.7592,85.4497 -62.0227,150.213 -85.4343,149.147l-598.255 -27.4817 3.08501 -71.5057z"/><path class="fil0" d="M8117.99 5152.9c-16.6888,28.4525 -30.2844,62.9144 -41.4422,99.4952 -15.7499,51.6409 -26.4447,108.317 -34.1064,159.386 -2.59368,40.9508 -4.60154,64.0247 -6.60703,87.0796l-1.13857 13.1255 585.939 11.3786c32.0017,-70.3777 55.7676,-143.655 81.721,-223.689 3.72989,-11.5015 4.9783,-15.4026 5.49798,-17.0621 -11.4838,-44.7457 -38.2768,-82.1544 -65.2624,-117.668 -87.5886,-2.02912 -176.371,-4.05941 -265.145,-6.08853 -86.8634,-1.98424 -173.723,-3.97319 -259.456,-5.95743zm-178.286 57.994c19.8116,-64.953 47.1799,-126.93 85.6115,-174.974l21.7581 -27.2006 34.045 0 0.00118109 0 1.40196 0.279919c98.1015,2.27951 197.913,4.56374 297.729,6.84443 100.558,2.29841 201.127,4.59917 299.961,6.8964l34.9592 0.812592 20.8439 27.7899c3.61296,4.81768 5.00074,6.46176 13.5459,17.6502 42.8571,56.109 87.8107,114.96 102.962,205.831l-2.52281 33.9304c-17.5806,53.8436 -8.4082,25.5647 -11.3597,34.6662 -32.6478,100.676 -62.0168,191.235 -109.916,284.864l-20.3833 39.8394 -44.3937 -0.861016 -707.611 -13.7408 -75.023 -1.45747 4.63815 -74.2553c2.72478,-43.626 4.79878,-67.4498 6.87041,-91.2866 2.50864,-28.8305 5.0161,-57.6538 6.87041,-87.3382l0.561019 -6.17003c8.3456,-56.0405 20.4849,-119.933 39.452,-182.121z"/><path class="fil0" d="M7972.46 5367.62l602.742 22.9947c10.8046,0.412201 -4.49878,-37.1182 11.1873,-86.7997 20.7128,-65.6026 43.1429,-148.65 57.368,-216.877l70.1049 14.5818c-14.903,71.4797 -37.9603,157.085 -59.0523,223.888 -25.1502,79.654 -56.1727,137.704 -82.1308,136.713l-602.742 -22.9947 2.52281 -71.5057z"/><path class="fil0" d="M7976.65 5724.94c-16.6877,28.4525 -30.2832,62.9132 -41.441,99.4952 -15.751,51.6397 -26.4458,108.316 -34.1076,159.384 -2.59486,40.9674 -4.60154,64.027 -6.60585,87.0796l-1.13857 13.1278 585.938 11.3786c32.0005,-70.3766 55.7653,-143.65 81.7186,-223.681 3.22674,-9.95306 4.71492,-14.5794 5.50389,-17.0597 -11.4814,-44.7504 -38.2792,-82.1639 -65.2672,-117.679 -86.8209,-2.01022 -174.812,-4.0228 -262.806,-6.0342 -87.6418,-2.00195 -175.292,-4.00863 -261.794,-6.01058zm-178.285 57.994c19.8105,-64.9518 47.1776,-126.93 85.6103,-174.975l21.7581 -27.2006 34.045 0 0.00118109 0 1.40196 0.279919c98.8669,2.29722 199.472,4.60035 300.066,6.89876 99.7787,2.28069 199.555,4.56374 297.623,6.84207l34.9568 0.81141 20.8463 27.7911c3.49958,4.6665 4.9724,6.42514 13.5483,17.6538 42.8571,56.109 87.8083,114.959 102.959,205.829l-2.52281 33.9304c-16.0617,49.1854 -8.60662,26.1754 -11.3621,34.6745 -32.6478,100.672 -62.0156,191.229 -109.914,284.856l-20.3833 39.8394 -44.3937 -0.861016 -707.611 -13.7408 -75.023 -1.45747 4.63815 -74.2553c2.7236,-43.6107 4.79878,-67.4498 6.8716,-91.289 2.50746,-28.8328 5.0161,-57.6704 6.86923,-87.3359l0.561019 -6.17003c8.34678,-56.0416 20.4849,-119.935 39.4532,-182.121z"/><path class="fil0" d="M7831.4 5939.7l591.518 27.4817c5.91137,0.274013 3.73816,-36.0446 20.4742,-84.5768 23.2711,-67.4782 46.626,-154.096 58.8834,-222.606l70.3837 12.6188c-13.0475,72.9242 -37.3828,163.601 -61.4062,233.262 -26.8191,77.7678 -60.3963,134.246 -91.4201,132.808l-591.518 -27.4817 3.08501 -71.5057z"/><path class="fil0" d="M4312.77 6791.26c-211.503,453.08 -421.329,772.982 -682.722,960.81 -267.6,192.287 -582.734,244.809 -998.759,157.695l-6.44995 -1.68188c-352.664,-108.684 -635.173,-355.326 -822.8,-664.466 -196.965,-324.525 -289.468,-718.599 -248.447,-1093.84 24.399,-223.23 100.878,-450.169 221.515,-685.381 118.94,-231.907 280.789,-471.794 477.897,-724.208l2.80391 -3.64603c225.6,-253.801 451.204,-507.605 677.379,-761.405 223.824,-251.164 450.059,-504.38 681.096,-761.682 339.943,-378.587 687.148,-737.192 1055.8,-1066.93 368.816,-329.883 757.72,-629.405 1180.29,-889.016l-0.076771 -0.125196c84.5579,-51.9468 154.112,-95.2775 226.332,-140.268 977.222,-608.782 2395.93,-1492.6 3433.61,-945.786l-0.0614168 0.115747c241.063,126.024 434.78,356.486 551.61,620.35 117.572,265.546 158.14,566.741 91.5252,831.013 -62.9699,249.826 -194.838,525.247 -440.217,763.897 -194.779,189.439 -460.748,355.254 -820.043,465.663l-8.41292 1.96298c-199.745,36.3776 -360.286,59.6735 -489.824,68.1608 -136.128,8.91961 -241.048,1.82361 -323.618,-23.1778 -287.31,-86.9934 -440.669,-263.3 -565.003,-406.241 -47.5673,-54.6858 -90.4221,-103.949 -132.253,-136.964 -42.4626,-6.21255 -99.9972,-2.6858 -170.438,9.59047 -85.7508,14.9432 -187.937,42.8595 -303.263,82.0812 -607.644,326.247 -1201.21,733.185 -1732.63,1207 -473.763,422.402 -897.272,897.242 -1236.25,1414.5 165.299,100.954 291.935,224.928 379.885,371.927 99.5425,166.373 148.514,360.599 146.917,582.672l-143.014 -0.559838c1.40668,-195.538 -40.8351,-365.087 -126.725,-508.643 -85.9375,-143.635 -216.608,-262.895 -392.003,-357.775l-67.7333 -36.641 41.3737 -64.8703c353.443,-554.164 800.563,-1060.47 1302.2,-1507.72 540.835,-482.205 1146.13,-896.691 1766.42,-1229.16l10.6558 -4.76689c124.35,-42.4969 235.546,-72.8947 330.043,-89.3614 96.1456,-16.755 177.229,-19.1077 240.033,-5.25114l26.3596 11.4968c59.2873,42.5063 110.838,101.771 168.653,168.237 112.187,128.976 250.563,288.058 498.264,363.058 65.9805,19.9782 154.618,25.3332 273.143,17.5676 124.024,-8.12592 277.638,-30.3375 468.51,-64.9991 333.796,-103.093 579.746,-256.149 758.916,-430.407 223.43,-217.303 343.554,-468.294 400.957,-696.037 58.633,-232.608 21.7203,-500.437 -83.6733,-738.477 -104.553,-236.138 -275.643,-441.177 -486.772,-551.483l-0.279919 0c-964.895,-508.459 -2342.35,349.66 -3291.16,940.74 -84.9489,52.92 -166.774,103.896 -226.891,140.828l-0.2811 0c-415.406,255.19 -797.517,549.45 -1159.74,873.438 -362.444,324.184 -706.376,679.616 -1044.59,1056.28 -224.747,250.297 -452.011,504.687 -680.534,761.122 -226.174,253.8 -451.778,507.604 -677.379,761.405l-0.0224408 -0.0200786c-190.659,244.462 -346.692,475.706 -460.489,697.589 -112.666,219.671 -183.937,430.195 -206.373,635.465 -37.6698,344.592 47.3146,706.541 228.258,1004.67 169.646,279.514 423.566,502.319 739.343,600.626 372.156,77.3415 650.716,32.5604 882.839,-134.234 238.995,-171.732 435.341,-473.866 636.735,-905.29l129.552 60.5711z"/><path class="fil0" d="M3812.55 5184.66c-64.1829,-51.0787 -127.308,-92.7524 -189.25,-125.763 -224.897,-119.857 -437.772,-127.831 -631.38,-59.1928 -195.922,69.46 -373.433,217.287 -524.777,407.458 -82.8914,104.157 -157.737,220.662 -223.343,343.763 -163.929,307.591 -243.985,605.038 -264.966,878.256 -24.771,322.567 32.8237,611.117 131.861,842.446l-65.8979 28.0415c-103.154,-240.945 -163.179,-541.014 -137.469,-875.817 21.6719,-282.205 104.274,-589.273 273.378,-906.576 67.8171,-127.251 145.022,-247.475 230.354,-354.7 159.245,-200.102 347.473,-356.16 557.026,-430.451 211.866,-75.1104 444.21,-66.7081 688.864,63.6786 66.1624,35.2603 132.957,79.2702 200.187,132.774l-44.5862 56.083z"/><path class="fil0" d="M3798.51 5144.66c-44.2851,-46.9685 -136.445,-125.131 -228.602,-203.287 -93.6464,-79.4214 -187.295,-158.846 -234.475,-208.884l-1.26259 -1.40196c-80.7442,-95.7677 -88.0386,-180.738 -43.0142,-277.423 40.7087,-87.4209 126.204,-182.056 239.077,-306.547l0.981488 -1.12086c408.757,-416.056 843.313,-842.178 1264.91,-1227.78 357.338,-326.824 704.427,-623.686 1017.28,-859.444 316.376,-238.411 589.375,-423.683 808.375,-503.679 233.189,-85.178 407.114,-54.7897 509.468,148.467 51.2866,87.4611 92.6567,171.065 131.635,249.836 69.8699,141.198 131.884,266.519 224.418,359.757l-50.7563 50.4752c-100.836,-101.602 -165.275,-231.825 -237.878,-378.546 -38.7859,-78.3832 -79.9588,-161.586 -129.469,-245.961l-1.12204 -2.10353c-81.6997,-163.489 -226.089,-186.148 -421.899,-114.624 -210.57,76.9175 -478.122,258.872 -789.589,493.583 -312.275,235.323 -657.516,530.534 -1012.23,854.958 -419.281,383.477 -853.127,808.964 -1262.11,1225.25l-0.0188975 -0.0177164c-107.886,118.992 -189.57,209.505 -226.017,287.777 -32.1576,69.0561 -26.551,130.358 32.1529,200.286 44.5744,47.0524 136.189,124.752 227.81,202.456 93.6524,79.4249 187.308,158.856 234.491,208.897l-52.157 49.072z"/><path class="fil0" d="M7409.6 2303.67c-122.13,-192.297 -187.431,-390.474 -198.395,-585.679 -11.1908,-199.246 34.3521,-394.878 133.974,-577.556 176.531,-323.714 597.883,-674.068 1048.8,-872.195 387.373,-170.206 798.43,-228.995 1099.99,-64.9388l-34.2115 62.8129c-279.65,-152.134 -668.124,-94.4142 -1037.18,67.7427 -437.479,192.223 -845.087,529.962 -1014.59,840.79 -93.135,170.784 -135.724,353.5 -125.281,539.419 10.2708,182.867 71.971,369.345 187.461,551.189l-60.5711 38.4162z"/><path class="fil0" d="M7829.64 2770.75c-65.1585,-51.9326 -116.331,-112.625 -154.513,-180.039 -92.5787,-163.458 -107.183,-363.561 -58.7345,-571.51 46.8646,-201.154 153.166,-410.761 304.669,-600.85 145.42,-182.454 333.03,-347.633 550.12,-470.589 270.576,-153.248 646.529,-300.704 982.182,-311.188 263.906,-8.24284 503.794,66.6857 655.409,284.288l-117.776 81.8828c-119.313,-171.239 -315.453,-229.974 -533.707,-223.157 -309.235,9.65897 -660.708,148.405 -915.443,292.681 -200.546,113.586 -374.016,266.374 -508.619,435.255 -138.361,173.6 -235.074,363.447 -277.187,544.205 -40.5292,173.962 -30.0812,338.239 43.5929,468.318 29.2285,51.6055 68.6888,98.2952 119.179,138.537l-89.1725 112.166z"/><path class="fil0" d="M3419.26 7862.68c-176.736,-4.91807 -328.814,-37.7796 -455.355,-94.374 -134.754,-60.2676 -240.518,-147.231 -316.378,-256.009 -181.172,-259.775 -166.108,-661.7 -30.7828,-1059.04 73.7061,-216.414 183.183,-432.597 315.667,-623.6 133.305,-192.187 290.432,-359.456 458.609,-476.747 228.352,-159.257 477.311,-227.417 717.678,-145.553l-45.9894 135.722c-192.51,-65.5648 -397.792,-6.86923 -589.806,127.045 -153.72,107.208 -298.638,261.97 -422.715,440.853 -124.901,180.068 -228.154,384.005 -297.721,588.269 -121.813,357.667 -140.177,712.573 12.2751,931.167 60.9845,87.4469 147.041,157.82 257.491,207.218 109.773,49.0956 243.611,77.6556 400.954,82.0339l-3.92595 143.014z"/><ellipse class="fil1" transform="matrix(2.74499 -3.31929 3.31929 2.74499 8682.25 1846.45)" rx="12.2397" ry="8.59363"/><ellipse class="fil1" transform="matrix(2.74499 -3.31929 3.31929 2.74499 8789.96 1705.11)" rx="12.2397" ry="8.59363"/><ellipse class="fil1" transform="matrix(2.74499 -3.31929 3.31929 2.74499 8740.58 1965.35)" rx="12.2397" ry="8.59363"/><ellipse class="fil1" transform="matrix(2.74499 -3.31929 3.31929 2.74499 8877.44 1812.8)" rx="12.2397" ry="8.59363"/><ellipse class="fil1" transform="matrix(2.74499 -3.31929 3.31929 2.74499 8971.66 1624.35)" rx="12.2397" ry="8.59363"/><ellipse class="fil1" transform="matrix(2.74499 -3.31929 3.31929 2.74499 9092.81 1693.89)" rx="12.2397" ry="8.59363"/><ellipse class="fil1" transform="matrix(2.74499 -3.31929 3.31929 2.74499 9074.85 1846.45)" rx="12.2397" ry="8.59363"/><ellipse class="fil1" transform="matrix(2.74499 -3.31929 3.31929 2.74499 8908.86 1960.86)" rx="12.2397" ry="8.59363"/><ellipse class="fil1" transform="matrix(0.913159 -4.74612 4.74612 0.913159 3276.2 6274.74)" rx="12.2397" ry="8.59363"/><ellipse class="fil1" transform="matrix(0.757717 -4.7734 4.7734 0.757717 3417.59 6077.33)" rx="12.2397" ry="8.59363"/><ellipse class="fil1" transform="matrix(1.64448 -4.5448 4.5448 1.64448 3174.98 6525.9)" rx="12.2397" ry="8.59363"/><ellipse class="fil1" transform="matrix(0.564377 -4.8001 4.8001 0.564377 3132.75 6770.56)" rx="12.2397" ry="8.59363"/><ellipse class="fil1" transform="matrix(-0.000168288 -4.83317 4.83317 -0.000168288 3146.41 6988.19)" rx="12.2397" ry="8.59363"/><ellipse class="fil1" transform="matrix(0.0969504 -4.8322 4.8322 0.0969504 3213.68 7163.19)" rx="12.2397" ry="8.59363"/><ellipse class="fil1" transform="matrix(0.842492 -4.75917 4.75917 0.842492 3334.55 7265.21)" rx="12.2397" ry="8.59363"/><ellipse class="fil1" transform="matrix(0.842492 -4.75917 4.75917 0.842492 3480.36 7284.28)" rx="12.2397" ry="8.59363"/><ellipse class="fil1" transform="matrix(1.90456 -4.44209 4.44209 1.90456 3646.01 7220.17)" rx="12.2397" ry="8.59363"/><ellipse class="fil1" transform="matrix(0.750471 -4.77455 4.77455 0.750471 3949.54 6862.69)" rx="12.2397" ry="8.59363"/><ellipse class="fil1" transform="matrix(0.750471 -4.77455 4.77455 0.750471 3808.24 7073.56)" rx="12.2397" ry="8.59363"/><ellipse class="fil1" transform="matrix(0.750471 -4.77455 4.77455 0.750471 4037.03 6618.16)" rx="12.2397" ry="8.59363"/><ellipse class="fil1" transform="matrix(1.43549 -4.60103 4.0097 1.42991 4076.25 6144.03)" rx="12.2397" ry="8.59363"/><ellipse class="fil1" transform="matrix(1.43549 -4.60103 4.0097 1.42991 4094.21 6366.13)" rx="12.2397" ry="8.59363"/><ellipse class="fil1" transform="matrix(0.952867 -4.72463 4.13589 1.00836 4010.66 5976.32)" rx="12.2397" ry="8.59363"/><ellipse class="fil1" transform="matrix(0.952867 -4.72463 4.13589 1.00836 3894.01 5870.88)" rx="12.2397" ry="8.59363"/><ellipse class="fil1" transform="matrix(0.25353 -5.27355 4.64511 0.410623 3745.04 5854.53)" rx="12.2397" ry="8.59363"/><ellipse class="fil1" transform="matrix(0.757717 -4.7734 4.7734 0.757717 3572.38 5918.07)" rx="12.2397" ry="8.59363"/><path class="fil0" d="M1670.72 6758.6c-80.9332,15.9093 -142.91,39.7875 -189.165,68.4986 -50.0712,31.0793 -81.2828,67.4486 -97.9704,104.993 -15.2845,34.3863 -18.7345,62.6451 -13.2967,85.4249 6.11806,25.6309 24.6305,45.8252 50.6051,60.9184 29.8131,17.3219 68.8719,28.0568 111.287,32.8415 89.6992,10.1208 190.954,-6.22908 252.584,-43.0414l36.7343 61.4121c-74.4206,44.4516 -193.482,64.5561 -297.17,52.8562 -51.7968,-5.84404 -100.564,-19.5731 -139.329,-42.0965 -42.6032,-24.7557 -73.425,-59.8011 -84.5355,-106.346 -8.89953,-37.28 -4.45744,-80.8186 17.7825,-130.852 22.3179,-50.213 62.4266,-97.8405 125.452,-136.961 53.3346,-33.106 123.356,-60.355 213.28,-78.0324l13.7408 70.3837z"/><path class="fil0" d="M1633.42 6865.71c-0.487791,-2.29132 -0.699207,-1.52833 -1.01692,0.225589 0.996842,1.43503 1.49763,2.02557 1.01692,-0.225589zm5.83814 -63.1069c34.4666,5.24287 58.6141,21.7404 64.2668,48.2441 5.63617,26.408 -9.67787,51.27 -38.9914,70.1155 -19.8235,12.7463 -47.8555,23.9963 -79.3907,30.7249l-0.0271651 0.00472437c-31.5611,6.73223 -61.6896,7.91686 -84.8792,4.38894 -34.4666,-5.24287 -58.6141,-21.7392 -64.2668,-48.2441 -5.63499,-26.4069 9.67905,-51.2712 38.9926,-70.1167 19.8246,-12.7463 47.8579,-23.9974 79.3942,-30.7261l0.00472437 0c31.5671,-6.73577 61.7038,-7.9204 84.8969,-4.3913zm-38.0205 70.0352c-9.91291,0.589365 -20.7294,2.05274 -32.0159,4.46099l-0.00472437 0c-11.2664,2.40352 -21.7073,5.46491 -30.96,8.94559 9.91173,-0.589365 20.7282,-2.05392 32.0135,-4.46099l0.00944874 -0.00118109c11.2664,-2.40352 21.7061,-5.46373 30.9576,-8.94441zm-46.8787 -65.6439l0.00236218 0m14.8581 70.1049l-0.00236218 0m-62.1243 15.6495c-0.996842,-1.43503 -1.49763,-2.02439 -1.0181,0.225589 0.487791,2.2925 0.700388,1.52833 1.0181,-0.225589z"/><path class="fil0" d="M1449.13 7103.83c44.1669,120.412 115.572,174.891 180.55,184.609 24.5856,3.67674 48.0209,1.00983 68.2884,-6.81726 19.7042,-7.60978 36.5347,-20.0679 48.511,-36.2265 24.112,-32.5296 28.7265,-81.571 -1.8177,-138.592l63.094 -33.6493c45.4224,84.7989 35.793,161.464 -3.79013,214.864 -20.1093,27.1332 -47.9264,47.8768 -80.1997,60.342 -31.7135,12.2479 -67.601,16.5377 -104.461,11.0243 -87.9867,-13.1585 -182.729,-81.6206 -237.476,-230.878l67.301 -24.6777z"/><path class="fil0" d="M1393.57 6888.25c-21.0305,2.40825 -45.0445,16.0404 -67.1498,35.8568 -24.2927,21.777 -45.2689,50.3027 -57.3409,79.7462 -22.3959,54.6291 -28.5009,120.568 -14.6727,185.957 12.5326,59.2578 41.5839,117.845 89.9012,166.862 29.7092,30.1415 59.9959,54.2452 90.3984,73.0529 87.6524,54.2251 177.432,65.1798 257.442,50.5401 80.534,-14.7341 151.317,-55.1263 200.33,-103.437 17.1294,-16.8837 31.4265,-34.5529 42.3599,-52.2255l60.8499 37.5753c-14.0196,22.6616 -31.9167,44.8886 -53.0157,65.6853 -58.2066,57.3716 -142.178,105.323 -237.624,122.785 -95.972,17.5605 -203.415,4.57437 -307.917,-60.0739 -35.2899,-21.8313 -70.1096,-49.4689 -103.858,-83.7087 -58.5267,-59.3759 -93.7445,-130.478 -108.971,-202.475 -16.794,-79.4119 -9.09087,-160.199 18.5987,-227.739 16.1136,-39.2997 43.8516,-77.1419 75.8486,-105.825 32.6383,-29.258 70.5407,-49.6638 106.688,-53.8047l8.133 71.227z"/><path class="fil0" d="M1454.04 6833.03c-63.9124,-12.2019 -118.669,-13.3664 -165.062,-5.77436 -63.1412,10.3334 -110.84,37.0686 -145.042,74.0982 -34.6473,37.5127 -56.1539,86.0957 -66.3219,139.354 -9.41094,49.287 -9.14402,102.391 -0.6059,154.56 10.0334,61.3034 31.6639,119.258 61.966,168.923 32.1257,52.6555 73.8915,95.7228 121.683,123.102 46.2043,26.4695 98.2125,38.1646 152.522,29.2769 31.6875,-5.18618 64.4935,-17.3739 97.7956,-37.691l37.2965 61.131c-41.4599,25.2943 -82.9564,40.5729 -123.595,47.2248 -71.6734,11.7306 -139.693,-3.35076 -199.631,-37.6887 -58.3519,-33.4296 -108.855,-85.2075 -147.202,-148.058 -34.991,-57.3515 -59.9511,-124.16 -71.4998,-194.723 -9.86212,-60.2617 -10.1102,-121.923 0.887,-179.517 12.5656,-65.8152 39.7662,-126.529 83.9863,-174.406 44.6654,-48.3586 106.008,-83.117 186.264,-96.2508 54.4743,-8.9137 117.595,-7.77159 190.019,6.05546l-13.4597 70.3837z"/><path class="fil0" d="M1304.51 6819.16c-60.1176,-32.0005 -142.058,-57.0208 -218.618,-37.3414 -55.1665,14.1814 -108.764,52.5763 -151.014,130.318 -37.2694,68.5766 -53.9606,161.387 -45.6362,250.845 4.91807,52.8574 18.6305,104.136 42.0599,147.955 22.5789,42.2276 54.3054,77.4749 95.998,100.134 40.1229,21.8053 90.2166,32.2911 151.258,26.6112l6.44876 71.227c-76.0659,7.07829 -139.766,-6.68262 -191.918,-35.0253 -54.7436,-29.7517 -95.9614,-75.2131 -124.88,-129.298 -28.0698,-52.4972 -44.4232,-113.152 -50.1929,-175.156 -9.57984,-102.957 10.1916,-210.803 54.0503,-291.505 53.0759,-97.6622 123.041,-146.575 196.161,-165.371 97.0444,-24.9459 197.372,4.88736 269.934,43.5114l-33.6493 63.094z"/><path class="fil0" d="M1005.99 7478.48c-114.905,-16.9593 -194.653,-56.1987 -250.24,-109.291 -56.2909,-53.7621 -86.8008,-120.53 -103.341,-192.292 -23.3301,-101.209 -9.91055,-210.979 28.9072,-303.524 26.9632,-64.2845 66.5321,-120.874 114.955,-161.266 50.3145,-41.9701 109.966,-66.3349 175.083,-64.0872 53.2779,1.83896 109.284,21.4569 165.571,63.8215l-42.9044 57.205c-43.7937,-32.9619 -85.9197,-48.1744 -124.911,-49.5208 -46.4807,-1.60392 -89.874,16.4644 -127.13,47.5425 -39.1473,32.656 -71.697,79.7379 -94.4838,134.066 -33.4273,79.6954 -45.1071,173.693 -25.2624,259.779 13.6522,59.2318 38.2131,113.749 82.8702,156.399 45.3587,43.3225 112.446,75.6395 211.262,90.2236l-10.3747 70.9459z"/><path class="fil0" d="M933.462 6719.15c-166.305,-46.137 -274.68,-6.13814 -335.716,71.0959 -43.2894,54.7779 -64.3034,128.595 -66.192,204.348 -1.91573,76.8041 15.8526,154.897 50.0476,217.059 44.6914,81.2414 118.375,134.011 212.359,114.536l14.3007 70.1049c-130.184,26.9761 -230.236,-42.4697 -289.473,-150.151 -40.1111,-72.9171 -60.9668,-164.017 -58.7404,-253.231 2.25116,-90.2685 28.1513,-179.318 81.6147,-246.971 77.9568,-98.6448 211.452,-151.096 410.867,-95.7736l-19.0676 68.9829z"/><path class="fil0" d="M824.805 6692.13c-37.6898,-36.0706 -80.404,-58.5231 -124.204,-67.6719 -39.2146,-8.18969 -79.4438,-5.79916 -117.807,6.95781 -38.8827,12.9282 -76.1852,36.6422 -109.004,70.9352 -47.5449,49.6779 -85.3209,121.429 -104.818,214.779 -2.76139,13.2247 -4.90744,25.8222 -6.43341,37.7654 -10.344,80.9426 2.89486,151.803 40.1985,206.347 37.1725,54.3491 99.2767,93.6984 186.914,112.001 13.0369,2.72242 26.1931,4.94169 39.4485,6.63538l-8.97394 70.9459c-15.9873,-2.04211 -31.0025,-4.54248 -45.0563,-7.47631 -106.908,-22.3274 -183.928,-72.1706 -231.5,-141.726 -47.4386,-69.362 -64.5727,-157.134 -51.9763,-255.701 1.87203,-14.6574 4.29918,-29.1257 7.27435,-43.3733 22.4089,-107.286 66.9101,-190.885 123.326,-249.832 40.8882,-42.7248 88.2004,-72.5486 138.168,-89.1618 50.487,-16.788 103.357,-19.951 154.822,-9.20189 56.6664,11.8357 111.463,40.4406 159.256,86.1796l-49.6342 51.5972z"/><path class="fil0" d="M711.534 6625.33c-46.2988,-30.1179 -101.094,-51.2287 -157.247,-58.7074 -50.6712,-6.74876 -102.314,-2.36455 -149.473,16.6239 -46.6177,18.7699 -89.274,52.1299 -122.73,103.561 -31.9226,49.0732 -55.6578,114.532 -66.9549,199.351 -0.801962,6.02121 -1.44329,11.694 -1.92636,17.0207 -7.81411,85.9682 14.9739,150.418 51.3385,194.643 35.6855,43.3992 84.3654,67.6931 129.526,73.7072 2.66336,0.354328 5.05626,0.628341 7.17514,0.820859l-6.44876 71.227c-3.56926,-0.323619 -6.9023,-0.69212 -9.97905,-1.10196 -61.5467,-8.1956 -127.57,-40.9166 -175.515,-99.2259 -47.2685,-57.4861 -77.0545,-139.457 -67.3234,-246.519 0.614168,-6.77002 1.34999,-13.3841 2.20746,-19.8246 12.8101,-96.1775 40.456,-171.528 77.8919,-229.076 42.1343,-64.7699 96.4338,-107.018 156.098,-131.04 59.1243,-23.8061 123.105,-29.4045 185.367,-21.112 66.975,8.92079 132.119,33.9611 186.973,69.6443l-38.9784 60.0089z"/><path class="fil0" d="M219.727 7153.69c-69.499,-47.6618 -126.978,-109.967 -162.386,-180.3 -33.4226,-66.3868 -47.3063,-139.841 -33.5359,-215.095 28.8966,-157.945 121.485,-251.679 226.733,-298.294 40.815,-18.0778 83.5965,-28.9474 125.284,-33.6363 41.5296,-4.6724 82.2217,-3.12399 118.973,3.59879 74.1443,13.5648 133.325,49.196 155.407,99.0535l-65.6168 28.8824c-12.1216,-27.3671 -51.3704,-48.1638 -102.69,-57.5523 -29.8745,-5.46491 -63.4424,-6.66845 -98.2208,-2.75549 -34.6202,3.89406 -70.2136,12.9495 -104.254,28.0261 -85.7721,37.9898 -161.349,115.04 -185.232,245.577 -10.7716,58.8633 0.409839,116.958 27.0872,169.946 29.8793,59.3499 79.0387,112.375 138.83,153.38l-40.3792 59.168z"/><path class="fil0" d="M550.273 6523.31c-75.6159,-67.5478 -150.795,-92.3 -218.148,-88.0008 -49.9011,3.18541 -96.037,22.2624 -135.132,51.5877 -39.8418,29.8852 -72.4258,70.3518 -94.4401,115.622 -33.3434,68.5671 -42.1213,147.501 -14.5546,216.191l-66.4577 26.6407c-35.519,-88.5063 -25.1029,-188.374 16.5152,-273.958 26.8722,-55.2598 66.9006,-104.847 116.033,-141.7 49.8775,-37.4135 109.094,-61.7735 173.551,-65.8884 85.2312,-5.44129 178.697,24.3943 270.305,106.227l-47.6712 53.2791z"/><path class="fil0" d="M140.315 6436.7c42.9693,-50.6382 91.0291,-85.0292 141.547,-105.806 71.671,-29.4753 147.263,-31.2316 219.71,-12.8893 70.9104,17.9538 138.81,55.196 196.765,104.373 64.8148,54.9964 117.61,125.33 148.564,200.598l-66.179 27.2006c-26.5569,-64.5762 -72.2828,-125.284 -128.653,-173.116 -49.9366,-42.3729 -107.902,-74.3261 -167.883,-89.5126 -58.444,-14.7967 -118.78,-13.6463 -175.124,9.52551 -40.1867,16.527 -78.8686,44.4162 -114.065,85.8949l-54.6822 -46.2681z"/><path class="fil0" d="M292.759 6331.07c64.1239,-68.8754 145.67,-91.2004 228.839,-82.4721 64.5561,6.77593 129.713,32.5533 187.594,69.636 57.2227,36.6611 107.895,84.8072 144.129,136.776 51.5535,73.9435 74.3663,156.446 47.9098,228.035l-67.301 -24.6777c17.6302,-47.7043 -0.511413,-106.901 -39.217,-162.416 -30.8596,-44.2603 -74.5293,-85.5938 -124.218,-117.428 -49.0271,-31.4111 -103.36,-53.1551 -156.186,-58.6991 -61.9235,-6.49837 -122.27,9.7263 -169.111,60.0385l-52.4381 -48.7933z"/><path class="fil0" d="M373.29 6273.7c112.49,-101.681 250.651,-115.758 371.139,-77.6793 56.7881,17.9479 109.697,47.6476 154.032,85.2796 44.7433,37.9768 80.8765,84.1505 103.666,134.662 40.8611,90.5709 39.4166,194.188 -30.249,289.744l-57.7649 -42.0634c52.4251,-71.9096 53.4763,-149.964 22.6758,-218.236 -18.3695,-40.7158 -47.8649,-78.2485 -84.5957,-109.425 -37.1394,-31.5245 -81.5698,-56.4385 -129.357,-71.5411 -98.3141,-31.071 -210.683,-19.9203 -301.594,62.2566l-47.9523 -52.998z"/><path class="fil0" d="M471.55 6211.49c140.083,-139.182 302.696,-147.705 435.176,-89.026 57.9964,25.6876 110.127,64.5597 151.84,111.097 41.9382,46.7913 73.3813,101.399 89.75,158.277 33.0044,114.682 6.34955,237.79 -115.258,326.518l-42.0634 -57.7649c93.0157,-67.8656 113.481,-161.762 88.3386,-249.123 -13.4066,-46.5846 -39.3516,-91.5252 -74.0462,-130.236 -34.919,-38.9595 -78.6714,-71.5494 -127.443,-93.1516 -107.79,-47.7433 -240.597,-40.3142 -355.818,74.1655l-50.4752 -50.7563z"/><path class="fil0" d="M703.07 6097.29c142.186,-114.479 261.882,-113.373 359.018,-59.0806 92.6661,51.7944 161.074,152.745 207.749,244.817 24.1722,47.6819 39.0587,119.961 43.0591,188.377 4.09957,70.1144 -3.49131,138.557 -24.412,176.025 -22.1467,39.6623 -59.3735,59.8814 -107.503,65.592 -41.2745,4.89681 -90.9595,-1.41259 -145.788,-15.118l17.3857 -69.5427c46.802,11.6987 87.937,17.2357 119.991,13.4337 25.1998,-2.98934 43.8232,-12.0212 53.3806,-29.1364 14.1483,-25.3392 18.8396,-79.2064 15.4404,-137.328 -3.48186,-59.5601 -15.7782,-121.174 -35.4883,-160.055 -41.604,-82.0682 -101.221,-171.289 -178.586,-214.531 -72.8958,-40.7441 -165.244,-39.5453 -279.379,52.3484l-44.8673 -55.8019z"/><path class="fil0" d="M962.694 6011.14c94.0953,-37.3154 182.344,-37.9957 260.473,-8.47788 81.2662,30.7037 150.365,93.7303 202.566,181.791 44.5354,75.1352 77.2293,163.613 86.8221,247.041 8.84166,76.8867 -1.77046,150.246 -40.1123,207.172 -22.9451,34.0662 -52.5539,63.3089 -93.872,75.812 -40.6567,12.3046 -90.1256,7.47277 -151.577,-26.6537l34.7714 -62.5341c41.9867,23.3171 72.8309,27.5147 96.0535,20.486 22.5612,-6.82671 40.4052,-25.2825 55.1747,-47.2106 27.9529,-41.5012 35.3347,-98.0649 28.3344,-158.938 -8.42591,-73.2797 -37.5387,-151.663 -77.286,-218.721 -43.8717,-74.0108 -100.562,-126.458 -166.112,-151.225 -61.7322,-23.323 -132.437,-22.3982 -208.876,7.91568l-26.3596 -66.4577z"/><path class="fil0" d="M1214.07 6006.54c0.993299,-0.256297 345.758,-91.7921 446.129,104.756l-63.6538 32.5273c-74.0226,-144.952 -363.974,-68.2341 -364.809,-68.0191l-17.6668 -69.264z"/><path class="fil0" d="M1484.94 6313.17c0.460626,1.02991 163.431,359.536 -64.19,370.626l-3.36611 -71.5057c121.749,-5.93145 2.55588,-269.2 2.21809,-269.956l65.338 -29.1635z"/><path class="fil0" d="M1438.56 6618.06c0.25984,0.168896 89.7843,59.9015 188.443,-3.92241l38.9784 60.0089c-138.214,89.4134 -266.029,4.16453 -266.4,3.92241l38.9784 -60.0089z"/><path class="fil0" d="M1501.25 6007.94c0.21614,-0.127558 75.2297,-44.8 155.447,-19.8435l-21.3116 68.4207c-49.8716,-15.516 -97.8228,13.0322 -97.961,13.1137l-36.1745 -61.6908z"/><path class="fil0" d="M1588.45 7137.36c0.0885819,0.255116 31.4549,88.5441 -8.62079,172.938l-64.7758 -30.5643c27.4722,-57.8534 5.8783,-118.642 5.81688,-118.818l67.5797 -23.5557z"/><path class="fil0" d="M1679.92 7131.69c0.148818,0.331887 52.6496,115.009 -0.581097,211.417l-62.8129 -34.4903c35.8273,-64.888 -1.83778,-147.244 -1.94408,-147.482l65.338 -29.4446z"/><path class="fil1" d="M4439.41 8429.41c0,0 -170.48,358.94 538.417,394.837 485.158,51.7472 2588.48,304.021 3768.51,235.755 456.89,-26.4293 676.663,-105.404 807.933,-253.699 -529.409,0.00472437 -4343.11,-215.356 -5114.88,-376.891l0.0200786 -0.00236218z"/><path class="fil0" d="M4442.07 8434.53c-14.7743,35.4304 -127.772,351.64 535.973,385.249l0.263384 0.0177164c43.9803,4.69012 100.256,10.918 167.657,18.3743 687.074,76.0116 2526.26,279.488 3600.14,217.364 228.052,-13.1904 396.858,-39.4745 524.952,-80.9391 123.323,-39.9209 208.837,-93.9134 273.201,-163.858 -337.993,-1.52007 -1823.07,-78.5604 -3126.51,-174.604 -873.015,-64.327 -1664.56,-137.187 -1975.67,-201.603zm535.335 394.174c-715.294,-36.2985 -542.549,-400.086 -542.074,-401.133l3.36729 1.5177 0.188975 -4.12674 0.0200786 -0.00236218 7.86607 -0.925976 -0.963771 2.12479c311.961,64.2207 1101.63,136.863 1972.56,201.036 1316.52,97.0078 2818.17,174.642 3135.91,174.641l9.92472 -0.00118109 -6.5775 7.43261c-66.1636,74.7454 -154.549,131.994 -283.839,173.846 -128.83,41.702 -298.359,68.123 -527.196,81.3595 -1074.63,62.168 -2914.34,-141.365 -3601.61,-217.399 -67.8939,-7.51175 -124.588,-13.7845 -167.576,-18.3695z"/></g><text x="0" y="9091.11" fill="#000000" font-size="5px" font-weight="bold" font-family="'Helvetica Neue', Helvetica, Arial-Unicode, Arial, Sans-serif">Created by Mochamad Wildan</text><text x="0" y="9096.11" fill="#000000" font-size="5px" font-weight="bold" font-family="'Helvetica Neue', Helvetica, Arial-Unicode, Arial, Sans-serif">from the Noun Project</text></svg>