<svg xmlns="http://www.w3.org/2000/svg" version="1.1" viewBox="-5.0 -10.0 110.0 135.0">
 <g>
  <path d="m89.559 40.18c-1.3984-2.9219-4-6.25-5.8906-8.6914-0.41016-0.53125-0.78906-1.0117-1.1094-1.4297-2.3398-3.1016-4.6992-7.5508-4.7305-7.6016h-0.019531c0.039062-0.62891 0.070312-1.1484 0.078125-1.3516 0.078125-1.1719-0.28906-2.1484-0.98828-2.6211-0.5-0.33984-1.1211-0.37891-1.6992-0.10156-0.48828 0.23047-1.2617 0.96875-2.0508 1.8398-0.69922-0.32812-2.7812-1.1289-6.3203-1.1289-4.5195 0-6.5586 0.73047-7.2305 1.0391-1.7695-0.73828-6.5195-2.6289-7.8984-2.0195-0.32031 0.14062-0.44922 0.35938-0.51172 0.53125-0.48047 1.3516 2.1406 4.9609 3.4805 6.6914-0.44141 1.1914-1.9609 5.7812-1.1016 9.7305-1.1719 0.35156-2.4297 0.89844-3.7383 1.7617l0.44922 0.69141c1.2188-0.80078 2.3984-1.3203 3.5-1.6406 0.10938 0.33984 0.23828 0.67969 0.39062 1-1.4883 0.60156-2.0781 1.4414-2.1094 1.4805l0.67969 0.46094s0.51172-0.71094 1.8203-1.2188c0.089844 0.14063 0.17188 0.28906 0.26172 0.42188 0.21094 0.28906 0.42969 0.55078 0.64844 0.80078-0.78125 0.48828-1.5 1.1797-1.9805 2.1719l0.73828 0.35938c0.42969-0.89062 1.1094-1.5 1.8398-1.9219 0.48047 0.44141 0.98047 0.82812 1.5117 1.1602-2.0703 1.5703-7.6719 6.0508-12.031 11.77-0.10938 0.12891-1.4102 1.6992-2.7617 3.3281-1.3711 0.078125-8.4297 0.73828-13.211 5.5195-1.9688 1.9688-3.4219 3.6094-4.5781 4.9297-1.8711 2.1094-2.9883 3.3906-4.4492 4.0195-0.89844 0.39062-2.6992 0.85156-4.6094 1.3398-3.4688 0.89062-7.4102 1.8906-8.9609 3.1602-0.80859 0.66016-1.1719 1.6992-0.91016 2.6484 0.28906 1.0703 1.25 1.8203 2.6484 2.0391 0.78906 0.12891 2.1289 0.19141 3.7383 0.19141 3.7891 0 9.0703-0.37109 12.199-1.2617 3.3711-0.96094 7.0195-1.0117 8.4219-0.98828-0.019531 0.16016-0.050781 0.32031-0.050781 0.48047 0 2.3086 1.4102 6.1914 10.891 6.1992h0.03125c2.5312 0 3.7812-0.39062 4.0391-1.2812 0.10156-0.33984 0.011719-0.67188-0.14844-0.96875 0.33984 0.078125 0.69141 0.12891 1.0312 0.12891 0.10937 0 0.21875 0 0.32812-0.011718 1.6406-0.14844 2.2695-0.80859 2.5117-1.5508 1.2109-0.37891 6.6914-2 13.84-2 3.7617 0 5.3984-0.10938 6.1016-0.19922 0.14062 0.28906 0.35156 0.55859 0.62891 0.76172 0.25 0.51172 0.94922 1.1602 2.25 0.98828 0.32031 0.21875 0.78906 0.42187 1.3516 0.42187 0.46875 0 1.0117-0.14062 1.5703-0.53125 0.55078 0.17188 1.6992 0.35156 2.5391-0.60156 0.19922-0.21875 0.46875-0.69141 0.80859-1.3281 5.5703-2.3516 9.6094-6.4297 11.672-11.809 2.75-7.1797 1.7383-16.102-2.9219-25.801zm1.9531 25.43c-1.8086 4.7188-5.2383 8.3789-9.9297 10.672 0.48047-0.98828 1.0312-2.1602 1.6406-3.4492 0.58984-1.2695 1.2109-2.5781 1.3594-2.8203 0.48047-0.71875 3.0898-6.4414 3.3398-7.9414l-1.0312-0.17187c-0.21094 1.2695-2.6992 6.8203-3.1797 7.5391-0.19141 0.28906-0.64844 1.2617-1.4414 2.9492-1.0195 2.1797-2.5586 5.4805-3.0586 6.0391-0.39063 0.44922-0.96094 0.41016-1.3086 0.32812 0.011718-0.35938 0.019531-0.89062-0.019532-1.3008l-1.0391 0.089844c0.03125 0.42188 0.019531 0.98828 0 1.3086-0.75 0.51953-1.3516 0.35156-1.6289 0.17969 0.058594-0.76953 0.37891-1.1484 0.39062-1.1602l-0.71875-0.75c-0.070313 0.058594-0.60156 0.60156-0.71875 1.6992-0.67969 0.019532-0.91016-0.32031-0.96094-0.44922 0.019531-0.42969 0.14844-0.98828 0.30078-1.1094l-0.64062-0.82812c-0.12891 0.10156-0.23828 0.23828-0.32813 0.39062 0.17188-0.76172 0.76953-1.6016 1.0391-1.9219 1.2617-1.4492 3.8711-7.7188 5.0117-12.68 0.058594-0.23047 1.4805-5.5703 0.32031-8l-0.94141 0.44922c0.82812 1.7305 0 5.8398-0.39062 7.3008-1.1602 5.0586-3.7305 11.031-4.7812 12.25-0.14062 0.16016-1.25 1.4883-1.3281 2.8281-0.60938 0.070313-2.1797 0.17969-5.9219 0.17969-6.6992 0-11.859 1.3516-13.711 1.8984-0.03125-0.66016-0.26172-1.5703-1.1211-2.4805l-0.76172 0.71875c0.55859 0.58984 0.83984 1.2305 0.83984 1.9297 0 0.64844 0 1.3203-1.6992 1.4805-2.1094 0.19141-4.8203-2.1484-4.8906-2.2188 0 0-0.070313-0.050782-0.16016-0.12891-0.19922-0.21875-0.35156-0.44141-0.41016-0.62109h-0.019531c-0.050781-0.12109-0.078125-0.26172-0.070312-0.41016 0.050781-0.69141 0.91016-1.4688 2.4102-2.1992 1.0117-0.48828 2.0117-1.2109 3.0781-1.9805 3.1406-2.2617 7.0508-5.0703 13.609-3.4219l0.25-1.0117c-7.0195-1.7617-11.148 1.1992-14.469 3.5781-1.0312 0.73828-2 1.4297-2.9297 1.8789-1.9102 0.92969-2.9219 1.9609-2.9883 3.0703-0.058594 0.89844 0.48828 1.5508 0.82812 1.8516 0.94922 1.0508 2.4883 2.0117 2.6992 2.1289 0.55859 0.37109 1.0117 0.89844 0.96094 1.0508 0 0-0.23828 0.53125-3.0391 0.53125h-0.03125c-1.9805 0-3.6797-0.17969-5.0781-0.53125-0.050781-0.58984 0.21094-1.4414 1.6797-2.1992 1.3789-0.71094 2.6289-0.57812 2.6289-0.57812s-3.3281-1.6602-5.5703-0.60156c-1.1719 0.55078-1.6719 1.5312-1.6016 2.1914-0.35156-0.23828-0.64844-0.5-0.91016-0.78906-0.19141-0.96094-0.28906-3 2.1914-3.1211 3.9492-0.17969 4.9492 0.37891 4.9492 0.37891s-2.3984-2.3281-6.2383-2.3398c-0.37109 0-0.69922 0.058594-0.98828 0.14844 1.6602-2.0312 5.0703-3.0703 5.1094-3.0781l-0.30078-1c-0.23828 0.070312-5.2109 1.5781-6.4688 4.8281-1.2617-0.03125-5.1992-0.039063-8.9414 1.0195-4.3516 1.2305-12.941 1.4492-15.488 1.0391-0.96875-0.16016-1.6289-0.62109-1.8086-1.2812-0.14844-0.55078 0.070312-1.1719 0.57031-1.5703 1.3711-1.1211 5.3594-2.1406 8.5586-2.9609 2.0391-0.51953 3.8008-0.96875 4.7695-1.3906 1.6602-0.73047 2.9219-2.1406 4.8086-4.2891 1.1602-1.3086 2.5898-2.9297 4.5391-4.8789 3.7383-3.7383 9.1406-4.8086 11.531-5.1094-1.0117 1.2188-1.8789 2.3008-2.1211 2.6094-0.039063 0.058594-0.10938 0.14062-0.19141 0.23047-0.55859 0.67969-1.7188 2.0898-1.5586 3.3398 0.058593 0.42969 0.26172 0.80859 0.60937 1.1094 0.16016 0.37109 0.64063 1.2812 1.6094 1.6797 0.30859 0.12891 0.62891 0.19141 0.96875 0.19141 0.46094 0 0.94141-0.12109 1.4492-0.35156 0.37109 0.039063 1.2695 0.078126 1.9805-0.28125 1.2383-0.62891 1.8594-1.6797 2.5703-4.3281l-0.5-0.12891 0.51172 0.10938c0.03125-0.12109 2.7109-11.891 12.91-14.699l-0.28125-1.0117c-10.641 2.9414-13.531 14.988-13.641 15.461-0.69141 2.5898-1.1992 3.25-2.0312 3.6719-0.30859 0.16016-0.73828 0.19141-1.0781 0.17969 0-0.35938 0.070313-0.89062 0.32031-1.3203l-0.89062-0.53906c-0.42188 0.69141-0.48047 1.5195-0.46875 2-0.53125 0.19922-1 0.23828-1.3984 0.070312-0.48828-0.19922-0.80078-0.64062-0.94922-0.92969 0.070312-0.26172 0.30078-0.85156 0.89062-1.4609l-0.75-0.73047c-0.35156 0.35938-0.58984 0.71094-0.76953 1.0312 0.011718-0.80078 0.92187-1.9102 1.3281-2.4102 0.10156-0.12109 0.17188-0.21094 0.21875-0.28125 0.58984-0.78906 5.7305-6.9805 5.8008-7.0586 4.6211-6.0508 10.641-10.691 12.23-11.871 2.0898 0.98828 4.4609 1.3203 6.7891 1.5391 0.71094 0.070313 1.3789 0.10156 2.0195 0.10156 4.9805 0 7.6914-1.9102 9.1289-3.6289 0.03125-0.03125 0.050782-0.070313 0.070313-0.10156 0.62891 0.33984 1.2109 0.82031 1.6484 1.5117l0.69141-0.44141c-0.51172-0.80078-1.1602-1.3594-1.8594-1.75 0.30078-0.44922 0.57031-0.91016 0.78906-1.3906 1.0898 0.35938 1.5703 0.87891 1.5703 0.87891l0.62891-0.53906s-0.62109-0.67969-1.9102-1.1211c0.12891-0.35937 0.23047-0.71875 0.32031-1.0781 1.0195 0.21875 2.1211 0.57812 3.2695 1.1602l0.37109-0.73047c-1.2305-0.62109-2.3906-1.0117-3.4805-1.2383 0.21875-1.4805 0.14062-2.9102-0.17969-4.0586l-1 0.28125c0.28906 1.0195 0.35938 2.3008 0.16016 3.6094-3.7695-0.5-6.3281 0.89844-6.4805 0.98047l0.39844 0.71875s2.4102-1.3008 5.9102-0.87109c-0.078125 0.32812-0.17969 0.66016-0.30078 0.98828-0.41016-0.070312-0.85156-0.12891-1.3594-0.14844-2.5508-0.058594-4.0781 0.55078-4.1406 0.57812l0.30859 0.76172s1.4297-0.57813 3.8086-0.51953c0.39062 0 0.73828 0.050782 1.0586 0.10156-0.19922 0.41016-0.44141 0.80859-0.71094 1.1992-1.8984-0.67969-3.8203-0.41016-3.9492-0.39063l0.12891 0.80859s1.6406-0.23828 3.2812 0.26953c-2.1094 2.3906-5.5898 3.4414-10.109 3.0195-3-0.28125-6.0703-0.73828-8.3789-2.6719 1.4219-0.51172 2.7695-0.46875 2.7891-0.46875l0.03125-0.82031c-0.12109 0-1.8008-0.050781-3.4883 0.66016-0.26953-0.28125-0.53125-0.57813-0.76953-0.92188-0.03125-0.039062-0.039062-0.078124-0.070312-0.12109 0.21094-0.050781 0.41016-0.089844 0.64844-0.12891 2.3594-0.33984 3.8281 0.078126 3.8398 0.078126l0.23047-0.78906c-0.070313-0.019531-1.6602-0.44922-4.1797-0.10156-0.35938 0.050782-0.67969 0.12109-0.98047 0.19141-0.14844-0.30078-0.26953-0.60938-0.37109-0.94141 3.2188-0.66016 5.5391 0.26953 5.5703 0.28125l0.32031-0.76172c-0.14844-0.058594-2.6406-1.0703-6.1094-0.32812-0.87891-4.1602 1.1406-9.3008 1.1719-9.3711l0.10938-0.28125-0.19141-0.23828c-0.62891-0.78906-1.1992-1.6016-1.7109-2.3516 0.76172 0.69141 1.6992 1.4492 2.8516 2.2305l0.58984-0.85938c-3.3086-2.2383-4.7891-4.3008-5.1797-4.8984 0.75-0.19141 3.9492 0.76172 7.2109 2.1484l0.26172 0.10156 0.23047-0.14844s0.64062-0.37891 2.3203-0.67969c-0.53125 1.0117-1.6914 3.6484-0.25 5.4297 0.78906 0.98047 1.4102-0.42188 1.5391-3.3711 0.050782-1.0703 0.011719-1.7695-0.058593-2.2305 0.44141-0.050782 0.92188-0.089844 1.4609-0.12109-0.42969 2-1 4.5703-0.12109 5.7188 0.82031 1.0586 1.6797-0.51953 1.8203-3.4688 0.039063-0.94922-0.10938-1.6719-0.17969-2.2891h0.39062c0.46875 0 0.89844 0.019531 1.3086 0.039063-0.30859 0.85938-0.80078 2.6406-0.26172 4.4102 0.83984 2.7383 1.4219 0.87891 1.6016-2.0586 0.058594-1.0586 0.019531-1.7617-0.070312-2.2305 1.4688 0.19922 2.4688 0.53125 3.0195 0.75-1.1719 1.3516-2.2383 2.75-2.4492 3.0195l0.82812 0.62891c1.4219-1.8594 3.9883-4.9609 4.8516-5.3711 0.25-0.12109 0.46875-0.10938 0.67187 0.019531 0.30078 0.19922 0.58984 0.75 0.53125 1.6914-0.050781 0.73828-0.32031 5.5312-0.32031 5.5312l1.0391 0.058593s0.058594-1.0586 0.12891-2.25c0.91016 1.6016 2.4688 4.2383 4.0312 6.3086 0.32031 0.42188 0.69922 0.91016 1.1094 1.4492 1.8711 2.3984 4.4219 5.6914 5.7695 8.5 4.5312 9.4297 5.5312 18.07 2.8906 24.98z"/>
  <path d="m62.871 34.289 0.96875-0.37109c-0.23047-0.58984-0.87891-1.3516-1.5703-1.6016-1.8594-0.67188-3.3203-0.19922-3.3789-0.17969l0.32031 0.98828s1.1992-0.37109 2.7109 0.17188c0.35938 0.12891 0.80859 0.64844 0.94922 0.98828z"/>
  <path d="m69.789 32.32c-0.69141 0.25-1.3398 1.0117-1.5703 1.6016l0.96875 0.37109c0.12891-0.33984 0.57812-0.85938 0.94141-0.98828 1.5117-0.53906 2.6992-0.17188 2.7109-0.17188l0.32031-0.98828c-0.058594-0.019531-1.5195-0.48047-3.3789 0.17969z"/>
  <path d="m67.75 38.27c-0.83984 0-1.2383-0.26953-1.4102-0.46094v-1.1289c0.28125-0.17969 0.64844-0.42969 0.82812-0.73828 0.12891-0.21875 0.019531-0.57812-1.2617-0.57031-0.94141 0-1.3789 0.21875-1.1719 0.53906 0.25 0.39062 0.55859 0.67969 0.82031 0.85156v1.0508c-0.17188 0.19141-0.57031 0.48047-1.4297 0.48047-0.98047 0-1.5-0.19922-1.9688-0.51172l-0.42969 0.64844c0.69141 0.46094 1.3906 0.64062 2.3906 0.64062 0.91016 0 1.4688-0.26953 1.8086-0.55078 0.33984 0.28125 0.89844 0.55078 1.8086 0.55078 1.0117 0 1.6992-0.19141 2.3906-0.64062l-0.42969-0.64844c-0.46875 0.30859-0.98047 0.51172-1.9688 0.51172z"/>
  <path d="m10.48 76.84s-0.058594-0.12891 0.050781-0.21875l-0.30859-0.42188-0.30078-0.42969c-0.21094 0.14062-0.51172 0.5-0.5 0.98828-0.55078-0.03125-0.83984-0.12891-0.91016-0.30859-0.019531-0.039063-0.058594-0.12891 0.050781-0.21875l-0.30859-0.42188-0.30078-0.42969c-0.26953 0.19141-0.69922 0.73828-0.39844 1.4609 0.35156 0.83984 1.3086 0.96094 2.3086 0.96094h0.14062c0.46875 0.32031 1.1406 0.39062 1.8516 0.39062h0.28906l-0.019531-1.0391c-1.0117 0.011718-1.5195-0.078125-1.6211-0.32031z"/>
 </g>
<text x="0.0" y="117.5" font-size="5.0" font-weight="bold" font-family="Arbeit Regular, Helvetica, Arial-Unicode, Arial, Sans-serif" fill="#000000">Created by Haerim Jeong</text><text x="0.0" y="122.5" font-size="5.0" font-weight="bold" font-family="Arbeit Regular, Helvetica, Arial-Unicode, Arial, Sans-serif" fill="#000000">from Noun Project</text></svg>