<svg xmlns="http://www.w3.org/2000/svg" xmlns:xlink="http://www.w3.org/1999/xlink" version="1.1" x="0px" y="0px" viewBox="0 0 100 125" enable-background="new 0 0 100 100" xml:space="preserve"><path d="M50.788,63.575c-4.204,0-7.497,2.342-7.497,5.332s3.293,5.332,7.497,5.332s7.497-2.342,7.497-5.332  S54.991,63.575,50.788,63.575z M50.788,72.239c-2.979,0-5.497-1.526-5.497-3.332s2.517-3.332,5.497-3.332  c2.979,0,5.497,1.526,5.497,3.332S53.767,72.239,50.788,72.239z"/><path d="M63.09,71.786c0-0.025-0.013-0.048-0.015-0.073c-0.002-0.023,0.008-0.046,0.004-0.07l-4.922-34.017l2.404-11.55  c0-0.002,0-0.004,0-0.006c0.378-1.521,0.148-2.929-0.686-4.184c-0.382-0.573-0.878-1.073-1.433-1.517  c0.129-9.057,4.03-14.737,4.07-14.794c0.006-0.009,0.007-0.02,0.013-0.029c0.051-0.077,0.084-0.165,0.112-0.256  c0.01-0.031,0.028-0.059,0.035-0.09c0-0.004,0.003-0.007,0.004-0.011c0.01-0.051-0.003-0.099-0.001-0.149  c0.003-0.076,0.013-0.151-0.002-0.226c-0.014-0.073-0.048-0.136-0.077-0.203c-0.022-0.051-0.034-0.104-0.064-0.151  c-0.051-0.079-0.121-0.14-0.191-0.202c-0.026-0.023-0.041-0.054-0.07-0.074C62.27,4.18,62.267,4.18,62.264,4.178  c-0.062-0.042-0.137-0.063-0.208-0.092c-0.054-0.021-0.103-0.054-0.158-0.065c-0.004-0.001-0.007-0.004-0.012-0.005l-5.107-0.984  c-0.049-0.009-0.095,0.003-0.144,0.001c-0.07-0.004-0.139-0.01-0.21,0.001c-0.076,0.013-0.144,0.042-0.214,0.072  c-0.04,0.017-0.083,0.019-0.121,0.041l-3.421,1.971c-0.023,0.014-0.037,0.037-0.06,0.052c-0.021,0.015-0.048,0.019-0.068,0.036  c-0.032,0.026-0.049,0.063-0.077,0.093c-0.048,0.049-0.093,0.098-0.129,0.155c-0.034,0.054-0.059,0.109-0.082,0.168  c-0.024,0.06-0.044,0.118-0.057,0.182c-0.012,0.063-0.014,0.124-0.013,0.187c0,0.064,0.003,0.125,0.016,0.189  c0.014,0.065,0.037,0.126,0.063,0.188c0.017,0.038,0.018,0.079,0.039,0.115c0.019,0.032,0.044,0.056,0.065,0.084  c0.01,0.014,0.012,0.031,0.022,0.044l1.743,2.164l-2.409,1.385c-0.023,0.014-0.037,0.037-0.06,0.052  c-0.021,0.015-0.048,0.019-0.068,0.036c-0.032,0.026-0.049,0.063-0.076,0.092c-0.049,0.049-0.094,0.098-0.13,0.155  c-0.034,0.054-0.059,0.108-0.082,0.167c-0.024,0.061-0.044,0.119-0.057,0.183c-0.012,0.063-0.014,0.123-0.013,0.186  c0,0.064,0.003,0.126,0.016,0.19c0.013,0.065,0.036,0.125,0.063,0.187c0.017,0.038,0.018,0.079,0.039,0.116  c0.019,0.032,0.044,0.056,0.065,0.084c0.01,0.014,0.012,0.03,0.022,0.044l1.744,2.167l-2.409,1.387  c-0.024,0.014-0.037,0.037-0.059,0.052c-0.022,0.015-0.048,0.019-0.069,0.036c-0.032,0.026-0.048,0.063-0.077,0.092  c-0.048,0.049-0.093,0.098-0.129,0.155c-0.034,0.054-0.059,0.109-0.082,0.167c-0.024,0.06-0.044,0.118-0.056,0.182  s-0.014,0.125-0.013,0.189c0,0.063,0.003,0.124,0.016,0.188c0.013,0.065,0.037,0.126,0.063,0.188  c0.016,0.039,0.018,0.079,0.039,0.116c0.019,0.032,0.044,0.056,0.065,0.085c0.01,0.014,0.012,0.03,0.022,0.043l0.564,0.701  c-0.004-0.001-0.011-0.002-0.016-0.003c-0.011-0.003-0.021-0.003-0.032-0.006c-0.065-0.01-0.109-0.017-0.126-0.02  c-0.044-0.007-0.085,0.007-0.129,0.006c-0.04,0.001-0.076-0.012-0.116-0.006c-0.015,0.002-0.056,0.008-0.109,0.017  c-0.001,0-0.001,0-0.002,0l-1.592-0.674l1.467-2.36c0.011-0.017,0.011-0.037,0.02-0.054c0.016-0.029,0.038-0.052,0.051-0.083  c0.017-0.039,0.013-0.08,0.024-0.12c0.019-0.065,0.035-0.128,0.04-0.195c0.005-0.064,0-0.125-0.007-0.188  c-0.007-0.064-0.017-0.125-0.036-0.186c-0.02-0.061-0.046-0.116-0.077-0.172c-0.03-0.056-0.062-0.108-0.103-0.158  c-0.042-0.052-0.092-0.094-0.145-0.137c-0.032-0.026-0.053-0.061-0.089-0.083c-0.023-0.015-0.05-0.015-0.073-0.027  s-0.039-0.033-0.064-0.044l-2.559-1.086l1.468-2.358c0.009-0.015,0.009-0.033,0.018-0.048c0.017-0.031,0.041-0.056,0.055-0.09  c0.018-0.042,0.015-0.085,0.026-0.128c0.017-0.061,0.031-0.118,0.037-0.179c0.006-0.07,0.001-0.137-0.008-0.206  C48.979,8.755,48.97,8.7,48.953,8.644c-0.021-0.067-0.05-0.126-0.084-0.188c-0.028-0.052-0.057-0.1-0.095-0.146  c-0.045-0.055-0.097-0.1-0.153-0.145c-0.031-0.025-0.05-0.058-0.084-0.08c-0.022-0.014-0.047-0.014-0.07-0.026  c-0.024-0.013-0.041-0.035-0.067-0.045L45.841,6.93l1.467-2.361c0.01-0.017,0.01-0.036,0.02-0.053  c0.016-0.029,0.039-0.053,0.052-0.084c0.017-0.04,0.013-0.081,0.025-0.121c0.018-0.065,0.034-0.127,0.039-0.192  c0.005-0.065,0-0.126-0.007-0.19c-0.007-0.063-0.017-0.124-0.036-0.184c-0.02-0.062-0.046-0.117-0.078-0.174  c-0.03-0.056-0.062-0.107-0.102-0.157c-0.043-0.052-0.093-0.095-0.147-0.138c-0.032-0.026-0.052-0.061-0.087-0.083  c-0.023-0.014-0.049-0.015-0.072-0.027c-0.024-0.013-0.04-0.034-0.065-0.045l-3.635-1.541c-0.043-0.018-0.088-0.015-0.131-0.027  c-0.075-0.021-0.148-0.044-0.227-0.046c-0.073-0.002-0.141,0.016-0.212,0.029c-0.049,0.009-0.099,0.003-0.147,0.02l-4.914,1.703  c0,0,0,0,0,0c-0.062,0.021-0.115,0.067-0.173,0.102c-0.057,0.034-0.121,0.057-0.169,0.101c0,0-0.001,0-0.001,0  c-0.011,0.01-0.015,0.023-0.025,0.034c-0.083,0.082-0.156,0.174-0.205,0.278c-0.029,0.062-0.036,0.128-0.051,0.194  c-0.015,0.06-0.041,0.116-0.044,0.178c-0.007,0.119,0.012,0.238,0.047,0.354c0.003,0.01,0,0.021,0.004,0.032c0,0,0,0,0,0  c0.001,0.005,0.005,0.008,0.006,0.013c0.042,0.114,0.104,0.213,0.179,0.301c0.008,0.009,0.01,0.021,0.018,0.03  c2.936,3.241,5.287,13.021,5.855,15.546c-0.528,0.432-1.002,0.914-1.369,1.465c-0.835,1.255-1.064,2.664-0.686,4.187  c0,0.001,0,0.002,0,0.004l2.429,11.669l-4.904,33.897c-0.003,0.025,0.006,0.048,0.004,0.072c-0.001,0.025-0.014,0.046-0.014,0.071  c0,3.046,1.119,5.11,3.322,6.189V97.5c0,0.553,0.448,1,1,1h16.03c0.553,0,1-0.447,1-1V77.944  C61.994,76.855,63.09,74.801,63.09,71.786z M52.79,16.357l2.408-1.386c0.021-0.012,0.032-0.033,0.052-0.046  c0.024-0.016,0.053-0.023,0.076-0.042c0.032-0.026,0.048-0.063,0.076-0.092c0.049-0.05,0.094-0.098,0.13-0.156  c0.034-0.054,0.059-0.109,0.082-0.167c0.023-0.06,0.044-0.118,0.057-0.182c0.012-0.063,0.014-0.124,0.013-0.188  c0-0.063-0.003-0.124-0.016-0.187c-0.014-0.067-0.037-0.128-0.064-0.192c-0.016-0.038-0.018-0.077-0.038-0.113  c-0.013-0.023-0.035-0.036-0.05-0.057c-0.016-0.022-0.02-0.049-0.037-0.071l-1.743-2.166l2.406-1.384  c0.022-0.013,0.034-0.034,0.055-0.048c0.024-0.016,0.052-0.023,0.075-0.042c0.032-0.026,0.048-0.062,0.075-0.091  c0.048-0.049,0.093-0.098,0.129-0.154c0.036-0.056,0.062-0.113,0.085-0.174c0.022-0.057,0.042-0.111,0.053-0.171  c0.014-0.068,0.016-0.134,0.015-0.203c-0.001-0.058-0.003-0.113-0.015-0.171C56.6,8.8,56.574,8.733,56.544,8.664  c-0.015-0.033-0.016-0.069-0.034-0.102c-0.012-0.021-0.033-0.033-0.046-0.053c-0.017-0.025-0.021-0.054-0.041-0.078L54.68,6.268  l2.086-1.201l3.33,0.642c-1.18,2.138-3.299,6.835-3.62,13.419c-0.73-0.366-1.478-0.664-2.183-0.902L52.79,16.357z M39.538,4.697  l3.25-1.126l2.206,0.935l-1.467,2.361c-0.014,0.023-0.015,0.049-0.027,0.072c-0.013,0.024-0.034,0.041-0.045,0.066  c-0.017,0.04-0.014,0.081-0.025,0.122c-0.018,0.064-0.034,0.126-0.039,0.192c-0.005,0.065,0,0.126,0.007,0.19  c0.007,0.063,0.017,0.124,0.036,0.184c0.02,0.062,0.047,0.117,0.078,0.174c0.03,0.056,0.062,0.107,0.102,0.157  c0.043,0.052,0.093,0.095,0.147,0.138c0.032,0.026,0.052,0.061,0.087,0.083c0.03,0.019,0.062,0.026,0.093,0.041  c0.017,0.008,0.027,0.023,0.045,0.031l2.557,1.084l-1.468,2.358c-0.015,0.023-0.015,0.05-0.027,0.074  c-0.013,0.023-0.033,0.039-0.044,0.063c-0.017,0.039-0.013,0.079-0.024,0.118c-0.019,0.066-0.035,0.129-0.04,0.196  c-0.005,0.064,0,0.125,0.007,0.188c0.007,0.064,0.017,0.124,0.036,0.186s0.046,0.116,0.077,0.173  c0.03,0.056,0.062,0.108,0.103,0.158c0.042,0.051,0.091,0.093,0.144,0.136c0.032,0.026,0.053,0.062,0.089,0.084  c0.03,0.019,0.063,0.026,0.094,0.042c0.017,0.008,0.027,0.022,0.043,0.03l2.56,1.086l-1.468,2.361  c-0.014,0.023-0.015,0.049-0.027,0.072c-0.013,0.024-0.034,0.041-0.045,0.066c-0.017,0.04-0.013,0.081-0.024,0.121  c-0.019,0.065-0.035,0.127-0.04,0.193c-0.005,0.065,0,0.126,0.007,0.19c0.007,0.063,0.017,0.124,0.036,0.184  c0.02,0.062,0.047,0.117,0.078,0.174c0.03,0.056,0.062,0.107,0.103,0.157c0.042,0.052,0.093,0.095,0.146,0.138  c0.032,0.025,0.052,0.061,0.088,0.083c0.03,0.019,0.062,0.026,0.093,0.041c0.017,0.008,0.028,0.023,0.045,0.031l0.229,0.097  c-0.806,0.268-1.67,0.611-2.503,1.049C44.086,16.154,42.142,8.624,39.538,4.697z M43.319,22.996c1.475-2.22,5.727-3.333,7.448-3.616  c1.72,0.28,5.964,1.388,7.444,3.613c0.523,0.787,0.655,1.647,0.402,2.63c-0.002,0.008,0.001,0.015-0.001,0.023  c-0.002,0.008-0.008,0.014-0.01,0.022l-1.77,8.5c-0.973-1.484-2.175-2.166-2.978-2.472v-5.824c0-0.552-0.447-1-1-1H48.72  c-0.552,0-1,0.448-1,1v5.823c-0.812,0.31-2.034,1-3.013,2.521l-1.779-8.547c-0.001-0.008-0.007-0.013-0.009-0.021  c-0.002-0.008,0-0.016-0.001-0.024C42.665,24.642,42.796,23.782,43.319,22.996z M51.855,26.872v11.142H49.72V26.872H51.855z   M43.806,78.632c0.763,0.149,1.603,0.229,2.527,0.229h2.915l1.529,1.309l-2.006,1.717c-0.021,0.019-0.03,0.044-0.05,0.063  c-0.018,0.018-0.042,0.026-0.059,0.046c-0.026,0.031-0.035,0.069-0.057,0.103c-0.04,0.059-0.076,0.117-0.101,0.182  c-0.023,0.057-0.036,0.113-0.048,0.172c-0.013,0.066-0.023,0.131-0.022,0.198c0,0.062,0.009,0.118,0.021,0.179  c0.012,0.065,0.027,0.127,0.052,0.19c0.024,0.06,0.057,0.112,0.093,0.166c0.024,0.036,0.033,0.078,0.062,0.111  c0.017,0.02,0.042,0.026,0.06,0.045c0.02,0.02,0.029,0.046,0.05,0.064l2.005,1.716l-2.005,1.716  c-0.021,0.018-0.03,0.043-0.049,0.063c-0.018,0.019-0.042,0.027-0.06,0.047c-0.027,0.031-0.036,0.07-0.058,0.104  c-0.039,0.059-0.075,0.115-0.101,0.18c-0.023,0.058-0.036,0.114-0.048,0.175c-0.013,0.065-0.023,0.129-0.023,0.195  c0,0.062,0.009,0.119,0.021,0.18c0.012,0.065,0.027,0.128,0.053,0.19c0.024,0.059,0.057,0.111,0.092,0.165  c0.024,0.037,0.034,0.078,0.063,0.112c0.018,0.021,0.042,0.027,0.061,0.046c0.02,0.02,0.028,0.045,0.05,0.063l2.004,1.715  l-2.006,1.718c-0.021,0.019-0.03,0.044-0.05,0.063c-0.018,0.019-0.042,0.026-0.059,0.046c-0.026,0.031-0.035,0.069-0.057,0.103  c-0.04,0.059-0.076,0.116-0.101,0.182c-0.023,0.057-0.036,0.113-0.048,0.173c-0.013,0.066-0.023,0.13-0.023,0.197  c0,0.062,0.009,0.119,0.021,0.18c0.012,0.064,0.027,0.127,0.052,0.189c0.024,0.06,0.057,0.111,0.093,0.166  c0.024,0.036,0.033,0.078,0.062,0.111c0.018,0.021,0.042,0.027,0.061,0.046c0.02,0.02,0.028,0.045,0.05,0.063l2.004,1.714  L49.052,96.5h-5.246V78.632z M57.836,96.5h-5.708l0.838-0.718c0.022-0.019,0.031-0.046,0.052-0.066  c0.018-0.018,0.041-0.024,0.058-0.043c0.027-0.032,0.036-0.071,0.059-0.105c0.038-0.058,0.073-0.113,0.099-0.177  c0.023-0.059,0.037-0.117,0.049-0.178c0.013-0.064,0.022-0.126,0.022-0.192c0-0.063-0.01-0.122-0.021-0.185  c-0.012-0.063-0.026-0.123-0.051-0.184c-0.024-0.063-0.06-0.117-0.097-0.174c-0.023-0.034-0.032-0.074-0.06-0.106  c-0.018-0.021-0.043-0.029-0.062-0.048s-0.027-0.044-0.048-0.062l-2.005-1.715l2.005-1.717c0.022-0.019,0.031-0.046,0.052-0.066  c0.018-0.018,0.041-0.024,0.058-0.043c0.027-0.032,0.036-0.071,0.059-0.105c0.038-0.058,0.073-0.113,0.099-0.177  c0.023-0.059,0.037-0.117,0.049-0.179c0.013-0.063,0.022-0.126,0.022-0.19c0-0.063-0.01-0.123-0.021-0.185  c-0.012-0.064-0.026-0.124-0.051-0.186c-0.025-0.062-0.06-0.115-0.097-0.172c-0.022-0.035-0.032-0.075-0.06-0.107  c-0.018-0.021-0.043-0.029-0.062-0.048c-0.019-0.02-0.027-0.044-0.048-0.062l-2.005-1.715l2.005-1.716  c0.022-0.019,0.031-0.046,0.052-0.066c0.018-0.018,0.041-0.023,0.058-0.043c0.027-0.032,0.037-0.072,0.06-0.107  c0.037-0.057,0.072-0.111,0.097-0.173c0.024-0.061,0.038-0.12,0.051-0.183c0.012-0.063,0.021-0.123,0.021-0.188  s-0.01-0.124-0.021-0.188c-0.013-0.063-0.026-0.122-0.051-0.183c-0.024-0.062-0.06-0.116-0.097-0.173  c-0.022-0.035-0.032-0.075-0.06-0.107c-0.018-0.021-0.043-0.029-0.062-0.048c-0.019-0.02-0.027-0.044-0.048-0.062l-2.005-1.716  l2.005-1.717c0.022-0.019,0.032-0.046,0.052-0.066c0.018-0.018,0.041-0.024,0.058-0.043c0.027-0.032,0.036-0.071,0.059-0.105  c0.038-0.058,0.073-0.113,0.099-0.177c0.023-0.059,0.037-0.117,0.049-0.179c0.013-0.063,0.022-0.126,0.022-0.19  c0-0.063-0.01-0.123-0.021-0.185c-0.012-0.064-0.026-0.124-0.051-0.186c-0.025-0.062-0.06-0.115-0.097-0.172  c-0.022-0.035-0.032-0.075-0.06-0.107c-0.018-0.021-0.042-0.029-0.062-0.048c-0.019-0.019-0.027-0.044-0.048-0.062l-0.642-0.549  h2.918c0.951,0,1.814-0.081,2.594-0.239V96.5z M58.484,76.363c-0.018,0.007-0.036,0.011-0.054,0.019  c-0.8,0.296-1.831,0.479-3.188,0.479h-5.3c-0.327-0.202-0.726-0.2-1.044,0h-2.564c-1.314,0-2.32-0.173-3.11-0.451  c-0.031-0.015-0.064-0.021-0.097-0.033c-2.589-0.964-2.642-3.154-2.642-4.52l4.914-33.963c0.46-2.303,1.501-3.424,2.321-3.966v5.086  c0,0.552,0.448,1,1,1h4.136c0.553,0,1-0.448,1-1v-5.085c0.801,0.529,1.805,1.614,2.281,3.798c0.002,0.121,0.022,0.233,0.064,0.342  l4.889,33.785C61.089,73.212,61.04,75.393,58.484,76.363z"/><text x="0" y="115" fill="#000000" font-size="5px" font-weight="bold" font-family="'Helvetica Neue', Helvetica, Arial-Unicode, Arial, Sans-serif">Created by Noura Mbarki</text><text x="0" y="120" fill="#000000" font-size="5px" font-weight="bold" font-family="'Helvetica Neue', Helvetica, Arial-Unicode, Arial, Sans-serif">from the Noun Project</text></svg>