<svg xmlns="http://www.w3.org/2000/svg" version="1.1" viewBox="-5.0 -10.0 110.0 135.0">
 <path d="m83.637 87.004c-3.1016-0.54297-7.7188-2.4023-10.566-4.25-3.1367-2.0352-5.2422-3.8594-7.2656-6.2969-0.78125-0.94141-1.7148-2.0352-2.0703-2.4375-0.94141-1.0625-2.5156-3.457-3.3125-5.0469-0.875-1.7383-2.0078-5.168-2.3359-7.0742-0.14063-0.80078-0.25781-2.2461-0.26172-3.2109l-0.007813-1.7539-1.4492-1.0938c-0.79688-0.60156-1.5625-1.1484-1.7031-1.2188-0.18359-0.085938-0.72266 0.12891-1.9375 0.76953-1.6328 0.86328-3.8164 1.7617-4.2969 1.7617-0.30469 0-4.0547 1.6406-12.723 5.5703-9.5117 4.3086-11.895 5.2422-15.363 6.0156-5.7266 1.2773-10.363 1.3516-13.184 0.21484-0.40234-0.16406-0.39062-0.17188 0.875-0.82031 0.70703-0.35937 1.8086-0.96875 2.4531-1.3477 1.8086-1.0703 5.9531-3.2422 12.379-6.4883 3.2305-1.6289 8.1367-4.1094 10.906-5.5117 2.7695-1.3984 6.1055-3.0312 7.4102-3.625 1.3047-0.59375 2.3711-1.125 2.3711-1.1797 0-0.11328-0.375-0.28125-6.75-2.9961-2.707-1.1523-6.0938-2.5273-7.5195-3.0547-1.4297-0.52344-3.6797-1.3555-5.0078-1.8398-1.3242-0.48438-3.1328-1.2344-4.0156-1.6602-1.6055-0.77734-4.3477-1.8203-12.848-4.8867-2.4883-0.89844-4.6484-1.6797-4.793-1.7383-0.23438-0.089844-0.17578-0.19141 0.44141-0.76953 0.77734-0.73047 1.4219-0.97266 4.4648-1.6992 1.5195-0.36328 1.875-0.39063 4.8516-0.39063 3.5742 0 4.9492 0.16016 8.6406 1.0195 5.0938 1.1875 7.8516 2.1328 13.336 4.5586 6.6602 2.9492 16.75 7.5312 18.27 8.293l1.5664 0.78516 1.8008-0.74609c0.98828-0.41016 1.8477-0.78906 1.9023-0.83984 0.058594-0.050781 0.039063-0.67188-0.039062-1.3828-0.46094-4.0508 1.2656-10.035 4.1484-14.359 0.89844-1.3477 1.4805-2.0703 4.4141-5.4727 3.4961-4.0586 9.4805-7.7734 14.98-9.3047 4.0312-1.1211 8.4727-0.97266 11.203 0.37109 1.2734 0.62891 2.7695 2.0352 3.4727 3.2695 1.1445 2.0078 1.6094 4.6016 1.3555 7.5625-0.21875 2.5156-0.60156 3.9023-1.6836 6.0898-0.91406 1.8438-0.97266 1.9219-2.0742 2.7852-1.4727 1.1562-4.7773 3.4492-7.6406 5.293-7.0664 4.5586-14.266 7.9297-19.262 9.0156-1.1602 0.25391-3.6484 0.30469-4.5273 0.09375-0.46484-0.10937-0.57422-0.070312-1.1758 0.43359-0.36719 0.30469-0.74609 0.55469-0.83984 0.55469-0.11719 0-0.17187 0.33203-0.17187 1.0234 0 0.67188 0.058593 1.0234 0.16797 1.0234 0.09375 0 0.45312 0.23438 0.80469 0.52344l0.64062 0.52344 1.2773-0.16406c2.8281-0.36719 6.9023 0.70312 12.488 3.2852 5.2695 2.4336 13.531 7.5156 18.098 11.125 1.3945 1.1016 1.4453 1.1641 2.1406 2.5898 1.3477 2.7578 1.8008 4.793 1.7891 8.0352-0.007813 2.3828-0.26953 3.6094-1.1562 5.418-0.76563 1.5586-2.2109 3.0273-3.6953 3.75-2.1328 1.0391-5.9648 1.418-8.9766 0.89453zm6.8242-0.70312c3.2344-0.89062 5.4297-3.2773 6.1797-6.7188 0.36719-1.6875 0.23047-5.3125-0.26953-7.2422-0.92578-3.5625-2.2031-5.1172-6.6719-8.1172-9.1367-6.1406-16-9.6719-21.812-11.234-3.2422-0.87109-6.2852-0.65234-7.7539 0.55859-1.1836 0.97266-1.6758 2.4648-1.6797 5.082-0.007813 4.8008 2.0117 10.301 5.2578 14.332 1.6445 2.0469 5.1094 5.8008 6.1133 6.6289 4.1758 3.4453 9.5039 6.0039 14.25 6.8438 1.5195 0.26953 5.207 0.19141 6.3867-0.13281zm-3.6836-0.30859c0-0.097657 2.0625-1.125 2.125-1.0586 0.03125 0.027344-0.4375 0.29688-1.0352 0.59375-0.60156 0.29688-1.0898 0.50781-1.0898 0.46875zm2.1914-0.58594c0.19922-0.11328 0.42969-0.20703 0.51172-0.20703 0.078125 0-0.019531 0.09375-0.21875 0.20703s-0.42969 0.21094-0.51172 0.21094c-0.078125 0 0.019531-0.09375 0.21875-0.21094zm-5.2578-2.9961c-2.0391-0.17188-4.5156-0.94922-7.0352-2.2109-0.9375-0.46875-1.7656-0.85547-1.832-0.85547-0.29688 0-3.2773-2.0977-4.3906-3.0898-1.5586-1.3906-2.4688-2.457-3.7031-4.3477-1.8711-2.8672-3.2773-6.0273-4.0938-9.2031-0.53125-2.082-0.625-4.5117-0.20703-5.4766 0.85938-1.9844 2.8086-2.4805 6.2969-1.6133 6.9062 1.7227 16.992 8.0078 22.41 13.973 1.8906 2.0781 2.2539 2.8984 2.2578 5.0898 0.003907 1.625-0.23437 2.5273-1.0195 3.8789-0.57031 0.97656-2.3945 2.5977-3.5977 3.1914-1.5664 0.77344-2.4609 0.89062-5.0898 0.66797zm4.1523-0.73828c1.1758-0.44141 2.3828-1.2852 3.4414-2.4141 0.82812-0.88281 1-1.168 1.3633-2.2617 0.62891-1.8945 0.55078-3.6289-0.23047-5.1719-0.92188-1.8242-5.9648-6.3477-10.332-9.2695-5.9961-4.0078-12.672-6.8672-16.109-6.8945-2.3828-0.019531-3.3633 1.0352-3.3516 3.6094 0.015625 3.3516 1.8711 8.4492 4.5742 12.555 1.9258 2.9297 5.1719 5.8281 8.1016 7.2305 1.8555 0.89062 5.4805 2.3945 6.3477 2.6406 1.6875 0.47266 4.9023 0.46484 6.1953-0.019531zm-72.66-12.703c1.9414-0.21484 5.5078-0.92578 7.1875-1.4375 3.0859-0.94141 4.8281-1.6602 12.773-5.2617 7.1602-3.2461 11.07-4.9219 13.434-5.7578 1.7148-0.60547 5.3086-2.2461 5.3164-2.4258 0-0.039063-0.16406-0.19531-0.36719-0.34375-0.32031-0.23438-0.45703-0.25-1.0195-0.10547-0.64453 0.16016-0.67188 0.15234-2.8711-0.94531l-2.2227-1.1055-0.94922 0.36328c-3.0352 1.1562-15.719 7.1523-23.945 11.32-2.4492 1.2422-6.0625 3.0664-8.0273 4.0586l-3.5742 1.8008h1.4258c0.78516 0 2.0664-0.070312 2.8438-0.15625zm4.8906-1.6992c0.14062-0.035156 0.33984-0.035156 0.4375 0.007813 0.097656 0.039062-0.015625 0.070312-0.25781 0.066406-0.24219-0.003906-0.32031-0.035156-0.17969-0.074219zm2.0039-0.39453c0.68359-0.19531 1.2656-0.32812 1.293-0.30078 0.070313 0.070312-1.3594 0.48438-1.9961 0.57422-0.29688 0.042968 0.023438-0.078126 0.70312-0.27344zm-11.145 1.9492c0.23047-0.23047 7.3047-3.8828 12.824-6.625 8.4219-4.1797 18.098-8.7852 20.879-9.9336 1.125-0.46484 2.0664-0.86328 2.0898-0.88281 0.0625-0.054687-1.5508-0.78516-1.9492-0.88672-0.37891-0.09375-1.0664 0.1875-4.9609 2.0234-3.9258 1.8516-24.25 12.16-26.195 13.281-0.85156 0.49219-2.3945 1.3359-3.4336 1.8789l-1.8867 0.98047 0.64453 0.14453c0.88281 0.19531 1.7969 0.20703 1.9805 0.019531zm47.777-14.492c0.37891-0.61328 1.2852-1.4531 1.9219-1.7852l0.46484-0.23828-0.55859-0.46094c-0.30859-0.25391-0.66016-0.46094-0.78516-0.46094-0.18359-0.003907-0.23438-0.24219-0.26953-1.293l-0.042968-1.293-2.6602-1.2812c-1.4609-0.70312-3.4141-1.6445-4.3359-2.0898-1.6641-0.80078-11.734-5.3516-18.469-8.3477-1.9258-0.85547-3.5664-1.6133-3.6484-1.6758-0.22266-0.17578-4.4258-1.5234-6.3555-2.0352-5.1523-1.3672-7.9141-1.8008-11.535-1.8164-2.3984-0.007813-2.9062 0.03125-4.5391 0.37891-2.7461 0.58594-2.7539 0.58594-1.2109 0.96094 2.1719 0.52734 7.75 2.332 9.5469 3.0898 0.92188 0.39062 3.9766 1.543 6.7891 2.5586 2.8086 1.0195 5.5703 2.0352 6.1328 2.2617 1.2539 0.50391 5.1953 2.4258 8.9062 4.3477 1.5234 0.78906 5.5977 2.8672 9.0508 4.6211 6.2383 3.1641 8.2344 4.3477 10.07 5.9688l0.72656 0.64062 0.23828-0.76953c0.13281-0.42578 0.37891-1 0.55469-1.2812zm-1.0039 0.32422c0-0.52344 1.0898-1.9023 1.7891-2.2656 0.50391-0.26562 0.52734-0.027344 0.03125 0.30078-0.20312 0.13281-0.66797 0.64844-1.0352 1.1484-0.80859 1.1016-0.78516 1.0742-0.78516 0.82031zm0.054688-1.082c0.22266-0.46094 0.96875-1.2422 0.96875-1.0117 0 0.074219-0.26562 0.42969-0.58984 0.79297-0.5 0.55469-0.55859 0.58984-0.37891 0.21875zm-3.4844-1.7617c-1.0312-0.53906-1.5312-1.4062-1.2305-2.1328 0.44531-1.0703 2.4727-1.1641 3.3867-0.15625 0.63672 0.70312 0.54688 1.9766-0.16406 2.3594-0.42969 0.23047-1.4883 0.19141-1.9922-0.070312zm0.42188-1.4453c-0.28516-0.99609-0.33594-1.0508-0.79688-0.80469-0.3125 0.16797-0.36328 0.58984-0.12891 1.0352 0.16016 0.30078 1.0234 0.89453 1.1367 0.78516 0.035156-0.035156-0.058594-0.49219-0.21094-1.0156zm1.4922 0.55859c0.16797-0.67188-0.39453-1.5156-1.0156-1.5156-0.17187 0-0.14453 0.16406 0.13281 0.83984 0.19141 0.46094 0.34766 0.91797 0.34766 1.0156 0.007813 0.30469 0.44141 0.027344 0.53125-0.34375zm-42.25-18.117c0.30078-0.03125 0.79297-0.03125 1.0938 0 0.30078 0.03125 0.054687 0.058594-0.54688 0.058594-0.60156 0-0.84766-0.023438-0.54687-0.058594zm-2.6914-0.72266c0.10547-0.042969 0.23047-0.035157 0.28125 0.011718 0.046875 0.046875-0.039062 0.082032-0.19141 0.078125-0.17188-0.007812-0.20312-0.039062-0.089844-0.089843zm2.3633-0.046876-1.8242-0.089843 1.7539-0.011719c0.96484-0.007812 1.9492 0.039062 2.1914 0.097656 0.51172 0.12891 0.61719 0.12891-2.1172 0zm38.969 20.934c0.03125-0.027344-0.13281-0.11719-0.36328-0.20312-0.60938-0.22656-10.652-5.2852-12.469-6.2812-0.84375-0.46484-2.1562-1.1211-2.9219-1.4648-0.76172-0.33984-1.957-0.94141-2.6562-1.3359-2.3789-1.3359-4.5664-2.2891-9.2422-4.0312-2.5703-0.95703-5.0352-1.8594-5.4766-2.0039-0.44141-0.14453-1.1328-0.40625-1.5352-0.58594-1.3203-0.58594-3.1641-1.2109-6.8633-2.3398-2.0078-0.61328-4.2617-1.3047-5.0117-1.5352l-1.3594-0.41797-0.64844 0.31641c-0.35547 0.17188-0.64844 0.35156-0.64453 0.39453 0 0.046875 1.8906 0.73047 4.1953 1.5195 5.1367 1.7617 10.926 3.9492 13.176 4.9805 0.92578 0.42188 3.3203 1.3633 5.3281 2.0938 5.0195 1.8164 5.7148 2.0938 10.293 4.0352 6.0703 2.5781 12.629 5.5469 14.02 6.3477 0.97266 0.5625 1.332 0.69531 1.6758 0.63281 0.24219-0.046875 0.46484-0.10156 0.49609-0.12891zm8.3867-5.1836c0.066407-0.050781-0.17578-0.26172-0.53125-0.47266-0.78906-0.46094-1.7773-1.5508-2.0234-2.2266-0.097656-0.27344-0.21875-0.49609-0.26953-0.49609-0.15234 0-2.8359 1.1797-2.9609 1.3047-0.0625 0.0625 0.53906 0.42969 1.3398 0.8125 0.80078 0.38281 1.9023 0.98047 2.4531 1.3281l0.99609 0.62891 0.4375-0.39062c0.24219-0.21484 0.49219-0.43359 0.55859-0.48438zm-1.8047-0.83984c-0.35547-0.22656-0.78125-0.56641-0.94141-0.75391-0.19531-0.22266-0.070313-0.17187 0.37109 0.16016 0.36328 0.27344 0.82422 0.60938 1.0195 0.74219 0.60156 0.41406 0.24219 0.29297-0.44922-0.15234zm8.625 0.085937c4.1641-1.0977 11.094-4.3555 16.496-7.7539 4.4258-2.7812 8.4531-5.5859 9.3516-6.5078 1.0273-1.0547 2.0977-2.9023 2.5352-4.3906 0.67188-2.2695 0.87891-6.0781 0.4375-8.0742-0.74219-3.3594-2.9453-5.7344-6.1328-6.6094-1.1602-0.32031-4.2031-0.43359-5.8047-0.22266-5.4492 0.72656-12.09 4.0898-16.156 8.1836-2.1172 2.1328-4.8555 5.3047-5.9609 6.9102-1.5898 2.3086-3.1133 5.9102-3.7461 8.8594-0.32812 1.5234-0.45312 4.8828-0.23047 6.1367 0.34375 1.9219 1.4062 3.1211 3.2422 3.6602 1.3398 0.39453 4.0625 0.30469 5.9688-0.19922zm-2.9062-2.3086c-0.66406-0.13281-1.1641-0.39844-1.7461-0.92187-1.7695-1.5977-1.1133-6.4961 1.6445-12.281 1.8789-3.9375 4.1641-6.7969 7.3516-9.1914 2.3086-1.7344 6.8867-3.8086 9.9961-4.5273 1.3281-0.30859 3.6836-0.42578 4.7305-0.23438 1.3164 0.23828 2.8516 1.0703 4.0234 2.1719 1.3008 1.2266 1.7383 1.8711 2.2148 3.2656 0.66406 1.9336 0.46094 3.9844-0.57422 5.7656-0.54688 0.9375-4 4.332-6.1953 6.0898-7.582 6.0625-17.555 10.648-21.445 9.8672zm3.1289-0.65234c3.8008-0.78516 10.117-3.8594 15.125-7.3594 3.5156-2.457 8.4766-6.9531 9.1602-8.3008 0.89844-1.7695 1.0117-3.4336 0.36328-5.4141-0.38672-1.1875-0.47656-1.3242-1.6562-2.5156-2.0625-2.082-3.6914-2.6992-6.6992-2.5508-1.7695 0.089844-3.0508 0.40625-5.1055 1.2695-5.0586 2.125-6.4844 2.9844-9.0195 5.4219-1.2773 1.2305-1.9688 2.0469-2.8516 3.3672-3.7969 5.6797-5.7422 12.75-4.1641 15.137 0.75 1.1328 2.3906 1.4531 4.8477 0.94922zm21.965-29.559c0.12109-0.078125 0.28516-0.14062 0.36328-0.14062s0.046875 0.0625-0.074219 0.14062-0.28516 0.14062-0.36328 0.14062-0.046875-0.0625 0.074219-0.14062zm-1.0508-0.39062c0.10547-0.042969 0.23047-0.035156 0.28125 0.011719 0.050782 0.046875-0.035156 0.082031-0.19141 0.074219-0.17188-0.007813-0.20312-0.039063-0.089844-0.089844z"/>
<text x="0.0" y="117.5" font-size="5.0" font-weight="bold" font-family="Arbeit Regular, Helvetica, Arial-Unicode, Arial, Sans-serif" fill="#000000">Created by Fathur Rachman</text><text x="0.0" y="122.5" font-size="5.0" font-weight="bold" font-family="Arbeit Regular, Helvetica, Arial-Unicode, Arial, Sans-serif" fill="#000000">from Noun Project</text></svg>