<svg xmlns="http://www.w3.org/2000/svg" xmlns:xlink="http://www.w3.org/1999/xlink" version="1.1" x="0px" y="0px" viewBox="-199 201 100 125" enable-background="new -199 201 100 100" xml:space="preserve"><ellipse cx="-177.902" cy="216.319" rx="1.388" ry="0.833"/><path d="M-101.544,269.61c-0.044-0.444-0.111-1.099-12.821-4.673c-0.422-0.355-2.275-1.931-3.574-3.585  c-0.777-0.999-1.21-2.165-1.632-3.286c-0.377-0.999-0.721-1.943-1.288-2.708c-1.521-2.098-4.029-2.853-6.46-3.574  c-1.987-0.599-3.863-1.166-5.095-2.387c-4.24-4.207-27.761-16.106-30.769-16.961c-0.91-0.255-2.042-0.366-3.186-0.388  c-0.089-0.633-0.155-1.321-0.155-1.998c0-0.988,0.233-1.931,0.511-3.03c0.388-1.587,0.877-3.552,0.877-6.538  c0-5.239-6.005-9.158-11.378-9.158c-4.473,0-8.536,3.741-10.379,5.728c-2.93,1.043-7.97,3.119-8.714,4.718  c-1.021,2.198-0.888,3.874-0.888,3.952l0.044,0.511l0.287-0.011c0.278-0.002,0.164-0.035,1.164-0.124c0,0.011,0,0.022,0,0.022  s1.534,0.033,1.922,0.089c0.111,0.022,0.351,0.033,0.462,0.033c1.166,0,2.567-0.877,3.666-1.587c0.289-0.189,0.584-0.366,0.818-0.5  c0.333-0.2,1.674-0.466,2.729-0.644c0.755-0.011,2.236,0.799,2.646,1.021c0.655,0.377,1.007,0.755,1.118,0.932  c-0.211,0.278-0.44,0.555-0.673,0.855c-1.565,1.976-3.517,4.44-3.639,7.315c-0.011,0.266-0.032,0.61-0.066,0.999  c-0.333,4.373-1.209,15.984,9.114,26.34c2.94,2.948,8.932,4.979,16.046,6.398c-0.213,1.195-0.651,3.622-1.168,6.272  c-0.235,0.204-0.382,0.48-0.382,0.787c0,0.171,0.052,0.33,0.133,0.475c-0.888,4.442-1.924,9.047-2.445,9.261  c-1.06,0.434-4.671,0.601-6.521,1.156c-1.29,0.387-4.625,3.746-4.625,4.533c0,0.786,1.48,0.046,1.989-0.231  c0.509-0.278,2.359-0.139,3.793-0.37c0.049-0.008,0.113-0.023,0.17-0.035c-0.098,0.249-0.07,0.533,0.662,0.451  c1.249-0.139,1.572-0.694,1.341,0.014c-0.303,0.927,2.96,1.281,4.163,0.726c1.202-0.555,2.451-1.203,3.561-1.295  c1.11-0.092,3.423-0.555,4.116-1.48c0.376-0.501,0.746-5.723,1.015-10.658c0.257-0.203,0.418-0.483,0.418-0.795  c0-0.273-0.136-0.513-0.338-0.707c0.163-3.167,0.279-5.988,0.321-7.048c11.613,1.678,24.6,2.116,32.11,2.37  c3.163,0.1,5.661,0.189,6.105,0.311c0.81,0.222,2.42,0.333,4.296,0.333c3.841,0,8.78-0.455,10.256-1.21l0.389-0.244L-101.544,269.61  z M-193.32,224.577c-0.178,0.211-1.066,0.433-2.053,0.511c0.044-0.599,0.2-1.632,0.766-2.842c0.488-1.054,3.419-2.409,6.371-3.485  c-0.1,0.322,0.022,0.744,0.688,1.41c0.255,0.2,0.555,0.389,0.899,0.566c-0.255,0.044-0.522,0.089-0.766,0.122  C-190.123,221.247-192.598,223.667-193.32,224.577z M-184.961,222.357c-1.388,0.155-3.008,0.433-3.696,0.833  c-0.255,0.155-0.544,0.333-0.844,0.533c-0.855,0.566-1.998,1.299-2.808,1.399c0.733-0.855,2.864-2.853,5.084-3.164  c0.799-0.111,1.643-0.278,2.453-0.455c0.089,0.033,0.144,0.078,0.155,0.111C-184.606,221.791-184.728,222.046-184.961,222.357z   M-156.898,275.331c-0.312,0.205-0.524,0.504-0.524,0.852c0,0.297,0.15,0.564,0.386,0.764c-0.354,4.074-0.754,8.004-0.995,8.245  c-0.322,0.322-2.952,0.808-4.84,1.121c0.208-0.142,0.37-0.273,0.463-0.388c0.418-0.516,1.346-5.78,2.124-10.596  c0.332-0.206,0.561-0.522,0.561-0.897c0-0.266-0.125-0.5-0.307-0.694c0.426-2.695,0.776-5.038,0.923-6.032  c0.91,0.165,1.833,0.321,2.77,0.469C-156.418,269.283-156.636,272.207-156.898,275.331z M-147.987,267.268  c0.411,0.311,1.11,0.688,1.831,1.066c-12.565-1.199-25.341-3.508-29.97-8.147c-9.957-9.99-9.102-21.234-8.78-25.464  c0.033-0.411,0.055-0.755,0.067-1.032c0.111-2.52,1.931-4.828,3.408-6.682c0.278-0.355,0.544-0.688,0.777-1.01  c0.122-0.155,0.344-0.577-0.111-1.21c-0.455-0.666-1.732-1.598-3.308-1.887c0.366-0.488,0.566-0.921,0.566-1.288  c0-0.044-0.011-0.078-0.011-0.111c0-0.078-0.022-0.178-0.055-0.278c0.211-0.044,0.422-0.1,0.622-0.144  c0.966-0.233,1.465-0.144,1.931-0.5c0.1-0.078,0.544-0.411,0.278-0.477c-0.977-0.278-1.188-0.422-2.475-0.111  c-0.444,0.111-0.955,0.233-1.476,0.344c-1.132-0.355-1.965-0.788-2.42-1.265c0.067-0.111,0.133-0.233,0.211-0.322  c0.855-1.055,5.417-6.316,10.39-6.316c4.851,0,10.268,3.441,10.268,8.048c0,2.842-0.455,4.662-0.855,6.271  c-0.289,1.166-0.533,2.176-0.533,3.308c0,0.677,0.055,1.354,0.144,1.987c-2.242,0.055-3.641,0.189-4.052,0.289  c-1.443,0.322-1.054,1.288-0.178,1.177c5.284-0.655,7.481-0.222,8.236-0.011c0.5,0.144,1.621,0.622,3.13,1.321  c-0.766,0.5-0.921,1.088-0.932,1.432c-0.022,0.488,0.211,0.977,0.655,1.376c-0.311,0.044-0.666,0.089-0.955,0.133  c-2.398,0.3-3.563,0.511-3.852,1.21c-0.122,0.278-0.067,0.588,0.144,0.855l0.266,0.344c0.866,1.088,2.886,3.619,2.664,5.084  c-0.044,0.3-0.189,0.533-0.455,0.71c-0.744,0.511-1.376,0.777-1.854,0.977c-0.566,0.233-1.021,0.433-1.165,0.91  c-0.133,0.444,0.078,0.877,0.433,1.388c1.365,1.976,4.906,6.716,8.236,8.103c3.852,1.598,12.443,6.693,12.865,7.726  c-0.189,0.277-1.532,0.466-2.109,0.555c-1.11,0.167-1.787,0.266-1.931,0.833C-148.387,266.624-148.398,266.957-147.987,267.268z   M-122.501,269.893c-3.632,0-8.547-0.38-13.975-0.713c5.073-0.555,11.178-1.405,12.177-2.138c1.61-1.165,4.052-4.066,2.986-7.441  c-0.677-2.109-1.332-3.731-2.031-5.03c0.61,0.377,1.154,0.837,1.587,1.437c0.477,0.655,0.799,1.529,1.143,2.45  c0.433,1.143,0.91,2.452,1.798,3.573c0.011,0.011,0.011,0.01,0.022,0.021c-0.055,0.877,0.044,1.787,0.555,2.364l0.255,0.288  c0.533,0.599,2.142,2.625,2.087,3.091C-116.23,268.162-120.037,269.893-122.501,269.893z"/><text x="-199" y="316" fill="#000000" font-size="5px" font-weight="bold" font-family="'Helvetica Neue', Helvetica, Arial-Unicode, Arial, Sans-serif">Created by Claire Jones</text><text x="-199" y="321" fill="#000000" font-size="5px" font-weight="bold" font-family="'Helvetica Neue', Helvetica, Arial-Unicode, Arial, Sans-serif">from the Noun Project</text></svg>