<svg xmlns="http://www.w3.org/2000/svg" data-name="Слой 1" viewBox="0 0 100 125" x="0px" y="0px"><title>11</title><g><path d="M93.86121,30.877c-2.36115-4.29413-6.289-6.8764-10.46667-9.06671a50.74432,50.74432,0,0,0-6.19977-2.45764,1.00812,1.00812,0,0,1-.80505-1.29584A14.52893,14.52893,0,0,0,62.4281,1.528,35.92735,35.92735,0,0,0,51.09064,2.70685c-3.25824.9035-5.86591,2.64093-6.785,6.19312a5.8001,5.8001,0,0,1-.81476,1.346,9.04787,9.04787,0,0,1-.9505-0.66809,9.56112,9.56112,0,0,0-5.36206-2.47095c-2.38068-.312-4.83917-0.38715-6.50067,1.757a27.43489,27.43489,0,0,0-2.68756,4.52362,18.79269,18.79269,0,0,0-1.68512,9.77722c0.12628,2.08032.32526,4.15686,0.52563,6.23181,0.15155,1.56989.38562,3.13214,0.519,4.70319a2.897,2.897,0,0,1-.27179,1.26056c-0.67773,1.67572-1.54407,3.29077-2.063,5.0119-1.36768,4.53625-2.58905,9.11664-3.87128,13.67871-0.52307,1.86108-1.05273,3.72034-1.56049,5.51361a33.7868,33.7868,0,0,0-15.05884,3.9881C5.6806,74.33008,6.86951,85.4101,8.0517,96.42743a22.78,22.78,0,0,0,2.31061.70209c1.09894,0.22681,2.22131.34741,3.33752,0.48163,1.14166,0.13721,2.33276-.27722,3.46466.11249,0.52094,0.01959,1.04181.04224,1.56262,0.06512a51.5564,51.5564,0,0,1,7.79395-.27386c3.47821,0.13531,4.57367-.93451,4.60272-4.32727,0.02087-2.44025.32788-4.88116,0.5705-7.31549,0.31519-3.16211.79309-6.31091,1.01685-9.47839,0.24011-3.39771.29932-6.80988,0.36609-10.2171a8.48807,8.48807,0,0,0-.37177-2.97839,3.98974,3.98974,0,0,0-1.523-1.69635,9.74144,9.74144,0,0,0-2.72369-1.37817,39.99111,39.99111,0,0,0-4.11859-.77692,4.7909,4.7909,0,0,1,.00464-0.71777c0.44739-2.73523.84369-5.48077,1.37732-8.19928,0.45319-2.30859,1.02228-4.59747,1.62372-6.873a53.15734,53.15734,0,0,1,1.97028-6.47119,3.2361,3.2361,0,0,1,2.20563-1.6698,12.83163,12.83163,0,0,1,11.30469,4.18811A57.283,57.283,0,0,1,48.088,46.67548c1.78473,2.62866,3.332,5.41937,5.1333,8.03583a15.01467,15.01467,0,0,0,5.87164,5.40222A36.46264,36.46264,0,0,0,74.43054,63.3031c4.95618,0.02777,8.81476-1.64191,11.83484-5.70044a38.90552,38.90552,0,0,0,6.0957-10.85724c0.96893-2.91425,1.47424-6.002,2.63654-8.827C96.12592,35.17609,95.05756,33.05286,93.86121,30.877Zm-9.463-7.28168A67.77336,67.77336,0,0,1,91.12543,28.423l-0.19733.20288c-2.237-1.29993-4.40735-2.73572-6.72485-3.87152-4.82373-2.36407-9.7655-4.42474-15.32428-4.067a29.52645,29.52645,0,0,0-3.2431.32886,16.77322,16.77322,0,0,1-8.03156-.93719c-2.83887-.89441-5.57648-2.11322-8.34674-3.21936a1.56365,1.56365,0,0,1-.83441-0.93036A19.02786,19.02786,0,0,0,51.84265,17.516a60.73448,60.73448,0,0,0,8.184,1.58978c2.7348,0.28687,5.51819.07733,8.27545,0.19611,1.7536,0.07556,3.49634.37573,5.24762,0.535A27.55305,27.55305,0,0,1,84.39825,23.59534ZM47.75745,11.65784C48.25427,8.074,50.87238,6.72632,54.077,6.05975c3.81177-.79279,7.26263.30872,10.651,1.85992A12.674,12.674,0,0,1,71.20813,14.416c0.01874,0.0415.03986,0.082,0.05731,0.12408,1.18292,2.84595.67181,3.65-2.327,3.65924-0.68274.00214-1.36554,0.00031-2.04828,0.00031l-0.03912.40326c-4.08008-.41138-8.20142-0.59558-12.22369-1.32556A18.68875,18.68875,0,0,1,48.46,14.55194C47.84515,14.17358,47.62585,12.60706,47.75745,11.65784Zm-2.66156-1.9577a7.95092,7.95092,0,0,1,6.07733-5.507,47.073,47.073,0,0,1,9.65649-1.32458c7.1037,0.04,12.40759,3.37592,14.37677,11.04572,0.3811,1.48431.05481,3.15033,0.05481,4.73328-2.02435.2406-2.37085,0.0307-2.44171-1.92267-0.1626-4.48138-2.81342-7.23108-6.30945-9.50635a20.15714,20.15714,0,0,0-9.41492-2.85138,11.40309,11.40309,0,0,0-8.47443,2.74158c-1.00677.86224-1.39587,2.47375-1.98572,3.78082a9.28708,9.28708,0,0,0-.39984,1.84241A2.11723,2.11723,0,0,1,45.09589,9.70013ZM27.96967,23.92572q0.22293,2.64651.44574,5.29309l-0.51825.04114-0.29974-5.30652ZM6.747,63.937c1.78906-.73737,3.59729-1.44452,5.44073-2.0282a28.60716,28.60716,0,0,1,4.24634-.95447,20.15749,20.15749,0,0,1,2.92059-.02594c-0.64215,2.25275-2.34943,3.85413-1.56561,6.31787a12.37967,12.37967,0,0,1-1.88666.111c-2.07654-.19733-4.16351-0.36426-6.21344-0.7287a9.82305,9.82305,0,0,1-3.08185-1.20813A0.77664,0.77664,0,0,1,6.747,63.937Zm14.59674,11.0238a0.9691,0.9691,0,0,0,.71338-0.34113c0.55627-.65692.86292-0.56836,1.48694,0.05237,0.33942,0.33765,1.29065.06024,2.05676,0.06024,0.08392,0.09937.38763,0.4588,0.69135,0.81824a8.33033,8.33033,0,0,0,1.282-1.41821,8.87822,8.87822,0,0,0,.22424-1.43347,0.99672,0.99672,0,0,1,.67719-0.60205c0.885,0.19867,1.74213.52136,2.60913,0.80011l0.12994,0.53461a16.82479,16.82479,0,0,1-2.88348,1.69879,13.494,13.494,0,0,1-6.67938.67413,36.061,36.061,0,0,0-5.31848-.0506c0.49072-.71637.78638-1.148,0.99139-1.44733C18.6308,74.526,19.983,74.77454,21.34375,74.96075ZM20.94263,69.9472c0.64978-1.76636,2.25061-.53894,3.3913-1.39069,0.19531,1.58936.39264,2.91833,0.47369,4.25433a1.50706,1.50706,0,0,1-1.00928.47046c-0.79456.02716-1.59393-.08722-2.76233-0.17029A3.44157,3.44157,0,0,1,20.94263,69.9472Zm4.8833-1.07794c0.06152-.23761.8808-0.27917,1.65149-0.49286-0.50684,1.15625-.8609,1.96393-1.215,2.77161q-0.25085-.02151-0.50165-0.043A9.12733,9.12733,0,0,1,25.82593,68.86926Zm-10.53485-.243c0.88171,0.12238,1.44006.19989,2.1701,0.30121-0.22162,1.06506-.4162,2.00043-0.61078,2.93579l-0.3186-.00433C16.15405,70.87469,15.77631,69.8905,15.29108,68.62622Zm3.76953,5.09387c-1.409-1.209-1.50934-1.99127-.556-4.206a3.41772,3.41772,0,0,1,.9519-0.89185l0.21741,0.27588C19.47467,70.46417,19.27551,72.03021,19.06061,73.72009ZM15.2262,75.46576c-2.16431-.43555-4.30743-0.86682-6.4505-1.298l0.03784-.45605A6.55138,6.55138,0,0,1,13.67731,72.595a1.50329,1.50329,0,0,1,.83417.81915A18.12428,18.12428,0,0,1,15.2262,75.46576ZM6.05127,67.159l4.75934,0.99365c0.6402,0.82892,1.08124,1.38483,1.50409,1.95422,0.19763,0.26611.36011,0.55835,0.53857,0.83881a7.84453,7.84453,0,0,1-.79041.37616c-1.63837.574-3.28137,1.13483-5.04382,1.74176C6.71588,71.21387,6.39264,69.24182,6.05127,67.159ZM30.93372,81.696c-0.41632,3.69647-.86694,7.389-1.3,11.08362a1.37659,1.37659,0,0,0,.00671.40808c0.525,2.79193-.60065,2.83087-3.108,2.88574-2.63373.05762-5.26752,0.11926-7.90155,0.15009a56.18737,56.18737,0,0,1-5.73132-.05231,13.37373,13.37373,0,0,1-3.35474-1.04413,1.16933,1.16933,0,0,1-.32562-0.809C8.93634,92.03,8.65,89.74158,8.421,87.44763c-0.36414-3.64777-.6897-7.2995-1.01776-10.95074-0.04352-.48468-0.006-0.97662-0.006-1.44147,2.29883,0.489,4.52026,1.11066,6.78424,1.406,2.96924,0.38739,5.96832.62231,8.96143,0.7276a17.11267,17.11267,0,0,0,8.44983-2.15826C31.35181,77.488,31.17029,79.59515,30.93372,81.696Zm0.63452-10.1463c-1.03839-.30371-1.89734-0.49176-2.70447-0.81091-0.65424-.25867-0.6366-1.85718.10876-2.45172a20.358,20.358,0,0,1,2.46466-1.47986l0.37415,0.24133C31.735,68.46161,31.65869,69.87469,31.56824,71.54974ZM24.73712,60.73c1.9444,0.60883,4.04236.099,5.69965,1.62451,1.61694,1.4884,1.42188,3.03333-.66089,3.81909a28.5243,28.5243,0,0,1-3.36707,1.05133,1.31025,1.31025,0,0,1-.95154-0.457c0.28741-1.91376-.39258-3.65082-0.88306-5.425A1.96488,1.96488,0,0,1,24.73712,60.73Zm2.48865-20.16974A47.40947,47.40947,0,0,0,24.38129,52.534c-0.3089,2.27856-.93109,4.51483-1.23566,6.7937a9.54084,9.54084,0,0,0,.34192,2.93988c0.249,1.30231.603,2.58423,0.87585,3.88245a1.01006,1.01006,0,0,1-1.1001,1.42053c-1.42944-.00543-2.85895-0.0014-4.53491-0.0014,0.17584-.94574.23584-1.5799,0.41382-2.179q4.32806-14.56989,8.69531-29.12805c0.03632-.12122.26025-0.18616,0.7334-0.12946A44.88027,44.88027,0,0,1,27.22577,40.56024ZM29.48645,23.472c-0.0575.30042-.1391,0.59619-0.23224,0.99017-1.70355-5.1463-.54291-12.124,4.93927-14.686,3.15277-1.47333,7.3924,1.08832,7.60059,4.62317a2.2271,2.2271,0,0,1-1.36188,1.62848c-1.95667.49951-3.10645,2.14075-4.76215,3.0152a10.56208,10.56208,0,0,1-2.73517,1.06061C30.22925,20.66107,29.99109,20.83636,29.48645,23.472Zm0.8324,1.37219c-0.07593-2.03723.68115-3.181,2.73871-3.4433,1.85889-.237,3.21643-1.34027,4.68286-2.3114,1.10608-.73254,2.27722-1.36682,3.51654-2.10254,0.70062,1.49738.08392,2.489-.35529,3.49585-1.47186,3.37433-4.35181,5.52325-6.92456,7.94031-1.14551,1.07617-2.274,2.17041-3.639,3.4751C30.33807,29.36536,30.40289,27.102,30.31885,24.84418Zm1.14929,7.9776-0.20844-.2782c1.44946-1.35944,2.86584-2.75641,4.3562-4.06946A28.48892,28.48892,0,0,0,41.53137,21.742c1.68445-2.83905,1.67059-5.93768,1.56738-8.99652,1.6344,4.03558.38019,7.68353-1.83466,11.17181C38.81177,27.77972,35.22571,30.39691,31.46814,32.82178ZM45.20569,15.28186c1.77625,1.12231,3.48651,2.38678,5.35309,3.34772,5.46075,2.8111,11.18359,4.39819,17.43762,3.65747a25.0537,25.0537,0,0,1,13.86127,2.6814c2.99689,1.4245,6.06213,2.72278,8.41589,5.18811a4.17948,4.17948,0,0,1,1.03711,3.33893C91.18921,37.40826,89.741,40.91132,88.347,44.44415c-0.42712,1.08246-1.05768,2.08411-1.58606,3.12738-1.19879,2.3667-2.36884,4.74829-3.59442,7.101-1.05609,2.02728-2.49609,3.89014-4.72211,4.45679a15.9963,15.9963,0,0,1-6.07666.29486,29.62774,29.62774,0,0,1-12.126-4.20288A24.59582,24.59582,0,0,1,53.70947,49.14c-2.72955-3.7243-5.451-7.46948-8.43439-10.98663a26.71309,26.71309,0,0,0-5.43439-4.522,9.58991,9.58991,0,0,0-3.36523-.894c-0.65112-.13733-1.32709-0.1571-2.21179-0.25385C43.85925,23.41772,44.02319,23.15753,45.20569,15.28186Zm48.203,24.30536c-0.75916,2.41687-1.59851,4.80939-2.44189,7.19879a31.97845,31.97845,0,0,1-7.63428,12.06787,9.03752,9.03752,0,0,1-6.91431,2.933c-2.12091-.09857-4.29816.41-6.37494,0.116a58.16167,58.16167,0,0,1-8.02838-1.99512,14.7971,14.7971,0,0,1-8.12543-6.09155c-1.59076-2.31482-2.87445-4.84186-4.48279-7.143a86.32713,86.32713,0,0,0-6.40631-8.40857,12.86987,12.86987,0,0,0-8.69366-4.1969c4.4339-.89557,7.41608,1.91351,10.09186,4.81726,2.6911,2.92041,4.87579,6.30206,7.37024,9.41113a38.99179,38.99179,0,0,0,5.41284,6.06653,27.1003,27.1003,0,0,0,8.88629,4.81732,26.19354,26.19354,0,0,0,10.81061,1.61407c3.2594-.30627,5.37762-2.2428,7.01678-4.84857,0.72308-1.14948,1.36383-2.35541,1.97485-3.56952,0.644-1.27972,1.25122-2.58185,1.79846-3.90564,1.3623-3.29565,2.87329-6.54846,3.94641-9.93817a28.312,28.312,0,0,0,.825-6.52753,6.788,6.788,0,0,0-.60474-2.15924A8.80181,8.80181,0,0,1,94.35321,35.39C94.51605,36.73358,93.84088,38.21112,93.40869,39.58722Z"/><path d="M73.584,55.06029a3.88222,3.88222,0,0,1,1.31947-.9266c0.73123-.17883,2.27828,1.54989,2.08847,2.27875a1.27235,1.27235,0,0,1-.92812.72581A2.11888,2.11888,0,0,1,73.584,55.06029Z"/><path d="M56.92384,45.30768A1.96165,1.96165,0,0,1,58.724,47.26256a1.07107,1.07107,0,0,1-.69618.7392A1.51684,1.51684,0,0,1,56.92384,45.30768Z"/><path d="M68.58344,55.0952a11.82751,11.82751,0,0,1-1.15622-1.8386,1.716,1.716,0,0,1,.68077-0.7748,22.37331,22.37331,0,0,1,1.81445,1.35245Z"/></g><text x="0" y="115" fill="#000000" font-size="5px" font-weight="bold" font-family="'Helvetica Neue', Helvetica, Arial-Unicode, Arial, Sans-serif">Created by Tatyana</text><text x="0" y="120" fill="#000000" font-size="5px" font-weight="bold" font-family="'Helvetica Neue', Helvetica, Arial-Unicode, Arial, Sans-serif">from the Noun Project</text></svg>