<svg xmlns="http://www.w3.org/2000/svg" xmlns:xlink="http://www.w3.org/1999/xlink" version="1.1" x="0px" y="0px" viewBox="0 0 100 125" enable-background="new 0 0 100 100" xml:space="preserve"><g><path d="M94.7,48.3l-28.6,4.1c-0.1-0.2-0.2-0.4-0.3-0.6c0,0,0,0,0,0c-0.1-0.1-0.6-1.3-1.3-2.8l30.2-4.3c0.2,0,0.3-0.2,0.2-0.3   c0-0.2-0.2-0.3-0.3-0.2l-30.4,4.3c0,0,0,0,0,0c-0.3-0.7-0.7-1.5-1.1-2.3l26.9-3.6c0.2,0,0.3-0.2,0.3-0.3c0-0.2-0.2-0.3-0.3-0.3   l-27.1,3.6c0,0,0,0,0,0c-1.3-2.5-2.7-5.2-3.9-6.6c-0.7-0.9-1.3-1.8-1.9-2.8c-1.4-2.2-2.8-4.4-5.6-5.9L51.1,30   c-0.9-0.6-2-1.3-2.9-1.7c0,0,0,0,0,0c0-0.1-0.1-0.2-0.1-0.4c0.9-0.7,1.2-2.2,0.7-3.9c-0.5-1.9-1.9-3.8-3.9-4   c-1.5-1.7-3.5-2.7-5.8-2.7c-1.3,0-2.5,0.3-3.7,0.8c0,0-0.1,0-0.1,0c-0.7-0.2-1.3-0.2-1.7-0.3c0,0-0.1-0.1-0.2-0.1   c-0.4-0.3-1.2-0.8-2.3-0.4c-1.7,0.7-2.7,2.7-3,5c-1.5-1.3-2.8-2.4-3.6-2.7c-0.2-0.1-0.5-0.2-0.8-0.4c-1.1-0.6-2.3-1.2-3.6-0.7   c-1,0.4-1.9,1.4-2.7,3.2c-2.1,4.9-0.2,15.4,0,16.4c0,0.1-0.1,0.2-0.1,0.3L6.9,34.7c-0.7-0.3-1.5,0.1-1.8,0.8   c-0.2,0.4-0.1,0.8,0,1.1c0.2,0.4,0.5,0.6,0.8,0.8l11.2,3.9c0.1,1.2,0.6,2.4,1.3,3.1c0.6,0.5,1.2,0.8,1.9,0.8c0.5,0,1.1-0.1,1.6-0.4   c0.6-0.3,1.1-0.8,1.4-1.3c0,0,0.1,0.1,0.1,0.1l5,1.7c0,0,0,0,0,0.1v5l-8.2,1.1c-0.4,0-6.3-0.1-9.1,2.2c0,0,0,0,0,0c0,0,0,0,0,0   c-1.6,1.7-1.1,3.7-1,4l3.4,23.9c0,0.1,0.1,0.3,0.3,0.3c0,0,0,0,0,0c0.2,0,0.3-0.2,0.2-0.3l-3.4-23.9c0,0,0,0,0-0.1   c0,0-0.5-1.3,0.3-2.7c0.1,1.3,0.9,3.4,4.7,4.7l1.4,22c0,0.2,0.2,0.3,0.3,0.3c0.2,0,0.3-0.2,0.3-0.3l-1.4-21.7l37.4,18.4l-0.1,4.3   c0,0.2,0.1,0.3,0.3,0.3c0,0,0,0,0,0c0.2,0,0.3-0.1,0.3-0.3l0.1-4l9.2,4.5c0,0,0.1,0,0.1,0c0.1,0,0.2-0.1,0.3-0.2   c0.1-0.1,0-0.3-0.1-0.4L55.1,78l8.4-0.4l2.1,1c-0.2,0.3-0.5,0.8-0.4,1.4c0.1,0.3,0.3,0.6,0.7,0.9c0,0.1,0.1,0.2,0.3,0.2   c0,0,0,0,0,0c0.4,0.2,0.9,0.4,1.6,0.5c0.9,0.2,1.6,0.2,2.2,0.2c0.8,0,1.3-0.1,1.5-0.2l2.6,1.2c0,0,0.1,0,0.1,0   c0.1,0,0.2-0.1,0.3-0.2c0.1-0.1,0-0.3-0.1-0.4l-2.8-1.3c0,0,0,0-0.1,0c0,0,0,0,0,0c0,0-0.1,0-0.1,0c0,0,0,0,0,0c0,0,0,0-0.1,0   c0,0,0,0,0,0c0,0-0.8,0.5-3.4,0c-0.7-0.1-1.1-0.3-1.4-0.4l-0.1-2c0,0,0,0,0,0c0,0,0,0,0,0c0,0,0,0,0,0c0,0,0,0,0,0c0,0,0,0,0,0   c0,0,0,0,0,0c0,0,0,0,0,0c0,0,0,0,0,0c0,0,0,0,0,0l-40-19.4l29.3-4.2l4.8,1.7c0.3,2.3,1.4,3.5,3.1,3.5c0.1,0,0.1,0,0.2,0   c1.2-0.1,2.1-0.5,2.7-1.3c0,0,0-0.1,0-0.1l9.1,3.2c0.1,0,0.2,0.1,0.4,0.1c0.3,0,0.7-0.2,0.9-0.4c0.2-0.3,0.3-0.7,0.2-1   s-0.4-0.6-0.7-0.8l-9.3-3.3c0-0.9-0.2-2-0.6-3.1l28.4-4.1c0.2,0,0.3-0.2,0.2-0.3C95,48.4,94.8,48.3,94.7,48.3z M56.6,36.5   c0.6,0.9,1.2,1.9,1.9,2.8c2.2,2.8,5.8,10.5,6.6,12.4c-2,0.2-3.8,1.5-4.5,2l-4.9-5.3l-5.1-7c-0.1-0.1-0.2-0.1-0.3-0.1   c-0.1,0-0.2,0.1-0.2,0.1l-0.7,1.3c-0.9-0.2-4.6-1.1-4.3-5.2c0-0.1,0-0.2,0-0.3c0-0.2,0-0.3,0.1-0.6c1.4-1.2,2.4-2.8,2.8-4.5   c0.6-0.6,1.1-0.9,1.6-1.2l0.1,0c0.4-0.3,1-0.3,1.4-0.1C53.9,32.2,55.2,34.3,56.6,36.5z M35.5,45.1C35.5,45.1,35.5,45.1,35.5,45.1   l-4.2-1.5c-2-1.5-3.6-3.5-4.1-5.4c-1-3.6,0.3-6.9,1.8-9.7c0.1,0.7,0.1,1.5-0.4,2.2c-1.2,1.7,0,3.3,0,3.4c0.1,0.1,0.1,0.1,0.2,0.1   c0,0,0.1,0,0.1,0c0.1,0,0.2-0.2,0.2-0.3c0-0.6,0-1.6,0.4-1.9c0.2-0.2,0.3-0.2,0.5-0.3c0,0,0,0,0,0c0.6,1.8,1.7,3.1,2.8,4   c0.8,3.5,2,6.5,3.3,8.9c0,0.1,0.1,0.1,0.2,0.1c0,0,0,0,0,0c0.1,0,0.2,0,0.2-0.1c0,0,2.6-2.7,5-6.2c0,0,0,0,0,0   c0.2,0,0.4-0.1,0.6-0.1c0.9-0.2,1.7-0.6,2.4-1.1c0,0,0,0,0,0c0,0.1,0,0.2,0,0.3c-0.4,4.2,3.3,5.4,4.5,5.8c-0.7,0.9-2.9,3.4-7.5,3.3   c-0.6,0-1.9-0.1-2.7-0.2L35.5,45.1z M24,40.9C24,40.9,24,40.9,24,40.9c-0.2-1.3-0.7-2.4-0.9-2.7l1.4-8.2l1.8,4.3c0,0,0,0,0,0.1   c-0.1,1.3-0.1,2.6,0.3,3.9c0.3,1.2,1,2.4,1.9,3.5c0,0,0,0,0,0v0.7L24,40.9z M29.1,42.7v-0.3c0.2,0.2,0.3,0.3,0.5,0.5L29.1,42.7   C29.1,42.8,29.1,42.7,29.1,42.7z M29.6,29.3c0.1,0.6,0.1,1.1,0.3,1.7c0,0-0.1,0-0.1,0.1c-0.2,0.1-0.4,0.2-0.7,0.4   c-0.2,0.2-0.4,0.5-0.5,0.9c0-0.4,0.1-0.9,0.4-1.3C29.5,30.5,29.6,29.9,29.6,29.3z M35.6,34.1c0-0.1-0.1-0.2-0.2-0.3   c0,0-1.2-0.5-1.6-1.5c-0.2-0.5-0.2-1.1,0.1-1.8c0.2-0.5,0.6-0.8,1.1-0.8c0.9,0,1.9,0.9,1.9,0.9c0.1,0.1,0.2,0.1,0.3,0.1   c0.1,0,0.2-0.1,0.2-0.2c0,0,0.3-3,3.9-3.9c1.1-0.3,2-0.4,2.9-0.4c3,0,3.4,1.6,3.4,1.7c0,0,0,0,0,0c0,0,0,0,0,0   c1.2,4.2-1.3,8.5-5.5,9.7c-2.6,0.7-5,0.3-6.9-1.3c0.1,0,0.1-0.1,0.2-0.1c0.2-0.2,0.3-0.5,0.3-0.9L35.6,34.1z M34.5,36.5   C34.5,36.6,34.5,36.6,34.5,36.5c1.5,1.4,3.2,2,5.1,2c0.4,0,0.8,0,1.2-0.1c-1.8,2.6-3.6,4.7-4.3,5.4c-1.2-2.2-2.1-4.8-2.9-7.7   c0.1,0.1,0.2,0.1,0.2,0.2C34,36.5,34.2,36.5,34.5,36.5C34.5,36.5,34.5,36.5,34.5,36.5z M49.5,43.7c0.3-0.3,0.4-0.6,0.4-0.6l0.6-1.1   l3.5,4.8l-5.1,0.7l0.6-3.6C49.5,43.8,49.5,43.8,49.5,43.7z M41.6,47c0.2,0,0.3,0,0.5,0c3.5,0,5.6-1.4,6.7-2.5l-0.5,3l-4.1,0.5   c0,0-0.1,0-0.1,0L41,47C41.2,47,41.4,47,41.6,47z M54.4,47.4l1,1.3l0.8,0.9l-5.6,0.8l-5.2-1.8L54.4,47.4z M56.5,50.1   C56.6,50.1,56.6,50.1,56.5,50.1l3.1,3.3l-0.4,0.1l-7.5-2.6L56.5,50.1z M50.1,30c-0.2,0.1-0.4,0.1-0.6,0.3l-0.1,0   c-0.3,0.2-0.7,0.4-1.1,0.8c0.1-0.7,0.1-1.4,0-2.1C48.9,29.3,49.5,29.7,50.1,30z M44.6,20.5c0.1,0.1,0.1,0.1,0.2,0.1   c1.7,0.1,3,1.9,3.4,3.6c0.4,1.3,0.2,2.6-0.4,3.1c-0.3-0.6-1.3-1.7-3.8-1.7c-0.9,0-1.9,0.1-3,0.4c-3.1,0.7-4,2.9-4.3,3.9   c-0.4-0.3-1.2-0.7-1.9-0.7c-0.5,0-1.2,0.2-1.6,1.1c-0.4,0.8-0.4,1.6-0.1,2.3c0.4,1,1.4,1.5,1.8,1.7l0,1c0,0.2-0.1,0.3-0.2,0.4   c-0.2,0.2-0.5,0.2-0.7,0.1c-2.1-1.4-5.4-4.7-3.3-11.6c1.1-3.7,4.6-6.3,8.4-6.3C41.3,18,43.3,18.9,44.6,20.5z M32.6,20.2   c0.4-1,0.8-1.7,1-1.8c0,0,0,0,0,0c0.3,0,0.7,0.1,1.1,0.2C34,19,33.3,19.6,32.6,20.2z M31.4,17.9c0.7-0.3,1.2,0,1.6,0.2   c-0.7,0.7-1.2,2.3-1.3,3.1c-0.6,0.9-1.1,1.8-1.4,2.9c-0.5,1.7-0.7,3.1-0.7,4.4c-0.1-0.9-0.4-1.5-0.4-1.6   C27.9,23.4,29.1,18.8,31.4,17.9z M18.2,22c0.7-1.6,1.4-2.6,2.3-2.9c1-0.4,2.1,0.2,3.1,0.7c0.3,0.1,0.5,0.3,0.8,0.4   c0.8,0.4,2.6,1.9,3.7,2.9c-0.1,1.4,0,2.8,0.5,4c0,0,0,0,0,0c0,0,0,0,0,0c0,0,0.1,0.2,0.2,0.6c0,0,0,0-0.1,0.1   c-0.9,1.7-1.9,3.5-2.3,5.6l-1.8-4.5c0-0.1-0.2-0.2-0.3-0.2c-0.1,0-0.2,0.1-0.3,0.2L22.5,38c-2.7,1.5-4.1,0.3-4.4,0   C18,37.1,16.2,26.7,18.2,22z M5.7,36.3c-0.1-0.2-0.1-0.4,0-0.7c0.2-0.4,0.6-0.6,1-0.5l10.6,3.9c0,0,0,0,0,0c-0.1,0.5-0.2,1-0.2,1.5   l-11-3.8C5.9,36.7,5.8,36.5,5.7,36.3z M23.3,42.5c-0.2,0.7-0.7,1.3-1.5,1.7c-1.4,0.7-2.4,0.2-2.9-0.3c-1.2-1.1-1.5-3.2-0.9-5.1   c0.4,0.3,1.1,0.7,2,0.7c0.7,0,1.6-0.2,2.6-0.8C23,39.3,23.7,41,23.3,42.5z M23.7,42.9c0-0.1,0.1-0.2,0.1-0.2   c0.1-0.4,0.2-0.7,0.2-1.1l10.7,3.9c-0.3,0.3-0.5,0.6-0.4,1.1L23.7,42.9C23.8,42.9,23.8,42.9,23.7,42.9z M29.1,45.4l5.5,1.9   c0,0,0,0,0,0l2.5,0.9c0,0,0,0,0,0l-0.3,0.9l-7.7,1V45.4z M19.6,57.8C19.5,57.8,19.5,57.8,19.6,57.8c-1.7-1-3.4-2.3-3.4-2.8   c0-0.1,0.2-0.2,0.8-0.3c2.6-0.3,4,0.2,4.4,0.4v2.6C20.7,57.8,20.1,57.8,19.6,57.8z M21.9,54.6l-1.2-2.8l19.5-2.6l5.6,2L21.9,54.6z    M38.6,48.6C38.6,48.7,38.6,48.7,38.6,48.6l0.1,0.2L37.5,49l0.2-0.7c0,0,0,0,0,0L38.6,48.6z M11.6,53.8c2.5-1.9,7.5-2,8.5-2l1,2.6   c-0.8-0.2-2.1-0.5-4.3-0.3c-0.3,0-1.2,0.1-1.3,0.8c-0.2,1,1.8,2.3,3,3c-1.6,0.2-2.4,0.6-2.7,0.8C11.3,57.2,11.5,54.4,11.6,53.8z    M54,77.4L16.6,59c0.8-0.4,3-0.9,7.7-0.5l38.2,18.5L54,77.4z M65.8,79.4l0,0.6c0,0,0-0.1-0.1-0.1C65.8,79.7,65.8,79.5,65.8,79.4z    M25.3,58.4L24.5,58c0,0-0.1,0-0.1,0c-0.9-0.1-1.6-0.1-2.4-0.2v-2.6l25.1-3.6l7.2,2.5L25.3,58.4z M63.6,59.2   c-1.8,0.1-2.5-1.3-2.7-2.7l4.8,1.7C65.4,58.8,64.6,59.2,63.6,59.2z M76.4,60.4c0,0.2,0,0.4-0.1,0.5c-0.1,0.2-0.4,0.3-0.6,0.2   l-20.1-7c0,0,0,0,0,0l-8.4-2.9c0,0,0,0,0,0l-6.8-2.4c0,0,0,0,0,0L35,46.8c-0.2-0.6,0.2-1,0.4-1.1L76,60   C76.2,60,76.3,60.2,76.4,60.4z M61.1,54.1c0.6-0.5,2.4-1.7,4.3-1.8c0.6,1.3,0.9,2.6,1,3.7L61.1,54.1z"/><path d="M86.9,63.8c0-1.9-1.5-3.4-3.4-3.4c-1.9,0-3.4,1.5-3.4,3.4s1.5,3.4,3.4,3.4C85.3,67.2,86.9,65.7,86.9,63.8z M80.6,63.8   c0-1.6,1.3-2.9,2.9-2.9c1.6,0,2.9,1.3,2.9,2.9s-1.3,2.9-2.9,2.9C81.9,66.6,80.6,65.3,80.6,63.8z"/><path d="M65.6,74.2c1.9,0,3.4-1.5,3.4-3.4s-1.5-3.4-3.4-3.4c-0.2,0-0.3,0-0.5,0c-0.1,0-0.2,0-0.3,0c0,0,0,0,0,0   c-1.4,0.3-2.5,1.5-2.6,3c0,0,0,0,0,0c0,0,0,0,0,0c0,0.1,0,0.2,0,0.3C62.1,72.7,63.7,74.2,65.6,74.2z M68.4,70.8   c0,1.6-1.3,2.9-2.9,2.9c-1.6,0-2.9-1.3-2.9-2.9c0,0,0,0,0,0c0.5,0,1.4-0.2,2.1-1.1c0.6-0.7,0.6-1.3,0.6-1.7c0.1,0,0.1,0,0.2,0   C67.1,67.9,68.4,69.2,68.4,70.8z M64.8,68c0,0.2,0,0.7-0.5,1.2c-0.5,0.7-1.2,0.9-1.6,0.9C63,69.1,63.8,68.3,64.8,68z"/><path d="M86.6,75.1c-1.9,0-3.4,1.5-3.4,3.4s1.5,3.4,3.4,3.4c1.9,0,3.4-1.5,3.4-3.4S88.5,75.1,86.6,75.1z M86.6,81.4   c-1.6,0-2.9-1.3-2.9-2.9c0-1.6,1.3-2.9,2.9-2.9c1.6,0,2.9,1.3,2.9,2.9C89.5,80.1,88.2,81.4,86.6,81.4z"/></g><text x="0" y="115" fill="#000000" font-size="5px" font-weight="bold" font-family="'Helvetica Neue', Helvetica, Arial-Unicode, Arial, Sans-serif">Created by parkjisun</text><text x="0" y="120" fill="#000000" font-size="5px" font-weight="bold" font-family="'Helvetica Neue', Helvetica, Arial-Unicode, Arial, Sans-serif">from the Noun Project</text></svg>