<svg xmlns="http://www.w3.org/2000/svg" xmlns:xlink="http://www.w3.org/1999/xlink" version="1.1" x="0px" y="0px" viewBox="0 0 100 125" enable-background="new 0 0 100 100" xml:space="preserve"><g><path fill="none" d="M59.269,69.672c0.014-0.28-0.038-0.564-0.079-0.843c-0.009-0.058-0.096-0.136-0.158-0.147   c-0.064-0.012-0.169,0.024-0.207,0.075c-0.462,0.612-1.032,1.142-1.386,1.836c-0.091,0.18-0.209,0.348-0.327,0.512   c-0.375,0.519-0.643,1.047-0.177,1.655c0.238,1.15,0.496,2.296,0.707,3.451c0.19,1.036,0.398,2.062,0.672,3.083   c0.293,1.09,0.426,2.226,0.587,3.348c0.11,0.771,0.261,1.495,0.741,2.151c0.378,0.518,0.659,1.114,0.838,1.747   c0.066,0.232,0.169,0.456,0.271,0.676c0.099,0.212,0.313,0.229,0.467,0.051c0.42-0.488,0.456-0.506,0.85-0.306   c0.216,0.11,0.421,0.242,0.631,0.365c1.105,0.649,2.21,1.298,3.315,1.947c-0.116-0.356-0.409-0.57-0.666-0.811   c-0.444-0.415-0.888-0.83-1.331-1.246c-0.118-0.11-0.258-0.224-0.199-0.405c0.084-0.26,0.323-0.206,0.51-0.188   c0.362,0.035,0.721,0.107,1.082,0.158c0.156,0.022,0.317,0.077,0.519-0.087c-0.556-0.212-1.08-0.409-1.601-0.613   c-0.528-0.207-1.064-0.399-1.577-0.637c-0.923-0.428-1.58-1.095-1.853-2.115c-0.272-1.015-0.696-1.979-0.93-3.014   c-0.396-1.752-0.427-3.53-0.566-5.305C59.261,73.229,59.181,71.455,59.269,69.672z"/><path fill="none" d="M58.27,87.676c0.259,0.292,0.593,0.118,0.882,0.166C58.896,87.639,58.604,87.602,58.27,87.676z"/><path fill="none" d="M27.903,21.504c0.675,0.149,1.281,0.086,1.882-0.216c0.217-0.109,0.229-0.327,0.036-0.477   c-0.302-0.233-0.609-0.346-1.013-0.257c-0.671,0.146-1.356,0.232-2.036,0.335c-0.117,0.018-0.288,0.01-0.308-0.124   c-0.03-0.201,0.159-0.241,0.313-0.277c0.078-0.018,0.166-0.005,0.24-0.031c0.234-0.082,0.682,0.131,0.663-0.267   c-0.014-0.286-0.451-0.252-0.72-0.313c-0.275-0.062-0.554-0.111-0.825-0.186c-0.914-0.253-1.821-0.367-2.743-0.008   c-0.215,0.084-0.473,0.06-0.711,0.07c-0.019,0.001-0.081-0.161-0.058-0.185c0.136-0.141,0.291-0.264,0.435-0.39   c-0.198-0.299-0.461-0.226-0.673-0.189c-0.557,0.097-1.11,0.223-1.657,0.366c-0.438,0.114-0.877,0.131-1.325,0.125   c-0.41-0.005-0.669-0.207-0.856-0.539c-0.08,0.007-0.159,0.024-0.237,0.02c-1.12-0.055-2.143,0.248-3.072,0.905   c-0.034-0.139-0.086-0.229-0.061-0.266c0.111-0.165,0.368-0.336,0.346-0.466c-0.053-0.309-0.385-0.214-0.605-0.228   c-0.491-0.032-0.963,0.086-1.413,0.283c-2.346,1.028-4.549,2.271-6.314,4.179c-0.32,0.346-0.686,0.66-0.762,1.161   c0.193-0.124,0.396-0.235,0.574-0.378c0.445-0.355,0.907-0.698,1.441-0.881c1.684-0.578,3.163-1.606,4.821-2.215   c2.104-0.774,4.297-1.143,6.544-0.811c1.063,0.157,2.148,0.247,3.16,0.666c0.001-0.001,0.001-0.002,0.002-0.003   C24.649,20.836,26.282,21.145,27.903,21.504z"/><path fill="none" d="M23.646,29.704c-0.031,0.009-0.055,0.042-0.082,0.065c0.031,0.017,0.061,0.045,0.095,0.05   c0.114,0.017,0.152-0.025,0.095-0.104C23.739,29.695,23.68,29.695,23.646,29.704z"/><path fill="none" d="M22.157,30.022c-0.052,0.03-0.09,0.084-0.132,0.131c0.063-0.006,0.125-0.01,0.186-0.022   c0.034-0.006,0.092-0.031,0.092-0.047C22.304,30.005,22.242,29.973,22.157,30.022z"/><path fill="none" d="M21.347,30.504c0.026-0.009,0.06-0.011,0.076-0.029c0.013-0.014,0.021-0.033,0.029-0.052   C21.417,30.45,21.382,30.477,21.347,30.504z"/><path fill="none" d="M21.509,30.377c0.178-0.013,0.34-0.065,0.465-0.201C21.794,30.184,21.639,30.25,21.509,30.377z"/><path fill="none" d="M59.393,87.87c-0.054,0.002-0.107-0.001-0.161-0.003c0.052,0.024,0.104,0.048,0.157,0.069   c0.032,0.012,0.087,0.031,0.098,0.018C59.535,87.896,59.499,87.866,59.393,87.87z"/><path fill="none" d="M59.631,56.095c-0.239-0.225-0.452-0.426-0.665-0.626c-0.212,0.095-0.344,0.23-0.14,0.443   C58.969,56.061,58.986,56.045,59.631,56.095z"/><path fill="none" d="M39.344,44.322c0.174-0.693-0.331-1.013-0.745-1.386c-0.388-0.35-0.769-0.708-1.161-1.052   c-0.126-0.111-0.3-0.157-0.427-0.017c-0.07,0.077-0.116,0.229-0.093,0.328c0.192,0.83,0.467,1.622,1.059,2.27   c0.537,0.587,1.055,1.191,1.582,1.789c0.164-0.587,0.336-1.172-0.131-1.713C39.379,44.484,39.328,44.385,39.344,44.322z"/><polygon fill="none" points="40.617,46.529 40.691,46.563 40.677,46.484  "/><path fill="none" d="M55.097,91.005c-0.014,0.195,0.012,0.379,0.151,0.535c0.068,0.076,0.137,0.092,0.2,0.022   c0.019-0.022,0.013-0.08,0-0.115C55.383,91.258,55.281,91.098,55.097,91.005z"/><path fill="none" d="M54.622,90.043c0.041,0.361,0.098,0.713,0.45,0.921C54.991,90.624,54.824,90.325,54.622,90.043z"/><path fill="none" d="M57.067,89.063c0.135,0.278,0.349,0.446,0.665,0.474C57.625,89.219,57.344,89.144,57.067,89.063z"/><path fill="none" d="M57.782,89.556c0.043,0.025,0.087,0.051,0.13,0.076c-0.02-0.023-0.035-0.057-0.06-0.067   C57.83,89.556,57.806,89.556,57.782,89.556z"/><path fill="none" d="M19.597,18.902c-0.485-0.112-0.495-0.114-1.015,0.031C18.918,19.015,19.253,19.032,19.597,18.902z"/><path fill="none" d="M89.286,19.675c-0.26,0.108-0.542,0.289-0.796,0.262c-0.969-0.104-1.161,0.543-1.459,1.25   c-0.662,1.57-0.312,3.002,0.437,4.397c0.354,0.66,1.038,0.856,1.729,0.965c0.195,0.031,0.402-0.012,0.603-0.021   c0,0,0,0.001,0,0.001c0.282-0.012,0.57,0.008,0.844-0.044c0.722-0.137,1.263-0.506,1.453-1.266   c0.146-0.586,0.318-1.167,0.435-1.759c0.268-1.36-0.685-3.154-1.956-3.716C90.157,19.557,89.73,19.491,89.286,19.675z"/><path fill="none" d="M34.648,33.822l-0.02-0.021c0,0,0,0,0,0l0,0c0.007,0,0.014,0,0.02,0c0.001-0.073,0.001-0.145,0.002-0.218   c-0.006-0.006-0.012-0.013-0.019-0.019l0.019-0.009l-0.019,0.009c-0.004-0.003-0.008-0.006-0.012-0.009   c-0.07,0.001-0.139,0.001-0.209,0.002c-0.005,0.004-0.009,0.009-0.014,0.014C34.481,33.654,34.564,33.738,34.648,33.822z"/><path fill="none" d="M34.648,33.821c0.075,0.075,0.151,0.15,0.226,0.225c0.006-0.004,0.012-0.007,0.018-0.011   c0.001-0.071,0.001-0.141,0.001-0.212c-0.003-0.002-0.006-0.004-0.009-0.006c-0.006-0.006-0.012-0.013-0.019-0.019   c-0.073,0-0.145,0.001-0.218,0.001C34.648,33.807,34.648,33.814,34.648,33.821z"/><polygon fill="none" points="37.577,22.617 37.576,22.617 37.577,22.617  "/><path fill="none" d="M91.201,12.873c-0.383-0.328-0.604-0.753-0.866-1.158c-0.306-0.472-0.572-0.942-1.203-1.121   c-0.482-0.137-0.7-0.646-0.897-1.097c-0.236-0.541-0.621-0.942-1.126-1.235c-0.319-0.185-0.573-0.09-0.643,0.244   c-0.071,0.336,0.07,0.8-0.398,0.911c-0.37,0.088-0.535-0.303-0.764-0.516c-0.297-0.275-0.581-0.564-0.879-0.839   c-0.183-0.168-0.408-0.332-0.65-0.191c-0.27,0.157-0.147,0.421-0.065,0.648c0.165,0.456,0.351,0.906,0.495,1.369   c0.132,0.424-0.04,0.645-0.45,0.621c-1.106-0.065-2.154-0.308-3.101-0.927c-0.488-0.319-0.825-0.771-1.201-1.191   c-0.234-0.261-0.48-0.404-0.847-0.204c-0.406,0.222-0.777,0.002-1.153-0.158c-0.272-0.116-0.464,0.005-0.563,0.272   c-0.102,0.275-0.119,0.556-0.076,0.838c0.123,0.799,0.269,1.59,0.507,2.369c0.551,1.805,2.312,2.888,3.932,2.551   c0.209-0.011,0.451-0.035,0.694-0.033c0.467,0.003,0.851-0.139,1.195-0.483c0.681-0.684,1.551-1.02,2.487-1.178   c1.686-0.285,3.21,0.025,4.477,1.26c0.347,0.338,0.72,0.65,1.098,0.954c0.074,0.059,0.245,0.064,0.333,0.019   c0.088-0.045,0.185-0.186,0.181-0.282C91.695,13.786,91.631,13.24,91.201,12.873z"/><path fill="none" d="M70.187,33.073c0.172-0.161,0.103-0.321-0.008-0.482c-0.004,0.001-0.008,0.003-0.012,0.004   c0,0.159,0,0.318,0,0.477C70.174,33.073,70.18,33.073,70.187,33.073z"/><path fill="none" d="M40.939,29.141c-0.013-0.16-0.06-0.305-0.179-0.419C40.82,28.862,40.879,29.002,40.939,29.141z"/><path fill="none" d="M23.91,18.572c1.38,0.142,2.653,0.722,4.019,0.932c1.25,0.192,2.371,0.816,3.507,1.341   c1.476,0.682,2.836,1.559,4.026,2.685c0.234,0.221,0.516,0.393,0.781,0.579c1.269,0.895,2.344,1.985,3.293,3.212   c0.361,0.466,0.684,0.975,1.173,1.331c-0.591-1.701-1.602-3.153-2.797-4.465c-0.732-0.803-1.559-1.53-2.454-2.163   c-0.099-0.07-0.225-0.115-0.302-0.203c-1.071-1.217-2.579-1.624-4.005-2.191c-1.325-0.526-2.71-0.837-4.086-1.173   c-1.27-0.31-2.572-0.221-3.957-0.208C23.369,18.559,23.677,18.548,23.91,18.572z"/><path fill="none" d="M39.011,27.635c-1.043-1.075-2.042-2.195-3.243-3.104c-1.127-0.854-2.168-1.819-3.399-2.537   c-0.411-0.239-0.763-0.381-1.242-0.176c-0.28,0.12-0.63,0.074-0.951,0.102c-0.056,0.361,0.25,0.378,0.434,0.47   c1.195,0.599,2.398,1.194,3.479,1.981c1.371,0.998,2.834,1.87,4.122,2.983c0.42,0.363,0.85,0.713,1.276,1.068   C39.435,28.096,39.23,27.861,39.011,27.635z"/><path fill="none" d="M38.54,23.349c-0.001-0.003-0.003-0.006-0.004-0.009c-0.32-0.241-0.641-0.482-0.961-0.723   c-0.007-0.001-0.012-0.003-0.019-0.004C37.67,23.143,38.074,23.287,38.54,23.349z"/><path d="M35.629,34.809c0.001,0.005,0.004,0.01,0.005,0.015c0.002,0.001,0.003,0.001,0.004,0.002L35.629,34.809z"/><path d="M41.132,58.802c0.009-0.102-0.046-0.255-0.125-0.309c-0.126-0.086-0.292-0.13-0.447-0.157   c-1.335-0.229-2.382-0.964-3.336-1.872c-0.258-0.246-0.38-0.525-0.259-0.872c0.129-0.369-0.04-0.628-0.297-0.853   c-0.579-0.506-1.166-1.001-1.744-1.508c-0.243-0.213-0.482-0.433-0.702-0.669c-0.203-0.218-0.271-0.495-0.232-0.791   c0.023-0.171,0.106-0.318,0.303-0.304c0.431,0.03,0.852,0.199,1.293,0.103c-0.374-0.585-1.029-0.615-1.593-0.683   c-2.166-0.261-3.565-1.598-4.716-3.272c-0.459-0.668-0.467-1.451-0.172-2.217c0.255-0.662,0.67-0.821,1.315-0.5   c1.056,0.526,1.976,1.262,2.94,1.928c0.293,0.202,0.552,0.453,0.955,0.535c0.034-0.394-0.287-0.488-0.49-0.63   c-0.932-0.649-1.834-1.334-2.677-2.095c-0.09-0.081-0.22-0.134-0.278-0.232c-0.636-1.08-1.61-1.914-2.198-3.028   c-0.055-0.105-0.105-0.217-0.006-0.356c0.211-0.151,0.441,0.074,0.669,0.028c0.107-0.022,0.234-0.081,0.295-0.164   c0.08-0.11,0.007-0.248-0.099-0.307c-0.54-0.302-0.952-0.739-1.359-1.195c-0.467-0.522-0.801-1.118-1.078-1.749   c-0.274-0.624-0.354-1.261,0.101-1.84c0.495-0.631,1.167-0.861,1.945-0.697c0.633,0.133,1.254,0.321,1.881,0.485   c0.233,0.061,0.466,0.123,0.699,0.185l-0.015-0.015c0.732,0.415,1.582,0.628,2.164,1.307c0.114,0.133,0.355,0.181,0.548,0.218   c0.219,0.042,0.403,0.332,0.66,0.113c0.164-0.14-0.033-0.542-0.415-0.768c-0.663-0.391-1.333-0.769-2.013-1.129   c-0.469-0.249-0.979-0.416-1.514-0.394c-0.5,0.021-0.952-0.118-1.422-0.25c-0.695-0.195-1.394-0.449-2.144-0.202   c-0.178,0.059-0.404,0.029-0.595-0.016c-0.767-0.178-1.526-0.159-2.285,0.035c-0.078,0.02-0.16,0.036-0.24,0.037   c-0.352,0.006-0.738,0.155-1.031-0.144c-0.204-0.208,0.059-0.674,0.587-1.079c0.427-0.328,0.879-0.58,1.451-0.502   c0.413,0.056,0.799-0.077,1.191-0.187c1.305-0.368,3.307-0.158,4.495,0.455c0.571,0.294,1.1,0.703,1.806,0.622   c0.105-0.012,0.252,0.051,0.329,0.129c0.647,0.659,1.511,1.097,1.962,1.955c0.19,0.361,0.444,0.681,0.786,0.911   c0.084,0.057,0.24,0.071,0.335,0.034c0.162-0.062,0.248-0.23,0.19-0.395c-0.094-0.264-0.218-0.519-0.351-0.766   c-0.169-0.314-0.467-0.55-0.563-0.91c-0.372-0.144-0.606-0.422-0.763-0.777l0.021,0.017c0-0.01,0-0.019,0-0.029   c-0.006,0.004-0.012,0.007-0.018,0.011c-0.075-0.075-0.151-0.15-0.226-0.225c0-0.007,0-0.014,0-0.02c-0.007,0-0.014,0-0.02,0l0,0   c0,0,0,0,0,0l0.02,0.021c-0.083-0.084-0.167-0.167-0.25-0.251c0.004-0.005,0.009-0.009,0.014-0.014c-0.009,0-0.018,0-0.027,0   l0.01,0.017c-0.647-0.808-1.575-1.236-2.411-1.789c-0.356-0.236-0.338-0.368,0.059-0.572c0.035-0.018,0.078-0.02,0.116-0.033   c0.109-0.036,0.257-0.055,0.199-0.22c-0.019-0.053-0.123-0.105-0.19-0.107c-0.241-0.006-0.486-0.008-0.724,0.022   c-0.507,0.065-0.97-0.057-1.382-0.337c-0.244-0.167-0.715-0.196-0.648-0.582c0.049-0.282,0.468-0.245,0.727-0.338   c0.155-0.056,0.292-0.123,0.381-0.273c0.049-0.083-0.018-0.279-0.108-0.309c-0.293-0.096-0.555,0.03-0.823,0.106   c-1.59,0.451-3.11,0.349-4.814-0.325c0.036-0.209,0.207-0.203,0.358-0.225c0.478-0.068,0.958-0.125,1.434-0.208   c0.121-0.021,0.175-0.165,0.151-0.287c-0.013-0.069-0.078-0.142-0.139-0.186c-0.218-0.16-0.463-0.117-0.697-0.053   c-0.546,0.149-1.097,0.283-1.629,0.472c-0.729,0.26-1.474,0.376-2.244,0.37c0.308-0.448,0.875-0.578,1.213-0.988   c0.045-0.054,0.073-0.155,0.055-0.22c-0.036-0.135-0.17-0.176-0.281-0.13c-0.185,0.076-0.381,0.159-0.527,0.29   c-0.704,0.628-1.593,0.962-2.355,1.498c-0.278,0.196-0.603,0.39-0.986,0.382c-0.17-0.384,0.195-0.609,0.224-0.919   c0.012-0.123,0.039-0.258-0.092-0.323c-0.17-0.085-0.312-0.007-0.406,0.14c-0.261,0.409-0.568,0.801-0.759,1.241   c-0.311,0.715-0.878,1.139-1.503,1.523c-0.171,0.105-0.346,0.206-0.52,0.31c-0.281-0.225,0.046-0.354,0.043-0.521   c-0.001-0.072-0.012-0.172-0.059-0.208c-0.051-0.039-0.154-0.04-0.222-0.019c-0.298,0.093-0.493,0.326-0.551,0.604   c-0.121,0.577-0.511,0.881-0.976,1.165c-0.448,0.274-0.867,0.598-1.283,0.92c-0.796,0.615-1.343,1.423-1.6,2.384   c-0.383,1.43-1.215,2.631-1.819,3.926c-0.32-0.017-0.248-0.227-0.252-0.364c-0.017-0.571,0.077-1.131,0.223-1.682   c0.416-1.571,1.003-3.078,1.684-4.552c0.242-0.523,0.565-0.967,1.034-1.325c0.383-0.292,0.751-0.633,1.037-1.017   c0.692-0.93,1.561-1.64,2.536-2.238c0.828-0.508,1.694-0.952,2.466-1.554c0.282-0.22,0.635-0.358,0.97-0.498   c1.968-0.826,4.039-1.166,6.157-1.276c0.244-0.013,0.487,0,0.742,0.14c-0.011,0.393-0.503,0.505-0.549,0.878   c-0.02,0.158-0.091,0.34,0.09,0.431c0.093,0.046,0.276,0.054,0.34-0.006c0.467-0.429,1.038-0.481,1.595-0.368   c0.789,0.159,1.582,0.334,2.311,0.709c0.937,0.483,1.802,1.072,2.677,1.66c1.084,0.728,1.988,1.655,3.024,2.431   c1.048,0.785,1.773,1.884,2.538,2.927c0.457,0.624,0.963,1.2,1.47,1.778c0.1,0.114,0.259,0.185,0.401,0.254   c0.163,0.079,0.41-0.146,0.404-0.332c-0.007-0.219-0.115-0.388-0.24-0.545c-0.354-0.443-0.716-0.88-1.077-1.317   c-0.671-0.812-1.339-1.627-2.017-2.434c-0.47-0.559-0.983-1.069-1.591-1.49c-0.665-0.461-1.325-0.939-1.924-1.481   c-0.853-0.771-1.858-1.296-2.824-1.886c-0.747-0.456-1.588-0.58-2.444-0.654c-0.27-0.023-0.321-0.189-0.138-0.408   c0.092-0.11,0.064-0.218-0.045-0.304c-0.222-0.176-0.442-0.345-0.731-0.417c-0.712-0.175-1.432-0.301-2.163-0.299   c-1.966,0.005-3.857,0.475-5.719,1.042c-0.61,0.186-1.202,0.504-1.733,0.865c-1.074,0.729-2.189,1.384-3.301,2.05   c-0.341,0.204-0.64,0.479-0.961,0.725c-0.213-0.135-0.068-0.283,0.008-0.392c1.723-2.477,3.933-4.376,6.617-5.77   c1.17-0.607,2.434-0.868,3.649-1.305c0.348-0.125,0.723-0.114,1.084-0.05c1.315,0.233,2.648,0.38,3.934,0.76   c1.056,0.312,2.035,0.816,2.98,1.359c1.967,1.132,3.833,2.423,5.619,3.826c0.253,0.198,0.501,0.421,0.69,0.677   c0.221,0.299,0.469,0.535,0.777,0.747c0.755,0.52,1.274,1.227,1.518,2.129c0.116,0.429,0.272,0.848,0.427,1.265   c0.081,0.217,0.117,0.62,0.361,0.56c0.412-0.103,0.11-0.45,0.076-0.696c-0.017-0.117-0.077-0.235,0.066-0.342   c0.931,0.847,1.108,2.004,1.29,3.157c0.044,0.278,0.01,0.573,0.185,0.819c0.071,0.1,0.167,0.185,0.301,0.132   c0.069-0.028,0.159-0.085,0.176-0.146c0.072-0.259,0.12-0.525,0.177-0.792c0.383,0.097,0.403,0.425,0.499,0.672   c0.349,0.905,0.668,1.821,1.002,2.732c0.189,0.517,0.518,0.81,0.723,0.64c0.332-0.274,0.112-0.603,0.016-0.888   c-0.141-0.421-0.358-0.817-0.511-1.234c-0.585-1.596-1.351-3.108-2.103-4.629c-0.448-0.907-0.805-1.859-1.197-2.793   c-0.231-0.55-0.563-1.057-0.292-1.728c0.129-0.32-0.073-0.711-0.27-1.029c-0.279-0.451-0.6-0.858-1.037-1.176   c-0.832-0.605-1.43-1.4-1.818-2.352c-0.466-0.062-0.87-0.206-0.984-0.735c-0.422-0.058-0.699-0.358-1.004-0.61   c-1.032-0.854-2.115-1.624-3.313-2.239c-0.837-0.429-1.728-0.699-2.608-0.995c-1.537-0.517-3.115-0.898-4.727-1.081   c-0.881-0.1-1.777-0.063-2.666-0.1c-0.607-0.025-1.213-0.064-1.819-0.104c-1.671-0.111-3.315,0.007-4.93,0.495   c-0.499,0.151-1.035,0.188-1.557,0.254c-1.099,0.137-2.125,0.477-3.088,1.028c-0.772,0.442-1.531,0.905-2.335,1.294   c-0.502,0.243-0.945,0.625-1.377,0.99c-0.494,0.418-0.945,0.886-1.415,1.332c-0.815,0.773-1.294,1.752-1.689,2.779   c-0.059,0.153-0.026,0.324,0.12,0.438c0.14,0.109,0.304,0.13,0.45,0.034c0.506-0.335,1.052-0.628,1.494-1.034   c0.913-0.838,1.961-1.427,3.1-1.873c0.382-0.149,0.744-0.317,1.052-0.592c0.307-0.274,0.68-0.431,1.047-0.605   c2.995-1.42,6.14-1.642,9.373-1.2c0.431,0.059,0.869,0.064,1.303,0.093c-0.146,0.26-0.376,0.409-0.661,0.472   c-0.882,0.194-1.688,0.553-2.42,1.079c-0.033,0.023-0.069,0.044-0.107,0.057c-1.445,0.507-2.578,1.512-3.779,2.401   c-0.387,0.287-0.749,0.634-1.046,1.013c-1.722,2.198-3.479,4.361-4.518,7.02c-0.548,1.401-1.073,2.805-1.433,4.256   c-0.511,2.062-0.526,4.17-0.358,6.285c0.116,1.459,0.397,2.886,0.674,4.317c0.076,0.39,0.253,0.676,0.57,0.886   c0.06,0.04,0.164,0.062,0.225,0.037c0.057-0.023,0.124-0.127,0.115-0.184c-0.044-0.278-0.087-0.56-0.175-0.825   c-0.439-1.321-0.592-2.69-0.676-4.067c-0.071-1.155,0.157-2.25,0.705-3.285c0.493-0.93,0.943-1.883,1.397-2.832   c0.157-0.328,0.314-0.666,0.394-1.018c0.329-1.438,1.198-2.499,2.418-3.218c1.641-0.968,3.243-1.993,4.855-3.005   c0.341-0.214,0.708-0.37,1.121-0.376c-0.206,0.343-0.412,0.685-0.617,1.028c-0.191,0.32-0.294,0.665-0.273,1.041   c0.01,0.174,0.095,0.306,0.247,0.39c0.16,0.088,0.317,0.057,0.448-0.053c0.154-0.13,0.304-0.268,0.435-0.421   c0.163-0.191,0.362-0.314,0.59-0.409c1.831-0.76,3.727-1.044,5.699-0.8c0.691,0.085,1.353,0.252,1.922,0.677   c0.095,0.071,0.186,0.177,0.093,0.306c-0.041,0.057-0.127,0.122-0.188,0.118c-0.98-0.061-1.931,0.156-2.89,0.3   c-0.942,0.141-1.787,0.507-2.511,1.135c-0.464,0.403-0.644,0.918-0.573,1.522c0.037,0.317,0.245,0.537,0.557,0.527   c0.444-0.014,0.887-0.067,1.328-0.117c0.321-0.036,0.638-0.121,0.959-0.138c0.856-0.046,0.981,0.083,0.885,0.933   c-0.11,0.964,0.064,1.852,0.617,2.659c0.206,0.3,0.404,0.606,0.59,0.918c0.079,0.134,0.187,0.301,0.166,0.435   c-0.131,0.854,0.404,1.454,0.776,2.113c0.158,0.28,0.386,0.521,0.555,0.796c0.516,0.839,0.503,0.836-0.155,1.626   c-0.678,0.814-0.876,1.716-0.435,2.714c0.213,0.481,0.421,0.957,0.809,1.341c0.315,0.312,0.593,0.666,0.854,1.026   c0.219,0.303,0.466,0.553,0.803,0.719c0.728,0.358,1.26,1.019,2.039,1.309c0.163,0.061,0.298,0.275,0.385,0.449   c0.445,0.894,1.162,1.556,1.894,2.19c0.518,0.449,0.91,0.888,0.818,1.641c-0.053,0.436,0.215,0.797,0.593,0.987   c0.591,0.297,1.048,0.736,1.528,1.175c0.604,0.552,1.382,0.832,2.157,1.073c0.176,0.055,0.4,0.009,0.586-0.046   C41.043,59.068,41.123,58.907,41.132,58.802z M38.21,27.354c-1.288-1.114-2.751-1.986-4.122-2.983   c-1.081-0.786-2.284-1.381-3.479-1.981c-0.184-0.092-0.49-0.109-0.434-0.47c0.321-0.029,0.671,0.017,0.951-0.102   c0.48-0.205,0.831-0.064,1.242,0.176c1.232,0.718,2.273,1.683,3.399,2.537c1.201,0.91,2.201,2.029,3.243,3.104   c0.219,0.226,0.425,0.462,0.475,0.787C39.06,28.067,38.629,27.717,38.21,27.354z M40.939,29.141c-0.06-0.14-0.12-0.279-0.179-0.419   C40.88,28.836,40.926,28.982,40.939,29.141z M27.066,18.457c1.376,0.336,2.761,0.647,4.086,1.173   c1.426,0.567,2.934,0.974,4.005,2.191c0.077,0.088,0.203,0.132,0.302,0.203c0.895,0.634,1.723,1.36,2.454,2.163   c1.195,1.311,2.206,2.763,2.797,4.465c-0.489-0.356-0.812-0.864-1.173-1.331c-0.949-1.227-2.023-2.317-3.293-3.212   c-0.265-0.187-0.547-0.358-0.781-0.579c-1.19-1.125-2.55-2.003-4.026-2.685c-1.136-0.525-2.257-1.149-3.507-1.341   c-1.367-0.21-2.639-0.789-4.019-0.932c-0.234-0.024-0.541-0.013-0.802-0.323C24.493,18.236,25.796,18.147,27.066,18.457z    M19.597,18.902c-0.344,0.13-0.679,0.113-1.015,0.031C19.102,18.788,19.112,18.79,19.597,18.902z M19.811,20.244   c-2.247-0.332-4.44,0.038-6.544,0.811c-1.659,0.61-3.137,1.637-4.821,2.215c-0.534,0.183-0.997,0.526-1.441,0.881   c-0.178,0.142-0.381,0.254-0.574,0.378c0.076-0.501,0.441-0.815,0.762-1.161c1.765-1.907,3.968-3.151,6.314-4.179   c0.45-0.197,0.922-0.315,1.413-0.283c0.22,0.014,0.552-0.081,0.605,0.228c0.022,0.13-0.235,0.301-0.346,0.466   c-0.025,0.038,0.027,0.128,0.061,0.266c0.93-0.658,1.952-0.96,3.072-0.905c0.078,0.004,0.158-0.013,0.237-0.02   c0.187,0.332,0.446,0.534,0.856,0.539c0.448,0.006,0.887-0.01,1.325-0.125c0.547-0.143,1.1-0.269,1.657-0.366   c0.212-0.037,0.475-0.11,0.673,0.189c-0.145,0.126-0.3,0.249-0.435,0.39c-0.023,0.024,0.039,0.186,0.058,0.185   c0.239-0.01,0.497,0.014,0.711-0.07c0.921-0.359,1.828-0.245,2.743,0.008c0.271,0.075,0.55,0.124,0.825,0.186   c0.269,0.06,0.707,0.027,0.72,0.313c0.019,0.398-0.428,0.185-0.663,0.267c-0.075,0.026-0.162,0.013-0.24,0.031   c-0.154,0.036-0.343,0.076-0.313,0.277c0.02,0.134,0.191,0.141,0.308,0.124c0.68-0.103,1.365-0.189,2.036-0.335   c0.404-0.088,0.711,0.025,1.013,0.257c0.193,0.149,0.181,0.368-0.036,0.477c-0.601,0.303-1.207,0.365-1.882,0.216   c-1.621-0.359-3.255-0.668-4.931-0.598c-0.001,0.001-0.001,0.002-0.002,0.003C21.959,20.491,20.874,20.401,19.811,20.244z    M21.347,30.504c0.035-0.027,0.07-0.054,0.105-0.08c-0.008,0.019-0.016,0.037-0.029,0.052   C21.407,30.493,21.373,30.495,21.347,30.504z M21.509,30.377c0.129-0.127,0.285-0.193,0.465-0.201   C21.849,30.312,21.687,30.364,21.509,30.377z M22.211,30.132c-0.061,0.011-0.124,0.016-0.186,0.022   c0.042-0.047,0.08-0.101,0.132-0.131c0.085-0.049,0.147-0.018,0.146,0.062C22.303,30.101,22.245,30.125,22.211,30.132z    M23.658,29.819c-0.033-0.005-0.063-0.033-0.095-0.05c0.027-0.023,0.051-0.056,0.082-0.065c0.034-0.009,0.093-0.01,0.107,0.01   C23.811,29.794,23.772,29.836,23.658,29.819z"/><path d="M35.614,51.568c-0.01,0.002-0.019,0.003-0.029,0.005c0.004,0.006,0.008,0.011,0.012,0.017L35.614,51.568z"/><path d="M76.265,33.321c0.002-0.005,0.004-0.009,0.005-0.014c-0.008-0.001-0.016-0.002-0.024-0.003L76.265,33.321z"/><path d="M69.67,33.065c-0.01,0.008-0.02,0.017-0.03,0.025c0.016-0.002,0.031-0.005,0.047-0.006L69.67,33.065z"/><path d="M94.158,17.264c-0.398-0.344-0.778-0.711-1.151-1.083c-0.303-0.304-0.464-0.66-0.302-1.103   c0.167-0.458,0.052-0.854-0.22-1.256c-0.201-0.297-0.33-0.652-0.447-0.995c-0.173-0.509-0.394-0.95-0.886-1.247   c-0.227-0.137-0.354-0.435-0.541-0.647c-0.349-0.393-0.667-0.831-1.078-1.143c-0.303-0.23-0.517-0.49-0.718-0.795   C88.158,8,87.219,7.41,86.074,7.126c-0.312-0.077-0.551-0.035-0.686,0.305c-0.123,0.31-0.367,0.272-0.6,0.143   c-0.425-0.236-0.839-0.49-1.262-0.728c-0.175-0.099-0.358-0.187-0.544-0.26c-0.172-0.068-0.424,0.16-0.38,0.35   c0.11,0.472,0.232,0.942,0.358,1.411c0.042,0.156,0.113,0.304,0.166,0.457c0.092,0.263,0.261,0.549-0.008,0.783   c-0.24,0.209-0.545,0.115-0.812,0.032c-0.821-0.256-1.585-0.609-2.156-1.295c-0.337-0.405-0.682-0.798-0.946-1.261   c-0.392-0.687-0.52-0.689-0.975-0.061c-0.243,0.335-0.243,0.335-0.662,0.09c-0.48-0.28-0.603-0.266-0.866,0.164   c-0.454,0.742-0.748,1.492-0.471,2.41c0.268,0.889,0.379,1.825,0.728,2.695c0.535,1.333,1.501,2.164,2.888,2.551   c0.491,0.137,0.954-0.082,1.545-0.023c-0.323,0.408-0.541,0.785-0.851,1.056c-0.855,0.745-1.436,1.741-2.342,2.441   c-1.164,0.899-2.039,2.081-2.956,3.215c-1.476,1.824-2.953,3.647-4.4,5.493c-0.998,1.273-1.99,2.555-2.9,3.89   c-0.544,0.798-0.955,1.693-1.372,2.57c-0.341,0.717-0.74,1.286-1.537,1.607c-0.663,0.267-1.244,0.752-1.841,1.169   c-0.964,0.673-2.064,1.109-3.014,1.818c-0.82,0.612-1.528,1.328-2.243,2.042c-0.384,0.384-0.745,0.575-1.288,0.301   c-0.237-0.119-0.552-0.112-0.832-0.112c-0.892,0-1.77-0.085-2.639-0.303c-0.583-0.147-1.161-0.206-1.634-0.696   c-0.248-0.257-0.737-0.305-1.129-0.391c-0.611-0.133-0.991-0.44-1.183-1.067c-0.297-0.969-0.721-1.891-1.343-2.706   c-0.3-0.393-0.466-0.852-0.632-1.308c-0.568-1.562-1.114-3.132-1.689-4.691c-0.955-2.588-2.029-5.122-3.518-7.459   c-0.152-0.238-0.268-0.5-0.394-0.754c-0.837-1.68-1.954-3.169-3.163-4.589c-0.686-0.807-1.535-1.444-2.418-2.023   c-1.728-1.133-3.466-2.255-5.455-2.894c-1.782-0.572-3.603-0.953-5.479-1.032c-0.202-0.009-0.408-0.023-0.607,0.005   c-1.754,0.248-3.508,0.504-5.356,0.772c0.157,0.093,0.213,0.155,0.267,0.154c1.21-0.022,2.427,0.103,3.625-0.156   c1.696-0.367,3.352-0.282,5.039,0.172c1.095,0.295,2.173,0.643,3.266,0.943c0.705,0.193,1.294,0.643,1.907,1.028   c0.274,0.172,0.505,0.43,0.797,0.554c1.175,0.499,2.095,1.372,3.129,2.078c0.1,0.068,0.209,0.134,0.285,0.226   c1.238,1.493,2.629,2.848,3.582,4.585c0.992,1.808,1.97,3.623,2.86,5.481c0.541,1.127,0.927,2.329,1.377,3.499   c0.097,0.253,0.031,0.464-0.204,0.606c0.329,1.343,0.982,2.555,1.531,3.81c0.63,1.44,1.228,2.895,1.821,4.351   c0.174,0.427,0.387,0.723,0.848,0.937c0.693,0.322,1.353,0.722,2.062,1.023c0.411,0.175,0.816,0.341,1.272,0.377   c0.234,0.018,0.52,0.064,0.679,0.21c0.417,0.384,0.857,0.339,1.356,0.259c0.714-0.114,1.441-0.026,2.17-0.153   c0.603-0.104,1.054-0.352,1.482-0.732c0.453-0.402,0.895-0.819,1.369-1.196c0.823-0.656,1.675-1.266,2.634-1.725   c0.544-0.26,1.042-0.618,1.56-0.933c0.345-0.21,0.684-0.431,1.036-0.628c0.22-0.123,0.42-0.04,0.459,0.195   c0.045,0.274-0.025,0.602,0.3,0.734c0.403,0.163,0.576-0.199,0.784-0.422c0.302-0.325,0.597-0.662,0.851-1.026   c0.647-0.926,1.445-1.701,2.32-2.403c-0.942,0.105-1.556,0.74-2.163,1.376c-0.307,0.322-0.585,0.67-0.886,0.998   c-0.047,0.051-0.165,0.099-0.215,0.074c-0.139-0.067-0.11-0.211-0.051-0.313c1.218-2.096,2.36-4.227,3.934-6.112   c0.954-1.142,1.889-2.322,2.75-3.547c0.979-1.394,2.174-2.609,3.246-3.924c0.699-0.857,1.498-1.587,2.305-2.321   c0.209-0.191,0.424-0.384,0.593-0.608c1.106-1.466,2.541-2.613,3.805-3.925c0.36-0.374,0.873-0.578,1.176-1.04   c0.095-0.145,0.343-0.204,0.532-0.272c1.954-0.698,3.744-0.317,5.41,0.84c0.198,0.137,0.455,0.289,0.444,0.545   c-0.027,0.605,0.377,0.846,0.808,1.092c0.962,0.55,1.652,1.423,2.486,2.126c0.207,0.174,0.373,0.435,0.37,0.74   c-0.001,0.069-0.059,0.143-0.105,0.203c-0.015,0.02-0.089,0.02-0.115,0c-0.228-0.164-0.448-0.339-0.675-0.503   c-0.365-0.263-0.728-0.515-1.226-0.381c-0.149,0.04-0.325,0.018-0.482-0.013c-0.556-0.108-0.936-0.07-1.375,0.142   c-0.729,0.352-1.467,0.686-2.189,1.052c-0.323,0.164-0.614,0.391-0.922,0.584c-0.18,0.113-0.29,0.271-0.367,0.467   c-0.433,1.107-0.579,2.279-0.675,3.443c-0.052,0.629,0.163,1.279,0.251,1.92c0.055,0.401,0.145,0.805,0.139,1.206   c-0.038,2.472,0.101,4.948-0.133,7.414c-0.157,1.659-0.503,3.274-1.272,4.781c-0.534,1.045-1.019,2.115-1.508,3.182   c-0.294,0.643-0.771,1.138-1.257,1.626c-0.108,0.109-0.282,0.259-0.396,0.237c-0.73-0.141-1.004,0.377-1.322,0.85   c-0.015,0.022-0.075,0.013-0.117,0.019c-0.172-0.244-0.035-0.472,0.075-0.668c1.045-1.868,1.194-3.92,1.289-5.994   c0.068-1.494-0.104-3.002,0.233-4.483c0.018-0.078,0.017-0.161,0.015-0.242c-0.006-0.21-0.044-0.425-0.272-0.49   c-0.249-0.071-0.34,0.125-0.43,0.315c-0.518,1.099-1.041,2.196-1.563,3.294c-0.423,0.889-1.176,1.542-1.699,2.361   c-0.071,0.112-0.274,0.193-0.418,0.195c-0.512,0.008-0.792,0.31-1.069,0.69c-0.352,0.482-0.742,0.937-0.949,1.524   c-0.284-0.195-0.155-0.348-0.121-0.484c0.348-1.376,0.684-2.753,0.917-4.155c0.247-1.484,0.762-2.897,1.221-4.324   c0.149-0.463,0.306-0.924,0.45-1.388c0.05-0.162,0.026-0.352-0.12-0.436c-0.217-0.125-0.385,0.013-0.495,0.201   c-0.447,0.761-0.958,1.488-1.231,2.34c0.229,0.024,0.505,0.01,0.446,0.369c-0.052,0.318-0.151,0.628-0.228,0.942   c-0.682,2.79-1.162,5.628-1.971,8.389c-0.034,0.115-0.063,0.245-0.04,0.357c0.021,0.105,0.094,0.24,0.182,0.28   c0.087,0.04,0.251,0.015,0.326-0.048c0.152-0.126,0.282-0.288,0.395-0.452c0.276-0.4,0.54-0.808,0.804-1.216   c0.224-0.347,0.462-0.535,0.886-0.248c0.239,0.162,0.499,0.036,0.593-0.221c0.63-1.735,1.777-3.169,2.719-4.723   c0.042-0.069,0.068-0.15,0.118-0.212c0.186-0.228,0.201-0.72,0.584-0.622c0.249,0.064,0.229,0.487,0.224,0.767   c-0.024,1.416,0.046,2.834-0.182,4.244c-0.189,1.168-0.52,2.285-1.023,3.355c-0.224,0.476-0.418,0.965-0.604,1.457   c-0.035,0.092,0.009,0.235,0.06,0.332c0.062,0.118,0.198,0.116,0.321,0.095c0.04-0.007,0.084-0.013,0.116-0.034   c0.706-0.48,1.533-0.627,2.332-0.85c-0.163,1.616-0.61,3.162-1.129,4.695c-0.884,2.612-1.987,5.131-3.208,7.599   c-0.622,1.258-1.502,2.288-2.728,3.011c-0.413,0.243-0.783,0.558-1.166,0.836c0.135,0.3,0.287,0.128,0.39,0.071   c0.567-0.314,1.127-0.64,1.685-0.97c0.387-0.229,0.706-0.531,1.002-0.874c1.178-1.364,2.021-2.934,2.789-4.544   c0.241-0.504,0.313-1.086,0.505-1.617c0.44-1.22,0.921-2.425,1.356-3.647c0.326-0.915,0.625-1.841,0.905-2.771   c0.432-1.437,0.993-2.825,1.542-4.218c0.654-1.658,1.296-3.319,1.944-4.979c0.402-1.03,0.603-2.108,0.678-3.201   c0.077-1.131,0.19-2.263,0.108-3.4c-0.017-0.241-0.016-0.487,0.01-0.728c0.096-0.888,0.159-1.776,0.108-2.67   c-0.012-0.201,0.02-0.405,0.039-0.606c0.05-0.519,0.218-0.609,0.719-0.376c0.183,0.085,0.362,0.183,0.531,0.294   c0.395,0.262,0.816,0.328,1.278,0.233c0.317-0.065,0.643-0.083,0.961-0.148c1.025-0.208,1.804-0.692,2.038-1.808   c0.083-0.395,0.204-0.787,0.354-1.162c0.534-1.341,0.213-2.542-0.565-3.675c-0.368-0.536-0.77-1.043-1.286-1.448   c-0.097-0.077-0.156-0.2-0.081-0.318c0.035-0.055,0.13-0.092,0.203-0.102c0.688-0.096,1.275,0.108,1.771,0.597   c0.317,0.313,0.639,0.623,0.98,0.909c0.3,0.252,0.577,0.164,0.768-0.218c0.071-0.142,0.18-0.3,0.169-0.443   C94.936,18.741,94.877,17.886,94.158,17.264z M91.535,14.6c-0.088,0.045-0.259,0.04-0.333-0.019   c-0.378-0.304-0.751-0.616-1.098-0.954c-1.267-1.234-2.791-1.545-4.477-1.26c-0.935,0.158-1.805,0.494-2.487,1.178   c-0.343,0.345-0.727,0.486-1.195,0.483c-0.243-0.001-0.485,0.022-0.694,0.033c-1.62,0.337-3.381-0.746-3.932-2.551   c-0.238-0.779-0.385-1.57-0.507-2.369c-0.043-0.282-0.026-0.563,0.076-0.838c0.099-0.266,0.291-0.388,0.563-0.272   c0.376,0.16,0.746,0.38,1.153,0.158c0.367-0.201,0.613-0.057,0.847,0.204c0.377,0.42,0.713,0.872,1.201,1.191   c0.947,0.619,1.995,0.862,3.101,0.927c0.41,0.024,0.582-0.196,0.45-0.621c-0.144-0.463-0.329-0.913-0.495-1.369   c-0.082-0.227-0.205-0.491,0.065-0.648c0.242-0.141,0.468,0.023,0.65,0.191c0.298,0.274,0.582,0.563,0.879,0.839   c0.23,0.213,0.394,0.603,0.764,0.516c0.468-0.111,0.327-0.576,0.398-0.911c0.071-0.334,0.324-0.429,0.643-0.244   c0.505,0.293,0.89,0.694,1.126,1.235c0.196,0.451,0.415,0.96,0.897,1.097c0.631,0.179,0.897,0.649,1.203,1.121   c0.263,0.405,0.483,0.83,0.866,1.158c0.429,0.367,0.494,0.913,0.515,1.445C91.72,14.413,91.623,14.554,91.535,14.6z M92.532,23.459   c-0.117,0.592-0.288,1.173-0.435,1.759c-0.19,0.76-0.731,1.129-1.453,1.266c-0.274,0.052-0.563,0.032-0.844,0.045   c0,0,0-0.001,0-0.001c-0.201,0.009-0.408,0.051-0.603,0.021c-0.692-0.109-1.375-0.305-1.729-0.965   c-0.749-1.394-1.099-2.826-0.437-4.397c0.298-0.707,0.49-1.354,1.459-1.25c0.253,0.027,0.536-0.154,0.796-0.262   c0.445-0.184,0.871-0.118,1.29,0.067C91.847,20.305,92.8,22.099,92.532,23.459z"/><path d="M45.087,30.423c0.007-0.004,0.012-0.008,0.018-0.012c0-0.001,0-0.001-0.001-0.002L45.087,30.423z"/><path d="M72.344,63.161c-1.1,1.109-2.513,1.573-3.947,2.023c-2.124,0.668-4.358,0.912-6.452,1.7   c-0.795,0.299-1.635,0.462-2.485,0.566c-0.394,0.048-0.776,0.195-1.165,0.291c-0.214,0.053-0.355,0.202-0.462,0.371   c-0.651,1.022-1.266,2.065-1.778,3.166c0,0,0.016-0.015,0.016-0.015c-0.22,1.482-0.99,2.798-1.285,4.258   c-0.023,0.113-0.086,0.257-0.175,0.309c-0.624,0.366-0.488,0.963-0.476,1.516c0.009,0.441,0.131,0.875,0.039,1.327   c-0.037,0.18,0.019,0.414,0.112,0.58c0.35,0.628,0.353,1.309,0.39,1.997c0.051,0.963,0.153,1.924,0.369,2.893   c0.03-0.379,0.094-0.758,0.085-1.136c-0.019-0.808-0.072-1.614-0.118-2.421c-0.039-0.686-0.05-1.376-0.137-2.056   c-0.193-1.498,0.307-2.873,0.712-4.265c0.098-0.338,0.21-0.7,0.622-0.945c0.418,1.02,0.697,2.051,0.864,3.117   c0.094,0.599,0.132,1.217,0.312,1.79c0.379,1.208,0.423,2.468,0.674,3.694c0.119,0.581,0.027,1.102-0.255,1.633   c-0.322,0.604-0.558,1.253-0.829,1.883c-0.088,0.205-0.061,0.408,0.086,0.564c0.207,0.219,0.452,0.139,0.656-0.004   c0.23-0.161,0.432-0.363,0.651-0.54c0.439-0.354,0.66-0.321,0.961,0.189c0.204,0.345,0.453,0.676,0.52,1.088   c0.03,0.186-0.065,0.305-0.244,0.351c-0.077,0.02-0.163,0.039-0.239,0.026c-0.925-0.159-1.854-0.157-2.773,0.008   c-0.53,0.095-0.785-0.315-1.163-0.6c-0.369,1.083,0.451,1.676,0.86,2.391c-0.41,0.266-0.779,0.099-1.13,0.133   c-0.454,0.044-0.539,0.143-0.569,0.727c-0.004,0.071,0.005,0.143,0.011,0.215c-0.287-0.177-0.394-0.485-0.536-0.764   c-0.128-0.252-0.22-0.523-0.344-0.777c-0.585-1.202-0.627-1.222-1.936-1.036c-0.024,0.003-0.057-0.05-0.134-0.122   c0.326-0.486,0.715-0.945,0.996-1.48c0.456-0.868,0.621-1.755,0.365-2.7c-0.278-1.027-0.349-2.073-0.358-3.129   c-0.009-1.011-0.078-2.01-0.241-3.014c-0.285-1.758-0.468-3.532-0.689-5.299c-0.03-0.243-0.048-0.489-0.228-0.675   c-0.046-0.048-0.147-0.073-0.213-0.061c-0.069,0.013-0.145,0.072-0.185,0.132c-0.119,0.18-0.113,0.385-0.066,0.585   c0.506,2.176,0.662,4.404,0.993,6.606c0.283,1.884,0.439,3.781,0.457,5.688c0.005,0.505-0.131,0.948-0.444,1.354   c-0.545,0.706-1.063,1.423-1.911,1.821c-0.283,0.133-0.514,0.387-0.746,0.61c-0.12,0.115-0.129,0.292-0.075,0.455   c0.06,0.182,0.22,0.245,0.382,0.233c0.767-0.057,1.536-0.104,2.297-0.204c0.814-0.107,1.016-0.039,1.304,0.694   c0.535,1.36,1.211,2.647,1.979,3.887c0.151,0.244,0.312,0.477,0.585,0.598c0.191,0.085,0.391,0.115,0.585,0.012   c0.215-0.114,0.222-0.307,0.193-0.52c-0.093-0.694-0.404-1.314-0.65-1.956c-0.087-0.227-0.21-0.44-0.293-0.668   c-0.093-0.255-0.315-0.498-0.148-0.794c0.118-0.209,0.565-0.195,1.019,0.014c0.037,0.017,0.083,0.023,0.11,0.049   c0.811,0.776,1.951,0.961,2.847,1.587c0.299,0.209,0.63,0.369,1.025,0.255c0.2-0.058,0.345-0.329,0.214-0.469   c-0.44-0.473-0.856-0.971-1.441-1.286c-0.532-0.286-1.033-0.619-1.445-1.06c0.102-0.323,0.338-0.205,0.508-0.188   c0.523,0.053,1.05,0.218,1.565,0.182c0.704-0.049,1.024,0.312,1.29,0.86c0.175,0.361,0.387,0.707,0.61,1.041   c0.045,0.067,0.22,0.08,0.326,0.063c0.12-0.019,0.221-0.121,0.212-0.257c-0.017-0.282-0.051-0.562-0.081-0.843   c-0.057-0.521-0.117-1.041-0.173-1.535c0.241-0.231,0.421-0.06,0.556,0.045c0.861,0.672,1.829,1.195,2.637,1.945   c0.411,0.382,0.92,0.66,1.389,0.977c0.133,0.09,0.281,0.162,0.429,0.225c0.234,0.099,0.47,0.135,0.675-0.069   c0.206-0.205,0.191-0.448,0.056-0.666c-0.191-0.309-0.393-0.618-0.636-0.886c-0.517-0.569-1.065-1.109-1.593-1.667   c-0.045-0.048-0.037-0.146-0.074-0.313c0.539,0.09,1.059,0.11,1.568-0.028c0.245-0.067,0.481-0.155,0.522-0.436   c0.041-0.279-0.164-0.438-0.367-0.582c-0.3-0.213-0.618-0.402-0.982-0.466c-1.175-0.206-2.182-0.845-3.267-1.279   c-0.769-0.308-1.266-0.904-1.56-1.747c-0.765-2.198-1.265-4.427-1.3-6.764c-0.017-1.131-0.184-2.26-0.223-3.392   c-0.043-1.255-0.019-2.512-0.02-3.768c0-0.161,0.015-0.323,0.032-0.484c0.032-0.317,0.192-0.541,0.518-0.583   c1.495-0.193,2.848-0.931,4.343-1.127c0.521-0.068,1.049-0.122,1.556-0.254c1.488-0.387,2.988-0.75,4.34-1.532   c0.244-0.141,0.517-0.233,0.772-0.356c0.182-0.087,0.388-0.155,0.531-0.288c0.649-0.602,1.28-1.224,1.915-1.842   c0.015-0.015-0.008-0.068-0.025-0.177C73.298,62.452,72.769,62.733,72.344,63.161z M54.622,90.043   c0.201,0.282,0.368,0.581,0.45,0.921C54.72,90.756,54.663,90.404,54.622,90.043z M55.448,91.562   c-0.063,0.071-0.132,0.055-0.2-0.022c-0.139-0.156-0.165-0.34-0.151-0.535c0.183,0.093,0.286,0.254,0.351,0.442   C55.461,91.482,55.468,91.54,55.448,91.562z M57.067,89.063c0.276,0.081,0.558,0.156,0.665,0.474   C57.417,89.509,57.202,89.341,57.067,89.063z M57.912,89.632c-0.043-0.025-0.087-0.051-0.13-0.076c0.024,0,0.048,0.001,0.07,0.009   C57.877,89.574,57.892,89.609,57.912,89.632z M58.27,87.676c0.333-0.074,0.625-0.037,0.882,0.166   C58.863,87.794,58.53,87.968,58.27,87.676z M59.487,87.954c-0.011,0.013-0.066-0.006-0.098-0.018   c-0.053-0.021-0.105-0.045-0.157-0.069c0.054,0.002,0.107,0.005,0.161,0.003C59.499,87.866,59.535,87.896,59.487,87.954z    M59.966,80.314c0.234,1.035,0.658,1.999,0.93,3.014c0.273,1.02,0.93,1.686,1.853,2.115c0.514,0.238,1.049,0.43,1.577,0.637   c0.521,0.204,1.045,0.401,1.601,0.613c-0.202,0.165-0.363,0.11-0.519,0.087c-0.361-0.052-0.719-0.123-1.082-0.158   c-0.186-0.018-0.425-0.072-0.51,0.188c-0.059,0.182,0.082,0.295,0.199,0.405c0.443,0.416,0.887,0.83,1.331,1.246   c0.258,0.241,0.551,0.455,0.666,0.811c-1.105-0.649-2.21-1.298-3.315-1.947c-0.21-0.123-0.415-0.256-0.631-0.365   c-0.394-0.2-0.43-0.182-0.85,0.306c-0.153,0.178-0.368,0.161-0.467-0.051c-0.102-0.22-0.205-0.443-0.271-0.676   c-0.179-0.632-0.46-1.229-0.838-1.747c-0.48-0.656-0.631-1.38-0.741-2.151c-0.161-1.122-0.294-2.258-0.587-3.348   c-0.274-1.021-0.483-2.047-0.672-3.083c-0.211-1.155-0.469-2.301-0.707-3.451c-0.466-0.608-0.198-1.135,0.177-1.655   c0.119-0.164,0.236-0.332,0.327-0.512c0.354-0.695,0.924-1.224,1.386-1.836c0.039-0.051,0.144-0.087,0.207-0.075   c0.062,0.012,0.149,0.089,0.158,0.147c0.041,0.279,0.093,0.564,0.079,0.843c-0.088,1.783-0.008,3.557,0.131,5.337   C59.539,76.784,59.57,78.561,59.966,80.314z"/><path d="M42.33,45.857c1.045,0.619,2.094,1.23,3.139,1.849c0.928,0.549,1.962,0.752,3.005,0.906   c0.764,0.113,1.508,0.274,2.243,0.516c1.037,0.342,2.122,0.403,3.396,0.49c-0.557-0.435-1.057-0.405-1.5-0.534   c-0.893-0.259-1.79-0.506-2.691-0.738c-0.666-0.172-1.336-0.331-2.01-0.461c-0.803-0.155-1.583-0.388-2.286-0.793   c-1.578-0.909-3.189-1.766-4.677-2.826c-0.366-0.26-0.7-0.537-0.968-0.907c-0.32-0.443-0.517-0.911-0.508-1.461   c0.003-0.2,0.018-0.404-0.009-0.601c-0.03-0.225-0.305-0.418-0.534-0.41c-0.23,0.008-0.403,0.23-0.43,0.503   c-0.041,0.417,0.166,0.771,0.266,1.151c-0.381-0.238-0.603-0.629-0.902-0.945c-0.305-0.322-0.602-0.654-0.934-0.946   c-0.285-0.25-0.656-0.107-0.728,0.273c-0.052,0.273-0.105,0.569-0.053,0.835c0.379,1.971,1.38,3.508,3.195,4.454   c0.062,0.032,0.138,0.039,0.209,0.052c-0.073,0.092-0.141,0.189-0.221,0.275c-0.622,0.676-0.615,0.67-0.121,1.413   c0.291,0.438,0.563,0.89,0.829,1.343c0.661,1.125,1.588,2.042,2.401,3.047c0.325,0.403,0.796,0.671,1.286,0.884   c0.332,0.144,0.657,0.32,0.95,0.531c0.434,0.313,0.85,0.613,1.431,0.563c0.339-0.029,0.605,0.213,0.897,0.346   c1.7,0.775,3.451,1.4,5.275,1.818c0.236,0.054,0.473,0.114,0.701,0.197c0.696,0.253,1.407,0.358,2.149,0.31   c0.648-0.042,1.302-0.054,1.91,0.237c0.281,0.135,0.554,0.061,0.831,0.003c0.954-0.199,1.91-0.343,2.893-0.293   c0.489,0.025,0.961-0.115,1.395-0.367c0.493-0.286,1-0.5,1.602-0.47c0.451,0.023,0.868-0.177,1.259-0.404   c1.272-0.739,2.415-1.641,3.399-2.733c0.93-1.033,1.311-2.309,1.52-3.649c0.059-0.375-0.063-0.723-0.207-1.061   c-0.191-0.447-0.366-0.904-0.593-1.333c-0.876-1.65-1.944-3.175-3.1-4.639c-0.286-0.362-0.668-0.589-1.142-0.612   c-0.068-0.003-0.159,0.051-0.204,0.107c-0.089,0.11-0.055,0.241,0.07,0.285c0.73,0.257,1.182,0.824,1.636,1.403   c1.082,1.384,1.897,2.919,2.619,4.511c0.209,0.462,0.225,0.95,0.15,1.432c-0.208,1.345-0.676,2.566-1.679,3.547   c-0.815,0.797-1.673,1.533-2.647,2.127c-0.632,0.386-1.314,0.573-2.052,0.689c-0.948,0.149-1.849,0.013-2.757-0.169   c-0.358-0.072-0.708-0.173-1.078-0.155c0.003,0.003,0.006,0.006,0.01,0.009c-0.222-0.082-0.439-0.186-0.667-0.236   c-0.306-0.066-0.596-0.525-0.858-0.272c-0.352,0.34,0.152,0.617,0.282,0.919c0.147,0.34,0.037,0.537-0.361,0.538   c-1.987,0.005-3.949-0.09-5.883-0.683c-2.175-0.667-4.293-1.456-6.347-2.425c-0.507-0.239-1.007-0.49-1.469-0.886   c0.462-0.466,1.107-0.356,1.568-0.674c-0.005-0.252-0.212-0.197-0.345-0.207c-0.405-0.032-0.825-0.045-1.2,0.119   c-0.783,0.343-1.32,0.069-1.751-0.595c-0.55-0.849-1.121-1.685-1.664-2.538c-0.149-0.235-0.249-0.506-0.339-0.771   c-0.102-0.303,0.043-0.462,0.364-0.442c0.7,0.045,1.346,0.288,1.975,0.57c1.439,0.645,2.862,1.327,4.307,1.961   c1.708,0.749,3.492,1.289,5.275,1.823c0.464,0.139,0.932,0.264,1.402,0.382c0.061,0.015,0.161-0.036,0.208-0.088   c0.021-0.024-0.028-0.166-0.073-0.184c-0.411-0.165-0.822-0.338-1.246-0.464c-1.983-0.591-3.913-1.313-5.768-2.238   c-0.832-0.415-1.685-0.795-2.549-1.139c-1.296-0.517-2.175-1.509-3.021-2.547c-0.032-0.039,0.014-0.142,0.032-0.274   C41.382,45.273,41.851,45.573,42.33,45.857z M58.967,55.469c0.213,0.2,0.426,0.401,0.665,0.626   c-0.646-0.05-0.662-0.034-0.805-0.184C58.623,55.699,58.755,55.564,58.967,55.469z M39.559,46.254   c-0.527-0.598-1.046-1.202-1.582-1.789c-0.592-0.648-0.867-1.44-1.059-2.27c-0.023-0.1,0.023-0.252,0.093-0.328   c0.127-0.139,0.301-0.093,0.427,0.017c0.393,0.344,0.773,0.703,1.161,1.052c0.414,0.373,0.918,0.693,0.745,1.386   c-0.016,0.063,0.035,0.161,0.084,0.218C39.895,45.082,39.723,45.667,39.559,46.254z M40.617,46.529l0.06-0.045l0.014,0.08   L40.617,46.529z"/><path d="M70.187,33.073c-0.007,0-0.013,0-0.02,0c0,0.007,0,0.014,0,0.02L70.187,33.073c-0.103,0.347-0.165,0.714-0.315,1.039   c-0.942,2.029-1.373,4.214-1.96,6.352c-0.031,0.114-0.048,0.238-0.04,0.355c0.005,0.07,0.058,0.176,0.113,0.194   c0.105,0.035,0.247,0.059,0.337,0.013c0.139-0.071,0.25-0.198,0.365-0.31c0.637-0.616,1.269-1.238,1.91-1.85   c0.082-0.078,0.202-0.115,0.306-0.17c0.086,0.195,0.26,0.405,0.409,0.178c0.398-0.607,0.703-1.273,0.886-1.984   c0.018-0.069-0.024-0.155-0.043-0.231c-0.03-0.122-0.334-0.226-0.411-0.132c-0.126,0.154-0.251,0.313-0.343,0.488   c-0.307,0.579-0.663,1.134-1.192,1.517c-0.467,0.338-0.661,1.044-1.382,1.035c-0.189-0.597,0.228-1.085,0.296-1.635   c0.204-1.641,0.971-3.084,1.625-4.561c0.393-0.888,0.912-1.716,1.595-2.427c0.221-0.231,0.469-0.458,0.535-0.794   c0.013-0.064-0.031-0.166-0.082-0.208c-0.05-0.041-0.166-0.062-0.215-0.032c-0.135,0.083-0.271,0.181-0.368,0.304   c-0.351,0.445-0.709,0.887-1.019,1.361c-0.271,0.413-0.589,0.759-1.009,1.014l-0.016-0.016c0,0.007,0,0.015,0,0.022   c0.004-0.001,0.008-0.003,0.012-0.004C70.29,32.752,70.359,32.912,70.187,33.073z"/><path d="M50.744,69.108c0.081,0.004,0.162,0.252,0.219,0.397c0.072,0.184,0.119,0.378,0.195,0.627   c0.248-0.625,0.278-0.834,0.128-1.245c-0.097-0.265-0.225-0.522-0.36-0.77c-0.054-0.099-0.182-0.25-0.248-0.237   c-0.639,0.13-0.91-0.435-1.347-0.68c-0.282-0.158-0.565-0.335-0.871-0.426c-2.102-0.622-3.719-1.918-5.06-3.601   c-0.726-0.911-1.644-1.66-2.192-2.805c-0.294,0.419-0.263,0.704-0.041,0.983c0.479,0.603,0.963,1.201,1.44,1.806   c1.114,1.414,2.469,2.564,3.933,3.593c0.53,0.373,1.077,0.701,1.771,0.728c0.592,0.023,1.052,0.378,1.468,0.785   C50.079,68.561,50.184,69.079,50.744,69.108z"/><path d="M38.536,23.34c0.001,0.003,0.003,0.006,0.004,0.009c0.003,0,0.006,0.001,0.009,0.001l-0.018-0.022   c0.383,0.076,0.573,0.441,0.9,0.598c0.066,0.032,0.175,0.058,0.222,0.026c0.126-0.085,0.1-0.228,0.013-0.317   c-0.563-0.576-1.023-1.271-1.774-1.633c-0.362-0.174-0.546-0.464-0.692-0.804c-0.08-0.185-0.206-0.409-0.081-0.572   c0.208-0.272,0.426,0.009,0.638,0.07c0.077,0.022,0.15,0.078,0.226,0.08c0.068,0.002,0.166-0.03,0.199-0.081   c0.034-0.052,0.035-0.168-0.002-0.215c-0.313-0.405-0.756-0.668-1.24-0.69c-0.814-0.037-1.336-0.49-1.84-1.033   c-0.247-0.266-0.526-0.503-0.776-0.766c-0.219-0.231-0.171-0.374,0.159-0.487c0.144-0.049,0.359-0.028,0.338-0.243   c-0.019-0.189-0.224-0.222-0.379-0.242c-0.28-0.036-0.566-0.073-0.846-0.054c-0.696,0.048-1.24-0.251-1.779-0.667   c0.467-0.23,0.468-0.218,0.873-0.244c0.308-0.019,0.636,0.077,0.927-0.13c-0.983-0.483-1.918-0.542-2.642-0.157   c-0.097,0.052-0.188,0.157-0.229,0.259c-0.051,0.127,0.047,0.23,0.162,0.278c1.446,0.6,2.593,1.598,3.738,2.642   c1.183,1.079,2.181,2.266,2.931,3.672L37.552,22.6c0.001,0.005,0.002,0.009,0.003,0.013c0.007,0.001,0.012,0.003,0.019,0.004   C37.895,22.858,38.215,23.099,38.536,23.34z M37.577,22.617L37.577,22.617L37.577,22.617L37.577,22.617z"/><path d="M25.37,14.108c-0.011-0.002-0.023-0.005-0.034-0.007c0.006,0.007,0.012,0.015,0.019,0.022L25.37,14.108z"/><path d="M17.952,12.354c0.286,0.146,0.593,0.255,0.899,0.359c1.23,0.42,2.5,0.653,3.786,0.835c0.908,0.128,1.8,0.363,2.699,0.552   c-0.098-0.115-0.193-0.233-0.297-0.342c-0.171-0.178-0.202-0.355,0.025-0.497c0.306-0.192,0.63-0.356,0.936-0.547   c0.051-0.032,0.075-0.14,0.076-0.213c0.002-0.148-0.115-0.211-0.238-0.218c-0.118-0.007-0.241,0.017-0.358,0.043   c-0.443,0.097-0.861,0.276-1.199,0.566c-0.414,0.355-0.826,0.378-1.347,0.284c-1.524-0.276-2.998-0.689-4.403-1.345   c-0.11-0.051-0.22-0.108-0.336-0.138c-0.166-0.043-0.343-0.015-0.421,0.147C17.673,12.048,17.76,12.256,17.952,12.354z"/><path d="M49.471,45.503l0.017-0.021c-0.009,0.002-0.017,0.002-0.026,0.003C49.465,45.491,49.468,45.497,49.471,45.503z"/><path d="M48.939,45.036c-0.552-0.251-1.093-0.543-1.669-0.722c-1.781-0.554-3.479-1.311-5.197-2.022   c-0.26-0.108-0.516-0.252-0.813-0.169c-0.067,0.019-0.146,0.08-0.171,0.141c-0.025,0.062-0.019,0.174,0.023,0.221   c0.307,0.345,0.734,0.506,1.151,0.637c1.466,0.461,2.84,1.172,4.334,1.559c0.545,0.141,1.07,0.363,1.596,0.569   c0.411,0.161,0.819,0.304,1.269,0.234C49.363,45.25,49.153,45.134,48.939,45.036z"/><path d="M74.817,35.298l-0.018-0.017c-0.004,0.01-0.007,0.02-0.011,0.031C74.798,35.307,74.807,35.302,74.817,35.298z"/><path d="M74.115,35.939c-0.402,0.839-0.963,1.59-1.32,2.457c-0.568,1.38-1.171,2.746-1.78,4.109   c-0.147,0.328-0.372,0.622-0.565,0.929c-0.083,0.131-0.245,0.269-0.012,0.386c0.154,0.077,0.322,0.005,0.443-0.11   c0.27-0.257,0.417-0.583,0.55-0.93c0.418-1.094,0.85-2.183,1.295-3.266c0.323-0.785,0.65-1.568,1.161-2.261   c0.431-0.584,0.665-1.265,0.902-1.942C74.491,35.441,74.256,35.646,74.115,35.939z"/><path d="M63.063,51.219c0.005,0.001,0.011,0.002,0.016,0.005c0.004,0.002,0.008,0.003,0.012,0.004   c0.026-0.004,0.05-0.007,0.076-0.011C63.11,51.219,63.079,51.219,63.063,51.219z"/><path d="M63.063,51.219C63.047,51.216,63.038,51.218,63.063,51.219L63.063,51.219z"/><path d="M61.324,50.839c0.164-0.276,0.349-0.539,0.507-0.818c0.026-0.045-0.018-0.163-0.067-0.207   c-0.047-0.044-0.161-0.072-0.212-0.045c-0.175,0.095-0.355,0.196-0.498,0.332c-0.557,0.532-0.724,1.078-0.479,1.49   c0.24,0.402,1.079,0.766,1.598,0.66c0.394-0.08,0.792-0.179,1.108-0.452c0.123-0.107,0.223-0.262,0.102-0.418   c-0.062-0.079-0.189-0.111-0.293-0.153c-0.6,0.089-1.021,0.166-1.443,0.203C61.325,51.459,61.153,51.128,61.324,50.839z"/><polygon points="62.862,45.978 62.875,45.991 62.875,45.991  "/><path d="M62.84,45.999c0.011-0.003,0.023-0.006,0.034-0.009l-0.012-0.012C62.855,45.985,62.848,45.992,62.84,45.999z"/><path d="M60.083,48.322c-0.171,0.593,0.035,1.011,0.637,1.245c0.113,0.044,0.243,0.031,0.329-0.079   c0.077-0.1,0.106-0.213,0.03-0.33c-0.044-0.068-0.084-0.14-0.138-0.198c-0.355-0.379-0.24-0.746,0.046-1.085   c0.26-0.308,0.544-0.597,0.829-0.884c0.335-0.336,0.682-0.661,1.024-0.991c-0.939,0.219-1.611,0.856-2.282,1.486   C60.319,47.709,60.175,48.003,60.083,48.322z"/><path d="M88.623,16.656c0.167-0.245,0.213-0.531,0.053-0.786c-0.1-0.159-0.265-0.299-0.433-0.389   c-0.455-0.243-0.883,0.044-0.876,0.565c0.006,0.328,0.046,0.638,0.393,0.8C88.041,16.978,88.458,16.899,88.623,16.656z"/><path d="M28.281,14.989c0.222-0.088,0.431-0.21,0.652-0.301c0.476-0.196,0.923-0.483,1.469-0.469   c0.027,0.001,0.067-0.115,0.082-0.181c0.006-0.029-0.027-0.088-0.057-0.1c-0.144-0.061-0.293-0.11-0.364-0.136   c-0.846-0.011-1.495,0.245-2.009,0.809c-0.085,0.093-0.084,0.229,0.016,0.319C28.119,14.975,28.225,15.011,28.281,14.989z"/><path d="M21.432,12.256c0.31-0.088,0.624-0.165,0.931-0.264c0.052-0.017,0.111-0.129,0.101-0.186   c-0.009-0.056-0.096-0.113-0.16-0.141c-0.072-0.031-0.158-0.029-0.229-0.04c-0.297-0.003-0.581,0.026-0.812,0.215   c-0.086,0.07-0.193,0.193-0.185,0.283C21.097,12.358,21.275,12.3,21.432,12.256z"/><path d="M76.237,33.341c0.01-0.006,0.018-0.014,0.028-0.02l-0.019-0.017C76.244,33.317,76.24,33.328,76.237,33.341z"/><path d="M74.817,35.297c0.004-0.015,0.01-0.029,0.015-0.045c-0.011,0.009-0.022,0.018-0.032,0.027   C74.799,35.28,74.817,35.298,74.817,35.297z"/><path d="M74.831,35.253c0.622-0.525,1.2-1.082,1.406-1.912C75.531,33.804,75.072,34.448,74.831,35.253z"/><path d="M39.366,40.36c0.434,0.132,0.786,0.488,1.546,0.594c-0.587-0.472-0.919-0.799-1.378-0.948   c-0.116-0.038-0.236,0.031-0.257,0.163C39.268,40.229,39.319,40.346,39.366,40.36z"/><path d="M50.933,46.22l0.01-0.009c-0.009-0.002-0.018-0.004-0.027-0.005C50.922,46.211,50.927,46.216,50.933,46.22z"/><path d="M49.501,45.502c0.325,0.527,0.881,0.594,1.415,0.704C50.506,45.847,50.109,45.458,49.501,45.502z"/><path d="M49.471,45.503c0.01-0.001,0.02-0.001,0.03-0.002c-0.004-0.007-0.009-0.013-0.013-0.02L49.471,45.503z"/><path d="M54.488,83.318c0.016-0.032,0.043-0.063,0.047-0.097c0.013-0.113-0.027-0.152-0.096-0.097   c-0.02,0.016-0.009,0.071-0.012,0.108C54.447,83.261,54.468,83.29,54.488,83.318z"/><path d="M55.211,85.53c0.013-0.066,0.034-0.131,0.037-0.197c0.001-0.022-0.041-0.047-0.063-0.071   c-0.014,0.064-0.034,0.128-0.037,0.192C55.147,85.479,55.188,85.505,55.211,85.53z"/><path d="M26.166,14.309c0,0-0.016,0.015-0.016,0.014c0.013,0.001,0.027,0.002,0.04,0.003C26.182,14.32,26.174,14.314,26.166,14.309   z"/><path d="M26.665,14.462c-0.054-0.036-0.104-0.09-0.163-0.103c-0.102-0.022-0.207-0.026-0.313-0.034   c0.089,0.061,0.174,0.13,0.271,0.169C26.516,14.517,26.597,14.475,26.665,14.462z"/><path d="M70.167,32.595c-0.237,0.077-0.385,0.243-0.472,0.47c0.157,0.002,0.315,0.005,0.472,0.007   C70.167,32.914,70.167,32.754,70.167,32.595z"/><path d="M69.695,33.066c-0.008,0-0.016,0-0.024,0l0.017,0.019C69.689,33.078,69.692,33.072,69.695,33.066z"/><path d="M26.15,14.323c-0.001,0.001,0.016-0.014,0.015-0.013c-0.265-0.067-0.53-0.134-0.795-0.201c0,0-0.016,0.015-0.015,0.014   C25.621,14.189,25.886,14.255,26.15,14.323z"/><path d="M35.64,51.59c-0.009-0.007-0.017-0.015-0.026-0.022l-0.017,0.022C35.612,51.59,35.626,51.59,35.64,51.59z"/><path d="M36.003,51.653c0-0.021-0.054-0.057-0.084-0.059c-0.092-0.007-0.185-0.005-0.278-0.004c0.071,0.06,0.138,0.127,0.218,0.166   C35.94,51.795,36.004,51.741,36.003,51.653z"/><path d="M45.081,30.377c0.002,0.015,0.004,0.031,0.007,0.046c0,0,0.018-0.014,0.018-0.014   C45.102,30.397,45.093,30.386,45.081,30.377z"/><path d="M45.081,30.377c-0.008-0.054-0.016-0.109-0.023-0.163C44.918,30.304,45.027,30.333,45.081,30.377z"/><path d="M34.894,33.824c0-0.008,0-0.017,0-0.025c-0.009,0-0.019,0-0.028,0c0.006,0.006,0.012,0.013,0.019,0.019   C34.888,33.82,34.891,33.822,34.894,33.824z"/><path d="M35.063,33.937c-0.056-0.038-0.113-0.076-0.169-0.113c0,0.071-0.001,0.141-0.001,0.212   C34.949,34.003,35.006,33.97,35.063,33.937z"/><path d="M35.629,34.809c0,0,0.009,0.017,0.009,0.017C35.635,34.82,35.632,34.815,35.629,34.809z"/><path d="M34.65,33.554c-0.01,0-0.02,0-0.03,0c0.004,0.003,0.008,0.006,0.012,0.009L34.65,33.554z"/><path d="M34.411,33.557c0.07-0.001,0.139-0.002,0.209-0.002C34.548,33.496,34.478,33.491,34.411,33.557z"/><line fill="none" stroke="#000000" stroke-width="0" stroke-linecap="round" stroke-linejoin="round" x1="37.302" y1="36.246" x2="37.315" y2="36.233"/><line fill="none" stroke="#000000" stroke-width="0" stroke-linecap="round" stroke-linejoin="round" x1="62.875" y1="45.991" x2="62.875" y2="45.991"/><line fill="none" stroke="#000000" stroke-width="0" stroke-linecap="round" stroke-linejoin="round" x1="62.875" y1="45.991" x2="62.862" y2="45.978"/><path d="M50.943,46.212l-0.011,0.009L50.943,46.212z"/><line fill="none" stroke="#000000" stroke-width="0" stroke-linecap="round" stroke-linejoin="round" x1="37.302" y1="36.246" x2="37.315" y2="36.233"/><path d="M34.65,33.582c0-0.009,0-0.019,0-0.028l-0.019,0.009C34.638,33.57,34.644,33.576,34.65,33.582z"/><path d="M34.866,33.799c-0.072-0.072-0.144-0.144-0.216-0.217c-0.001,0.073-0.001,0.145-0.002,0.218   C34.721,33.8,34.793,33.799,34.866,33.799z"/></g><text x="0" y="115" fill="#000000" font-size="5px" font-weight="bold" font-family="'Helvetica Neue', Helvetica, Arial-Unicode, Arial, Sans-serif">Created by Alena Artemova</text><text x="0" y="120" fill="#000000" font-size="5px" font-weight="bold" font-family="'Helvetica Neue', Helvetica, Arial-Unicode, Arial, Sans-serif">from the Noun Project</text></svg>