<svg xmlns="http://www.w3.org/2000/svg" viewBox="0 0 128 160" x="0px" y="0px"><g><path d="M53.606,38.767l.029-.014c.029.007.022.022.037.036.014.037.036.066.036.044a.377.377,0,0,1,.059.044,2.728,2.728,0,0,1,.741.888c.059.147.125.294.183.44a1.311,1.311,0,0,1,.044.14,11.824,11.824,0,0,0,2.979-7.829,1.069,1.069,0,0,1,.007-.344,18.506,18.506,0,0,0-.073-2.121c-1.02.008-2.128-.066-2.6-1.115A2.054,2.054,0,0,1,56.078,26.4a4.145,4.145,0,0,1,2.627-.191c0-.33-.03-.668-.059-.976a1.148,1.148,0,0,1-.25-.623,7.105,7.105,0,0,1-.535-1.248,7.321,7.321,0,0,0-1.372-2.311,4.57,4.57,0,0,1-.983-1.819,1.334,1.334,0,0,1-.389-.4c-.022-.03-.044-.052-.066-.081a4.8,4.8,0,0,0-2.179-1.284,12.3,12.3,0,0,0-4.3,1.211.96.96,0,0,1-.939.154c-1.482-.47-3.177-1.556-4.784-1.211L40.576,19.9a1.074,1.074,0,0,1-.521.294,4.512,4.512,0,0,1-1.379,1.937,4.257,4.257,0,0,0-1.336,2.619,1.054,1.054,0,0,1,.169.235c.147.308.271.623.4.939a.946.946,0,0,1,.294.667c1.188-.08,2.685.074,3.11,1.174a1.745,1.745,0,0,1-.924,2.069,4.142,4.142,0,0,1-1.922.4c.1,3.309,1.144,7.865,3.6,10.286a8.157,8.157,0,0,1,.184-.9,5.39,5.39,0,0,1,.271-.829c.1-.25.2-.455.257-.631.036-.11.036-.139.066-.176l.007-.162c.015.023-.007-.073-.007-.1a1.343,1.343,0,0,0-.03-.279c-.007-.095-.022-.22-.029-.345a2.159,2.159,0,0,1,.2-.917c.1-.2.184-.308.272-.3s.154.125.212.33a7.96,7.96,0,0,0,.191.785c.029.074.059.14.088.221a2.03,2.03,0,0,1,.11.315,1.074,1.074,0,0,1,.052.22l.022.169a2.154,2.154,0,0,1-.044.513,6.2,6.2,0,0,1-.228.785c-.088.257-.139.426-.213.719a12.494,12.494,0,0,0-.41,2.348,9.1,9.1,0,0,0,.851,1.013,10.189,10.189,0,0,0,.909.814,8.181,8.181,0,0,0,1.2.719,3.511,3.511,0,0,0,.675.3c1.6.462,2.01.587,3.375-.616a5.849,5.849,0,0,1,1.526-.925,5.048,5.048,0,0,0,2.01-1.453,1.375,1.375,0,0,0,.147-.719v-.036a1.179,1.179,0,0,0-.066-.338,2.42,2.42,0,0,0-.1-.352c-.058-.147-.124-.293-.19-.44a2.856,2.856,0,0,0-.47-.521l-.1-.117a1.137,1.137,0,0,1-.124-.184.869.869,0,0,1-.074-.139l-.022-.059-.044-.1-.007-.051a2.544,2.544,0,0,1-.044-.6c.007-.359.066-.557.073-.836l.015-.183.044-.11a.713.713,0,0,1-.066-.265c-.081-.814-.088-1.32.081-1.357s.447.411.755,1.24c.037.1.074.213.11.33l.059.176.015.044.007.11.007.088c.037.221.015.595.037.793C53.613,38.628,53.6,38.679,53.606,38.767ZM73.613,82.545l.022.081a20.035,20.035,0,0,1,.924,4.431c0,.191,0,.382-.007.565-.008.117-.022.213-.037.315a5.623,5.623,0,0,1,3.118-.132A12.808,12.808,0,0,0,83,87.754a18.209,18.209,0,0,0,3.5-2.23,17.987,17.987,0,0,0,3.294-3.881c.66-1.174,1.071-1.952,1.24-1.879.139.059.044.917-.44,2.223a12.374,12.374,0,0,1-3.3,4.483c-.1.081-.2.154-.3.235a8.385,8.385,0,0,1,3.719-.477c.052.007.1.022.14.029a10.46,10.46,0,0,1,.821-2.443c.367-.594.7-.866.822-.807.147.066.044.5-.11,1.145-.095.653-.235,1.555-.4,2.59l-.007.036c-.052.3-.11.6-.169.917a1.856,1.856,0,0,0-.037.206c.176,2.67.807,5,.316,7.7a12.716,12.716,0,0,0,.609,8.026.994.994,0,0,1,.08.506,1.759,1.759,0,0,1-.014.264c-.426,2.436.058,4.9-.147,7.352a24.466,24.466,0,0,1-.712,4.05c-.3,1.2-.946,2.274-1.152,3.514.257-.074.455-.316.683-.426.117-.051.293.044.477-.088.359-.249.381-.88.851-1,.234.359.344.909.785.961.946.117.33-1.35,1.379-.785.418.22,1.724,1.577,2.164,1.35.6-.316.11-1.681.015-2.15-.206-1.071-.162-2.179-.477-3.243a14.624,14.624,0,0,1-.836-3.778c0-.03.007-.059.007-.088s-.007-.059-.007-.1c.227-6.155,2.333-11.672.653-17.806a1,1,0,0,1,.388-1.13v-.271a.9.9,0,0,1-.2-1.02c1.284-3.485,3.345-6.661,3.573-10.477a44.658,44.658,0,0,0-.374-10.476,1.065,1.065,0,0,1-.206-.44c-1.063-4.733-.066-9.369-1.687-14.123-1.4-4.087-2.553-8.936-4.864-12.627-2.788-4.438-8.922-6.86-14.1-6.823-2.957.015-5,1.365-7.7,1.878a16.47,16.47,0,0,1-3.426.264c.081.037.169.081.249.118.2.066.4.132.6.2a11.55,11.55,0,0,0,1.2.337,19.492,19.492,0,0,0,4.446.323c1.174-.007,1.922-.007,1.952.176.022.154-.668.455-1.864.7a11.745,11.745,0,0,1-4.8.008,9.454,9.454,0,0,1-1.343-.4c-.2-.08-.4-.154-.587-.227a2.615,2.615,0,0,1-.337-.176c-.1-.051-.2-.11-.286-.162-.551-.359-.983-.711-1.372-1.012-.081-.007-.154-.007-.228-.015a1.026,1.026,0,0,1-.418-.124.912.912,0,0,1-.147-.008c-2.017-.323-3.389-1.893-5.1-2.788a13.765,13.765,0,0,1-3.286,7.77c-.323,3.624-3.926,7.454-7.52,8.122a5.419,5.419,0,0,1-3.207-.382,63.715,63.715,0,0,0-1.856,13.331,27.03,27.03,0,0,0,.286,6.793c.521,2.113,1.658,3.72,2.634,5.613a20.053,20.053,0,0,0,.213.866c.55,6.434,4,11.658,6.185,17.534a2.334,2.334,0,0,1,.447-.447,1.3,1.3,0,0,1,.734-.272c.169.022.249.1.271.176.03.088-.051.176-.139.286-.051.1-.139.235-.235.411A8.76,8.76,0,0,0,53.76,95.2a12.36,12.36,0,0,0,1.709,5.121c.176.146.367.3.565.447a10.381,10.381,0,0,0,1.284.756c.374.154.638.323.638.5,0,.161-.279.315-.792.359a2.943,2.943,0,0,1-1.328-.3,31.3,31.3,0,0,1-1.944,15.231.316.316,0,0,0,.08-.036,5.717,5.717,0,0,0,.558-.287l.514-.293.359.66a.372.372,0,0,0,.294.235,1.036,1.036,0,0,0,.52-.081l.066-.029.03-.015c.007,0,.147-.1.147-.1.051-.044.117-.088.161-.125a.463.463,0,0,1,.081-.095c.623-.646.755-1.512,1.379-2.194.293-.323.682,1.717.69,1.79.014.117.029.242.051.36.1.785.895,1.57,1.313.462.132.08.374.066.492.132-.081-.044-.169-3.008-.2-3.338-.1-1.152-.081-2.326-.088-3.485a38.215,38.215,0,0,1-.6-6.134c.117-2.89.514-5.517-.242-8.371-.631-2.4-1.555-4.82-1.988-7.256-.36-2.01-.374-4.05-.734-6.052a1.31,1.31,0,0,1-.022-.235,1.19,1.19,0,0,1-.095-.58,9.047,9.047,0,0,1-2.209-1.137,7.138,7.138,0,0,1-2.135-2.326c-.036.022-.066.052-.1.074a1.23,1.23,0,0,1-.477.154.993.993,0,0,1-.521-.118,1.014,1.014,0,0,1-.33-.242,3.134,3.134,0,0,1-.573-.9c-.117-.272-.212-.536-.308-.785-.051.051-.1.095-.146.147l-.389.381-.382-.359a4.852,4.852,0,0,1-1.306-2.414,8.684,8.684,0,0,1-.234-2.01c0-1.123.146-1.739.264-1.747s.22.653.411,1.681a11.137,11.137,0,0,0,.454,1.8,5.251,5.251,0,0,0,.771,1.453c.161-.147.33-.286.506-.426l.521-.41.308.667c.257.536.426,1.035.646,1.5a2.532,2.532,0,0,0,.249.455c.073-.095.154-.22.235-.352l.675-1.159.447,1.247a6.446,6.446,0,0,0,2.084,2.788,9.971,9.971,0,0,0,1.7,1.071,3.633,3.633,0,0,1,.785-.037.586.586,0,0,1,.117-.014c.294,0,.587.022.888.036s.631.015.99.015a11.8,11.8,0,0,0,2.979-.337c.147-.044.293-.081.44-.125l.11-.029.059-.03.183-.081a3.866,3.866,0,0,0,.367-.168l.33-.228a4.2,4.2,0,0,0,1.138-1.32,10.862,10.862,0,0,0,.924-2.238l.286-.9.653.587a.871.871,0,0,0,.169.11.676.676,0,0,0,.08-.176,5.364,5.364,0,0,0,.213-1.233c.059-.851.052-1.636.052-2.289-.008-1.3.014-2.1.161-2.113s.374.734.594,2.055a14.807,14.807,0,0,1,.22,2.377,5.731,5.731,0,0,1-.161,1.548,2.864,2.864,0,0,1-.2.477,1.142,1.142,0,0,1-.573.484.957.957,0,0,1-.425.066.529.529,0,0,0-.11-.015,9.452,9.452,0,0,1-.815,1.886,5.07,5.07,0,0,1-1.489,1.672c-.154.1-.315.2-.47.3-.161.088-.337.14-.5.213l-.25.095c-.059.015-.059.022-.154.052l-.11.022c-.147.036-.3.066-.44.1-.088.015-.162.022-.242.037a1.074,1.074,0,0,1,.176.55,7.674,7.674,0,0,0,.836,2.436c.073.169.147.345.213.514a3.961,3.961,0,0,1,.11-.529,4.723,4.723,0,0,1,.668-1.724c.55-.88,1.093-1.218,1.217-1.122.147.1-.124.66-.4,1.5a5.78,5.78,0,0,0-.293,1.475,2.452,2.452,0,0,0,0,.411l.014.205.037.206a2.31,2.31,0,0,0,.066.249.116.116,0,0,0,.052-.029l1.019-.492-.051,1.02a13.238,13.238,0,0,0-.007,1.71,3.6,3.6,0,0,0,.344,1.2,4.38,4.38,0,0,0,.521.711c.14.177.213.3.176.367s-.176.052-.425-.022a2.284,2.284,0,0,1-.932-.645,3.6,3.6,0,0,1-.763-1.592,5.613,5.613,0,0,1-.132-1.262c-.154,0-.286.117-.4.044a2.138,2.138,0,0,1,.088.631,45.509,45.509,0,0,1-.859,8.393,16.826,16.826,0,0,0-.337,2.392,3.12,3.12,0,0,1,.161-.463,5.622,5.622,0,0,1,.785-1.379c.58-.712,1.035-.968,1.167-.873s-.11.616-.418,1.328a10.7,10.7,0,0,0-.455,1.291,3.513,3.513,0,0,0-.125,1.482,6.238,6.238,0,0,0,.213.829c.08.279.154.55.242.793a3.683,3.683,0,0,0,.535,1.151c.4.565.9.756.866.947-.015.088-.161.125-.433.117-.066,0-.139-.007-.227-.014a2.08,2.08,0,0,1-.25-.1c-.095-.036-.19-.08-.293-.125a3.126,3.126,0,0,1-.286-.212,28.628,28.628,0,0,1,.455,16.544,1.875,1.875,0,0,0,.4-.191,3.419,3.419,0,0,0,.513-.4l.066-.059.154-.139.837.345c.015,0,.022.022.029.036.037-.022.066-.014.118-.058a1.2,1.2,0,0,0,.3-.25l.037-.037.022-.014.066-.1a3.161,3.161,0,0,0,.528-1.408l.022-.374c.008-.132-.007-.308-.007-.448-.029-1.174.044-1.915.213-1.937s.411.683.66,1.834c.191.587.029,1.336.389,1.769l.044.073a.585.585,0,0,1,.139.2l.059.1.007.022c.015.007.03.029.037.029.851.983.88.2,1-.653l.756.455c.447.264.689.477.976.638l.014.015c-.535-1.453-.66-2.993-1.049-4.49a1.372,1.372,0,0,1-.044-.279,2.467,2.467,0,0,1-.059-.264c-.491-4.05-1.173-8.092-1.731-12.113a.94.94,0,0,1,.007-.352,1.011,1.011,0,0,1-.007-.418c.183-1.108.616-2.157.792-3.258a17.94,17.94,0,0,0-.1-3.6,1.094,1.094,0,0,1,.073-.455,1.33,1.33,0,0,1,.029-.33,14.357,14.357,0,0,1,1.38-2.847,13.552,13.552,0,0,1,1.166-2.333c.015-.095.03-.183.052-.278s.022-.294.036-.441.037-.33.037-.484-.015-.286-.022-.44a25.062,25.062,0,0,0-1-4.167L72.4,82.78a.263.263,0,0,1-.015-.052c-.059-.388-.183-.858-.271-1.313-.037-.235-.081-.469-.1-.719a2.362,2.362,0,0,1,.044-.858.027.027,0,0,1,.007-.022,1.608,1.608,0,0,1,.382-.609c.124-.132.235-.235.33-.33a1.668,1.668,0,0,0,.381-.492,5.088,5.088,0,0,0,.257-.756c.037-.234.11-.432.132-.682a18.189,18.189,0,0,0,.11-2.6c-.036-1.5-.073-2.414.081-2.436.139,0,.433.866.682,2.37a13.222,13.222,0,0,1,.154,2.78,8.273,8.273,0,0,1-.117.881,6.1,6.1,0,0,1-.235.829,2.509,2.509,0,0,1-.609.924L73.312,80c-.066.074-.1.14-.1.14l-.007.029a2.584,2.584,0,0,0,.007.4c.022.184.066.4.1.6C73.4,81.606,73.517,82.009,73.613,82.545Zm28.2-15.114a37.712,37.712,0,0,1,.594,11.834c-.448,3.86-2.084,6.978-3.434,10.5a1.313,1.313,0,0,1,.066.4v1.468a1.051,1.051,0,0,1-.278.748c1.394,6.1-.536,11.372-.763,17.593,0,.03-.008.059-.008.088s.008.059.008.1c.044,1.518.748,2.942,1,4.431a24.373,24.373,0,0,1,.22,4.065,1,1,0,0,1-.756,1.012.581.581,0,0,1-.169.242.667.667,0,0,1-.073.059,2.717,2.717,0,0,1,.037,1.863c-.338.683-1.159.661-1.82.712a4.163,4.163,0,0,1-2.612-.543,1.993,1.993,0,0,1-1,.521,3.6,3.6,0,0,1-3.257-.814.711.711,0,0,1-.066-.976v-.895a1,1,0,0,1-.55-.932,4.763,4.763,0,0,1,.1-.968.88.88,0,0,1,.066-.191,1.218,1.218,0,0,1,.052-.418,23.12,23.12,0,0,0,1.328-7.256,34.48,34.48,0,0,1,.08-5.848v-.007a11.773,11.773,0,0,1-1.042-6.764,18.073,18.073,0,0,0,.463-6.3c-.169-.947-.3-1.871-.382-2.818-1.262.052-2.538.9-3.749,1.159s-2.414.426-3.617.675a8.751,8.751,0,0,1-2.7.022A14.657,14.657,0,0,0,81.1,92.537a2.059,2.059,0,0,1,.272.741c.4,6.237-3.03,12.421-3.426,18.65a.969.969,0,0,1-.022.14,1.1,1.1,0,0,1,.022.161c.095,2.3-1.967,3.492-2.605,5.5a1.087,1.087,0,0,1-.558.653c.081.213.162.426.265.638A1.157,1.157,0,0,1,74.4,120.6a3.782,3.782,0,0,1,.491,2.539c-.279.785-1.709.88-2.414.858a3.825,3.825,0,0,1-2.986-1.225.621.621,0,0,1-.051-.088c-.022.007-.029.029-.044.036a4.161,4.161,0,0,1-2.8,1.079c-.756-.022-1.878.088-2.4-.594-.492-.661-.191-1.548-.125-2.3-.007-.007-.015-.007-.022-.015a1,1,0,0,1-.741-1.306,26.549,26.549,0,0,0,.11-13.873,1.067,1.067,0,0,1-.227-.455c-.074-.316-.162-.609-.257-.895-.162,1.885-.382,3.763-.44,5.649.1.939.183,1.886.227,2.839a1.027,1.027,0,0,1-.176.653,24.213,24.213,0,0,1-.227,5.627.914.914,0,0,1-.837.793,7.835,7.835,0,0,1,.074,2.641c-.272,1.225-1.189.91-2.157.822-1.189-.1-2.333-.213-2.788-1.468a2.949,2.949,0,0,1-.14-.521,4.313,4.313,0,0,1-2.465.492c-.66-.059-2.017,0-2.37-.756-.469-1,.081-2,.389-2.978a1.157,1.157,0,0,1-.279-1.336,29.059,29.059,0,0,0,1.864-14.974,1.4,1.4,0,0,1,.015-.308,14.559,14.559,0,0,1-2.077-6.441,1.259,1.259,0,0,1-.161-.294c-2.238-6.4-5.877-11.775-6.508-18.716-1.034-1.973-2.413-3.719-2.773-5.994a43.558,43.558,0,0,1-.367-7.38,65.753,65.753,0,0,1,2.1-14.644,11.11,11.11,0,0,1-3.1-5.774c-1.724-1.548-2.421-3.793-3.316-5.877a16.241,16.241,0,0,1-1.166-6.067c-.675-1.042-.36-2.2-.272-3.338-.022-.044-.044-.088-.066-.14-.029-.073-.051-.139-.08-.205a1.111,1.111,0,0,1-.455-.176c-2.546-1.658-5.914-2.5-7.924-4.938-1.827-2.223-2.083-4.776-2.1-7.564a1.36,1.36,0,0,1,.044-.315,1.067,1.067,0,0,1,.506-.822c1.666-1.079,3.918-.7,5.591.213,1.6.88,3.213,1.746,4.79,2.641.969.55,2.1,1.7,3.17,2.194.147-.147.293-.294.433-.441l-.022-.154a10.354,10.354,0,0,0-2.95-6.529C35.557,9.384,33.657,8.922,31.9,8.2a.685.685,0,0,1-.11-.058.953.953,0,0,1-.69-1.328C32.41,4.043,37.524,4.38,39.791,5.5c3.984,1.958,6.082,6.294,6.6,10.542.5.191,1,.389,1.5.558.506-.205,1.012-.411,1.526-.594.785-3.61,2.583-8.863,6.163-10.418,3.155-1.372,6.581-2.421,9.75-.646a.782.782,0,0,1,.426.565.794.794,0,0,1-.2.91C63.8,8.1,61.39,8.43,59.768,10.4a19.279,19.279,0,0,0-3.807,6.251l.154.11A122.374,122.374,0,0,1,65.469,8.57a.993.993,0,0,1,.477-.206,1.088,1.088,0,0,1,.557-.029c2.884.572,3.7,4.8,3.016,7.256-1.189,4.2-4.754,7.6-8.694,9.435,0,.007.007.014.007.022a6.638,6.638,0,0,1-.095,2.494,19.385,19.385,0,0,1-.947,1.93,18.745,18.745,0,0,1,.132,2.039c1.967.837,3.434,2.678,5.569,3.023a1.154,1.154,0,0,1,.249.066c5.613.411,10.286-2.905,16.046-1.717,4.482.925,9.009,2.282,12.017,5.9,2.869,3.448,3.969,8.415,5.444,12.538a34.7,34.7,0,0,1,2.054,7.344c.345,2.773-.117,5.576.316,8.32A1.1,1.1,0,0,1,101.815,67.431Zm-5.063,53.543a.4.4,0,0,0,.1-.014,5.364,5.364,0,0,0-.147-.741.326.326,0,0,1-.095-.008l-.162-.014H96.43l-.081-.015v-.007h-.015l-.044-.015-.1-.037a3.021,3.021,0,0,1-.712-.345c-.22-.139-.411-.271-.594-.4a1.508,1.508,0,0,1-.1.147,1.539,1.539,0,0,1-.374.3c.044.279.051.785.33.924a2.85,2.85,0,0,0,1.46.264Zm-3.807-1.144c-.074-.044-.147-.088-.213-.132l-.169-.132-.015-.015c-.029.029-.058.066-.088.095a3.086,3.086,0,0,1-.44.308,2.951,2.951,0,0,1-.323.125l-.044.015-.014.007-.11.03h-.008l-.1.014-.176.015c-.088.007-.184.007-.272.015v.667a2.115,2.115,0,0,0,1.291.213c.558-.073.661-.286.661-.814v-.015a.026.026,0,0,0-.008-.022A.777.777,0,0,1,92.945,119.83Zm-15.437-17.1c.536-3.03,1.761-6.031,1.666-9.112a10.67,10.67,0,0,1-2.04-3.7c-.2-.007-.4-.015-.609-.015.052.088.1.184.14.272a6.37,6.37,0,0,1,.4,1.152c.33,1.416.3,2.289.154,2.325-.184.044-.477-.8-.983-2.047a9.112,9.112,0,0,0-.477-.961,1.818,1.818,0,0,0-.536-.609c-.066.015-.132.037-.2.052a.007.007,0,0,1-.007.007,2.2,2.2,0,0,0-.125.191c-.036.058-.066.125-.1.183a12.558,12.558,0,0,0-.52,1.372l-.14.389-.081.22-.088.184c-.117.249-.249.484-.33.674a.882.882,0,0,0-.036.888c.044.1.1.191.139.286.044.118.088.228.139.338.088.227.169.44.25.653.132.411.191.807.271,1.159.2,1.35.374,2.23.2,2.282-.154.036-.609-.7-1.041-2.069-.132-.308-.235-.668-.389-1.02-.081-.154-.162-.308-.242-.47a12.516,12.516,0,0,1,.058,3.052c-.2,1.211-.616,2.363-.836,3.566.572,4.087,1.255,8.188,1.753,12.3.015.036.03.073.044.117.081.315.147.631.206.961.183-.271.367-.536.557-.8a3.835,3.835,0,0,0,1.05-2.318c0-.037.007-.073.007-.11a.815.815,0,0,1-.007-.191C75.946,108.788,76.958,105.809,77.508,102.728ZM73.4,122.574a.144.144,0,0,1,.22.022,1.833,1.833,0,0,0-.088-.33c-.154-.477-.345-1.292-.536-1.292h-.007c-.3,0-.514-.264-.7-.367-.125-.058-.235-.249-.352-.322a1.015,1.015,0,0,1-.309.337,1.181,1.181,0,0,1-.352.169,2.38,2.38,0,0,1-.323.037l-.088-.008h-.022l-.036-.007-.088-.007a2.48,2.48,0,0,1-.264-.067c-.1-.044-.2-.08-.279-.124a4.532,4.532,0,0,0,.117.77,1.913,1.913,0,0,0,1.93,1.284A4.93,4.93,0,0,0,73.4,122.574Zm-4.938-.785a2.127,2.127,0,0,0,.374-1.776l-.036.044a2.228,2.228,0,0,1-.58.521,1.937,1.937,0,0,1-.411.2,1.239,1.239,0,0,1-.579.037,1,1,0,0,1-.4-.154c-.1.066-.206.139-.316.2a2.4,2.4,0,0,1-.917.345c-.088.015-.176.007-.264.015a2.709,2.709,0,0,0-.088,1.144c.029.008.066.022.125.044a4.419,4.419,0,0,0,.454.044c.257.008.514.008.771.022A2.609,2.609,0,0,0,68.462,121.789ZM66.489,17.278a10.2,10.2,0,0,0,1-4.769c-1.805,1.02-3.06,3.155-4.784,4.351a9.521,9.521,0,0,0-3.147,3.133,4.108,4.108,0,0,0-.183,3.279A14.937,14.937,0,0,0,66.489,17.278Zm.7-5.869a1.744,1.744,0,0,0-.785-.792c-3.375,2.611-6.464,5.561-9.56,8.481a1.334,1.334,0,0,1-.235.176,6.892,6.892,0,0,0,1.306,1.812.9.9,0,0,1,.037-.147,8.71,8.71,0,0,1,2.091-3.345c1.636-1.556,3.521-2.546,4.908-4.388A5.7,5.7,0,0,1,67.186,11.409ZM63.143,5.972c-2.986-.711-7.38.58-8.928,3.016a24.72,24.72,0,0,0-2.84,6.485,7.9,7.9,0,0,1,1.5-.146h.008a1.252,1.252,0,0,1,.469.007c.36.147.712.264,1.049.418a20.563,20.563,0,0,1,3.683-6.067,11.317,11.317,0,0,1,2.678-2.546C61.529,6.669,62.373,6.383,63.143,5.972ZM61.588,95.714a59.227,59.227,0,0,0,.946-7.63c-.491-.873-.77-1.849-1.174-2.773a10.7,10.7,0,0,1-.623-1.724c-.558-.059-1.115-.1-1.68-.125a58.794,58.794,0,0,0,1.276,7.6C60.774,92.6,61.214,94.152,61.588,95.714ZM60.3,121.987c0-.294-.007-.595-.029-.888-.059-.69-.162-1.387-.191-2.084a1.8,1.8,0,0,1-.286.191,1.2,1.2,0,0,1-.529.1,1.308,1.308,0,0,1-.513-.154,1.757,1.757,0,0,1-.345-.25l-.1-.095-.014-.022a5.953,5.953,0,0,1-.536,1.372,2.3,2.3,0,0,0,.044,1.166c.286.793,1.519.675,2.238.815.081.014.161.022.235.036A1.516,1.516,0,0,0,60.3,121.987ZM58.5,27.278a1.742,1.742,0,0,0-.6-.125.534.534,0,0,1-.639.719,1.107,1.107,0,0,0-.315-.073.54.54,0,0,1-.47-.33c-.418.33-.777.99-.191,1.3a2.719,2.719,0,0,0,1.35.2C57.876,28.371,58.235,27.85,58.5,27.278Zm-1.878,92.1c.073-.286.154-.572.242-.851a2,2,0,0,1-1.365.294,1.465,1.465,0,0,1-.858-.463,1.97,1.97,0,0,1-.183.088,2.157,2.157,0,0,1-.917.191c-.1-.022-.184-.036-.272-.058-.2.52-.726,1.812-.286,1.878a8.376,8.376,0,0,0,1.658.117A2.274,2.274,0,0,0,56.621,119.382ZM53.231,44.27a.884.884,0,0,1,.074-.484,8.3,8.3,0,0,1-1.225.814,5.1,5.1,0,0,0-1.262.836,5.74,5.74,0,0,1-1.607,1.145c-.213.058-.44.11-.653.147-.176.014-.308,0-.462,0h-.11L47.9,46.72l-.008-.007h-.014l-.03-.007-.058-.015-.235-.052c-.162-.036-.316-.073-.462-.11a5.849,5.849,0,0,1-.866-.308,4.543,4.543,0,0,1-.785-.4,8.051,8.051,0,0,1-1.262-.9c1.218,1.966,3.111,3.485,5.268,2.347A11.528,11.528,0,0,0,53.231,44.27ZM42.014,15.547a4.927,4.927,0,0,1,2.524-.074c-.433-2.611-1.651-5.619-3.72-7.263-1.262-1.005-5.554-2.7-7.491-1.335C35.279,7.623,37.26,8.3,38.6,10.03A13.667,13.667,0,0,1,41.471,15.9c.014-.015.037-.029.051-.044A1.111,1.111,0,0,1,42.014,15.547ZM39.7,28.944c.235-.1.917-.639.492-.918a2.261,2.261,0,0,0-.521-.227.555.555,0,0,1-.506.506c-.14.008-.279.03-.418.044a.492.492,0,0,1-.5-.675,1.475,1.475,0,0,0-.176.015,2.562,2.562,0,0,0,.044,1.423A3.41,3.41,0,0,0,39.7,28.944ZM37.9,21.35a3.407,3.407,0,0,0,1.027-1.313C37.26,19.421,36.012,18,34.4,17.2c-1.46-.719-3.705-2.612-5.671-2.817.726.425,1.394,1.019,2.106,1.43a9.556,9.556,0,0,1,3.022,2.788c.925,1.255,2.37,1.974,3.192,3.265a1.2,1.2,0,0,1,.125.271A3.533,3.533,0,0,1,37.9,21.35Zm-2.186,2.766a2.657,2.657,0,0,0-.962-2.905,7.217,7.217,0,0,1-1.474-1.548,9.16,9.16,0,0,0-2.994-2.891A23.6,23.6,0,0,0,27.6,15.1c.1,2.458.617,4.637,2.92,6.148C32.175,22.341,34.017,23.126,35.712,24.116Z"/><path d="M97.354,55.377c.015.191.029.4.029.639a2.044,2.044,0,0,1-.168.843,1.283,1.283,0,0,1-.206.279.9.9,0,0,1-.345.2,30.822,30.822,0,0,0-.095,3.28,11.568,11.568,0,0,1-.213,2.083c-.095.338-.169.675-.279.983s-.2.58-.308.859-.19.543-.315.807-.257.521-.374.77-.25.477-.36.7c-.132.22-.279.418-.4.608-.272.375-.492.727-.734,1.006-.249.264-.47.484-.66.66-.375.352-.6.513-.668.462s.044-.33.293-.763c.125-.213.279-.469.47-.763.176-.3.338-.66.543-1.042.095-.2.2-.4.308-.6q.132-.33.264-.683c.1-.227.2-.469.294-.719s.168-.535.264-.814.176-.572.264-.866c.088-.278.139-.557.213-.843a12.54,12.54,0,0,0,.161-1.879,17.916,17.916,0,0,1,.279-3.932l.154-.594.521.161a1.228,1.228,0,0,0,.044-.249c.015-.176.015-.36.015-.558s.007-.381.014-.572a3.447,3.447,0,0,0-.257-1.666c-.212-.432-.469-.77-.616-1.019s-.22-.411-.169-.455.2.029.441.2a4.585,4.585,0,0,1,.939.917,3.739,3.739,0,0,1,.616,1.995C97.325,55,97.339,55.187,97.354,55.377Z"/><path d="M91.852,75.81c.337.389.513.638.462.719-.037.066-.338-.037-.771-.308-1.049-.653-1.951-.176-2.964.381-.2.14-.418.264-.645.426s-.47.337-.7.528q-.683.584-1.409,1.211c-.257.2-.506.418-.77.638l-.389.323-.029.022a.479.479,0,0,1-.074.058l-.08.044-.14.066-.279.14a3.83,3.83,0,0,1-1.65.264c-.221-.007-.419-.022-.609-.037a2.059,2.059,0,0,1-.066.3,1.478,1.478,0,0,1-.866.778,2.92,2.92,0,0,1-.4.139c-.11.03-.22.066-.367.1a3.139,3.139,0,0,1-.814.066,3.247,3.247,0,0,1-2.26-1.248c-.866-1.085-1.027-1.885-.925-1.937.14-.08.558.6,1.46,1.409a2.654,2.654,0,0,0,1.747.756,2.6,2.6,0,0,0,.829-.191,2.782,2.782,0,0,0,.278-.11c.059-.044.169-.088.191-.125.007-.014.037-.022.037-.036a2.433,2.433,0,0,0-.1-.243l-.521-.88,1.035-.007a6.933,6.933,0,0,0,2.523-.132l.316-.162.4-.323c.257-.212.521-.418.77-.623.529-.418,1.028-.815,1.512-1.2.242-.176.491-.33.733-.484s.521-.294.771-.433c1.086-.492,2.017-.969,2.927-.55A2.435,2.435,0,0,1,91.852,75.81Z"/><path d="M73.906,58.606a2.262,2.262,0,0,1,.015.645c-.015.074-.015.132-.037.206a1.549,1.549,0,0,1-.132.264,1.083,1.083,0,0,1-.44.374,2.1,2.1,0,0,1-.521.117c.139,1.108.389,2.165.572,3.184a14.128,14.128,0,0,1,.169,1.695,8.721,8.721,0,0,1-.095,1.445,5.578,5.578,0,0,1-.573,2,1.425,1.425,0,0,1-.352.448c-.1.08-.161.11-.191.088s-.014-.1.03-.213a2.272,2.272,0,0,0,.154-.477,8.067,8.067,0,0,0,.2-1.893,9.351,9.351,0,0,0-.044-1.35c-.1-.484-.117-.99-.279-1.541a29.37,29.37,0,0,1-.829-3.844l-.058-.492.506-.117c.257-.059.565-.095.726-.125-.007-.066-.029-.168-.029-.242L72.7,58.73a4.139,4.139,0,0,0-1.2-1.893,4.109,4.109,0,0,1-.815-1.438l-.227-.777.851.014a1.068,1.068,0,0,0,.374-.044c.044-.022.022.008.059-.08a3.139,3.139,0,0,0-.081-1.013,12.73,12.73,0,0,0-.587-2.237,15.644,15.644,0,0,0-1.739-3.5,8.732,8.732,0,0,0-1.7-1.952,6.177,6.177,0,0,0-.565-.432c-.139-.11-.2-.177-.183-.213s.11-.037.279-.008a2.6,2.6,0,0,1,.711.272,6.923,6.923,0,0,1,2.135,1.834,14.406,14.406,0,0,1,2.1,3.61,12.615,12.615,0,0,1,.719,2.4,3.68,3.68,0,0,1,.095,1.526,1.315,1.315,0,0,1-.719.9c.081.118.154.228.249.345.272.338.587.668.873,1.093A3.226,3.226,0,0,1,73.906,58.606Z"/><path d="M61.8,51.386c.007.3.036.595.029.932-.007.132-.022.3-.044.492a1.789,1.789,0,0,1-.22.653,1,1,0,0,1-.455.381,1.429,1.429,0,0,1-.286.059A1.121,1.121,0,0,1,60.6,53.9a2.617,2.617,0,0,1-.586-.154,1.188,1.188,0,0,0-.14-.051c0,1.159.5,2.487.242,3.837l-.044.249c-.029.147-.044.162-.066.25-.044.139-.088.279-.132.411-.11.279-.257.572-.381.836-.147.242-.287.477-.426.69-.154.2-.3.411-.44.594-1.2,1.453-2.223,2.025-2.319,1.908-.124-.14.668-.939,1.6-2.414.11-.184.22-.382.345-.587.1-.206.2-.426.315-.646.088-.227.176-.433.257-.682.037-.132.066-.271.1-.418a1.318,1.318,0,0,0,.044-.176l.014-.184a5.449,5.449,0,0,0-.1-1.687,11.353,11.353,0,0,1-.25-2.1,5.175,5.175,0,0,1,.1-.881l.081-.682.711.242c.323.11.646.242.91.345.066.029.125.044.176.066.007-.015.007-.037.015-.052.014-.1.036-.227.044-.381.014-.242.007-.521.022-.763a17.97,17.97,0,0,0-.433-2.8,16.2,16.2,0,0,1-.3-1.974c-.007-.462.029-.726.11-.741s.2.22.345.668q.253.637.66,1.827A13.176,13.176,0,0,1,61.8,51.386Z"/><path d="M55.007,22.062a1.913,1.913,0,0,1,.213,1.078c-.008.118-.022.22-.03.323l-.014.081a1.014,1.014,0,0,1-.022.124l-.008.037-.044.132a2.859,2.859,0,0,1-.2.543c-.1.2-.205.4-.308.572s-.227.3-.337.448a5.717,5.717,0,0,1-1.409,1.254c-.924.573-1.658.565-1.68.411-.044-.183.484-.447,1.144-1.108a7.212,7.212,0,0,0,1.027-1.232c.081-.125.162-.257.243-.382.77-1.606.286-1.489-1.116-1.8l-.711-.154.293-.565a3.44,3.44,0,0,0,.14-1.665c-.022-.514.066-.778.176-.8s.242.257.433.667a4.413,4.413,0,0,1,.293.852,2.574,2.574,0,0,1,.066.608,6.267,6.267,0,0,1,.763-.014,1.538,1.538,0,0,1,.536.11A1.152,1.152,0,0,1,55.007,22.062Z"/><path d="M50.818,66.624c.4.133.631.25.623.338s-.249.132-.733.132a3,3,0,0,1-1.886-.866,5.009,5.009,0,0,1-1.2-2.795,20.389,20.389,0,0,1-.1-3.5c.008-.1.008-.19.008-.293-.03.007-.044.007-.074.015a1.158,1.158,0,0,1-.77-.191,1.142,1.142,0,0,1-.418-.631,3,3,0,0,1-.081-.91c.015-.242.029-.477.037-.7a20.341,20.341,0,0,1,.168-2.458,4.2,4.2,0,0,1,.624-1.629c.249-.293.426-.425.492-.388s.022.256-.111.616a7.041,7.041,0,0,0-.19,1.482c-.015.645.08,1.438.11,2.384a7.121,7.121,0,0,0,.066,1.218,3.073,3.073,0,0,0,.491-.2l.859-.418.029.946q.023.594,0,1.189a29.767,29.767,0,0,0,0,3.331,4.667,4.667,0,0,0,.726,2.355A3.17,3.17,0,0,0,50.818,66.624Z"/><path d="M50.73,38.166c1.782,1.049.08,3.345-1.16,4.02a4.62,4.62,0,0,1-.843.338,3.521,3.521,0,0,1-1.057.374c-.014.007-.029,0-.051.007a.434.434,0,0,1-.58.015.314.314,0,0,0-.058-.044,1.171,1.171,0,0,1-.47-.33c-1.254-.873-3.617-2.583-2.245-3.845.917-.843,2.333-.543,3.478-.543C48.565,38.158,49.967,37.711,50.73,38.166Zm-.778,2.252c.315-.462.8-1.357-.073-1.313-.4.014-.785.11-1.182.124-.645.037-1.276.008-1.914.008-.477-.008-2.209.132-1.336.983.147.139.294.279.44.4,0-.014-.014-.029-.014-.051a.548.548,0,0,1,1.056-.293c.118.469.411,1.467,1.152,1.32.47-.257.616-.755.9-1.24A.553.553,0,0,1,49.952,40.418Z"/><path d="M44.105,19.274c.212.308-1.834.91-1.152,2.78l.323.888L42.263,22.8a2.467,2.467,0,0,0-.689-.022c0,.022.007.036.007.058a4.007,4.007,0,0,0,.279.719c.242.492.5.954.689,1.365.4.8.47,1.482.279,1.5-.161.014-.44-.352-1.02-1.035a12.587,12.587,0,0,1-.946-1.276,4.206,4.206,0,0,1-.455-.961,1.522,1.522,0,0,1-.007-.822,1.012,1.012,0,0,1,.322-.484,1.165,1.165,0,0,1,.433-.235,2.655,2.655,0,0,1,.543-.073,2.614,2.614,0,0,1,.184-1.013A2.273,2.273,0,0,1,42.9,19.435a2.454,2.454,0,0,1,.859-.249C43.965,19.171,44.083,19.2,44.105,19.274Z"/></g><text x="0" y="143" fill="#000000" font-size="5px" font-weight="bold" font-family="'Helvetica Neue', Helvetica, Arial-Unicode, Arial, Sans-serif">Created by Hey Rabbit</text><text x="0" y="148" fill="#000000" font-size="5px" font-weight="bold" font-family="'Helvetica Neue', Helvetica, Arial-Unicode, Arial, Sans-serif">from the Noun Project</text></svg>