<svg xmlns="http://www.w3.org/2000/svg" viewBox="0 0 128 160" x="0px" y="0px"><g><path d="M59.424,108.264H59.4a.021.021,0,0,1,.013.006C59.418,108.27,59.418,108.264,59.424,108.264ZM73.477,95.979c-.242.339-.476.678-.718,1.023-.143.2-.287.431-.43.6-.143-.208-.287-.417-.43-.619-.294-.424-.587-.848-.881-1.278l-.3-.444c-.078-.111-.156-.221-.228-.345s-.137-.235-.209-.346c-.13.2-.26.4-.4.6-.079.117-.157.241-.242.359.19.2.366.384.555.58l1.591,1.532a20.8,20.8,0,0,0,1.721,1.565c.613.509,1.239,1.037,1.885,1.572s1.382,1,2.1,1.519c1.473.985,3.077,1.983,4.773,3.046.841.554,1.7,1.115,2.576,1.688.834.548,1.78,1.089,2.719,1.7a21.827,21.827,0,0,1,2.139,1.559,3.3,3.3,0,0,0-.385-.867,8.056,8.056,0,0,0-1.376-1.67,25.388,25.388,0,0,0-3.137-2.484c-2.015-1.389-3.677-2.413-4.9-3.28a14.633,14.633,0,0,1-2.471-2.074c-.444-.521-.541-.828-.45-.906s.352.059.893.385,1.409.828,2.693,1.538,3,1.624,5.132,2.981a24.776,24.776,0,0,1,3.3,2.471l-.02-.13a4.46,4.46,0,0,0-.7-1.442,13.138,13.138,0,0,0-2.191-2.249c-1.5-1.252-2.8-2.146-3.756-2.883C80.4,98.241,79.815,97.394,80,97.218s.926.26,3.032,1.428a35.995,35.995,0,0,1,4.088,2.647c.222.176.444.359.679.554-.242-.515-.49-1.043-.8-1.578-.867-1.636-1.943-3.423-3.117-5.438-.619-1.1-1.278-2.276-1.911-3.547-.058.534-.13,1.069-.228,1.571a6.637,6.637,0,0,1-1.969,4.01c-.209.124-.411.248-.607.366a5.95,5.95,0,0,1-.6.208,5.1,5.1,0,0,1-.586.144l-.287.058c-.02,0-.052.02-.066.007l-.013-.065-.026-.137c-.032-.183-.065-.352-.091-.522a5.172,5.172,0,0,1-.046-.554c-.013-.183-.026-.352-.039-.522-.006-.111-.006-.221-.013-.326-.006-.2-.013-.391-.019-.567-.066.091-.124.182-.183.28-.15.183-.306.372-.456.561l-.235.28a2.161,2.161,0,0,1-.313.34c-.32.306-.652.619-.978.932-.757,1.291-1.122-.378-1.572-1.05ZM40.5,105.225h-.007c-.026.039-.111.15-.189.268a4.75,4.75,0,0,0-.293.515l-.039.065a.264.264,0,0,1-.033.072l-.02.039-.032.085-.026.091-.013.045-.033.085c-.052.124-.1.242-.163.352a3.927,3.927,0,0,1-.45.5,2.3,2.3,0,0,1-.326.222A2.983,2.983,0,0,1,40,107.527c.632.065,1.076.2,1.473.222a1.345,1.345,0,0,0,.535-.046c.078-.222.163-.463.254-.711a3.8,3.8,0,0,1-.658-.515c-.444-.424-.763-.88-1.037-1.18l-.059-.065Zm76.118-.991a2.238,2.238,0,0,1,1.063,1.552c0,1.878-3.156,1.6-4.259,1.317-7.029-1.826-13.191-5.327-19.477-8.764a23.423,23.423,0,0,1,1.513,7.264.814.814,0,0,1-.281.633c1.683,3.593,1.135,8.353,1.187,12.1a.9.9,0,0,1-.88.88c-1.878.209-3.235-1.18-4.259-2.627a.946.946,0,0,1-.378-.013c-2.66-.659-4.486-2.707-6.69-4.226-2.5-1.715-5.132-3.156-7.7-4.747A56.054,56.054,0,0,1,63.428,95.718c-.567-.672-1.167-1.317-1.787-1.95a7.734,7.734,0,0,1-.652,2.132,33.83,33.83,0,0,1-1.806,3.267c-.32.568-.743,1.226-1.141,1.852-.417.633-.835,1.278-1.226,1.976-.176.352-.385.717-.548,1.076a6.863,6.863,0,0,0-.411,1.148c-.026.078-.045.169-.071.247a6.569,6.569,0,0,1,.658-.208,2.027,2.027,0,0,1,.913,0,1.879,1.879,0,0,1,.313.117l.02.007.019.013.15.111.033.032.059.046a1.07,1.07,0,0,1,.11.13,1.924,1.924,0,0,1,.131.189l.052.1.026.052.039.1c.072.163.118.294.157.378l.039.013c.039.007.13.04.13.027a.067.067,0,0,0-.019-.033c.026-.007.078-.02.111-.026l.345-.078a1.713,1.713,0,0,1,.639-.007,2.247,2.247,0,0,1,.359.078c.1.052.2.1.293.157a1.779,1.779,0,0,1,.45.345l.183.183.039.052a.619.619,0,0,1,.065.078l.013.02.052.072.105.143a2.281,2.281,0,0,1,.137.248,3.846,3.846,0,0,1,.417,1.917,4.363,4.363,0,0,1-.463,1.872,3.66,3.66,0,0,1-.822,1.069,2.931,2.931,0,0,1-1.291.639l-.958.222-.2-.972a2.838,2.838,0,0,1-.059-.45c-.111.072-.221.144-.326.215a2.056,2.056,0,0,1-.874.313,2.357,2.357,0,0,1-.782-.071,7.454,7.454,0,0,1-1.141-.392,2.914,2.914,0,0,1-.437.835c-.039.039-.052.039-.085.072l.039.085a4.884,4.884,0,0,1,.894,2.2,2.236,2.236,0,0,1-.652,1.846,2.544,2.544,0,0,1-1.037.6c-.568.163-.828.092-.861-.006-.046-.124.156-.294.541-.607a1.606,1.606,0,0,0,.776-1.656,3.486,3.486,0,0,0-.352-.808,1.943,1.943,0,0,1-.169.345l-.092.15-.006.013c-.013.02-.079.1-.079.1l-.052.046-.111.091a1.674,1.674,0,0,1-.443.267,3.543,3.543,0,0,1-.887.255,3.945,3.945,0,0,1-1,.006,3.556,3.556,0,0,1-.352-.1l-.17-.052-.091-.052-.1-.046-.045-.026a.941.941,0,0,1-.118-.071l-.045-.046a2.605,2.605,0,0,1-.268-.287,3.689,3.689,0,0,1-.4-.769c-.117.078-.235.15-.365.221a3.138,3.138,0,0,1-1.644.346,4.4,4.4,0,0,1-.743-.1c-.15-.04-.3-.092-.45-.144l-.391-.2c-.189-.11-.378-.247-.567-.358-.066-.033-.124-.111-.144-.111s0-.1-.006-.1l-.085.117c-.007.006-.013.117-.02.124a2.336,2.336,0,0,0-.339.332,4.137,4.137,0,0,0-.313.411c-.019.033-.026.033-.052.078l-.085.157-.078.222a3.437,3.437,0,0,0-.2,1.128,4.316,4.316,0,0,1-.469,1.819,5.094,5.094,0,0,1-.554.7,2.142,2.142,0,0,1,.071.561c-.013.352-.332,1.109-.228,1.422.137.4.887.593,1.213.808l-.822.8a2.168,2.168,0,0,1-1.167.633,2.62,2.62,0,0,1-1.141-.052,3.736,3.736,0,0,1-.483-.157c-.182-.072-.189-.085-.4-.182l-.4-.235a2.729,2.729,0,0,1-.26-.209,1.213,1.213,0,0,1-.294-.378,1.133,1.133,0,0,1-.15-.548.8.8,0,0,1,.007-.195l.019-.15a.557.557,0,0,0,.013-.092c-.026.176-.678.1-.8.17a1.815,1.815,0,0,0-.495.743c0,.007-.157.346-.157.346a4.543,4.543,0,0,0,1.409.665c1.095.28,1.63.241,1.649.411.026.117-.463.456-1.786.4a4.225,4.225,0,0,1-2.452-.959,3.133,3.133,0,0,1-1.03-1.689,3.228,3.228,0,0,1-.085-.587,2.7,2.7,0,0,1,.065-.639,1.826,1.826,0,0,0-.215-1.46l-.105-.274c-.026-.085-.032-.15-.052-.229a4.609,4.609,0,0,1-.058-1.871,4.137,4.137,0,0,1,.86-1.937,6.118,6.118,0,0,1,1.7-1.317,5.321,5.321,0,0,0,.75-.5,5.223,5.223,0,0,0,.659-.6c.45-.483.782-1.037,1.506-1.735l.913-.736c.1-.111.215-.209.306-.32a1.766,1.766,0,0,0,.17-.248c-.02,0-.046.007-.065.007-.509.032-1.063-.052-1.559-.052a1.915,1.915,0,0,0-1.33.384,9.091,9.091,0,0,0-1.35,1.546l-.8,1.017-.508-1.213a3.393,3.393,0,0,1,.456-3.4l.157-.2c.078-.072.163-.143.247-.208a2.57,2.57,0,0,1,.463-.281c.287-.143.548-.228.711-.313s.163-.13.248-.2a3.542,3.542,0,0,1,.313-.783l-.039.065c.111-.215.228-.43.365-.658a3.36,3.36,0,0,1,.672-.809,1.469,1.469,0,0,1,1.252-.352,1.645,1.645,0,0,1,.626.28,2.978,2.978,0,0,1,.273.222c.072.065.157.15.2.2.384.431.652.809.958,1.1.1.091.2.169.287.241.02-.026.026-.052.046-.078l.2-.352.274-.476c.737-1.272,1.5-2.57,2.21-3.933a25.653,25.653,0,0,0,1.826-4.323,16.152,16.152,0,0,0,.7-4.3,13.158,13.158,0,0,1-6.5-3.684c-1.03-1.258-1.819-2.654-2.758-3.971-1.063-1.493-2.426-2.667-3.535-4.1a46.51,46.51,0,0,1-5.347-9.162,98.385,98.385,0,0,1-4.356-10.955,30.918,30.918,0,0,0-6.436-10.955c-2.451-2.771-1.447-6.136-3.182-9.116-1.206-2.073-2.5-3.6-2.719-6.006A9.58,9.58,0,0,1,11.111,30.3c-1.428-4.259-1.5-9.456-1.154-13.89A7.466,7.466,0,0,1,11.5,12.375a1.135,1.135,0,0,1,.085-.209c4.48-7.708,15.278-9.579,23.429-7.2,4.382,1.285,8.595,3.867,11.06,7.825C49.252,17.9,51.3,24.041,53.536,29.648c6.475,6.013,13.6,11.392,19.067,18.376,2.517,3.215,4.819,6.632,7.069,10.036a21.654,21.654,0,0,1,2,3.665c.248.613.385,1.3.679,1.891a3.782,3.782,0,0,1,.606,2.145,15.887,15.887,0,0,1-.033,3.052c3.235,2.667,5.954,6,9.377,8.431,2.707,1.924,5.8,3.561,7.962,6.149,2.752,3.306,5.276,6.8,8.054,10.082a24.741,24.741,0,0,0,4.636,4.258,5.667,5.667,0,0,1,1.793,1.9.89.89,0,0,1-.528,1.291,7.038,7.038,0,0,1-.809.235A26.516,26.516,0,0,0,116.619,104.234Zm-4.434.678c.306.1,3.573.854,2.96.391a38.228,38.228,0,0,1-4.036-4c-3.235-.248-6.6-2.172-9.39-3.359a91.07,91.07,0,0,1-10.538-5.1c.587.939,1.128,1.9,1.61,2.869,5.348,2.883,10.532,6.352,16.374,8.158C110.183,104.188,111.167,104.593,112.185,104.912ZM99.547,95.066c3.247,1.486,8.771,4.78,12.814,4.44-.933-.782-2.152-1.219-2.987-2.151-1.3-1.448-2.569-2.928-3.782-4.454-2.341-2.948-4.493-6.352-7.206-8.973-2.654-2.563-6.012-4.173-8.777-6.592-2.465-2.152-4.727-4.519-7.2-6.652q-.206.567-.45,1.135c1.91,3.332,2.693,7.147,3.834,10.824a16.823,16.823,0,0,0,3.326,3.091c.652.5,1.31,1,1.93,1.513.606.489,1.187.965,1.761,1.4s1.141.834,1.7,1.186c.281.19.568.333.842.5.111.059.221.124.326.183.071.039.124.078.117.006a.445.445,0,0,0-.013-.078l-.006-.02-.066-.169c-.058-.144-.1-.313-.156-.463l-.463-1.409,1.421.431a11.409,11.409,0,0,1,3.4,1.767c.926.671,1.689,1.337,2.374,1.93,1.356,1.206,2.406,2.139,3.267,2.8,1.7,1.324,2.556,1.637,2.484,1.839-.026.079-.267.072-.776-.052a9.508,9.508,0,0,1-2.23-1.024,34.257,34.257,0,0,1-3.573-2.562c-.711-.555-1.487-1.161-2.367-1.741a13.265,13.265,0,0,0-1.585-.907,4.3,4.3,0,0,1,.1.913v.678l.065.385c-.078.02-.137-.033-.241-.046-.228-.039-.457-.078-.685-.123l-.345-.066-.4-.169c-.274-.111-.541-.222-.815-.339-.131-.052-.3-.118-.392-.163l-.234-.131c-.307-.169-.633-.332-.933-.528a21.647,21.647,0,0,1-1.845-1.252c-.613-.443-1.22-.932-1.833-1.428-.6-.476-1.226-.952-1.9-1.454-.281-.215-.561-.437-.848-.659a19.355,19.355,0,0,0,1.441,2.609A61.782,61.782,0,0,0,99.547,95.066Zm-4.936,22.288c.058-3.678.554-8.477-1.65-11.451a2.814,2.814,0,0,0-.822-.221.979.979,0,0,1-.371-.111,3.26,3.26,0,0,1-1.115-.5.1.1,0,0,0-.026-.019,26.35,26.35,0,0,1,.645,3.162c.072.568.176,1.089.2,1.572.013.15.02.287.026.43a4.42,4.42,0,0,1,.072,1.109v.032a.889.889,0,0,1,.307.613,22.483,22.483,0,0,1,.195,2.778.917.917,0,0,1,.176.2A5.448,5.448,0,0,0,94.611,117.354Zm-2.928-13.733c1.272.678,2.054.828,1.708-.822a25.5,25.5,0,0,0-1.767-5.738.737.737,0,0,1-.28-.587c-.144-.287-.287-.574-.45-.854-1.3-2.328-3.2-4.317-4.389-6.69A47.7,47.7,0,0,1,83.369,81.2c-.861-2.921-1.441-5.862-2.954-8.523-.2.274-.4.541-.613.8a.547.547,0,0,1-.209.15,40.845,40.845,0,0,1,2.583,13.72c.13.339.267.658.4.991.169.28.372.619.593,1.017.326.528.711,1.161,1.148,1.917s.958,1.643,1.552,2.648c.567,1.036,1.252,2.2,1.878,3.534.319.678.678,1.343,1.05,2.067.182.359.4.711.606,1.082a12.539,12.539,0,0,0,.665,1.1c.235.365.483.73.737,1.108.131.15.274.307.417.457A3.337,3.337,0,0,0,91.683,103.621ZM90.431,114.53v-.091h-.078a2.065,2.065,0,0,0-.313-1.147,5.465,5.465,0,0,0-.913-1.148,16.476,16.476,0,0,0-2.524-1.937q-1.4-.88-2.726-1.715c-.867-.58-1.715-1.141-2.536-1.689-1.683-1.063-3.293-2.08-4.806-3.117-.737-.547-1.487-1.05-2.158-1.6q-1-.852-1.937-1.657a21.151,21.151,0,0,1-1.754-1.643c-.554-.548-1.083-1.082-1.6-1.6-1-1.07-1.9-2.107-2.765-3.065q-1.233-1.486-2.309-2.791-1.026-1.331-1.917-2.478c-1-1.3-1.839-2.465-2.53-3.5,0,.1.007.2,0,.306a3.153,3.153,0,0,1-.482,1.467,2.337,2.337,0,0,1-.646.646c.372.45.757.887,1.167,1.311,1.728,1.767,3.463,3.5,5.074,5.379,3.7,4.317,7.694,8.745,12.67,11.607a88.644,88.644,0,0,1,7.759,4.748C86.805,112.059,88.475,113.7,90.431,114.53Zm-9.3-47.947A.864.864,0,0,1,81,66.165c-.326-3.847-2.478-6.664-4.564-9.755-1.767-2.6-3.548-5.217-5.5-7.695-.3-.215-.653-.463-1.057-.749a21.214,21.214,0,0,0-2.432-1.513,4.267,4.267,0,0,0-1.324-.47.26.26,0,0,1-.1,0,.057.057,0,0,0-.033.007,1.087,1.087,0,0,0-.058.234l-.02.177-.3,2.908L64.074,46.87c-1.22-1.937-3.026-3.41-4.141-4.728-1.174-1.33-1.559-2.3-1.376-2.464.215-.2,1.037.521,2.321,1.46.652.489,1.455,1.076,2.328,1.82a16.49,16.49,0,0,1,1.52,1.512,1.941,1.941,0,0,1,.86-.4c.137-.013.274-.026.411-.033l.359.027a4.085,4.085,0,0,1,.632.156C62.646,39.73,57.677,35.8,53.066,31.592a13.018,13.018,0,0,1,.2,2.021,5.937,5.937,0,0,1-.059,1.011,2.977,2.977,0,0,1-.41,1.232,2.253,2.253,0,0,1-.3.366,1.783,1.783,0,0,1-.476.293,1.693,1.693,0,0,1-1.037.052,4.08,4.08,0,0,1-.092.4,4.38,4.38,0,0,1-.4,1.076c-.066.1-.144.208-.216.313a2.154,2.154,0,0,1-.332.306,1.228,1.228,0,0,1-.346.189c2.485,2.524,6.176,3.046,9.162,4.9,3.358,2.086,3.8,5.921,6.8,8.366a42.313,42.313,0,0,1,8.908,9.338,47.543,47.543,0,0,1,3.195,5.64c.691,1.448.8,2.791,1.591,4.337A11.265,11.265,0,0,0,81.132,66.583Zm-.437,21.14a15.335,15.335,0,0,0-.261-2.432c-.084-1.024-.208-2.035-.371-3.045a43.911,43.911,0,0,0-1.63-6.625c-.209.632-.47,1.271-.744,1.923l-.358.841-.718-.613a5,5,0,0,1-.743-.808,2.388,2.388,0,0,1-.144.306,1.092,1.092,0,0,1-.13.2,1.062,1.062,0,0,1-.209.235c-.41.326-.743.163-1.213.281a13.719,13.719,0,0,0,.907,3.645,23.613,23.613,0,0,1,.587,3.2,20.781,20.781,0,0,1,.071,4.232,16.279,16.279,0,0,1-1.252,5.093l.183-.039c.065.2.091.4.176.6.059.13.111.26.163.391.013.032-.006.019.02.006l.026-.019c.117-.144.235-.281.345-.418.137-.156.268-.313.4-.469.111-.17.222-.333.333-.5a11.2,11.2,0,0,0,1.591-4,17.421,17.421,0,0,0,.326-3.56c0-1.07-.072-2.009-.144-2.824-.15-1.63-.319-2.765-.365-3.5-.065-.73-.026-1.069.1-1.095s.3.254.574.945a22.012,22.012,0,0,1,.932,3.476,22.984,22.984,0,0,1,.366,2.954,17.059,17.059,0,0,1-.183,3.9,12.559,12.559,0,0,1-1.233,3.743q.138.7.294,1.683c.013.1.026.209.046.313.013.045.019.091.032.143.02.079.033.157.059.242-.013.065.045.032.1.013a.477.477,0,0,0,.13-.059.9.9,0,0,0,.228-.17A5.675,5.675,0,0,0,80.3,92.607c.111-.73.17-1.526.222-2.4.039-.711.091-1.428.143-2.126C80.676,87.958,80.682,87.841,80.695,87.723ZM77.617,74.492a4.281,4.281,0,0,0,.033-1.728,30.409,30.409,0,0,0-1.043-3.436,25.072,25.072,0,0,0-3.658-7.023,35.4,35.4,0,0,0-5.589-6.482,40.6,40.6,0,0,1-4.33-3.71,6.088,6.088,0,0,1-.671-.965,1.476,1.476,0,0,1-.157-.124,28.3,28.3,0,0,0-3.436-2.178,16.891,16.891,0,0,0-2.139-.959,6.968,6.968,0,0,0-2.256-.456,1.963,1.963,0,0,0-1.278.411,2.479,2.479,0,0,0-.62,1.219l-.411,1.754-1.18-1.265a52.245,52.245,0,0,0-4.591-4.558c-1.147-.972-2.1-1.428-1.995-1.65.072-.169,1.056-.176,2.647.665a21.447,21.447,0,0,1,4.206,3.2,3.422,3.422,0,0,1,.607-.8,3.77,3.77,0,0,1,2.582-.959,7.923,7.923,0,0,1,2.967.62,15.392,15.392,0,0,1,2.361,1.186c.358.222.7.444,1.023.672a5.545,5.545,0,0,0-1.121-1.441A18.21,18.21,0,0,0,54.4,43.649c-2.549-1.05-4.871-2.159-6.638-4.245a2.758,2.758,0,0,1-1.513,1.05,3.229,3.229,0,0,1-1.656-.007,4.37,4.37,0,0,1-1.22-.489,5.841,5.841,0,0,1-.769-.58c-.059.215-.111.43-.183.658a4.739,4.739,0,0,1-1.115,1.93,2.551,2.551,0,0,1-1.265.672,2.243,2.243,0,0,1-.463.046,9.721,9.721,0,0,1-.163,1.656,2.625,2.625,0,0,1-.86,1.591,2.034,2.034,0,0,1-.548.3,3.01,3.01,0,0,1-.476.072,5.358,5.358,0,0,1-.7,2.034l-.084.137-.691.065V48.9a6.364,6.364,0,0,1-.2,1.656,2.791,2.791,0,0,1-.515.972,2.733,2.733,0,0,1-.45.411,2.248,2.248,0,0,1-.508.274l-.17.065-.085.032a.118.118,0,0,0-.032.007l-.039.007-.079.019-.156.026c-.026.007-.052,0-.078.007.371,3.867,2.8,7.107,5.229,10.094-.052-.085-.111-.17-.163-.254a22.181,22.181,0,0,1-1.317-2.641c-.7-1.65-1.161-3.006-1.5-3.926a4.594,4.594,0,0,1-.443-1.493c.072-.026.372.43.835,1.317s1.043,2.2,1.812,3.776a24.607,24.607,0,0,0,1.389,2.484c.261.417.607.848.9,1.252.365.411.737.867,1.128,1.239.2.2.378.385.62.58l.169.144.157.1a1.915,1.915,0,0,0,.332.2,15.117,15.117,0,0,0,1.683.665,10.039,10.039,0,0,1,.939.424c.143.072.28.144.437.235s.332.209.463.307a4.122,4.122,0,0,0,1.539.873c.613.118,1.219.235,1.812.346a25.006,25.006,0,0,1-1.741-1.826,10.373,10.373,0,0,1-1.31-1.865,6.054,6.054,0,0,1-.385-.945,29.663,29.663,0,0,1-2.106-3.189c-.476-.828-.861-1.546-1.168-2.152-.117-.15-.234-.306-.352-.463-.378-.469-.854-.939-1.193-1.33a12.387,12.387,0,0,1-3.143-4.637A6.877,6.877,0,0,1,38,50.228c-.045-.332-.039-.515.013-.528s.157.137.307.437c.13.313.352.743.626,1.285a14.245,14.245,0,0,0,3.371,4.01c.463.45.88.809,1.337,1.3.437.5.919,1.043,1.337,1.572.43.547.893,1.076,1.362,1.61l.177.2.045.053.039.039.1.1.4.4c.261.2.489.411.8.613a16.254,16.254,0,0,0,2.028,1.115c.378.189.756.378,1.154.593l.15.079.176.11.274.17c.176.111.365.228.554.365a37.811,37.811,0,0,0,3.417,2.269,2.929,2.929,0,0,0-.026-.476l-.091-.671a3.775,3.775,0,0,1-.365-.15,7.679,7.679,0,0,1-1.239-.75c-.2-.157-.372-.333-.555-.5l-.273-.261-.235-.281a18.059,18.059,0,0,1-1.663-2.373c-.2-.32-.385-.62-.574-.913a1.22,1.22,0,0,1-.28.13,1.709,1.709,0,0,1-.691.072,2.4,2.4,0,0,1-.509-.137,2.97,2.97,0,0,1-.691-.4,8.768,8.768,0,0,1-1.6-1.722,21.863,21.863,0,0,1-1.885-3.1,12.923,12.923,0,0,1-.906-2.223c-.163-.554-.15-.907-.033-.933s.307.2.646.626.795,1.076,1.382,1.865,1.278,1.741,2.126,2.7a8.1,8.1,0,0,0,1.356,1.291,1.066,1.066,0,0,1,.111.065l.033-.137.482-1.969,1.226,1.552a20.7,20.7,0,0,1,1.493,2.2,21.283,21.283,0,0,0,1.468,2.171l.182.235.2.2c.131.124.255.274.392.391a7.036,7.036,0,0,0,.873.594,1.572,1.572,0,0,0,.613.2.23.23,0,0,0,.053.006c.026,0,.071-.072.123-.15a4.051,4.051,0,0,0,.222-1.63,25.04,25.04,0,0,0-.261-2.81c-.084-.679-.13-1.063,0-1.129.229-.11,1.187,1.226,1.657,3.815a5.015,5.015,0,0,1-.1,2.374,2.048,2.048,0,0,1-.489.769,1.591,1.591,0,0,1-.411.294c.991.769,1.826,1.649,2.673,2.347a8.539,8.539,0,0,0,1.461,1c.307.169.541.293.783.4l.208.071c.02-.065.039-.137.059-.215a10.366,10.366,0,0,0,.189-1.043l.111-.75a4.267,4.267,0,0,1-.554-.77,6.47,6.47,0,0,1-.607-1.46c-.528-1.8-.287-3.019-.013-2.993.137-.007.254.267.444.691s.456,1.069.834,1.793c.378.685.926,1.637,1.552,1.735,0-.007.007-.013.007-.02a2.241,2.241,0,0,0,.111-.287,11.857,11.857,0,0,1,.652-1.989l.515-1.082.939.711c.078.065.169.143.228.2l.13.143.2.242c.88,1.232,1.533,2.321,2.217,3.306a15.676,15.676,0,0,0,1.885,2.367,3.074,3.074,0,0,0,.782.567.83.83,0,0,0,.581.046c.371-.131.626-.359.749-.274.059.032.072.13.04.287a1.194,1.194,0,0,1-.359.626,1.532,1.532,0,0,1-1.213.4c-.1-.013-.209-.033-.306-.052A10.25,10.25,0,0,1,72.877,73.1a21.475,21.475,0,0,0,.88,2.126l.117.229.137.189.131.189.032.045c.007.013.1.118.1.118l.208.208a.418.418,0,0,0,.033-.084c.124-.339.248-.679.372-1.005l.463-1.265.815,1.031c.261.339.5.7.737,1.05A11.026,11.026,0,0,0,77.617,74.492ZM74.122,88.9a21.447,21.447,0,0,0,.085-3.945,28.216,28.216,0,0,0-.352-3.052c-.639-3.5-1.219-4.773-.946-4.9.013-.007.033,0,.066.013l-.04-.039-.006-.013-.052-.065-.215-.281-.209-.28-.163-.287a19.994,19.994,0,0,1-1.043-2.289c-.046-.111-.1-.215-.144-.326a2.387,2.387,0,0,1-.124.222,2.205,2.205,0,0,1-.828.821,1.836,1.836,0,0,1-1.415.111,2.967,2.967,0,0,1-.919-.508A7.566,7.566,0,0,1,66.662,72.9c-.652-.8-1.212-1.63-1.78-2.438-.2-.287-.4-.561-.606-.829a.508.508,0,0,1-.052.105,1.957,1.957,0,0,1-.339.469,1.786,1.786,0,0,1-.633.385,1.985,1.985,0,0,1-1,.039,3.483,3.483,0,0,1-.659-.209,9.159,9.159,0,0,1-.984-.5,10.925,10.925,0,0,1-1.768-1.213c-.534-.457-1.01-.913-1.467-1.343-.045.13-.078.26-.137.391l-.345.848-.855-.326a21.722,21.722,0,0,1-4.779-3.039c-.163-.118-.339-.241-.522-.359l-.267-.182-.066-.04-.039-.026-.006-.006-.118-.065c-.352-.2-.717-.4-1.076-.594-.339-.176-.678-.358-1.01-.554a8.185,8.185,0,0,0,1.213,1.735c.267.319.547.613.828.906a9.62,9.62,0,0,1,1,.893,4.078,4.078,0,0,1,.353.437c.169.163.339.326.5.489.228.228.456.457.678.685.208.2.411.4.613.606s.4.4.606.594.431.365.639.548q.646.556,1.252,1.075c.411.366.822.685,1.194,1.083.378.378.763.737,1.089,1.108s.619.737.912,1.089c.255.313.509.607.75.9.1.105.189.209.281.313.065.059.124.124.182.183.039,0,.039-.1.046-.157a1.337,1.337,0,0,0-.013-.221.968.968,0,0,0-.026-.163c-.039-.144-.065-.287-.111-.431a45.606,45.606,0,0,0-1.806-4.734c-.411-.984-.528-1.447-.418-1.506s.424.293,1.024,1.187a22.226,22.226,0,0,1,2.393,4.682c.059.143.1.306.15.463.02.065.079.234.1.352.026.137.052.267.078.4a6.851,6.851,0,0,1,.176,1.369c.919,3.13,1.754,5.974,2.706,8.484.241.639.5,1.252.744,1.859.273.586.541,1.16.795,1.721.085.157.163.306.241.456.013-.013.026-.019.039-.032a.084.084,0,0,0,.013-.02l.007-.006c.02-.052.052-.1.072-.157a6.385,6.385,0,0,0,.274-2.81,15.222,15.222,0,0,0-.5-2.674c-.222-.841-.509-1.591-.75-2.354-.242-.743-.47-1.441-.679-2.08-1.669-5.164-2.145-7.173-1.917-7.258s1.128,1.787,3.085,6.821c.241.633.508,1.311.789,2.041s.606,1.526.874,2.413a16.749,16.749,0,0,1,.645,2.928,7.813,7.813,0,0,1-.3,3.554c-.006.013-.013.019-.013.032.274.47.541.939.8,1.4.144.248.287.495.424.75l.183.339a.02.02,0,0,1,.006.013l.013-.007c.065-.143.137-.287.2-.43a10.542,10.542,0,0,0,.8-4.917A32.747,32.747,0,0,0,68.919,80c-.555-1.833-.972-3.1-1.181-3.939s-.241-1.213-.13-1.259.359.255.769,1.011A34.8,34.8,0,0,1,70.1,79.6a27.849,27.849,0,0,1,1.911,7.675,12.046,12.046,0,0,1-.724,5.419c.1.215.189.424.287.626.13.222.241.437.365.652.065.111.1.215.169.326a.419.419,0,0,1,.066.215v.007a.46.46,0,0,0,.091,0c.072-.137.228-.274.306-.4a5.415,5.415,0,0,0,.3-.587A15.227,15.227,0,0,0,74.122,88.9ZM69.975,71.036l.235-.958a12.536,12.536,0,0,1-2.106-2.1c-.529-.639-1.05-1.376-1.565-2.113-.014.039-.027.072-.04.118a2.465,2.465,0,0,1-.841,1.226,1.839,1.839,0,0,1-.482.228l-.1.019c.182.209.345.418.5.62.326.43.626.854.913,1.265.567.828,1.108,1.643,1.669,2.354a6.289,6.289,0,0,0,.841.893,1.275,1.275,0,0,0,.3.2.318.318,0,0,0,.105-.137,1.923,1.923,0,0,0,.221-.45A7.572,7.572,0,0,0,69.975,71.036Zm-5.66,18.539c-.2-.411-.391-.815-.593-1.239-.261-.626-.542-1.265-.8-1.923-.985-2.544-1.832-5.393-2.739-8.458-.443-.359-.88-.8-1.35-1.206a3.657,3.657,0,0,1-.358-.359,25.851,25.851,0,0,1,1.486,2.771,8.426,8.426,0,0,1,.77,2.557,2.524,2.524,0,0,1-.424,1.832,1.374,1.374,0,0,1-.417.4.608.608,0,0,1-.072.052c.841,1.135,1.9,2.485,3.247,4.076C63.461,88.551,63.878,89.053,64.315,89.575Zm-4.3,5.856a5.049,5.049,0,0,0,.73-2.472c-.007-.039-.02-.078-.026-.117-.2-.2-.4-.4-.593-.6-1.507.157-2.244,1.513-3.926,1.513-1.656.007-3.345-1.226-4.845-1.982a3.29,3.29,0,0,1-1.232.339,18.316,18.316,0,0,1-.77,4.688,26.952,26.952,0,0,1-1.969,4.617c-.744,1.422-1.526,2.739-2.269,4a4.075,4.075,0,0,0-.45.809c-.046.163.515-.3.5-.294a4.919,4.919,0,0,1,.965-.319c.1.3.2.6.306.9l.078.228a.534.534,0,0,0,.059.124l.02.026a.327.327,0,0,0,.058.085c.085.085.04.072.118.072a1.008,1.008,0,0,0,.45-.163,14.847,14.847,0,0,0,1.363-1.044c.313.522.632,1.037.939,1.546a2.03,2.03,0,0,0,.156.228l.117.169c.085.111.17.2.248.294a1.961,1.961,0,0,0,1.154.639,3.54,3.54,0,0,0,.379.059l.2.013.085.006c.033,0,.065-.006.072-.032l.013-.027.006-.071.039-.392c.066-.7.359-.691.985-.841.509-.124.92-.248,1.043-.789.131-.606.248-1.232.437-1.852a8.11,8.11,0,0,1,.516-1.323c.208-.431.43-.789.632-1.174.443-.731.906-1.4,1.337-2.015s.8-1.161,1.18-1.767C58.87,97.355,59.529,96.363,60.018,95.431Zm-.163,14.215a2.19,2.19,0,0,0-.144-.926.131.131,0,0,0-.026-.071l-.1-.15-.032-.052-.072-.079a.627.627,0,0,0-.085-.091,1.724,1.724,0,0,0-.339.033,2.138,2.138,0,0,1-.541.032,2.752,2.752,0,0,1-.346-.039.964.964,0,0,1-.189-.052l-.15-.052-.039-.013-.02-.007-.11-.045-.039-.027a1.725,1.725,0,0,1-.19-.117c-.378-.28-.345-.763-.626-1.043a.392.392,0,0,0-.137-.1c-.4-.176-1.062.235-1.408.378-.007.02-.007.033-.013.052l-.189.47c-.1.2-.209.391-.313.593l-.313.085-.163.046-.111.013c-.2.026-.4.058-.607.084a2.173,2.173,0,0,0-.039.287,2.53,2.53,0,0,1-.052.352,2.2,2.2,0,0,1-.1.359,1.172,1.172,0,0,0,.13.117,4.8,4.8,0,0,0,1.252.672,8.323,8.323,0,0,0,1.637.5.878.878,0,0,0,.241.013c.02-.02.026-.013.105-.072s.221-.183.417-.319l.326-.222.248-.131a2.36,2.36,0,0,1,.906-.28,1.273,1.273,0,0,1,.489.052,1.21,1.21,0,0,1,.6.444c0,.006.007.013.007.019A2.429,2.429,0,0,0,59.855,109.646Zm-.92-27.152a.908.908,0,0,0,.091-.626,7.052,7.052,0,0,0-.6-2.042,31.614,31.614,0,0,0-1.872-3.586c-1.089-1.819-2.047-3.273-2.817-4.434-.091-.072-.169-.137-.254-.209-.222-.189-.444-.372-.672-.561-.222-.208-.443-.423-.665-.632-.15-.15-.306-.3-.463-.45-2.621.685-4.747,1.193-7.447.267-.1-.032-.2-.085-.293-.124a21.821,21.821,0,0,0,4.6,5.6A25.447,25.447,0,0,1,53.9,81.255c1.154,1.708,2.23,3.469,3.443,5.118a.567.567,0,0,0,.28-.221,1.522,1.522,0,0,0,.189-.639,3.91,3.91,0,0,0-.039-.868l-.02-.11-.013-.1-.032-.131-.144-.515c-.1-.345-.208-.685-.313-1.024.222-.026.457-.045.678-.065-.143-.274-.28-.535-.4-.769a12.8,12.8,0,0,1-.737-1.722c-.131-.385-.157-.574-.1-.6.182-.084.665.894,2.112,2.967l.059-.006a.066.066,0,0,1,.026-.033C58.909,82.533,58.935,82.52,58.935,82.494Zm-1.3,8.62a2.139,2.139,0,0,1,.867-.541c-.534-.574-1.056-1.161-1.539-1.78-1.675-2.12-3.012-4.454-4.584-6.652-1.923-2.686-4.525-4.277-6.651-6.716a46.84,46.84,0,0,1-4.715-6.775A.79.79,0,0,1,41,67.789c-.626-.737-1.2-1.532-1.8-2.269-3.293-4.024-7.055-8.288-7.258-13.707-.391-.274-.691-.554-.965-.783a3.331,3.331,0,0,0-.417-.313.515.515,0,0,0-.046-.026.57.57,0,0,0-.1.085.621.621,0,0,0-.117.352c-.033.189-.026.411-.059.776-.007.039-.013.091-.026.15a1.968,1.968,0,0,1-.039.2,1.308,1.308,0,0,1-.326.554,1.172,1.172,0,0,1-.379.235c-.065.019-.13.039-.2.052a1.385,1.385,0,0,1-.157.013.953.953,0,0,1-.254-.013,1.086,1.086,0,0,1-.2-.039,3.74,3.74,0,0,1-.9-.431c-.235-.143-.477-.306-.672-.449-.352-.261-.7-.561-1.05-.842h-.026a4.6,4.6,0,0,1-2.308-.293c-.072-.026-.144-.065-.216-.091a40.3,40.3,0,0,1,3.293,6.468c1.187,2.759,1.591,5.752,2.909,8.477,1.571,3.241,3.045,6.508,4.9,9.606a61.171,61.171,0,0,0,5.38,7.029c1.656,2.041,2.562,4.813,5.086,6.006,1.213.574,4.4,2.726,5.614,1.61a.918.918,0,0,1,1.063-.136C53.5,90.768,55.844,92.894,57.631,91.114Zm-4.252,20.639a.073.073,0,0,0-.019-.072l-.065-.039a1.5,1.5,0,0,0-.229-.118,4.614,4.614,0,0,0-.665-.221c-.5-.137-1.082-.248-1.715-.405a7.276,7.276,0,0,1-2.093-.782,2.452,2.452,0,0,1-1.037-1.22,1.612,1.612,0,0,1-.071-.3,2.2,2.2,0,0,1-.666.124,1.707,1.707,0,0,1-.821-.163,1.843,1.843,0,0,1-.633-.5,1.363,1.363,0,0,1-.208-.287l-.039-.065c-.124.02-.477.059-.672.065-.189-.026-.365-.071-.548-.111a15.082,15.082,0,0,1-.743,1.885,3.852,3.852,0,0,1-.424.652,6.941,6.941,0,0,1-.528.541c-.307.248-.613.489-.907.724-.4.352-.88,1.037-1.4,1.591a6.732,6.732,0,0,1-.893.783,6.923,6.923,0,0,1-.926.606,4.785,4.785,0,0,0-1.3.913,2.645,2.645,0,0,0-.561,1.174,3.434,3.434,0,0,0-.013,1.265.7.7,0,0,0,.026.137l.02.078a.661.661,0,0,0,.1.157c.027.032.1.137.157.228a1.458,1.458,0,0,1,.13.293,1.993,1.993,0,0,1,.072.574,2.233,2.233,0,0,1-.1.691c-.013.033-.02.066-.033.1l.085-.091.091-.078.046-.046.006-.007.163-.1.013-.007.066-.033a1.475,1.475,0,0,1,.215-.078,2,2,0,0,1,.222-.045l.117-.124.156-.079a.99.99,0,0,0,.033-.13c.085-.359.137-.756.2-1.095a3.412,3.412,0,0,1,.248-.868.024.024,0,0,0,.006-.019c.072-.2.137-.405.2-.6a11.6,11.6,0,0,1,1.01-1.956,18.778,18.778,0,0,1,1.833-2.407c.469-.528.763-.782.86-.724s-.019.444-.313,1.083-.789,1.526-1.31,2.634a11.587,11.587,0,0,0-.7,1.833c-.046.163-.085.332-.131.5a4.489,4.489,0,0,0-.059.5l-.026.254-.013.02.007.045.019.15c0,.137.04.131.046.17a.988.988,0,0,0,.065.143c.059.118.17.274.294.463a3.454,3.454,0,0,1,.4.783l.072.235.013.065.007.026.006.013v.013l.013.052.013.085a2.475,2.475,0,0,1,.026.691l.111.052s.033.013.072.033a3.065,3.065,0,0,1,.059-.965,3.7,3.7,0,0,0,.1-.691.35.35,0,0,0-.078-.242l-.5-.776.717-.645c.111-.1.229-.2.353-.3s.15-.209.241-.3a2.4,2.4,0,0,0,.215-.985,5.359,5.359,0,0,1,.339-1.669c.059-.15.111-.28.183-.437l.085-.15.136-.215a4.631,4.631,0,0,1,.542-.672,4.012,4.012,0,0,1,.665-.587,1.076,1.076,0,0,1,.235-.15l.156-.078.078-.032.02-.007.156-.046.026-.006.163-.026a1.034,1.034,0,0,1,.255-.026,2.836,2.836,0,0,1,.411.026,1.667,1.667,0,0,1,.306.085,2.3,2.3,0,0,1,.457.221c.247.15.4.261.541.346l.182.1c.059.019.111.039.163.058a2.7,2.7,0,0,0,.5.1,1.7,1.7,0,0,0,1.4-.606l.6-.62.541.561a2.833,2.833,0,0,1,.613,1.1c.111.307.117.587.176.678v.007c0,.026-.13.013-.13.032l.2.033.241.052c.02.007.02,0,.033.007a.054.054,0,0,1,.045.013,2.4,2.4,0,0,0,.594.058,2.336,2.336,0,0,0,.561-.078.91.91,0,0,0,.182-.072l.033-.006.013-.007.065-.084c.189-.2.15-.274.235-.385.032-.124.071-.235.1-.352-.163-.2-.332-.4-.509-.607.216-.306.516-.626.75-.952a1.148,1.148,0,0,0,.118-.215A.393.393,0,0,0,53.379,111.753ZM51.625,33.561a24.4,24.4,0,0,0-.019-2.96c-.02-.47-.046-.887-.065-1.246-1.937-5.014-3.822-10.916-7.017-15.5.072.45.131.906.163,1.382a28.853,28.853,0,0,1-.254,5.145c-.085.633-.163,1.141-.235,1.5.013,1.011-.02,2.028-.078,3.039a15.333,15.333,0,0,1-4.532,9.853c-3.1,2.83-6.156,3.378-10.147,4.154-4.486.873-7.42.776-11.418-1.6-.723-.431-1.454-.894-2.165-1.389.822,1.721,2.244,3.143,2.641,5.125.242,1.232.294,2.576.607,3.782A7.535,7.535,0,0,0,20.99,48.1c.111.1.235.2.379.319A10.431,10.431,0,0,0,24.1,50.007a5.248,5.248,0,0,0,.913.26,10.208,10.208,0,0,1-1.9-3.469,6.234,6.234,0,0,1-.261-1,7.062,7.062,0,0,1-.169-.894,12.46,12.46,0,0,1-.072-1.441c.059-.763.137-1.18.241-1.18s.235.4.372,1.148c.065.378.215.8.333,1.3.058.248.182.509.273.789a5.058,5.058,0,0,0,.353.868,9.814,9.814,0,0,0,2.732,3.651c.358.255.691.515,1.089.783.189.124.345.221.515.319.006-.078.013-.15.019-.228a2.413,2.413,0,0,1,.424-1.18,2.154,2.154,0,0,1,.887-.711c-.072-.065-.143-.124-.208-.189a4.812,4.812,0,0,1-.542-.665,7.427,7.427,0,0,1-.756-1.533,1.2,1.2,0,0,1-.574.255.985.985,0,0,1-.561-.118,1.257,1.257,0,0,1-.339-.28,2.088,2.088,0,0,1-.345-.567,6.232,6.232,0,0,1-.47-1.878c-.117-1.05.02-1.7.143-1.683s.209.594.5,1.559a8.072,8.072,0,0,0,.626,1.6,1.382,1.382,0,0,0,.241.333.4.4,0,0,0,.092.065c0-.013.013-.013.032-.039a1.171,1.171,0,0,0,.124-.131,2.809,2.809,0,0,0,.268-.43l.56-1.03.4,1.121a9.453,9.453,0,0,0,.978,2.139,3.824,3.824,0,0,0,1.526,1.33,8.506,8.506,0,0,0,.209-1.415c.045-.626.045-1.2.065-1.675.033-.946.137-1.52.254-1.52s.228.548.378,1.487a14.924,14.924,0,0,1,.17,1.722,6.217,6.217,0,0,1-.287,2.3,6.513,6.513,0,0,0,.815.619,1.093,1.093,0,0,0,.326.131c.02,0,.033.045.052.091v-.026l.17-.091c.163-.053.091-.079.124-.079.013-.019.059-.052.085-.084a1.029,1.029,0,0,0,.156-.326,4.344,4.344,0,0,0,.131-1.135,13.541,13.541,0,0,1,.058-1.487l1.076-.2.085-.085a8.818,8.818,0,0,0,.515-1.983l.183-.919,1.01.261c.066.019.124.039.19.059s.084.006.13.026.026-.013.052.006a.02.02,0,0,0,.013-.006,1.2,1.2,0,0,0,.267-.587c.164-.665.17-1.422.281-2.269l.124-.959.906.306a1.172,1.172,0,0,0,1.259-.15,3.6,3.6,0,0,0,.88-1.317,21.076,21.076,0,0,0,.919-2.869,19.1,19.1,0,0,1,.594-1.943c.182-.444.345-.659.424-.626s.071.274.045.737-.071,1.128-.163,1.995c-.052.489-.124,1.037-.234,1.637a7.252,7.252,0,0,0,1.043.437,3.783,3.783,0,0,0,.972.2,2.063,2.063,0,0,0,.984-.13,1.244,1.244,0,0,0,.646-.607,3.126,3.126,0,0,0,.215-1.193l.078-1.734,1.422,1.108a5.075,5.075,0,0,0,.534.4.783.783,0,0,0,.19.1,4.006,4.006,0,0,0,.189-.574c.117-.463.2-.984.358-1.565l.379-1.362,1.095.893a3.227,3.227,0,0,0,.463.306,1.745,1.745,0,0,0,.143-.443A5.641,5.641,0,0,0,51.625,33.561ZM48.163,68.9c-.157-.026-.313-.059-.476-.085a5.165,5.165,0,0,1-1.924-1.063c-.13-.1-.241-.163-.352-.241s-.28-.156-.417-.228a8.651,8.651,0,0,0-.822-.378,15.417,15.417,0,0,1-1.787-.744,3.285,3.285,0,0,1-.443-.28l-.222-.157-.176-.15a8.327,8.327,0,0,1-.652-.639A10.3,10.3,0,0,0,44.074,68.2,7.043,7.043,0,0,0,48.163,68.9ZM43.637,16.8c-.006-.483-.026-.985-.052-1.493a17.339,17.339,0,0,0-.372-2.667c-.078-.261-.15-.509-.221-.75A15.766,15.766,0,0,0,35.454,6.93C29.128,5.084,20.9,5.4,15.806,9.806a9.8,9.8,0,0,1,9.423,2.2c2.008-2.622,8.2-2.491,10.759-2.015,2.9.547,5.863,1.734,7.01,4.7A16.077,16.077,0,0,1,43.637,16.8Zm-1.278,8.125a23.783,23.783,0,0,0-.482-8.073c-1.011-3.378-3.535-4.949-6.958-5.23-2.009-.169-8.184-.411-8.6,2.27-.124.821-1.226.763-1.6.208-2.348-3.43-8.843-4.167-11.66-.828-1.975,2.328-1.473,5.725-1.323,8.562.176,3.169-.059,6.964,1.943,9.657a18.8,18.8,0,0,0,6.866,5.2c3.554,1.794,6.7.816,10.414.235A13.1,13.1,0,0,0,42.359,24.921Z"/><path d="M56.666,97.028a3.96,3.96,0,0,1-.254,1.513,1.344,1.344,0,0,1-.346.476.851.851,0,0,1-.782.176c-.02-.006-.04-.019-.059-.026a4.661,4.661,0,0,1-.124,1.4,1.866,1.866,0,0,1-.372.737,1.43,1.43,0,0,1-.365.313,1.839,1.839,0,0,1-.248.124l-.15.045a1.6,1.6,0,0,1-.43.052,8.888,8.888,0,0,1-.183,3.215,2.385,2.385,0,0,1-.521.933l-.209.189-.052.045-.046.026c-.013.007-.032.02-.032.02l-.092.052-.169.1a2.551,2.551,0,0,1-.313.1,1.152,1.152,0,0,1-1.1-.3,2.165,2.165,0,0,1-.469-.7,6.73,6.73,0,0,1-.463-2.139c-.033-.508-.013-.782.058-.8s.2.248.359.718a11.972,11.972,0,0,0,.737,1.871,1.479,1.479,0,0,0,.339.417.264.264,0,0,0,.293.059c.02-.006.04-.006.066-.013l.169-.111.085-.059H52l.006-.006.007-.007.006-.013c.033-.032.059-.065.091-.1a1.506,1.506,0,0,0,.274-.574,6.024,6.024,0,0,0,.131-1.663c-.02-.613-.085-1.259-.124-1.956-.007-.2-.013-.392-.007-.594.013-.534-.111-1.239.261-1.676a2.365,2.365,0,0,1,.822,1.572,1.647,1.647,0,0,0,.117.319.141.141,0,0,0,.046-.006l.15-.046a.128.128,0,0,0,.032-.019.3.3,0,0,0,.1-.079.91.91,0,0,0,.176-.345,6.521,6.521,0,0,0,.117-2.061l-.065-1.623.893,1.31a1.5,1.5,0,0,0,.476.489c.039.013.013.033.059.013a.532.532,0,0,0,.163-.189,4.04,4.04,0,0,0,.391-1.219c.144-.75.137-1.174.228-1.2S56.653,96.213,56.666,97.028Z"/><path d="M53.934,88.3c.306.085.469.15.469.2s-.176.085-.5.1a6.136,6.136,0,0,1-1.4-.1,6.294,6.294,0,0,1-2.067-.815,10.142,10.142,0,0,1-1.617-1.245c-.059.2-.118.41-.2.639a1.729,1.729,0,0,1-.574.847.918.918,0,0,1-.73.157,1.249,1.249,0,0,1-.581-.248,4.209,4.209,0,0,1-1.063-1.448c-.248-.5-.456-1.01-.665-1.519-.046-.117-.1-.235-.143-.346a1,1,0,0,1-.529.229,1.536,1.536,0,0,1-.449-.039,3.535,3.535,0,0,1-.626-.248A4.749,4.749,0,0,1,41.57,82.9a11.232,11.232,0,0,1-1.356-3.332c-.241-.945-.431-1.708-.567-2.236s-.2-.822-.131-.848.254.208.5.711a21.806,21.806,0,0,1,.881,2.158,12.731,12.731,0,0,0,1.46,2.993,3.792,3.792,0,0,0,1.37,1.18,1.831,1.831,0,0,0,.4.15.057.057,0,0,1,.033.007c.006-.039.019-.1.026-.157a4.077,4.077,0,0,0,0-.5l-.059-1.728,1.031,1.363a4.709,4.709,0,0,1,.5.912c.117.287.234.574.358.868.209.5.4,1,.626,1.447a3.533,3.533,0,0,0,.718,1.083l.058.039a1.267,1.267,0,0,0,.2-.293,5.932,5.932,0,0,0,.267-.646,4.19,4.19,0,0,1,.281-.743l.313-.6.463.5a13.536,13.536,0,0,0,1.93,1.787,6.857,6.857,0,0,0,1.774.926C53.184,88.108,53.627,88.238,53.934,88.3Z"/><path d="M52.017,105.44l-.007.007v-.007Z"/><path d="M48.606,26.74a4.062,4.062,0,0,1-.013.567,1.352,1.352,0,0,1-.28.75.823.823,0,0,1-.509.268c.02.117.039.228.052.345a9.446,9.446,0,0,1,.072,2.765c-.072.418-.163.822-.261,1.187-.143.359-.261.7-.4.985-.17.28-.326.528-.463.743a3.752,3.752,0,0,1-.444.483c-.26.247-.423.352-.482.306s-.007-.254.137-.561c.059-.156.176-.319.254-.541s.17-.469.281-.73c.084-.281.143-.594.234-.913.052-.333.1-.691.137-1.063a10.928,10.928,0,0,0-.143-2.478c-.052-.47-.2-.906-.281-1.343L46.154,25.7l1.252,1.3c.072.079.144.15.209.209,0-.013.007-.026.007-.039a2.756,2.756,0,0,0,.045-.424,12.111,12.111,0,0,0-.059-1.6c-.084-.939-.2-1.448-.1-1.519.118-.092.515.443.783,1.382A7.313,7.313,0,0,1,48.606,26.74Z"/><path d="M41.557,24.145a11.9,11.9,0,0,1,.078,1.976c-.026.365-.091.743-.137,1.134-.091.372-.163.692-.286,1.128a10.459,10.459,0,0,1-1.122,2.283,5.38,5.38,0,0,1-.913,1.089,2.837,2.837,0,0,1-.326.248,1.51,1.51,0,0,1-.411.2,1.332,1.332,0,0,1-.522.085.676.676,0,0,1-.15-.026,3.244,3.244,0,0,1-1.056,1.46,5.842,5.842,0,0,1-2.008.894c-.639.169-1.272.287-1.748.437a3.631,3.631,0,0,0-.372.143c-.026.02-.032-.006-.078.085a1.485,1.485,0,0,1-.3.483.864.864,0,0,1-.358.208,2.261,2.261,0,0,1-.294.033.837.837,0,0,1-.652-.228c-.091-.1-.091-.34-.183-.418-.3-.261-.573.052-.886.215a1.684,1.684,0,0,1-.366.15.658.658,0,0,1-.482-.032.706.706,0,0,1-.417-.587,1.769,1.769,0,0,1-.007-.457,4.432,4.432,0,0,1,.1-.665c.085-.345.144-.521.2-.528s.1.2.117.554c.013.176.013.392.04.633a1.5,1.5,0,0,0,.071.346.253.253,0,0,0,.085.15l.046.032.006-.026.052-.026A1.2,1.2,0,0,0,29.487,35a5.373,5.373,0,0,1,.613-.405.786.786,0,0,1,.632-.071.735.735,0,0,1,.105.039,1.278,1.278,0,0,1,.176.117,1.992,1.992,0,0,1,.2.2,1.792,1.792,0,0,0,.215.241c.046.046.046.02.046.02.006.02.052,0,.052,0,.02-.006.033-.006.052-.013,0-.033.052-.111.1-.241a1.1,1.1,0,0,1,.483-.535,3.344,3.344,0,0,1,.436-.2c.639-.241,1.226-.358,1.826-.541a5.074,5.074,0,0,0,1.624-.75,2.18,2.18,0,0,0,.8-1.441l.1-.7.821.372a.264.264,0,0,1,.1.071.265.265,0,0,0,.222-.006.433.433,0,0,0,.176-.085,1,1,0,0,0,.2-.143,4.164,4.164,0,0,0,.73-.861,10.668,10.668,0,0,0,1.063-2.009c.1-.3.209-.717.306-1.049.053-.333.124-.646.163-.966a12.459,12.459,0,0,0,.059-1.825c-.046-1.135-.2-2.068-.248-2.72s-.058-1.017.013-1.03.216.32.411.946A17.709,17.709,0,0,1,41.557,24.145Z"/><path d="M39.81,16.111a7.486,7.486,0,0,1,.2,2.074c-.032.489-.091.756-.163.756-.182.026-.248-1.076-.776-2.595a3.762,3.762,0,0,0-1.643-2.028,6.355,6.355,0,0,0-1.5-.587c-.261-.072-.561-.137-.874-.2l-.945-.2a7.074,7.074,0,0,0-2.354-.228,3.214,3.214,0,0,0-1.735.834l-.385.333-.306-.352c-.372-.431-.613-.47-.991-.183a3.149,3.149,0,0,0-.744,1.024,5.905,5.905,0,0,0-.319.808c-.059.2-.091.327-.144.327s-.11-.105-.143-.333a2.683,2.683,0,0,1,.091-.985,3.123,3.123,0,0,1,.737-1.4,1.328,1.328,0,0,1,1.846-.189,3.852,3.852,0,0,1,1.943-.932,7.5,7.5,0,0,1,2.732.2c.313.065.633.13.939.2a9,9,0,0,1,.939.228,6.7,6.7,0,0,1,1.748.763A4.3,4.3,0,0,1,39.81,16.111Z"/><path d="M34.436,20.076a.834.834,0,0,1-.032-.111,1.271,1.271,0,0,1-.118-.209.489.489,0,0,1-.084-.084.032.032,0,0,0-.02.006c.007-.006.007-.013.013-.013s-.013.007-.019.013a1.412,1.412,0,0,0-.392.254,2.285,2.285,0,0,0-.495.594.1.1,0,0,0,.019.013c.026.006.124.026.137.026a.771.771,0,0,0,.118.006,1.258,1.258,0,0,0,.6-.169.515.515,0,0,1,.092-.052s0-.007.019-.02l.1-.1a.283.283,0,0,1,.039-.065.361.361,0,0,0,.02-.072A.024.024,0,0,0,34.436,20.076Zm.913-1.989A2.775,2.775,0,0,1,36.516,20.6c-.208,1.558-1.845,2.21-3.306,1.988a2.625,2.625,0,0,1-2.249-1.76,1.8,1.8,0,0,1,.626-1.839,2.661,2.661,0,0,1,1.076-1.122,2.136,2.136,0,0,1,2.093.007A1.545,1.545,0,0,1,35.349,18.087Z"/><path d="M31.8,24.432c.059.052-.156.339-.619.834-.248.209-.574.47-.926.744-.17.137-.352.28-.548.43s-.391.365-.6.554l-.163.15c-.006.007-.071.1-.1.144l-.254.352a5.634,5.634,0,0,0-.5.789c-.2.313-.405.7-.627,1.089l.02.5a5.413,5.413,0,0,1-.391,2.152,12.641,12.641,0,0,1-1.109,2.086c-.248.378-.5.737-.737,1.083l-.306.43-.424-.274a5.466,5.466,0,0,1-1.963-2.184,3.228,3.228,0,0,1-.254-2.094c-.072-.071-.137-.143-.2-.2-.163-.182-.287-.267-.293-.247.006-.013-.1.006-.241.091l-1.011.613.176-1.122c.13-.861.287-1.584.372-2.256a6.873,6.873,0,0,0,.065-1.715,2.247,2.247,0,0,0-.32-.991c-.143-.222-.287-.352-.234-.411.032-.039.195-.052.469.117a1.953,1.953,0,0,1,.77,1.135,8.657,8.657,0,0,1,.052,3.456c.045.007.085,0,.13.007a1.657,1.657,0,0,1,.867.573,1.545,1.545,0,0,0,.32.294c.013-.007.02.006.059-.007l.039-.013.019-.006c.007.013.079-.046.079-.046a1.633,1.633,0,0,0,.3-.867,11.848,11.848,0,0,0,.026-2.185c-.079-1.284-.183-2.086-.033-2.132.078-.026.222.189.385.593a7.706,7.706,0,0,0,.28-1.095c-.019-.346-.248-.5-.378-.828a2.425,2.425,0,0,1-.274-1.343,3.835,3.835,0,0,1,.411-1.1,1.022,1.022,0,0,0,.1-.365l.019-.118a.1.1,0,0,1-.006-.039.2.2,0,0,0-.013-.117c.019-.1-.274-.293-.5-.646a2.533,2.533,0,0,1-.274-1.734,4.172,4.172,0,0,1,.241-.717c-.013-.248-.033-.522-.065-.829-.052-.319-.111-.665-.2-1.023-.053-.163-.1-.333-.163-.509-.04-.1-.085-.2-.124-.293l-.033-.079-.013-.026c-.006-.006-.078-.13-.078-.13-.241-.4-.835-1.18-1.383-.907-.371.19-.528.789-.717,1.122l-.326.567-.476-.4a7.913,7.913,0,0,1-.913-.985c-.717-.92-.808.1-.743.743.058.515.137.959.143,1.278s-.045.489-.111.5-.143-.15-.267-.411a10.263,10.263,0,0,1-.463-1.219,3.016,3.016,0,0,1-.143-1.011,1.4,1.4,0,0,1,.208-.678l.026-.039L17.9,13.4l.046-.053c.033-.032.046-.058.091-.1a1.2,1.2,0,0,1,.444-.267,1.135,1.135,0,0,1,.926.169,3.123,3.123,0,0,1,.548.463c.117.118.234.248.345.365a3.094,3.094,0,0,1,.47-.658,1.866,1.866,0,0,1,2.054-.15,3.449,3.449,0,0,1,1.069,1.245l.085.17.026.058.013.02.013.039.026.078c.033.1.072.2.1.3.059.229.118.47.157.685a5.993,5.993,0,0,1-.2,2.824,1.108,1.108,0,0,1-.058.123,1.917,1.917,0,0,0,.326,1.135c.058.059.13.137.247.241a1.286,1.286,0,0,1,.385.509,1.167,1.167,0,0,1,.085.346.887.887,0,0,1,.007.2l-.014.124a2.133,2.133,0,0,1-.123.6c-.34.776-.431,1-.079,1.656a2.131,2.131,0,0,0,.268.417,1.017,1.017,0,0,1,.215.489,1.032,1.032,0,0,1,.013.229,1.424,1.424,0,0,1-.007.182l-.013.17-.006.078-.02.124-.065.3c-.039.2-.091.4-.137.593a2.016,2.016,0,0,0-.019.489c.019.209.039.418.065.626a5.759,5.759,0,0,1-.052,1.409c-.026.241-.072.443-.105.665l-.026.163-.019.13a1.715,1.715,0,0,0-.02.294,1.45,1.45,0,0,0,.124.808h.033a.923.923,0,0,0,.326-.189,2.529,2.529,0,0,0,.352-.345l.091-.1.065-.092.17-.234c.482-.626.763-1.187,1.174-1.78a5.855,5.855,0,0,1,.606-.829c.111-.13.215-.254.319-.371a2.147,2.147,0,0,1,.183-.2l.176-.131c.228-.182.431-.359.659-.508s.45-.274.658-.4c.405-.242.724-.431,1.011-.587C31.424,24.562,31.743,24.38,31.8,24.432Zm-5.484,6.8a.266.266,0,0,1-.071.052,1.913,1.913,0,0,1-.613.326,1.32,1.32,0,0,1-.235.105c-.085.019-.176.032-.267.045a2.331,2.331,0,0,1-.3-.032,2.059,2.059,0,0,1-.294-.124,1.708,1.708,0,0,1-.235-.2,1.527,1.527,0,0,1-.13-.176l-.033.033-.071.058-.137.111-.092.059h-.006l-.02.006-.032.013-.065.027-.131.052a1.283,1.283,0,0,1-.593.026,2.8,2.8,0,0,0,.4,1.258,4.9,4.9,0,0,0,1.259,1.389c.137-.2.267-.4.4-.613a14.681,14.681,0,0,0,1.063-1.884C26.187,31.585,26.253,31.409,26.311,31.233Z"/><path d="M28.985,35.687v.006l-.026-.013C28.965,35.68,28.978,35.687,28.985,35.687Z"/><path d="M21.505,35.354c.457.437.724.691.672.763s-.385-.059-.939-.4a5.93,5.93,0,0,1-1.389-1.532,1.225,1.225,0,0,1-.2.143.925.925,0,0,1-.443.131,1.989,1.989,0,0,1-1.285-.567,6.018,6.018,0,0,1-.867-.946,5.094,5.094,0,0,1-.47-.782A2.337,2.337,0,0,1,15.245,32a3,3,0,0,1-1.291-1.318,8.108,8.108,0,0,1-.743-2.295,15.986,15.986,0,0,1-.254-2.145,27.156,27.156,0,0,1,.032-3.606c.157-2.041.45-3.28.607-3.261a14.347,14.347,0,0,1,.169,3.28c.026,1,.065,2.2.2,3.508a11.884,11.884,0,0,0,.952,3.991,1.983,1.983,0,0,0,.8.861,1.427,1.427,0,0,0,1.03.026l.561-.157.124.574a3.158,3.158,0,0,0,.456.9,5.559,5.559,0,0,0,.679.815,1.364,1.364,0,0,0,.626.392c.032-.02.052.019.1-.059.059-.033.1-.176.156-.274l.47-.841.3.789A7.581,7.581,0,0,0,21.505,35.354Z"/><path d="M19.3,20.9c0,.007-.019.013-.045.026-.007.007-.007.013-.013.013-.059.091-.124.176-.176.274l-.033.065c.007.013.013.02.013.026.02.007.183.2.222.235s.085.078.13.117c.033.02.078.059.092.066a3.13,3.13,0,0,0,.378.221C19.8,21.556,19.621,21.041,19.3,20.9Zm.124-2.178c1.787-.326,2.706,1.761,2.609,3.274a1.774,1.774,0,0,1-1.278,1.773,2.38,2.38,0,0,1-.607.026,2.787,2.787,0,0,1-2.289-.15,1.916,1.916,0,0,1-.808-1.813,3.792,3.792,0,0,1,.117-.567,1.509,1.509,0,0,1,.567-1.519,3.338,3.338,0,0,1,.4-.268A2.439,2.439,0,0,1,19.425,18.726Z"/><path d="M13.9,16.131c-.006-.007-.013,0-.013.013a.636.636,0,0,0-.091.176,6.122,6.122,0,0,0-.137.8c-.059.5-.144.835-.287.841s-.293-.267-.43-.8a3.26,3.26,0,0,1-.092-1.011,1.373,1.373,0,0,1,.313-.77.989.989,0,0,1,.411-.254c0-.026.007-.052.007-.078a2.905,2.905,0,0,1,.5-1.467,1.88,1.88,0,0,1,1.128-.7,1.968,1.968,0,0,1,.8-.026c.189.026.294.078.3.156s-.065.163-.215.261-.372.2-.606.339c-.509.274-.724.652-.815,1.559-.013.163-.033.326-.046.482l-.059.568-.619-.072a.266.266,0,0,1-.059-.013C13.889,16.137,13.9,16.137,13.9,16.131Z"/></g><text x="0" y="143" fill="#000000" font-size="5px" font-weight="bold" font-family="'Helvetica Neue', Helvetica, Arial-Unicode, Arial, Sans-serif">Created by Hey Rabbit</text><text x="0" y="148" fill="#000000" font-size="5px" font-weight="bold" font-family="'Helvetica Neue', Helvetica, Arial-Unicode, Arial, Sans-serif">from the Noun Project</text></svg>