<svg xmlns="http://www.w3.org/2000/svg" xmlns:xlink="http://www.w3.org/1999/xlink" version="1.1" x="0px" y="0px" viewBox="0 0 100 125" style="enable-background:new 0 0 100 100;" xml:space="preserve"><g><path d="M53.95,30.09c-1.8,0-3.26,1.46-3.26,3.26s1.46,3.26,3.26,3.26s3.26-1.46,3.26-3.26S55.75,30.09,53.95,30.09z M53.95,34.61   c-0.7,0-1.26-0.57-1.26-1.26s0.57-1.26,1.26-1.26s1.26,0.57,1.26,1.26S54.64,34.61,53.95,34.61z"/><path d="M53.95,37.41c-1.8,0-3.26,1.46-3.26,3.26c0,1.8,1.46,3.26,3.26,3.26s3.26-1.46,3.26-3.26   C57.21,38.88,55.75,37.41,53.95,37.41z M53.95,41.94c-0.7,0-1.26-0.57-1.26-1.26s0.57-1.26,1.26-1.26s1.26,0.57,1.26,1.26   S54.64,41.94,53.95,41.94z"/><path d="M96.89,35.12L85.98,22.63c1.74-3.67,1.15-8.07-1.55-11.15c-3.01-3.44-7.83-4.39-11.82-2.66c-1.84-2.47-4.77-4.08-8.08-4.08   c-5.56,0-10.08,4.52-10.08,10.08c0,0.1,0.02,0.2,0.02,0.31h-4.81c-3.88,0-7.03,3.15-7.03,7.03v18.39c0,3,1.9,5.57,4.56,6.57   c0.77,0.29,1.6,0.46,2.47,0.46h8.56c0.87,0,1.7-0.17,2.47-0.46c2.66-1,4.56-3.57,4.56-6.57V24.85c1.05-0.08,2.09-0.3,3.06-0.69   c0.2,0.28,0.42,0.56,0.65,0.82c2.7,3.09,6.98,4.26,10.84,3.03l2.14,2.45c0.36,0.41,0.91,0.6,1.44,0.49l1.51-0.3   c-0.1,0.47,0.02,0.96,0.34,1.33c0.32,0.37,0.8,0.56,1.28,0.51c-0.11,0.47,0.02,0.97,0.34,1.33c0.32,0.37,0.8,0.56,1.28,0.51   c-0.11,0.47,0.02,0.97,0.34,1.33c0.32,0.37,0.79,0.55,1.27,0.51c-0.12,0.48,0,0.99,0.33,1.37l1.73,1.98   c0.29,0.33,0.71,0.52,1.15,0.52c0.1,0,0.2-0.01,0.29-0.03l2.21-0.44c0.55-0.11,1-0.51,1.16-1.06l0.59-1.99   C97.35,36.05,97.24,35.51,96.89,35.12z M94.78,37.69l-1.65,0.33l-1.36-1.56l0.13-0.39c0.17-0.51,0.06-1.08-0.29-1.49   c-0.32-0.37-0.8-0.56-1.28-0.51c0.11-0.47-0.02-0.97-0.34-1.33c-0.32-0.37-0.8-0.55-1.28-0.51c0.11-0.47-0.02-0.97-0.34-1.33   c-0.32-0.37-0.8-0.55-1.28-0.51c0.11-0.47-0.02-0.97-0.34-1.33c-0.36-0.41-0.9-0.6-1.44-0.49l-2.05,0.4l-2.87-3.29l-0.66,0.26   c-3.25,1.29-6.98,0.38-9.28-2.25c-3-3.43-2.65-8.67,0.79-11.67c0.21-0.18,0.42-0.35,0.64-0.5c0.13,0.28,0.24,0.56,0.33,0.85   c-0.14,0.09-0.28,0.18-0.41,0.29c-1.2,1.05-1.32,2.87-0.27,4.07c0.51,0.58,1.21,0.93,1.98,0.98c0.07,0,0.13,0.01,0.2,0.01   c0.7,0,1.36-0.25,1.89-0.71c1.2-1.05,1.32-2.87,0.27-4.07c-0.45-0.52-1.05-0.82-1.68-0.93c-0.15-0.5-0.33-0.98-0.55-1.44   c3.16-1.25,6.91-0.46,9.27,2.24c2.3,2.63,2.69,6.45,0.98,9.49l-0.35,0.62l11.65,13.33L94.78,37.69z M49.19,45.52V31.26   c0-2.62,2.13-4.76,4.76-4.76c2.62,0,4.76,2.13,4.76,4.76v14.27C58.54,45.54,49.35,45.54,49.19,45.52z M63.26,40.54   c0,1.87-1.04,3.49-2.56,4.35V31.26c0-3.73-3.03-6.76-6.76-6.76s-6.76,3.03-6.76,6.76v13.64c-1.52-0.87-2.56-2.48-2.56-4.35V22.15   c0-2.77,2.26-5.03,5.03-5.03h8.56c2.77,0,5.03,2.26,5.03,5.03v0.64c-1.17-0.19-2.27-0.64-3.24-1.29v-3.33H47.88v5.62h12.11   c1.02,0.52,2.12,0.88,3.27,1.03V40.54z M56,20.16c0.37,0.59,0.8,1.13,1.27,1.62h-7.4v-1.62H56z M65.26,22.85v-0.7   c0-3.88-3.15-7.03-7.03-7.03h-1.75c0-0.1-0.02-0.2-0.02-0.31c0-4.46,3.63-8.08,8.08-8.08c2.56,0,4.84,1.2,6.32,3.06   c-0.31,0.22-0.62,0.45-0.91,0.71c-3.47,3.03-4.41,7.89-2.63,11.9C66.65,22.63,65.96,22.79,65.26,22.85z"/><path d="M61.33,70.16v-0.81c0-1.59-1.29-2.89-2.89-2.89h-3.13c-0.56,0-1.09,0.17-1.53,0.45l-1.57-11.27   c-0.29-3.15-13.78-3.49-19.62-3.49s-19.33,0.34-19.62,3.49L11.4,66.92c-0.44-0.28-0.97-0.45-1.53-0.45H6.74   c-1.59,0-2.89,1.29-2.89,2.89v0.81c0,1.59,1.29,2.89,2.89,2.89h1.05v18.8h2.76v2.02c0,1.54,1.26,2.8,2.8,2.8h3.49   c1.54,0,2.8-1.26,2.8-2.8v-2.02h7.15v0.84h11.59v-0.84h7.15v2.02c0,1.54,1.25,2.8,2.8,2.8h3.5c1.54,0,2.8-1.25,2.8-2.8v-2.02h2.76   v-18.8h1.05C60.04,73.05,61.33,71.75,61.33,70.16z M59.33,70.16c0,0.49-0.4,0.89-0.89,0.89h-2.49c-0.43-0.22-0.94-0.43-1.52-0.61   v-1.08c0-0.49,0.4-0.89,0.89-0.89h3.13c0.49,0,0.89,0.4,0.89,0.89V70.16z M55.4,89.84H38.39v-3.63H26.79v3.63H9.79v-16.8v-0.13   c0.15-0.13,0.44-0.28,0.83-0.42c0.51-0.19,1.24-0.38,2.13-0.57c0.51-0.11,1.09-0.21,1.72-0.32c2.57-0.42,6.08-0.79,10.39-1   c2.36-0.11,4.93-0.18,7.73-0.18c1.59,0,3.1,0.02,4.55,0.06c0.35,0.01,0.69,0.02,1.03,0.03c0.34,0.01,0.68,0.02,1,0.04   c0.39,0.02,0.77,0.03,1.14,0.05c2.69,0.13,5.07,0.32,7.1,0.55c0.34,0.04,0.69,0.08,1.01,0.12c0.36,0.04,0.69,0.09,1.02,0.14   c0.44,0.06,0.86,0.13,1.26,0.19c0.63,0.1,1.21,0.21,1.72,0.32c0.9,0.19,1.62,0.38,2.13,0.57c0.39,0.14,0.67,0.29,0.83,0.42v0.13   V89.84z M52.63,93.87c0,0.44-0.36,0.8-0.8,0.8h-3.5c-0.44,0-0.8-0.36-0.8-0.8v-2.02h5.1V93.87z M36.39,90.69h-7.59v-2.47h7.59   V90.69z M17.65,93.86c0,0.44-0.36,0.8-0.8,0.8h-3.49c-0.44,0-0.8-0.36-0.8-0.8v-2.02h5.1V93.86z M5.85,70.16v-0.81   c0-0.49,0.4-0.89,0.89-0.89h3.13c0.49,0,0.89,0.4,0.89,0.89v1.08c-0.58,0.19-1.1,0.39-1.52,0.61H6.74   C6.25,71.05,5.85,70.65,5.85,70.16z M50.25,56.02l1.93,13.83c-0.79-0.16-1.63-0.31-2.52-0.44c-0.18-3.31-2.92-5.94-6.27-5.94   c-3.03,0-5.57,2.16-6.16,5.02c-2.07-0.06-3.74-0.07-4.63-0.07c-2.8,0-13.18,0.1-19.59,1.43l1.93-13.83   c1.12-0.81,7.65-1.87,17.65-1.87S49.13,55.22,50.25,56.02z M47.61,69.15c-2.76-0.31-5.73-0.49-8.33-0.59   c0.52-1.78,2.15-3.09,4.1-3.09C45.54,65.47,47.32,67.07,47.61,69.15z"/><path d="M14.26,74.05c-1.93,0-3.51,1.57-3.51,3.51s1.57,3.51,3.51,3.51s3.51-1.57,3.51-3.51S16.2,74.05,14.26,74.05z M14.26,79.07   c-0.83,0-1.51-0.68-1.51-1.51s0.68-1.51,1.51-1.51s1.51,0.68,1.51,1.51S15.09,79.07,14.26,79.07z"/><path d="M50.92,74.05c-1.93,0-3.51,1.57-3.51,3.51s1.57,3.51,3.51,3.51s3.51-1.57,3.51-3.51S52.86,74.05,50.92,74.05z M50.92,79.07   c-0.83,0-1.51-0.68-1.51-1.51s0.68-1.51,1.51-1.51s1.51,0.68,1.51,1.51S51.75,79.07,50.92,79.07z"/><path d="M19.71,74.05v11.01h25.76V74.05H19.71z M43.47,76.05v7.01H21.71v-7.01h21.67H43.47z"/><path d="M13.7,51c0.55,0,1-0.45,1-1c0-15.31,9.77-28.8,24.31-33.55c0.52-0.17,0.81-0.74,0.64-1.26c-0.17-0.52-0.74-0.81-1.26-0.64   C23.03,19.57,12.7,33.82,12.7,50C12.7,50.55,13.15,51,13.7,51z"/><path d="M83.05,34.95c-0.51,0.21-0.75,0.8-0.53,1.31c1.84,4.35,2.77,8.97,2.77,13.74c0,15.25-9.72,28.72-24.19,33.51   c-0.52,0.17-0.81,0.74-0.63,1.26c0.14,0.42,0.53,0.69,0.95,0.69c0.1,0,0.21-0.02,0.31-0.05C77.03,80.35,87.3,66.12,87.3,50   c0-5.03-0.99-9.92-2.93-14.52C84.15,34.97,83.56,34.74,83.05,34.95z"/></g><text x="0" y="115" fill="#000000" font-size="5px" font-weight="bold" font-family="'Helvetica Neue', Helvetica, Arial-Unicode, Arial, Sans-serif">Created by Justin Blake</text><text x="0" y="120" fill="#000000" font-size="5px" font-weight="bold" font-family="'Helvetica Neue', Helvetica, Arial-Unicode, Arial, Sans-serif">from the Noun Project</text></svg>