<svg xmlns="http://www.w3.org/2000/svg" xmlns:xlink="http://www.w3.org/1999/xlink" version="1.1" x="0px" y="0px" viewBox="0 0 128 160" enable-background="new 0 0 128 128" xml:space="preserve"><g><path d="M95.191,37.371c-1.851-3.047-5.214-4.94-8.777-4.94H56.029c-0.041,0-0.076,0.017-0.115,0.023   c-1.059-1.763-2.984-2.95-5.186-2.95h-0.65v-5.541c0-0.414-0.336-0.75-0.75-0.75H45.07V8.018c0-0.414-0.336-0.75-0.75-0.75   s-0.75,0.336-0.75,0.75v15.946V47.15v72.833c0,0.414,0.336,0.75,0.75,0.75s0.75-0.336,0.75-0.75v-21.17h5.344   c0.006,0,0.012-0.003,0.018-0.003c1.096,3.275,3.26,5.459,5.807,5.459c3.686,0,6.572-4.574,6.572-10.412   s-2.887-10.412-6.572-10.412c-2.547,0-4.711,2.185-5.807,5.459c-0.006,0-0.012-0.003-0.018-0.003H45.07v-41h4.258   c0.414,0,0.75-0.336,0.75-0.75v-5.541h0.65c2.686,0,4.966-1.761,5.754-4.189c1.434,2.338,4.004,3.906,6.941,3.906h9.082   c-0.038,0.504,0.021,1.02,0.18,1.523c0.097,0.305,0.182,0.613,0.271,0.919c-0.702,0.633-2.006,1.945-4.663,4.621   c-1.991,2.005-2.782,4.841-2.116,7.587l2.576,10.595c0.719,2.954,3.202,5.062,6.168,5.375v0.802c0,4.451,3.427,8.116,7.781,8.497   v11.506c0,0.414,0.336,0.75,0.75,0.75H102.4c0.414,0,0.75-0.336,0.75-0.75V65.823C103.15,55.787,100.398,45.948,95.191,37.371z    M56.238,84.944c2.749,0,5.072,4.081,5.072,8.912s-2.323,8.912-5.072,8.912c-2.751,0-5.074-4.081-5.074-8.912   S53.487,84.944,56.238,84.944z M50.029,90.4c-0.232,1.079-0.365,2.237-0.365,3.456s0.133,2.377,0.365,3.456H45.07V90.4H50.029z    M48.578,46.4H45.07V24.714h3.508v5.541v10.604V46.4z M50.729,40.109h-0.65v-9.104h0.65c2.51,0,4.551,2.042,4.551,4.552   C55.279,38.067,53.238,40.109,50.729,40.109z M70.211,66.217l-2.576-10.595c-0.542-2.235,0.103-4.544,1.724-6.176   c2.153-2.167,3.363-3.377,4.047-4.055c0.654,2.543,1.099,5.131,1.327,7.746l-1.503-1.504c-0.292-0.292-0.767-0.293-1.061,0   c-0.293,0.292-0.293,0.768,0,1.061l2.714,2.716c0.025,0.635,0.039,1.271,0.039,1.908v13.129   C72.65,70.143,70.766,68.497,70.211,66.217z M101.65,92.001H84.203V80.528c0-0.414-0.336-0.75-0.75-0.75   c-3.877,0-7.031-3.153-7.031-7.03V57.317c0-0.742-0.021-1.482-0.055-2.221c0-0.011-0.002-0.021-0.002-0.031   c-0.195-4.303-0.947-8.555-2.25-12.668c-0.162-0.514-0.157-1.048,0.005-1.541c0.009-0.022,0.017-0.045,0.023-0.069   c0.082-0.224,0.195-0.439,0.342-0.638c0.479-0.654,1.22-1.03,2.03-1.03c1.185,0,2.221,0.85,2.463,2.021   c3.883,18.677,11.675,20.732,12.005,20.81c0.396,0.097,0.798-0.15,0.897-0.55c0.099-0.399-0.146-0.805-0.544-0.908   c-0.071-0.019-7.093-2.031-10.781-19.165h3.821c0.414,0,0.75-0.336,0.75-0.75s-0.336-0.75-0.75-0.75h-4.3   c-0.675-1.319-2.034-2.208-3.562-2.208c-1.294,0-2.475,0.599-3.24,1.643c-0.133,0.181-0.249,0.37-0.348,0.565h-9.504   c-3.41,0-6.229-2.583-6.603-5.896h29.593c3.043,0,5.915,1.616,7.495,4.218c5.064,8.342,7.741,17.912,7.741,27.673V92.001z"/><path d="M25.6,7.268c-0.414,0-0.75,0.336-0.75,0.75v111.965c0,0.414,0.336,0.75,0.75,0.75s0.75-0.336,0.75-0.75V8.018   C26.35,7.604,26.014,7.268,25.6,7.268z"/><path d="M53.873,24.714c0.192,0,0.384-0.073,0.53-0.22l8.627-8.627c0.293-0.293,0.293-0.768,0-1.061s-0.768-0.293-1.061,0   l-8.627,8.627c-0.293,0.293-0.293,0.768,0,1.061C53.489,24.641,53.681,24.714,53.873,24.714z"/><path d="M57.488,27.602c0.116,0.295,0.398,0.475,0.697,0.475c0.092,0,0.186-0.017,0.275-0.052l8.516-3.363   c0.386-0.152,0.574-0.588,0.422-0.973c-0.152-0.386-0.59-0.573-0.973-0.422l-8.516,3.363   C57.524,26.781,57.336,27.217,57.488,27.602z"/><path d="M54.403,46.62c-0.293-0.293-0.768-0.293-1.061,0s-0.293,0.768,0,1.061l8.627,8.627c0.146,0.146,0.338,0.22,0.53,0.22   s0.384-0.073,0.53-0.22c0.293-0.293,0.293-0.768,0-1.061L54.403,46.62z"/><path d="M66.426,47.848c0.09,0.036,0.184,0.052,0.275,0.052c0.299,0,0.581-0.18,0.697-0.475c0.152-0.385-0.036-0.821-0.422-0.973   l-8.516-3.364c-0.384-0.153-0.82,0.037-0.973,0.422c-0.152,0.385,0.036,0.821,0.422,0.973L66.426,47.848z"/><path d="M41.289,85.298H29.027c-0.414,0-0.75,0.336-0.75,0.75v15.684c0,0.414,0.336,0.75,0.75,0.75h12.262   c0.414,0,0.75-0.336,0.75-0.75V86.048C42.039,85.634,41.703,85.298,41.289,85.298z M40.539,100.982H29.777V86.798h10.762V100.982z"/><path d="M33.59,98.302h3.422c0.414,0,0.75-0.336,0.75-0.75v-7.541c0-0.414-0.336-0.75-0.75-0.75H33.59   c-0.414,0-0.75,0.336-0.75,0.75v7.541C32.84,97.966,33.176,98.302,33.59,98.302z M34.34,90.761h1.922v6.041H34.34V90.761z"/></g><text x="0" y="143" fill="#000000" font-size="5px" font-weight="bold" font-family="'Helvetica Neue', Helvetica, Arial-Unicode, Arial, Sans-serif">Created by verry poernomo</text><text x="0" y="148" fill="#000000" font-size="5px" font-weight="bold" font-family="'Helvetica Neue', Helvetica, Arial-Unicode, Arial, Sans-serif">from the Noun Project</text></svg>