<svg xmlns="http://www.w3.org/2000/svg" version="1.1" viewBox="-5.0 -10.0 110.0 135.0">
 <path d="m49.871 40.109h0.050781c0.28125 0 0.48828-0.23828 0.48828-0.51172 0-0.28125-0.26172-0.48047-0.51172-0.48828-0.26172 0-1.0117-0.058594-1.3594-0.42188-0.14062-0.14844-0.19922-0.32812-0.17969-0.57031 0.019531-0.26172 0.10938-0.46094 0.28125-0.60938 0.37891-0.32812 1.0781-0.35937 1.3203-0.33984 0.26953 0.03125 0.51953-0.17969 0.53906-0.46094s-0.17969-0.51953-0.46094-0.53906c-0.12891-0.011719-1.2891-0.078125-2.0508 0.57812-0.37109 0.32031-0.58984 0.78125-0.62109 1.3086-0.03125 0.51953 0.12891 0.98047 0.46094 1.3281 0.64844 0.67969 1.7617 0.71875 2.0508 0.71875z"/>
 <path d="m59.898 28.75c0.078124-0.039062 1.8984-0.98047 3.6992 0.058594 0.078125 0.050781 0.17188 0.070312 0.26172 0.070312 0.17969 0 0.35938-0.089844 0.46094-0.26172 0.14844-0.25 0.058594-0.57813-0.19141-0.71875-2.3203-1.3281-4.6289-0.12891-4.7305-0.070313-0.26172 0.14062-0.35156 0.46094-0.21875 0.71094 0.14062 0.26172 0.46094 0.35938 0.71094 0.21875z"/>
 <path d="m58.059 35.5c0.82812-1.2188 2.4102-1.9102 4.1914-1.8516 1.9492 0.070312 3.6406 1.0195 4.5312 2.5391 0.19141 0.32031 0.51953 0.5 0.85938 0.5 0.17188 0 0.33984-0.039062 0.5-0.14062 0.48047-0.28125 0.64062-0.89062 0.35938-1.3711-1.2305-2.1211-3.5508-3.4414-6.1797-3.5312-2.4805-0.089843-4.6914 0.92969-5.9102 2.7188-0.30859 0.46094-0.19141 1.0781 0.26172 1.3906 0.46094 0.30859 1.0781 0.19141 1.3906-0.26172z"/>
 <path d="m36.301 27.961c0.078125-0.039063 1.9102-0.98047 3.6992 0.058593 0.078125 0.050781 0.17188 0.070313 0.26172 0.070313 0.17969 0 0.35938-0.089844 0.46094-0.26172 0.14844-0.25 0.058594-0.57812-0.19141-0.71875-2.3203-1.3281-4.6289-0.12109-4.7305-0.070313-0.26172 0.14063-0.35156 0.46094-0.21875 0.71094 0.12891 0.25 0.44922 0.35938 0.71094 0.21875z"/>
 <path d="m41.969 35.43c0.17969 0.32812 0.51953 0.51172 0.87109 0.51172 0.17188 0 0.32812-0.039062 0.48828-0.12891 0.48047-0.26953 0.64844-0.87891 0.39062-1.3594-0.98828-1.7812-2.9297-2.9492-5.1719-3.1406-2.5117-0.21094-4.8906 0.85938-6.5391 2.9219-0.35156 0.42969-0.28125 1.0586 0.16016 1.4102 0.42969 0.33984 1.0586 0.28125 1.4102-0.16016 1.2305-1.5391 2.9883-2.3281 4.8203-2.1797 1.5586 0.12891 2.9297 0.94141 3.5898 2.1211z"/>
 <path d="m92.48 51.191c-0.46094-1.1602-2.3086-1.0898-3.6797-0.85938 1.1289-1.5117 2.3789-3.6016 1.4414-4.4609-0.92969-0.83984-2.3086-0.21875-3.4609 0.60938 0.46875-1.2695 0.71875-2.7188-0.12891-3.4883-0.28906-0.26172-0.66016-0.37891-1.0703-0.32813-1.2695 0.14063-2.8281 1.9492-3.5703 2.9102-0.28906-0.48047-0.71094-0.87891-1.2383-1.1719-0.94922-0.51953-2-0.51953-2.7383-0.019532-0.42969 0.28906-1.1211 1.0195-0.92969 2.6484 0.14062 1.1484 0.5 3.3789 0.71875 4.7383 0 0.011719-0.019531 0.019531-0.03125 0.03125-1.7383 3.3203-6.8789 4.3203-11.559 4.5 1.7305-1.0312 3.2109-2.2695 4.4297-3.7305 2.3398-2.8398 3.2617-6.0391 3.5391-8.6211 0.03125 0 0.050781 0.019531 0.078125 0.019531h0.050781c2.5586-0.26953 4.5312-1.6016 5.3906-3.6602 0.82031-1.9609 0.53125-4.2617-0.75-5.8711-1.1211-1.4102-2.7891-2.0586-4.7383-1.8711 0.14062-4.75-0.51172-11.578-5.0312-16.66-4.0781-4.6016-10.559-6.9297-19.238-6.9297-2.7188 0-5.2109 0.30078-7.4805 0.89844-0.94141-0.96094-1.3281-1.8984-1.3711-2-0.089843-0.23047-0.33984-0.35938-0.57812-0.30859-0.23828 0.058594-0.41016 0.28125-0.37891 0.53125 0 0.10156 0.10156 1.0586 0.44922 2.3594-3.0703 1.1016-5.6602 2.7812-7.7188 5.0898-4.5 5.0195-5.5 11.711-5.6289 15.891-1.9609-0.26953-3.7305 0.30078-4.9297 1.6289-1.3203 1.4609-1.75 3.6211-1.1211 5.5117 0.39844 1.1797 1.5703 3.2617 4.9219 3.8789h0.089844 0.019531c0 2.3594 0.58984 5.1016 2.0898 7.6602 1.0781 1.8398 2.8516 3.9297 5.6992 5.7109-4.7617-0.16016-10.09-1.1211-11.871-4.5117 0-0.011718-0.019531-0.019531-0.03125-0.03125 0.21875-1.3594 0.57812-3.5898 0.71875-4.7383 0.19141-1.6211-0.5-2.3516-0.92969-2.6484-0.73828-0.5-1.7891-0.5-2.7383 0.019531-0.53125 0.28906-0.94922 0.69141-1.2383 1.1719-0.73828-0.96094-2.3008-2.7695-3.5703-2.9102-0.41016-0.039063-0.78125 0.070312-1.0703 0.32812-0.85156 0.76953-0.60156 2.2188-0.12891 3.4883-1.1484-0.82812-2.5312-1.4492-3.4609-0.60938-0.94141 0.85156 0.32031 2.9492 1.4414 4.4609-1.3711-0.23047-3.2188-0.30078-3.6797 0.85938-0.12891 0.32031-0.10938 0.66016 0.050781 0.98828 0.33984 0.69922 1.3398 1.2617 2.25 1.6602-0.48828 0.21094-1 0.5-1.3008 0.92969-0.23828 0.33984-0.32031 0.73828-0.25 1.1406 0.070312 0.35938 0.28125 0.66016 0.60156 0.87109 0.96094 0.60938 2.8281 0.28125 3.4805 0.14062 0.98047 0.57812 1.8984 0.76953 2.6797 0.76953 0.39844 0 0.76172-0.050781 1.0781-0.12891 0.011718 0.039063 0.019531 0.078125 0.039062 0.10938 3.0312 4.9297 10.379 8.3984 17.352 8.3984 0.51953 0 1.0312-0.039063 1.5391-0.070313-0.21875 1.9609-0.26172 4.8008 0.91016 6.6211-1.0508 0.30859-2.7891 1.0508-3.3594 2.6094-0.69922 0.12109-2.4414 0.55859-3.5703 1.9883-0.62891 0.80078-0.94922 1.7695-0.98047 2.8984-0.39844-0.32812-0.78906-0.66016-1.1797-1.0117-2.4219-2.2188-3.8789-1.7891-4.6797-1.0508-0.48828 0.46094-0.76172 0.94922-0.80078 1.4688-0.28125-0.058593-0.60156-0.058593-0.89844 0.058594-0.28906 0.12109-0.67188 0.41016-0.82813 1.0898-0.050781 0.23828-0.019531 0.46875 0.050782 0.69141-0.21875 0.16016-0.69141 0.58984-0.69922 1.2695 0 0.089843 0.03125 0.19141 0.050781 0.28125-0.058594 0.019531-0.12109 0.050781-0.17969 0.089843-0.058594 0.050781-0.57812 0.48047-0.57812 1.2188 0 0.16016 0.03125 0.32031 0.078125 0.48047-0.21875 0.12891-0.57812 0.39844-0.64062 0.89062-0.078125 0.60156 0.32031 1.2188 1.2305 1.8789 0.46875 0.33984 0.92969 0.69141 1.3984 1.0391 2.8711 2.1484 5.8086 4.3594 8.9492 4.3594 1.0117 0 2.0391-0.23047 3.0898-0.76172 2.1289-1.0781 3.5-2.3789 4.3711-3.4492 0.55859 0.23047 1.6797 0.60938 3.0898 0.60938 0.69922 0 1.4688-0.10156 2.2695-0.35156 0.87109 0.53125 4.4102 2.4688 9.2383 2.4688 2.5195 0 5.3906-0.53906 8.4102-2.0703 0.67969 0.46094 1.7617 0.92969 2.9609 0.92969 0.82031 0 1.6992-0.23828 2.5586-0.82031 1.2188 1.25 2.6016 2.2188 3.6484 2.6992 1.0312 0.46875 2.0391 0.67969 3.0195 0.67969 3.2383 0 6.2305-2.2305 9.1406-4.3984 0.42188-0.30859 0.82812-0.62109 1.25-0.92969 0.89844-0.66016 1.3008-1.2695 1.2305-1.8789-0.058593-0.48828-0.42187-0.76172-0.64062-0.89062 0.050781-0.16016 0.078124-0.32031 0.078124-0.48047 0-0.73828-0.51953-1.1797-0.57812-1.2188-0.050782-0.039063-0.10938-0.070313-0.17969-0.089844 0.019531-0.089844 0.050781-0.17969 0.050781-0.28125 0-0.67969-0.48047-1.1016-0.69922-1.2695 0.070313-0.21875 0.10156-0.46094 0.050782-0.69141-0.16016-0.69141-0.53906-0.96875-0.82812-1.0898-0.30078-0.12109-0.60938-0.12109-0.89844-0.058593-0.050781-0.51953-0.30859-1.0117-0.80078-1.4688-0.80078-0.73828-2.25-1.1602-4.6797 1.0508-0.44141 0.39844-0.89062 0.76953-1.3398 1.1406-0.42969-2.8711-2.6211-4.2305-3.8281-4.7617-0.011719-0.03125-0.011719-0.050781-0.03125-0.078125-1.3594-2.2305-3.4219-2.8398-4.4688-3.0117 0.60938-2 0.58984-4.0703 0.39844-5.6797 0.32812 0.011719 0.66016 0.03125 0.98828 0.03125 7.5586 0 14.398-3.3008 17.672-8.6211 0.019531-0.039062 0.03125-0.070312 0.039062-0.10938 0.32031 0.070313 0.67969 0.12891 1.0781 0.12891 0.78125 0 1.6914-0.19141 2.6797-0.76953 0.64844 0.14062 2.5195 0.46875 3.4805-0.14062 0.32031-0.21094 0.53125-0.51172 0.60156-0.87109 0.078125-0.39844 0-0.80078-0.25-1.1406-0.30078-0.42969-0.80859-0.73047-1.3008-0.92969 0.91016-0.39844 1.9102-0.96094 2.25-1.6602 0.16016-0.32812 0.17969-0.67188 0.050782-0.98828zm-14.262-16.133c1.0508 1.3281 1.2891 3.2305 0.60938 4.8594-0.71875 1.7188-2.3281 2.8008-4.5312 3.0391 0.078125-1.5703-0.078125-2.8203-0.23828-3.4805-0.19922-0.76953-0.25-1.5781-0.14062-2.4414 0.039062-0.33984 0.089843-0.78125 0.14062-1.25 0.55859-0.039062 1.6406-0.03125 2.3398 0.62891 0.60937 0.57813 0.80859 1.5703 0.60937 2.9414-0.039062 0.26953 0.14844 0.53125 0.42188 0.57031h0.070312c0.23828 0 0.46094-0.17969 0.48828-0.42969 0.25-1.7109-0.050781-2.9883-0.91016-3.8086-0.91016-0.85938-2.1719-0.94922-2.9297-0.91016 0.03125-0.37891 0.058593-0.78125 0.078124-1.2109 1.6602-0.19141 3.0703 0.32031 4 1.4805zm-51.93 6.4219c-2.0898-0.39844-3.5508-1.5391-4.1094-3.2109-0.51953-1.5508-0.17188-3.3203 0.91016-4.5195 1.0117-1.1211 2.4805-1.5703 4.1719-1.2891 0 0.35156 0 0.67187 0.011719 0.96094-1.1914-0.089844-2.1719 0.16016-2.8984 0.80078-1.3711 1.1992-1.3281 3.2188-1.3203 3.3008 0 0.26953 0.23047 0.48047 0.5 0.48047h0.019531c0.28125 0 0.48828-0.23828 0.48047-0.51953 0-0.019531-0.039063-1.6289 0.98047-2.5195 0.53906-0.46875 1.3203-0.64844 2.2891-0.55078 0.03125 0.39844 0.050781 0.67969 0.070312 0.82813 0.12109 1.0898-0.03125 2.1719-0.42188 3.1094-0.35156 0.85156-0.58984 1.9219-0.67969 3.1211zm2.9219 8.1484c-2.7109-4.6016-2.0508-9.1289-1.3203-10.891 0.46094-1.1016 0.62891-2.3516 0.48828-3.6016-0.12891-1.1914-1.0898-11.828 5.2695-18.91 1.9414-2.1602 4.3789-3.7617 7.2695-4.8008 0.71094 2.1289 2.0703 4.7695 4.6719 6.2812 1.3594 0.78906 2.8984 1.1914 4.6289 1.1914 2.1289 0 4.5391-0.60938 7.2109-1.8203 0.25-0.10938 0.35937-0.41016 0.25-0.66016-0.10938-0.25-0.41016-0.35938-0.66016-0.25-4.5 2.0391-8.1719 2.2695-10.91 0.67969-2.3086-1.3398-3.5508-3.7617-4.2109-5.7305 0.14062-0.039063 0.26172-0.089844 0.39844-0.12891 1.9492 1.6914 5.4688 3.1602 11.359 0.96875 0.26172-0.10156 0.39062-0.37891 0.28906-0.64062-0.10156-0.26172-0.37891-0.39062-0.64062-0.28906-4.9492 1.8281-8.0117 0.96094-9.8281-0.32812 2-0.46094 4.1602-0.71094 6.5195-0.71094 8.3906 0 14.609 2.2188 18.5 6.5898 6.0312 6.7891 4.8281 17 4.4297 20.391-0.10938 0.94922-0.050781 1.8906 0.17188 2.7695 0.35156 1.3516 0.82031 7.3711-3.1719 12.199-4.3008 5.1992-12.191 7.4883-23.461 6.8008-10.531-1.2109-15.191-5.6211-17.238-9.1094zm8.1602 37.762c0.44922-0.67969 0.62891-1.1484 0.64844-1.1992 0.10156-0.26172-0.03125-0.55078-0.28906-0.64062-0.26172-0.089843-0.55078 0.03125-0.64062 0.28906-0.011719 0.03125-1.1406 2.9102-5.1484 4.9492-3.7617 1.9102-7.2695-0.71875-10.98-3.5117-0.46875-0.35156-0.94141-0.71094-1.4102-1.0508-0.85156-0.62109-0.82812-0.92969-0.82812-0.94141 0-0.070312 0.10938-0.14062 0.17188-0.17188 0.14844 0.16016 0.32031 0.32031 0.51953 0.48047 0.089844 0.070312 0.19922 0.10938 0.30859 0.10938 0.14844 0 0.30078-0.070313 0.39062-0.19141 0.17188-0.21875 0.12891-0.53125-0.089843-0.69922-0.46094-0.35938-0.71875-0.71875-0.73047-1.0195 0-0.23828 0.14844-0.39844 0.19141-0.44141 0.23047 0.26953 0.51172 0.53125 0.89844 0.78906 0.078126 0.058594 0.17969 0.078125 0.26953 0.078125 0.16016 0 0.32031-0.078125 0.42188-0.21875 0.14844-0.23047 0.089843-0.53906-0.14062-0.69141-0.60156-0.39062-0.94141-0.78906-0.94141-1.0898 0-0.17188 0.10937-0.30859 0.21094-0.39844 0.55078 0.62891 1.3086 1.1016 1.5508 1.2383 0.078125 0.039062 0.16016 0.070312 0.25 0.070312 0.17188 0 0.33984-0.089844 0.42969-0.25 0.14062-0.23828 0.050781-0.53906-0.19141-0.67969-0.75-0.42969-1.7305-1.2617-1.6211-1.7188 0.050781-0.21094 0.12891-0.35156 0.23047-0.39062 0.19141-0.078125 0.55078 0.039062 0.78906 0.16016 0.51953 0.92188 1.5781 1.4883 1.7305 1.5703 0.25 0.12109 0.55078 0.03125 0.67188-0.21875 0.12109-0.25 0.03125-0.55078-0.21875-0.67187-0.37109-0.19141-1.3594-0.83984-1.4609-1.5508-0.050781-0.32812 0.12109-0.66016 0.48828-1.0195 0.71094-0.66016 1.8281-0.30859 3.3203 1.0586 0.62891 0.57812 1.2891 1.1211 1.9219 1.6406 1.7812 1.4688 3.3086 2.7305 3.4102 4.0391 0.019532 0.26172 0.23828 0.46094 0.5 0.46094h0.039063c0.28125-0.019532 0.48047-0.26172 0.46094-0.53906-0.12109-1.6211-1.6094-2.9492-3.4102-4.4414-0.16016-1.2891 0.070312-2.3594 0.71094-3.1719 1.0781-1.3789 2.9609-1.6406 3.1602-1.6602 0.41016 0.050781 4.7891 0.89844 8.5781 11.859-1.7812 0.46875-3.3711 0.078125-4.1602-0.19922zm34.82-6.8008c-1.7812 1.4805-3.2617 2.8008-3.3789 4.4219-0.019531 0.28125 0.19141 0.51172 0.46094 0.53906h0.039062c0.26172 0 0.48047-0.19922 0.5-0.46094 0.10156-1.3008 1.6289-2.5703 3.4102-4.0391 0.62891-0.51953 1.2891-1.0703 1.9219-1.6406 1.4883-1.3711 2.6094-1.7188 3.3203-1.0586 0.37891 0.35156 0.53906 0.69141 0.48828 1.0195-0.10156 0.71094-1.0898 1.3594-1.4609 1.5508-0.25 0.12109-0.33984 0.42969-0.21875 0.67188 0.12109 0.25 0.42969 0.33984 0.67187 0.21875 0.14844-0.078125 1.2109-0.64844 1.7305-1.5703 0.23828-0.12891 0.58984-0.25 0.78906-0.16016 0.10938 0.039063 0.17969 0.17969 0.23047 0.39062 0.10156 0.46094-0.87891 1.3008-1.6211 1.7188-0.23828 0.14062-0.32031 0.44141-0.19141 0.67969 0.089844 0.16016 0.26172 0.25 0.42969 0.25 0.078125 0 0.17188-0.019532 0.25-0.070313 0.23047-0.12891 1-0.60938 1.5508-1.2383 0.10156 0.089844 0.21094 0.23047 0.21094 0.39844 0 0.30078-0.33984 0.69922-0.94141 1.0898-0.23047 0.14844-0.28906 0.46094-0.14062 0.69141 0.10156 0.14844 0.26172 0.21875 0.42187 0.21875 0.089844 0 0.19141-0.03125 0.26953-0.078126 0.39062-0.25 0.67188-0.51953 0.89844-0.78906 0.039063 0.03125 0.19922 0.19141 0.19141 0.44141 0 0.28906-0.26953 0.66016-0.73047 1.0195-0.21875 0.17187-0.26172 0.48047-0.089844 0.69922 0.10156 0.12891 0.25 0.19141 0.39062 0.19141 0.10938 0 0.21875-0.03125 0.30859-0.10937 0.19922-0.16016 0.37109-0.32031 0.51953-0.48047 0.058594 0.03125 0.16016 0.10156 0.17188 0.17188 0 0.011718 0.03125 0.32031-0.82812 0.94141-0.42188 0.30859-0.83984 0.62109-1.2617 0.92969-3.7305 2.7812-7.25 5.3984-11.148 3.6211-1.3008-0.60156-3.1914-2.0117-4.4805-3.8281-0.16016-0.23047-0.46875-0.28125-0.69922-0.12109-0.23047 0.16016-0.28125 0.46875-0.12109 0.69922 0.17969 0.25 0.35937 0.48828 0.55859 0.71875-1.8203 1.1484-3.6016 0.23828-4.2383-0.17188 0.41016-1.6992 2.6602-9.8008 8.2695-12.23 1 0.37891 3.4219 1.6289 3.5391 4.7383zm-4.2031-5.6914c-0.050781 0.058593-0.089843 0.12109-0.10938 0.19922-5.9492 2.8789-8.1406 11.289-8.5 12.852-8.4883 4.3516-15.699 0.30859-16.77-0.35156-3.4102-10.102-7.4297-12.289-8.9805-12.762 0.69141-1.2891 2.6992-1.7812 3.1797-1.8789 1.3711 0.39062 14.012 3.7305 27.379-0.078125 0.39062 0.019532 2.3594 0.21094 3.8008 2zm23.551-23.16c-0.30078 0.62891-2.0703 1.3906-3.2305 1.7305-0.26172 0.078125-0.42188 0.35938-0.33984 0.62109 0.058594 0.21875 0.26172 0.35938 0.48047 0.35938 0.050781 0 0.089843 0 0.14062-0.019531 0.011718 0 0.03125-0.011719 0.050781-0.011719 0.03125 0 0.050781 0.019531 0.070313 0.03125 0.57812 0.10156 1.6289 0.42969 1.9609 0.89844 0.089844 0.12109 0.10938 0.23828 0.078125 0.37891-0.011719 0.058594-0.039062 0.14063-0.16016 0.21875-0.55859 0.35938-2.0781 0.17188-2.9102-0.03125-0.12891-0.03125-0.26953 0-0.39063 0.058594-2.2812 1.4414-4.1211 0.28125-4.1914 0.23047-0.23047-0.14844-0.53906-0.089844-0.69141 0.14062-0.14844 0.23047-0.089844 0.53906 0.14062 0.69141 0.019531 0.011719 0.16016 0.10156 0.39062 0.21094-3.2812 5.2305-10.27 8.3516-17.891 8.0195-0.19141-1.1094-0.42969-1.8398-0.44922-1.9219-0.078125-0.26172-0.37109-0.41016-0.62891-0.32031-0.26172 0.078124-0.41016 0.37109-0.32031 0.62891 0.011718 0.050781 1.4102 4.5 0.089843 8.3281-13.012 3.6484-25.281 0.42188-26.641 0.039062-2.1211-2.3203-0.75-8.3516-0.73828-8.4102 0.058594-0.26953-0.10156-0.53906-0.37109-0.60156-0.26953-0.058593-0.53906 0.10156-0.60156 0.37109-0.019531 0.070313-0.10938 0.5-0.21875 1.1484-7.0703 0.62109-14.961-2.7617-18.109-7.7617 0.23047-0.10938 0.37109-0.19922 0.39062-0.21094 0.23047-0.14844 0.28906-0.46094 0.14062-0.69141-0.14844-0.23047-0.46094-0.28906-0.69141-0.14062-0.019532 0.011719-1.8906 1.2305-4.1914-0.23047-0.12109-0.070313-0.26172-0.10156-0.39062-0.058594-0.69922 0.17188-2.3203 0.39844-2.9102 0.03125-0.12109-0.078125-0.14844-0.14844-0.16016-0.21875-0.03125-0.14062 0-0.26172 0.078125-0.37891 0.32812-0.46875 1.3711-0.80078 1.9609-0.89844 0.03125 0 0.050782-0.019531 0.070313-0.03125 0.011719 0 0.039062 0.011719 0.050781 0.011719 0.050781 0.011719 0.089844 0.019531 0.14062 0.019531 0.21875 0 0.42188-0.14062 0.48047-0.35938 0.078125-0.26172-0.070313-0.53906-0.33984-0.62109-1.1602-0.33984-2.9219-1.1016-3.2305-1.7305-0.050781-0.089843-0.03125-0.14062-0.019531-0.17969 0.21875-0.55859 2.2188-0.42188 3.8789 0.050781 0.21094 0.058594 0.44141-0.019531 0.55859-0.21094 0.12109-0.17969 0.10156-0.42969-0.039062-0.58984-1.6484-1.9609-2.6602-3.8594-2.4297-4.1914 0.69141-0.62109 2.7891 0.98828 3.9883 2.2812 0.17188 0.19141 0.46094 0.21094 0.67188 0.058593 0.19922-0.16016 0.26172-0.44141 0.12109-0.66016-0.89062-1.4609-1.8906-3.9219-1.1914-4.5508 0.058594-0.050781 0.14062-0.10156 0.28906-0.078125 0.89844 0.10156 2.4883 1.9219 3.2812 3.0508-0.03125 0.17969-0.039062 0.35938-0.039062 0.53906 0 0.28125 0.23047 0.46094 0.51172 0.48828 0.28125 0 0.48828-0.23828 0.48828-0.51172-0.019532-0.80859 0.41016-1.5391 1.1602-1.9414 0.60938-0.32812 1.2695-0.35938 1.6992-0.070312 0.53906 0.35937 0.57031 1.1211 0.5 1.6992-0.19922 1.6719-0.89844 5.8008-0.89844 5.8516-0.050781 0.26953 0.14062 0.53125 0.41016 0.57812h0.078124c0.16016 0 0.30078-0.078125 0.39063-0.19922 2.1016 2.7617 6.75 4.2109 13.578 4.2109h0.44141 0.03125c2.6484 1.3086 6.0508 2.3711 10.441 2.8711h0.03125c1.3203 0.078125 2.6016 0.12109 3.8281 0.12109 5.6289 0 10.309-0.85156 14.039-2.5195h0.30078c6.8281 0 11.48-1.4492 13.578-4.2109 0.089843 0.12109 0.23047 0.19922 0.39062 0.19922h0.078125c0.26953-0.050781 0.46094-0.30078 0.41016-0.57812 0-0.039063-0.69922-4.1797-0.89844-5.8516-0.070313-0.57031-0.039063-1.3398 0.5-1.6992 0.42969-0.28906 1.0898-0.26172 1.6992 0.070312 0.73828 0.39844 1.1719 1.1289 1.1602 1.9414 0 0.28125 0.21094 0.51172 0.48828 0.51172 0.25 0 0.5-0.21094 0.51172-0.48828 0-0.17969-0.011718-0.35938-0.039062-0.53906 0.78906-1.1289 2.3789-2.9492 3.2812-3.0508 0.14844-0.019531 0.23047 0.03125 0.28906 0.078125 0.69141 0.62891-0.30078 3.0898-1.1914 4.5508-0.12891 0.21875-0.078125 0.5 0.12109 0.66016 0.21094 0.14844 0.48828 0.12891 0.67188-0.058594 1.1992-1.2891 3.3008-2.8984 3.9883-2.2812 0.23047 0.32812-0.78125 2.2305-2.4297 4.1914-0.14062 0.17188-0.16016 0.41016-0.039063 0.58984s0.35156 0.26953 0.55859 0.21094c1.6602-0.46875 3.6602-0.60937 3.8789-0.050781 0.019532 0.039063 0.03125 0.089844-0.019531 0.17969z"/>
 <path d="m82.129 49.289c-0.23828 0.14063-0.30859 0.44922-0.17188 0.69141 0.050781 0.078125 1.2109 2.0586-1.0508 4-0.21094 0.17969-0.23047 0.5-0.050781 0.71094 0.10156 0.12109 0.23828 0.17188 0.37891 0.17188 0.12109 0 0.23047-0.039062 0.32812-0.12109 2.8906-2.4883 1.2695-5.25 1.2617-5.2812-0.14062-0.23828-0.44922-0.30859-0.69141-0.17188z"/>
 <path d="m18.039 49.512c0.14063-0.23828 0.070313-0.53906-0.17187-0.69141-0.23828-0.14844-0.53906-0.070312-0.69141 0.17188-0.019531 0.03125-1.6406 2.7891 1.2617 5.2812 0.089844 0.078124 0.21094 0.12109 0.32812 0.12109 0.14062 0 0.28125-0.058593 0.37891-0.17188 0.17969-0.21094 0.16016-0.53125-0.050781-0.71094-2.2305-1.9219-1.1094-3.9102-1.0508-4z"/>
 <path d="m53.102 53.91c5.2383-0.73047 8.5781-4.1289 9.5703-7.1797 0.64062-1.9805 0.30859-3.8008-0.89844-4.9688-1.8594-1.8008-5.4805-1.8398-10.191-0.12109-1.1719 0.42969-2.4805 0.46094-3.6992 0.078125-5.1719-1.6016-7.3398-0.10156-8.1719 0.94141-1.1719 1.4492-1.1289 3.6914 0.089843 5.8398 1.5508 2.7305 5.2383 5.5898 10.84 5.5898 0.78906 0 1.6094-0.058594 2.4688-0.17969zm-3.3398-10.93-0.17969 1.3398c-0.039062 0.28125-0.28125 0.48828-0.55859 0.48828h-1.25c-0.30859 0-0.57031-0.26172-0.57031-0.57031v-1.6797c0.12891 0.039062 0.26172 0.070312 0.39062 0.10938 0.71094 0.21875 1.4492 0.32031 2.1797 0.30078zm-9.1016 5.0195c-1.0117-1.7891-1.0781-3.5898-0.17969-4.7188 0.67188-0.82812 1.8281-1.25 3.3516-1.25 0.71094 0 1.5 0.10156 2.3594 0.28906v1.9297c0 0.87109 0.69922 1.5703 1.5703 1.5703h1.25c0.78125 0 1.4492-0.57812 1.5586-1.3594l0.21094-1.5586v-0.019532c0.39062-0.070312 0.76953-0.16016 1.1406-0.30078 5.8398-2.1289 8.2383-0.98047 9.1484-0.10156 0.92969 0.89844 1.1719 2.3398 0.64844 3.9492-0.17969 0.53906-0.46094 1.0898-0.80078 1.6406h-0.019531c-10.531-0.71094-16.031 3.3203-16.371 3.5781-1.8203-0.98047-3.1211-2.3203-3.8711-3.6289zm4.918 4.1289c1.4609-0.91016 6.4414-3.5117 14.629-3.1016-1.5195 1.8398-3.9609 3.4297-7.2617 3.8906-2.9414 0.41016-5.4102 0.019531-7.3789-0.78906z"/>
<text x="0.0" y="117.5" font-size="5.0" font-weight="bold" font-family="Arbeit Regular, Helvetica, Arial-Unicode, Arial, Sans-serif" fill="#000000">Created by SaltedEgg</text><text x="0.0" y="122.5" font-size="5.0" font-weight="bold" font-family="Arbeit Regular, Helvetica, Arial-Unicode, Arial, Sans-serif" fill="#000000">from Noun Project</text></svg>