<svg xmlns="http://www.w3.org/2000/svg" xmlns:xlink="http://www.w3.org/1999/xlink" xmlns:xodm="http://www.corel.com/coreldraw/odm/2003" xml:space="preserve" version="1.1" style="shape-rendering:geometricPrecision;text-rendering:geometricPrecision;image-rendering:optimizeQuality;" viewBox="0 0 100000 125000" x="0px" y="0px" fill-rule="evenodd" clip-rule="evenodd"><defs><style type="text/css">
   
    .fil0 {fill:black;fill-rule:nonzero}
   
  </style></defs><g><path class="fil0" d="M52976.09 39469.68l-2.85 9.58c-938.45,3160.33 -1950.4,6618.86 -2858.67,9859.28 -963.32,3436.85 -1817.84,6655.72 -2359.74,9066.66 -326.57,1452.89 -580.06,2758.54 -789.9,3956.55 -210.64,1202.64 -382.87,2325.82 -541.33,3383.4 -474.42,3166.42 -922.32,6074.09 -1824.09,8760.69 -893.03,2660.56 -2240.67,5136.84 -4523.15,7496.73 -1293.13,1336.99 -2455.65,2352.49 -3575.83,3331.01 -2377.97,2077.22 -4569.91,3991.97 -7407.49,8368.13 -184.33,283.78 -103.7,663.27 180.08,847.59 283.79,184.33 663.28,103.7 847.6,-180.08 2745.53,-4234.18 4875.66,-6094.94 7186.59,-8113.61 1142.83,-998.29 2328.85,-2034.32 3652.67,-3403.05 2423.27,-2505.46 3853.86,-5133.94 4801.68,-7957.75 939.09,-2797.76 1394.8,-5754.23 1876.92,-8971.97 155.07,-1035.01 324.4,-2138.63 536.53,-3349.78 212.94,-1215.77 463.51,-2511.02 775.48,-3898.94 532.67,-2369.84 1383.13,-5571.34 2345.34,-9004.22 899.15,-3207.89 1889.13,-6594.18 2807.98,-9690.26 1786.7,-1718.51 3235.49,-3425.34 4584.66,-5014.89 1403.29,-1653.29 2697.02,-3177.52 4121.62,-4415.86 1275.14,-1108.44 2908.16,-2321.65 4506.59,-2875.52 1460.6,-506.1 2905.41,-442.07 3991.1,858.93 951,1139.6 951.07,2686.31 454.82,4262.71 -704.57,2238.14 -2383.61,4506.15 -3859.82,5878.61 -35.12,32.65 -70.44,65.38 -105.91,98.2 -3.08,2.68 -6.13,5.38 -9.16,8.13 -519.48,471.83 -1142.46,897.32 -1823.53,1129.08 -535.76,182.31 -1110.45,244.99 -1700.46,112.37 -330.19,-74.25 -658.09,133.22 -732.34,463.42 -74.26,330.19 133.22,658.08 463.41,732.34 327.49,73.61 649.39,105.34 964.07,101.59 -2221.36,1994.14 -4175.14,3895.09 -4658.65,5681.11 -457.81,-149.65 -893.08,-278.2 -1292.98,-389.25 -776.97,-214.78 -1103.52,966.58 -326.56,1181.35 2535.8,704.17 5233.2,1803.2 7120.17,3650.78 574.82,565.35 1434.44,-308.65 859.61,-874.01 -159.82,-156.49 -324.04,-307.44 -491.93,-453.14 2451.72,174.76 5105.51,-249.52 7479.87,-629.17 491.92,-78.65 970.2,-155.15 1568.08,-242.63 1795.26,-262.71 3096.76,-250.31 4283.94,-239 1941.01,18.5 3593.34,34.04 6431.07,-1033.81 309.68,533.46 678.53,1246.86 1046.58,2038.87 378.83,815.25 754.43,1708.85 1061.24,2569.98 -1127.21,928.41 -3327.48,1728.85 -4937.32,2314.41 -87.4,31.8 -172.88,62.88 -266.48,97.14 -124.2,-158.67 -246.11,-334.37 -365.63,-531.34 -478.62,-788.69 -1044.29,-1306.63 -1621.19,-1576.86 -485.89,-227.59 -980.06,-283.32 -1445.26,-180.72 -464.47,102.43 -886.73,359.91 -1230,758.93 -415.14,482.57 -713.59,1176.74 -818.48,2050.95 -438.27,3652.25 1531.29,5567.43 3142.99,6846.35 274.07,381.96 312.94,1366.68 356.92,2482.69 32.87,833.85 68.3,1730.81 216.84,2587.38 -12.03,509.61 -496.04,887.63 -1043.46,1315.06 -666.31,520.25 -1402.08,1094.75 -1825.97,2102.4 -131.28,311.63 14.92,670.7 326.55,801.98 311.63,131.28 670.7,-14.93 801.98,-326.55 300.25,-713.76 904.34,-1185.43 1451.4,-1612.58 276.88,-216.19 542.61,-423.75 772.14,-647.85 129.17,279.75 283.85,544.58 469.86,789.09 204.22,269.2 588.01,321.88 857.2,117.65 269.2,-204.22 321.87,-588.01 117.65,-857.2 -790.39,-1039.01 -859.63,-2795.63 -919.6,-4317.4 -24.04,-609.9 -46.79,-1187.1 -114.54,-1699.73 90.26,-39.39 172.29,-101.13 237.17,-184.19 208.19,-266.54 160.89,-651.41 -105.65,-859.6 -18.83,-14.75 -171.06,-131.73 -329.84,-253.72 -130.77,-100.49 -267.45,-205.56 -407.55,-315.97 -34.17,-34.27 -71.54,-63.73 -111.21,-88.28 -1382.86,-1105.49 -3031.76,-2746.62 -2673.11,-5735.47 74.54,-621.22 267.36,-1092.12 530.35,-1397.84 166.33,-193.34 359.29,-315.54 562.49,-360.35 202.49,-44.65 428.61,-15.24 662.48,94.31 368.69,172.69 747.81,532.71 1092.94,1101.43 824.15,1358.06 1684.56,1872.71 2621.9,2433.36 636.4,380.66 1313.25,785.53 2021.32,1543.18 253.07,270.8 422.08,543.61 539.97,868.38 128.16,353.08 204.84,782.7 264.98,1339.01 131.21,1213.46 297.14,2634.61 511.83,4062.94 218.79,1455.69 490.48,2945.79 832.25,4290.99 209.84,825.96 114.73,1384.18 -148.55,1817.44 -286.04,470.68 -800.39,865.66 -1352.68,1285.14 -1145.71,870.21 -2443.48,1798.87 -3739.41,2703.58 -1302.79,909.5 -2588.81,1784.52 -3719.9,2553.78 -813.95,553.55 -1865.81,1077.03 -3076.83,1569.92 -1229.92,500.6 -2609.19,963.29 -4061.9,1389.86 -3721.82,1092.91 -7882.06,2116.05 -12115.53,2821.47 -1544.37,257.34 -3098.78,472.22 -4645.4,632.5l-3.21 0.2c-189.7,15.1 -377.25,33.92 -562.96,55.99 -1795.12,170.59 -3576.79,265.46 -5317,265.46 -339.49,0 -614.69,275.21 -614.69,614.7 0,339.48 275.2,614.69 614.69,614.69 141.14,0 282.58,-0.68 424.27,-1.9 -3063.4,1538.73 -5587.9,3981.53 -8071.96,6385.7 -429.17,415.37 -857.09,829.54 -1300.77,1250.92 -245.33,233.39 -255,621.48 -21.61,866.8 233.39,245.33 621.48,255 866.81,21.61 427.69,-406.2 868.41,-832.75 1310.38,-1260.5 3537.97,-3424.2 7161.17,-6930.77 12260.94,-7538.36 166.1,-15.93 332.31,-32.5 498.62,-49.69 3.13,-0.25 6.21,-0.59 9.34,-0.83 11.54,-0.9 22.98,-2.15 34.31,-3.68 1570.84,-163.31 3150.19,-381.84 4719.94,-643.43 4283.39,-713.73 8493.17,-1749.08 12259.59,-2855.09 1499.55,-440.33 2918.7,-916.06 4177.16,-1428.27 1277.4,-519.92 2404.05,-1083.73 3302.54,-1694.8 1142.79,-777.2 2441.71,-1660.99 3734.31,-2563.38 1299.45,-907.17 2607.64,-1843.59 3777.82,-2732.39 649.04,-492.96 1254.69,-959.07 1660.03,-1626.09 384.23,-632.29 558.61,-1386.92 371.09,-2397.7 666.37,-625.02 1357.52,-1202.35 2078.97,-1753.22 819.38,-625.64 1672.84,-1214.1 2570.09,-1797.33 1540.41,-1001.28 2355.13,-2013.21 2726.72,-3252.52 254.24,-847.95 287.33,-1774.27 197.99,-2862.61 1466.35,-1000.84 2257.75,-1972.53 2643.95,-3029.82 577.36,-1580.66 90.77,-3827.13 -97.49,-5562.62 -491.45,-4530.65 -688.8,-7733.97 -1001.9,-12816 -70.17,-1139.04 -391.65,-2136.3 -1295.2,-2889.27 -440.6,-367.17 -951.62,-598.79 -1469.98,-695.61 -527.49,-98.53 -1065.79,-59.05 -1550.41,117.57 -319.19,116.33 -614.29,290.37 -867.91,521.79 -434.15,-670.23 -1050.01,-1122.41 -1725.78,-1360.56 -543.27,-191.47 -1123.33,-243.54 -1676.99,-158.5 -561.63,86.27 -1099.95,312.7 -1550.98,676.97 -695.17,561.45 -1175.38,1438.56 -1202.51,2618.16 -15.24,663.16 135.31,1494.65 364.11,2327.01 56.27,204.71 117.32,409.93 181.78,613.01 -426.28,-172.83 -844.47,-237 -1240.69,-211.95 -526.92,33.32 -1008.17,224.74 -1416.2,530.53 -392.89,294.44 -714.7,695.73 -939,1162.19 -454.59,945.36 -510.71,2170.36 62.75,3308.46 108.88,216.09 345.01,629.83 600.73,1064.21 134.7,228.81 273.05,460.51 399.93,670.22 -2498.02,905.66 -4005.18,891.42 -5766.62,874.64 -1241.66,-11.83 -2602.87,-24.81 -4471.24,248.6 -414.05,60.59 -990.21,152.73 -1582.48,247.42 -3281.37,524.69 -7120.98,1138.44 -9961.49,46.49 -659.16,-344.55 -1340.24,-645.53 -2034.54,-911.95 354.59,-1657.84 2733.34,-3771.93 5245.9,-6004.9 622.12,-552.9 1252.26,-1112.91 1890.93,-1703.28l16.61 -15.01c5.45,-4.97 10.76,-10.02 15.99,-15.14 36.2,-33.5 72.42,-67.09 108.67,-100.8 1599.91,-1487.48 3423.59,-3958.03 4196,-6411.65 613.22,-1947.99 579.73,-3899.34 -685.33,-5415.27 -1489.6,-1785 -3410.31,-1894.2 -5330.95,-1228.68 -1782.76,617.73 -3546.8,1921.04 -4909.99,3106.02 -1502.14,1305.75 -2823.17,2862.14 -4256.07,4550.31 -898.51,1058.59 -1841.83,2169.94 -2895.03,3294.98l4.96 -16.45c570.64,-1890.89 1196.74,-3965.53 1642.68,-5656.37 620.61,-2353.1 154.64,-4034.17 -811.33,-5036.44 -447.43,-464.26 -998.85,-778.93 -1600.2,-945.54 -401.36,-111.19 -823.6,-156.07 -1250.16,-135.07 585.43,-1552.11 1135.33,-3098.93 1576.4,-4434.88 520.52,-1576.58 902.19,-2895.91 1031.2,-3639.15 444.46,-2560.55 -59.43,-4445.43 -1026.8,-5613.16 -509.2,-614.66 -1146.22,-1031.8 -1845.96,-1247.77 -151.65,-46.81 -306.02,-83.97 -462.42,-111.48 198.31,-1236.98 -190.62,-2501.67 -974.42,-3475.95 -507.23,-630.5 -1181.85,-1141.94 -1970.98,-1447.11 -789.69,-305.38 -1690.44,-403.5 -2648.39,-206.92 -1587.2,325.69 -3328.1,1464.73 -4949.63,3831.34 -847.43,-411.61 -1658.36,-645.27 -2485,-608.26 -1024.46,45.85 -2022.07,498.83 -3067.64,1527.95l-97.45 95.9c-2530.37,2490.21 -8711.94,8573.65 -11759.71,13546.28 -765.06,1248.24 -1509.06,2375.74 -2284.12,3550.33 -1132.79,1716.71 -2330.7,3532.2 -3679.08,5833.36 126.76,-927.62 192.88,-1858.16 192.78,-2764.49 -0.25,-2322.08 -437.6,-4498.76 -1402.3,-6089.51 -621.76,-1025.27 -1417.92,-1724.57 -2227.75,-2094.31 -594.77,-271.55 -1201.11,-369.46 -1762.01,-293.42 -589.51,79.93 -1122.67,346.48 -1539.14,800.16 -408.83,445.34 -697.67,1066.23 -803.01,1860.03 -145.03,1092.99 -140.11,1898.87 -135.71,2618.2 7.08,1156.68 12.66,2068.23 -721.96,3682.17 -158.51,348.26 -353.4,711.32 -560.93,1097.94 -660.95,1231.31 -1445.74,2693.34 -2030.51,5507.23 -639.55,3077.58 -1479.37,4980.15 -2243.29,6710.76 -1129.53,2558.88 -2099.74,4756.84 -2099.74,9646.49 0,2844.93 579.12,5712.02 1159.46,8585.23 1362.71,6746.55 2732.48,13528.07 -3860.77,19855.99 -244,234.71 -251.52,622.8 -16.81,866.8 234.71,244.01 622.8,251.53 866.8,16.82 7077.03,-6792.23 5640.48,-13904.32 4211.35,-20979.73 -565.93,-2801.8 -1130.65,-5597.68 -1130.65,-8345.11 0,-4634.33 921.4,-6721.71 1994.09,-9151.85 787.27,-1783.49 1652.76,-3744.23 2320.13,-6955.67 548.27,-2638.23 1287.7,-4015.77 1910.44,-5175.89 210.38,-391.93 407.95,-759.99 594.56,-1169.96 846.71,-1860.22 840.41,-2889.68 832.41,-4196.01 -4.13,-678.38 -8.8,-1438.37 126.11,-2454.94 69.81,-526.08 245.9,-920.87 490.87,-1187.71 216.55,-235.9 493.53,-374.48 799.58,-415.97 334.69,-45.38 709.45,18.97 1089.68,192.57 601.28,274.52 1203.59,812.17 1689.9,1614.09 842.45,1389.17 1224.39,3343.11 1224.61,5455.6 0.26,2296.57 -454.29,4764.61 -1263.04,6901.81 -191.9,361.09 -379.2,715.63 -565.78,1068.81 -1876.89,3552.8 -3683.16,6971.89 -5799.9,9088.64 -240.03,240.03 -240.03,629.19 0,869.21 240.02,240.03 629.18,240.03 869.21,0 2241.43,-2241.42 4092.53,-5745.39 6016.01,-9386.37 189.88,-359.44 380.46,-720.18 569.09,-1075.59 11.55,-19.12 22.14,-39.07 31.71,-59.76 270.15,-508.72 535.97,-1005.66 789.68,-1471.2 1950.36,-3578.92 3576.97,-6044 5086.8,-8332.1 799.48,-1211.61 1566.93,-2374.64 2308.13,-3583.95 2969.03,-4844.16 9073.58,-10851.79 11572.42,-13310.97l97.45 -95.9c809.12,-796.4 1541.04,-1145.16 2260.85,-1177.38 556.05,-24.89 1133.48,133.22 1751.95,417.43 -1146.62,1723.46 -2447.36,3458.11 -3752.89,5199.17 -2590.6,3454.85 -5199.89,6934.6 -6680.46,10380.82l-6199.64 14430.62c-133.93,311.63 10.12,672.85 321.75,806.78 311.62,133.94 672.85,-10.12 806.78,-321.75l6199.64 -14430.62c1429.07,-3326.35 3989.51,-6740.96 6531.6,-10131.11 1420.62,-1894.51 2835.62,-3781.58 4047.87,-5638.61 76.79,-52.1 142.89,-122.45 191.06,-209.08 33.84,-60.86 56.17,-124.99 67.79,-189.9 1467.36,-2234.04 2989.96,-3283.55 4341.27,-3560.84 714.23,-146.56 1380.93,-75.28 1961.66,149.29 581.29,224.79 1080.16,603.93 1457.14,1072.53 601.76,748.01 888.03,1717.48 695.84,2640.78 -3.32,15.95 -5.98,31.89 -8,47.78 -161.46,22.55 -323.24,54.72 -484.66,96.57 -1433.13,371.56 -2838.95,1511.05 -3721.85,3439.83 -376.84,823.27 -775.62,1598.68 -1191.78,2407.87 -648.6,1261.19 -1339.06,2603.77 -2103.25,4437.67 -862.18,2069.04 -2239.12,5022.76 -3881.53,8545.98 -2213,4747.22 -4909.65,10531.93 -7535.01,16718.38 -132.61,311.62 12.52,671.77 324.15,804.38 311.63,132.61 671.77,-12.52 804.38,-324.15 2589.77,-6102.59 5298.06,-11912.26 7520.61,-16679.95 1638.34,-3514.48 3011.87,-6460.9 3900.74,-8594.01 748.44,-1796.08 1424.73,-3111.12 2060.02,-4346.44 415.39,-807.69 813.43,-1581.68 1215.8,-2460.68 715.96,-1564.08 1813.53,-2477.12 2915.07,-2762.71 521.68,-135.24 1043.79,-128 1521.8,19.54 472.63,145.87 907.22,432.83 1260.08,858.77 756.68,913.39 1138.99,2455.83 762.67,4623.9 -117.32,675.88 -483.59,1933.77 -987.97,3461.45 -518.62,1570.82 -1170.7,3390.48 -1842.38,5138.87 -1234.5,498.07 -2355.67,1566.93 -2919.45,3193.88 -1980.36,5715.03 -5519.21,14307.34 -8137.4,20664.36l-62.31 151.27c-128.62,312.96 20.81,670.96 333.77,799.58 312.96,128.62 670.95,-20.81 799.58,-333.77l62.3 -151.27c2620.07,-6361.56 6161.45,-14960.01 8161.4,-20731.59 529.26,-1527.34 1670.97,-2410.06 2822.61,-2633.62 446.58,-86.68 890.92,-74.45 1296.03,37.79 393.86,109.12 753.44,313.57 1043.15,614.17 691,716.98 1003.89,1997.03 508.78,3874.31 -432.19,1638.67 -1060.46,3720.5 -1633.07,5617.95 -169,560.04 -331.82,1099.51 -554.25,1847.25 -51.47,173.03 -103.22,347.13 -155.17,522.09zm14250.83 17931c117.58,-192.73 56.66,-444.29 -136.07,-561.87 -192.72,-117.58 -444.29,-56.65 -561.87,136.07 -1344.61,2190.46 -3239.81,3810.78 -5390.63,4924.52 -2443.33,1265.22 -5214.74,1878.26 -7886.86,1932.14 -225.43,4.42 -404.61,190.76 -400.19,416.2 4.42,225.43 190.76,404.61 416.2,400.19 2791.38,-56.28 5688.53,-697.75 8245.42,-2021.78 2276.77,-1178.95 4285.24,-2897.92 5714,-5225.47zm-1307.27 11287.67c-142.33,175.05 -115.81,432.35 59.24,574.68 175.04,142.33 432.34,115.8 574.67,-59.24 1236.47,-1513.2 2530.54,-4274.76 3559.8,-7076.62 1208.09,-3288.73 2059.73,-6663.67 2028.8,-8154.2 -4.41,-225.44 -190.76,-404.61 -416.19,-400.19 -225.44,4.41 -404.61,190.75 -400.2,416.19 28.97,1395.93 -802.48,4648.83 -1980.78,7856.46 -1003.08,2730.62 -2251.45,5406.3 -3425.34,6842.92zm9279.17 -9036.6c155.59,-163.55 149.15,-422.29 -14.4,-577.87 -163.55,-155.59 -422.28,-149.15 -577.87,14.4 -623.6,653.27 -1907.24,2947.19 -2702.98,6395.41 -510.1,2210.46 -828.2,4909.89 -655.55,7976.81 12.38,225.44 205.18,398.16 430.61,385.78 225.44,-12.37 398.16,-205.17 385.78,-430.61 -167.81,-2980.94 141.01,-5603.11 636.33,-7749.49 758.6,-3287.28 1933.93,-5423.44 2498.08,-6014.43zm13173.99 -5796.05c115.12,755.79 117.04,1555.44 118.97,2382.64 1.33,569.96 2.73,1152.02 37.67,1747.4 -314.25,139 -692.01,344.84 -1032.36,626.99 -45.86,38.01 -91.16,77.48 -135.7,118.45 -114.32,-170.42 -245.56,-334.14 -397.08,-496.28 -825.13,-882.93 -1580.26,-1334.61 -2290.25,-1759.28 -291.37,-174.28 -574.07,-343.38 -847.75,-540.43 1466.02,-535 3292.11,-1225.62 4546.5,-2079.49zm9380.59 -9363.12c-205.9,-610.31 -422.19,-1191.91 -647.95,-1730.7 -305.04,-728.05 -851.71,-1683.02 -1434.57,-2701.2 -611.61,-1068.43 -1264.33,-2208.66 -1682.53,-3161.74 168.01,-294.39 423.33,-495.36 716.96,-602.37 278.67,-101.56 593.6,-123.27 906.88,-64.75 322.42,60.22 639.84,203.92 912.93,431.51 629.13,524.28 805.24,1238.53 853.39,2020.05 135.62,2201.39 249.66,4052.32 374.89,5809.2zm796.53 12079.58c-252,689.92 -756.88,1352.37 -1652.39,2048.91l-6.07 -43.55c-511.15,-3636.74 -1153.91,-6541.54 -2288.82,-9222.95 -1084.85,-2563.15 -2611.35,-4901.86 -4890.96,-7452.81 -312.67,-658.23 -658.09,-1564.05 -902.9,-2454.61 -200.76,-730.34 -333.26,-1442.76 -320.87,-1981.24 17.86,-776.22 315.72,-1338.78 746.29,-1686.52 276.94,-223.69 612.11,-363.44 965.09,-417.65 360.96,-55.45 736.77,-22.33 1086.31,100.86 576.11,203.03 1086.29,653.9 1347.32,1360.13 420.66,1138.09 1225.89,2544.74 1971.85,3847.85 565.74,988.28 1096.36,1915.2 1367.33,2561.92 556.79,1328.87 1051.9,2917.11 1471.2,4544.23 341.37,1324.78 633.72,2677.34 869.27,3940.08 272.11,1458.85 722.62,3526.83 237.35,4855.35zm-2747.81 3182.84c0.89,12.6 2.21,25.18 3.89,37.74 110.79,1090.14 105.69,1979.6 -122.03,2739.09 -284.66,949.4 -946.41,1749.06 -2217.67,2575.4 -929.03,603.88 -1808.94,1210.3 -2646.93,1850.15 -566.5,432.55 -1116.17,881.82 -1651.76,1357.58 -222.63,-1019.86 -410.27,-2096.73 -569.58,-3156.62 -217.39,-1446.41 -379.99,-2835.26 -507.03,-4010.12 -48.14,-445.22 -107.98,-828.29 -194.39,-1172.94 102.55,-156.08 236.75,-295.07 383.24,-416.51 126.05,-104.48 258.93,-194.44 388.99,-270.83 77.39,474.37 189.03,957.2 350.35,1449.08 104.76,322.25 450.92,498.55 773.17,393.78 322.24,-104.76 498.54,-450.92 393.78,-773.16 -463.43,-1413.05 -466.7,-2800.95 -469.78,-4119.3 -3.08,-1318.09 -6.04,-2572.04 -424.27,-3793.2 -337.06,-984.19 -767.06,-2017.85 -1199.81,-2949.13 -501.87,-1080 -1011.27,-2030.34 -1387.59,-2613.86 -176.33,-273.45 -490.4,-788.98 -771.38,-1266.29 -237.71,-403.78 -458.32,-790.6 -562.31,-996.97 -389.96,-773.92 -356.19,-1597.78 -53.16,-2227.97 139.02,-289.11 334.15,-534.6 569.22,-710.76 219.9,-164.8 477.7,-267.88 758.3,-285.61 531.5,-33.6 1163.81,236.35 1821.87,955.48 2370.55,2590.53 3924.7,4923.14 5006.88,7479.97 1085.46,2564.56 1705.04,5377.12 2202.37,8915.6 49.86,354.74 92.59,690.6 125.63,1009.4z"/></g><text x="0" y="100015" fill="#000000" font-size="5px" font-weight="bold" font-family="'Helvetica Neue', Helvetica, Arial-Unicode, Arial, Sans-serif">Created by Oleksandr Panasovskyi</text><text x="0" y="100020" fill="#000000" font-size="5px" font-weight="bold" font-family="'Helvetica Neue', Helvetica, Arial-Unicode, Arial, Sans-serif">from the Noun Project</text></svg>