<svg xmlns="http://www.w3.org/2000/svg" xmlns:xlink="http://www.w3.org/1999/xlink" version="1.1" x="0px" y="0px" viewBox="0 0 100 125" style="enable-background:new 0 0 100 100;" xml:space="preserve"><g><path d="M75.5,44.9l-12.1-2.4L76,32.3c0.4-0.3,0.6-0.8,0.7-1.2s-0.1-1-0.4-1.4l-4.2-5c-0.5-0.6-1.2-0.7-1.9-0.4l-11.4,5.3   c-0.5,0.2-1.1,0.3-1.7,0.1l-5.2-1.5c-0.6-0.2-1.2-0.1-1.8,0.1l-10.1,4.3c-0.1-0.2-0.2-0.5-0.3-0.7c-0.5-1-1.4-1.8-2.5-2.2   c-1.1-0.4-2.4-0.2-3.4,0.4l-8.7,5.1c-1.1,0.7-1.9,1.8-2,3.1s0.3,2.6,1.2,3.5c0.6,0.6,2.5,2.2,4.7,4l-8.7,8.6   c-0.3,0.3-0.4,0.7-0.2,1.1c0.2,0.4,0.5,0.6,0.9,0.6h4.2l-9.8,8.2c-0.3,0.3-0.4,0.7-0.3,1.1c0.1,0.4,0.5,0.7,0.9,0.7h1.8l-4.6,5.3   c-0.3,0.3-0.3,0.7-0.1,1.1S13.6,73,14,73h3.4l-5.3,10.6c-0.2,0.3-0.1,0.7,0,1S12.7,85,13,85h44c0.3,0,0.6-0.1,0.7-0.3   c0.2-0.2,0.3-0.5,0.3-0.8l-0.8-8.1c0.3,0.1,0.6,0.1,0.9,0.1c0.3,0,0.6-0.1,0.9-0.2c0.9-0.3,1.6-1.2,1.9-2.3c0.3-1,0.2-2.2-0.2-3.3   c-0.4-1.1-1.1-2-1.9-2.7c0.2-0.2,0.2-0.5,0.2-0.8c-0.1-0.5-0.7-0.9-1.2-0.7c-0.6,0.1-1.2,0.3-1.8,0.4v-3.8l2.6,1.3   c0.4,0.2,0.8,0.1,1.1-0.1c0.3-0.3,0.4-0.7,0.3-1c-1.1-3.7,0-5.8,1.2-6.9c0.5-0.5,1.3-0.8,2.1-0.9L73.5,54c0.8-0.1,1.4-0.6,1.7-1.4   l1.6-5.7c0.1-0.5,0.1-0.9-0.2-1.4C76.3,45.2,75.9,45,75.5,44.9z M70.7,26.2l1.7,2c-1.6,0.5-3-0.3-3.8-1.1L70.7,26.2z M25.7,40.3   c-0.5-0.5-0.7-1.1-0.6-1.8c0.1-0.7,0.5-1.2,1.1-1.6l8.7-5.1c0.5-0.3,1.2-0.4,1.8-0.2c0.6,0.2,1,0.6,1.2,1.1   c0.1,0.2,0.2,0.4,0.2,0.6c1,3.1,2.9,10.9,2.9,12.7c0,0.5-0.7,1.5-1.9,2.1c-0.6,0.3-2.1,1-3.6,0C32.6,46.2,26.7,41.3,25.7,40.3z    M14.6,83l5.3-10.6c0.2-0.3,0.1-0.7,0-1S19.3,71,19,71h-2.8l4.6-5.3c0.3-0.3,0.3-0.7,0.1-1.1S20.4,64,20,64h-1.3l7.9-6.6   c3.1,3.7,11.2,11.5,23.9,11.5c1.2,0,2.4-0.1,3.7-0.2c-0.5,1.1-0.5,2.5,0,3.9c0.2,0.6,0.5,1.2,0.9,1.6l0.9,8.8H14.6z M56.5,68.9   c0.1,0,0.2,0,0.3,0c0.3,0,0.7,0.2,0.8,0.3c0.5,0.4,0.9,1,1.2,1.7c0.3,0.7,0.3,1.5,0.2,2.1c-0.1,0.3-0.3,0.8-0.7,0.9   c-0.7,0.2-1.8-0.6-2.3-2S55.9,69.1,56.5,68.9z M73.2,52.1L63,52.9c-1.3,0.1-2.5,0.6-3.3,1.5c-1.3,1.2-2.5,3.4-2.1,6.8l-2.2-1.1   c-0.3-0.2-0.7-0.1-1,0C54.2,60.3,54,60.7,54,61v5.7c-15.1,1.8-24-8.1-26.5-11.3c0,0,0,0,0,0c0,0,0,0,0,0c-0.4-0.5-0.6-0.8-0.6-0.9   C26.7,54.2,26.3,54,26,54h-2.6l7.1-7.1c1.4,1.1,2.9,2.2,3.9,2.9c0.8,0.6,1.8,0.8,2.8,0.8c0.9,0,1.9-0.3,2.9-0.8   C41.8,49,43,47.4,43,46c0-1.8-1.4-7.8-2.5-11.4l10.3-4.4c0.1-0.1,0.3-0.1,0.4,0l5.2,1.5c1,0.3,2.1,0.2,3.1-0.2l7.2-3.3   c1,1.1,2.7,2.4,4.7,2.4c0.7,0,1.5-0.2,2.3-0.6l0.8,1L61.2,41.6c-0.5,0.4-0.7,1-0.5,1.5s0.6,1,1.2,1.1l12.9,2.6L73.2,52.1z"/><path d="M94.2,46l-12-3c-0.5-0.1-1.1,0.2-1.2,0.7c-0.1,0.5,0.2,1.1,0.7,1.2l12,3c0.1,0,0.2,0,0.2,0c0.4,0,0.9-0.3,1-0.8   C95.1,46.7,94.8,46.2,94.2,46z"/><path d="M90.8,20.4c-0.3-0.5-0.9-0.6-1.4-0.2l-10,7c-0.5,0.3-0.6,0.9-0.2,1.4c0.2,0.3,0.5,0.4,0.8,0.4c0.2,0,0.4-0.1,0.6-0.2l10-7   C91,21.5,91.1,20.9,90.8,20.4z"/><path d="M81,36.2c0.1,0.5,0.5,0.8,1,0.8c0.1,0,0.1,0,0.2,0l12-2c0.5-0.1,0.9-0.6,0.8-1.2c-0.1-0.5-0.6-0.9-1.2-0.8l-12,2   C81.3,35.1,80.9,35.6,81,36.2z"/><path d="M48,35c-1.7,0-3,1.3-3,3s1.3,3,3,3s3-1.3,3-3S49.7,35,48,35z M48,39c-0.6,0-1-0.4-1-1s0.4-1,1-1s1,0.4,1,1S48.6,39,48,39z"/></g><text x="0" y="115" fill="#000000" font-size="5px" font-weight="bold" font-family="'Helvetica Neue', Helvetica, Arial-Unicode, Arial, Sans-serif">Created by April Yang</text><text x="0" y="120" fill="#000000" font-size="5px" font-weight="bold" font-family="'Helvetica Neue', Helvetica, Arial-Unicode, Arial, Sans-serif">from the Noun Project</text></svg>