<?xml version="1.0" encoding="UTF-8"?>
<svg width="1200pt" height="1200pt" version="1.1" viewBox="0 0 1200 1200" xmlns="http://www.w3.org/2000/svg">
 <path d="m269.1 269.91 60.949-157.84c7.2109-17.914 34.094-48.395 78.926-39.539l163.25 28.727 161.45 28.727c44.785 7.2109 60.949 44.797 60.949 64.559l3.6133 168.55c19.715 7.2109 37.68 30.684 34.078 53.844l-25.129 134.68c-3.6484 19.68-23.316 33.984-32.375 37.586l-17.809 98.641c-16.176 10.715-30.527 17.914-48.539 14.305-17.867-3.6016-35.785-16.164-44.746-30.48l17.965-95.016-86.125-8.9648-104.05-18.012-102.24-17.914-84.324-21.516-16.223 95.137c-12.516 10.703-33.984 17.914-51.996 14.305-17.867-3.6016-28.68-14.305-41.195-30.48l17.914-98.641c-7.1641-7.2109-21.469-26.867-17.914-46.645l23.316-136.32c3.5039-21.527 28.68-37.691 50.258-37.691m53.793-55.605 17.867-46.645c18.012-50.242 75.406-48.395 130.97-37.691l91.477 16.164 93.238 16.164c53.797 10.715 107.65 26.879 109.5 78.875v50.258c0 30.469-17.965 37.68-50.242 30.469l-175.86-39.422-181.07-23.363c-32.328-3.6133-46.633-16.164-35.883-44.809" fill-rule="evenodd"/>
 <path d="m252.93 650.26-98.641-18.012c-87.926 19.762-154.29 59.098-154.29 104 0 44.879 32.328 57.445 71.762 68.258 39.48 10.715 206.28 64.465 367.74 75.266 48.395 59.219 89.688 87.938 147.09 111.3 46.598 19.57 50.207 44.699 50.207 59.113 0 25.129-14.363 41.195-71.809 78.863h170.4c25.176-35.82 37.738-50.148 37.738-78.863s-17.914-60.961-48.492-84.238c-32.184-23.461-84.238-52.094-147.09-73.621 84.371 7.2109 134.57 0 197.32 0 62.855 0 116.62 7.2109 148.95 10.715 34.031 5.4609 75.266 12.562 102.14 18.023 25.176 5.3516 61.105 28.727 61.105 66.406 0 28.633-35.93 73.414-77.172 141.57h173.91c7.2461-53.746 16.211-95.039 16.211-139.82 0-114.79-109.45-154.25-150.7-157.84-41.184-3.707-109.39-10.715-184.77-10.715-73.512 0-163.2 7.0078-322.84-3.6133 8.9023-7.2109 84.324-68.258 184.77-82.57l-116.57-21.516c-86.125 10.715-139.92 51.996-172.21 98.543 0 0-130.97-12.562-156.04-15.973-23.316-3.6016-104.05-16.164-130.97-21.719-25.078-5.2578-30.48-14.219-30.48-33.984 0-21.516 12.555-37.68 132.71-89.578" fill-rule="evenodd"/>
</svg>
