<svg xmlns="http://www.w3.org/2000/svg" xmlns:xlink="http://www.w3.org/1999/xlink" version="1.1" x="0px" y="0px" viewBox="0 0 50 62.5" style="enable-background:new 0 0 50 50;" xml:space="preserve"><style type="text/css">
	.st0{fill:none;stroke:#000000;stroke-width:0.1;stroke-miterlimit:10;}
	.st1{stroke:#000000;stroke-width:0.25;stroke-miterlimit:10;}
	.st2{fill:none;stroke:#000000;stroke-width:0.15;stroke-miterlimit:10;}
</style><path d="M21.5,10.7c0,0-0.1,1.5-1.3,2.2s0.3-0.3,0-1.1c0,0-0.4,1.4-2.2,1.8c0,0,0.8-1,1.1-1.8c0,0-1.9,3-5.2,3.7  c0,0,2.5-0.2,3.5-4.3c0,0-0.6,1.7-3.3,2.6c0,0,0.3,0.1,1.1-1.4c0,0-0.1,0.2-0.8,0.4c0,0,0.2-0.3,0.4-1c0,0-0.8,0.7-1.5,0.7  c0,0,0.4-0.1,0.6-0.7c0.2-0.6-1.1-0.5-1.1-0.5s-1-0.1-1.3,1.5c0,0,0,1.9-0.4,2.2c0,0-0.9-1.4-0.4-3.7l0.4-1.4l-0.4,0.2  c0,0,0.1-0.7,0.4-0.8c0,0-0.5,0-0.8,0.3c0,0,1.4-2.5,3-2.9c0,0,0.4-0.6,0.8-0.7c0.3-0.1,0-0.2-0.2-0.2l1.2-0.6c0,0-0.3,0-1,0  c-0.7,0,2-1,4-0.9c0,0,1.3,0,2,0c0.7,0,3.7,0.2,6,1.3s3.8,2.9,4.2,6.4c0,0,0.3,3.8-1,6.8c0,0-0.8,3.5-0.3,5.3l-1,0.4l-0.3-1.4  c0,0,0.1,0.3,0.4-0.3c0.3-0.6,0.6-2.9,0.8-4.2c0.1-1.3-0.1-1.9-0.7-1.8c-0.6,0.1-1,0.7-1.2,1.8c-0.1,1.1-0.2,1.2-0.2,1.2l-0.4-0.4  c0,0,0,0.4,0.1,0.6c0,0-0.5-0.1-0.7-0.7l-0.4,0.8l0.2-4.8L25,15.8c0,0,0.8-1.7,0-3.5c0,0-1-1.4-1.4-1.7l-0.2,0.4  C23.4,11.1,22.4,10,21.5,10.7z"/><path class="st0" d="M10.9,14.8c0,0,0.2,2.8,0.7,4c0,0,0.3,0.7,0.1,1.2s-0.2,1.7,0,3.1c0,0,1.5-1.1,2-1.6c0.5-0.4,1.1-1.2,3.1,0  c0,0,1.1,0.7,1.4,0.7s0.8,0,2.4,1.1c0,0,1.1,1,1.7,1.2c0.7,0.2,1.6,0.3,2.1,0.3c0,0-2.7,2.6-2.8,3.8c0,0-0.2-1.3-0.6-1.7  c-0.4-0.4-2.6-3-3-3.2c0,0-0.6-0.1-0.6,0.3c0,0-1.2-1.6-1.5-1.7c-0.3,0-1,0.3-0.6,1.2s2.3,3.8,2.3,3.8l0.2,2.6c0,0-0.7-2.2-1.1-2.3  s-2.6,0.5-2.6,0.5l-1,0.7c0,0,0.9-1.1,1.4-1.4c0.5-0.3,1.7-0.9,1.5-1.2c-0.1-0.3-1.1-0.3-1.8,0s-2.2,1.5-2.2,1.5l0.2-0.6l3.1-2.4  c0,0,0.4-0.7-0.5-0.8l-1.4,0.8l-0.8-0.2c0,0,0.9-0.6,1.6-1.2c0,0,1.3-0.8,0.7-1.4c0,0-0.3-0.2-1.8,0.6s-1.5,0.8-1.5,0.8l-2.7,2.7  c0,0-0.2,0.1-0.2,1.1c0,1-0.5,4.5-0.5,4.5S8,32.2,8.9,33.3c0,0,0.5,2.8,0.6,4.9c0,2.1-0.5,3.4-0.5,3.4s-0.7,2.2-1.2,2.8h5.8  c0,0,0-1.8,0.2-2.3c0,0,0.2,1.6,0.1,2.3h5.5c0,0-0.2-4-0.1-4.6c0.1-0.6,1.1-2.5,1.1-2.5s1.6-5,1.7-5.5s-0.4-1.6-0.5-2.4"/><path class="st0" d="M11.8,23.1c0,0-3,1.8-3.6,2.2c0,0-0.1,1.9-1.2,3.4c0,0,0,0.6,0.5,0.9c0.6,0.3,0.1,1.2,0.1,1.2s-0.4,1.3,0.2,1.8  c0,0,0.9,0.6,1.2,1.5"/><path class="st0" d="M22.3,32.4c3.6-0.6,6.1-3.3,6.1-3.3c-0.8-1.2-1.1-6-1.1-6s0-0.3-0.4-0.4c-0.4-0.1-0.6,0.4-0.6,0.4  c-0.1,3.6-1.1,5.3-2.1,6.1s-1.9,2.1-1.9,2.1"/><path class="st0" d="M17.4,24c0,0,2.1,2.8,2.2,3.1s0.8,3.9,0.8,3.9l-0.3,0.8"/><polyline class="st0" points="17.9,30.2 18.2,31.1 17.9,32.1 "/><path class="st0" d="M12.9,29.2c0,0,0.2,1.1,0.3,1.9c0.1,0.4,0.1,0.7,0.1,0.8c0,0,0.7,1.1,1,1.7c0,0,0.7-1.5,0.4-1.9  c-0.3-0.4-1.2-0.6-1.2-0.6h-0.2"/><path class="st0" d="M13,30c0,0,1.9-0.7,2.5-0.4c0,0,0.8,0.6,0.7,1.6L15,29.9c0,0-0.8-0.2-1.9,0.3"/><path class="st0" d="M16.3,31.2c0,0,0.2,0.2,0,0.9"/><path class="st1" d="M16.5,17.8c0,0,0.1,0.4,0.4,0.5c0.3,0.1,2-0.9,2-0.9l2.5,0.4c0,0-2.2-0.9-2.5-0.9C18.7,17,16.5,17.8,16.5,17.8z  "/><path class="st2" d="M17.6,18.8c0,0,0.3-0.1,0.4,0c0.2,0.1,1.1,0.6,1.5,0.5c0.4,0,0.9-0.2,1.3-0.6"/><path class="st2" d="M12,19.2c0,0,0.4,0.4,0.9,0.3c0.5-0.1,1.2-0.5,1.2-0.5l0.3,0.1"/><path d="M14.7,18.5c0,0,0.2-0.1-0.4-0.6c0,0-0.8-0.7-1.3-0.6s-1.6,0.6-1.6,0.6l0.1,0.2l1.4-0.2c0,0,1.5,0.4,1.6,0.5"/><path class="st2" d="M14.7,18.7c0,0,0.3,1.5,0,2.2"/><path class="st0" d="M12.1,27.9c0,0-0.3,0-0.3,1.3c0,1.3-0.2,2.4-0.2,2.4"/><path class="st0" d="M12.7,24.7c0,0-0.7-0.2-1.1,0c-0.4,0.2-1.9,1.6-1.9,1.6s-0.2,0.2-0.2,0.5c0,0.4-0.3,4.1-0.3,4.1"/><path class="st0" d="M13.6,24.9c0,0-2.7,1.3-2.9,1.9c-0.1,0.6-0.4,4-0.4,4"/><path class="st0" d="M14.2,33.6c0,0-0.8,1.9-0.7,3.8s0.1,3.3,0.2,4.6"/><path d="M22.1,32c0,0,3.2-0.5,6.3-3c0,0,0.6,3.7,4.1,4.2c3.5,0.5,9,0.8,10.1,3.3c1,2.6,0.3,7.6,0.3,7.6l-23.6,0.2c0,0-0.7-3-0.1-4.5  c0.7-1.5,1.2-3.4,1.4-4C20.9,35.3,22.1,32.2,22.1,32z"/><text x="0" y="65" fill="#000000" font-size="5px" font-weight="bold" font-family="'Helvetica Neue', Helvetica, Arial-Unicode, Arial, Sans-serif">Created by Melissa Mellor </text><text x="0" y="70" fill="#000000" font-size="5px" font-weight="bold" font-family="'Helvetica Neue', Helvetica, Arial-Unicode, Arial, Sans-serif">from the Noun Project</text></svg>