<svg xmlns="http://www.w3.org/2000/svg" version="1.1" viewBox="-5.0 -10.0 110.0 135.0">
 <g fill-rule="evenodd">
  <path d="m72.566 47.32c0.41797-0.375 0.8125-0.72266 1.1953-1.082 0.74609-0.69531 1.5352-1.332 2.4141-1.8594 0.59375-0.35547 1.1406-0.80078 1.6914-1.2227 0.89062-0.6875 1.8672-1.207 2.8906-1.6602 0.24609-0.10938 0.48438-0.24219 0.71094-0.38672 0.37109-0.23828 0.80078-0.19531 1.0625 0.13672 0.26172 0.32812 0.19922 0.76172-0.10938 1.0703-0.19922 0.19531-0.37109 0.42578-0.52734 0.66016-0.90625 1.3906-1.8867 2.7148-3.0898 3.8789-1.0078 0.97266-1.9375 2.0195-2.9258 3.0156-0.76953 0.77734-1.5859 1.5039-2.3477 2.2852-1.2383 1.2695-2.4336 2.5859-3.6836 3.8398-0.73047 0.73047-1.5391 1.3789-2.3047 2.0742-0.84375 0.76953-1.7188 1.5078-2.4375 2.4062-0.046875 0.058594-0.089844 0.11328-0.16016 0.20313 0.23438 0.10156 0.45313 0.19531 0.67188 0.28125 1.9922 0.80078 3.9727 1.625 5.8711 2.6328 1.9414 1.0312 3.9062 2.0195 5.8477 3.0469 1.6719 0.88281 3.3281 1.7852 4.9844 2.6992 0.35547 0.19531 0.68359 0.45703 1.0039 0.71094 0.85156 0.66797 1.6953 1.3516 2.5469 2.0234 0.18359 0.14453 0.38672 0.26953 0.57812 0.40234 0.48828 0.33984 0.5 0.92578 0.039062 1.2969-0.29688 0.24219-0.60547 0.3125-0.98047 0.22266-1.3281-0.3125-2.625-0.72656-3.8945-1.2227-0.875-0.33984-1.7656-0.63672-2.6367-0.98047-0.40625-0.16016-0.78906-0.38281-1.1797-0.58984-0.90625-0.47656-1.8047-0.97266-2.7188-1.4375-0.74219-0.37891-1.4805-0.78906-2.2578-1.0781-1.3477-0.50391-2.6367-1.1367-3.9336-1.75-0.6875-0.32422-1.3945-0.61328-2.0938-0.91406-0.058594-0.023438-0.11719-0.042969-0.20312-0.074219 0.0625 0.34766 0.13281 0.66797 0.17188 0.99219 0.12109 0.98828 0.22656 1.9805 0.33984 2.9727 0.14453 1.2812 0.34766 2.5586 0.42969 3.8438 0.17578 2.7656 0.28125 5.5352 0.42969 8.3008 0.082031 1.5156 0.15234 3.0273 0.39844 4.5312 0.14844 0.91016 0.23438 1.832 0.49609 2.7188 0.12891 0.44141 0.32031 0.86719 0.44922 1.3086 0.10156 0.34766 0.19531 0.71094 0.22266 1.0703 0.039062 0.55469-0.39844 0.89062-0.94531 0.80469-0.35547-0.058594-0.625-0.24219-0.83594-0.51953-1.082-1.4141-2.1562-2.8359-2.918-4.4609-0.015625-0.03125-0.035156-0.0625-0.058594-0.10938-0.32812 0.18359-0.64453 0.37891-0.98047 0.53516-0.71875 0.33203-1.4336 0.66406-2.1719 0.95312-0.56641 0.22266-1.1797 0.22656-1.7812 0.17578-0.59766-0.050781-0.92969-0.72266-0.55859-1.1914 0.85547-1.0859 1.6055-2.2617 2.6328-3.207 0.57422-0.53125 1.1055-1.1094 1.6523-1.6719 0.058594-0.058594 0.10547-0.14453 0.12109-0.22656 0.039062-0.21484 0.082031-0.43359 0.085937-0.65234 0.007813-1.0781 0.050781-2.1562-0.003906-3.2305-0.089844-1.7578-0.25781-3.5078-0.52344-5.25-0.12109-0.78906-0.19922-1.5898-0.22266-2.3867-0.035156-1.2852-0.30469-2.5273-0.60156-3.7695-0.20703-0.86719-0.44922-1.7305-0.70312-2.5859-0.125-0.41797-0.31641-0.81641-0.49219-1.2188-0.027344-0.0625-0.13672-0.10547-0.21484-0.12109-0.76953-0.19141-1.5508-0.33984-2.3008-0.57422-0.92188-0.28516-1.8242-0.64453-2.7305-0.98047-0.69922-0.25781-0.69531-0.26172-1.1914 0.30078-0.36328 0.41016-0.72266 0.83203-1.0977 1.2305-0.17578 0.1875-0.19141 0.37891-0.12891 0.60547 0.58984 2.1445 1.1875 4.2891 1.7617 6.4414 0.28516 1.0664 0.53906 2.1445 0.64063 3.2539 0.12891 1.4219-0.11719 2.7695-0.71094 4.0664-0.24219 0.53125-0.61328 0.96094-1.0508 1.3359-0.13281 0.11328-0.17188 0.22656-0.17969 0.39453-0.039062 0.74609-0.035156 1.5-0.15234 2.2305-0.11719 0.73828-0.39844 1.4453-0.98047 1.9727-0.31641 0.28906-0.69141 0.48828-1.1367 0.53125-0.0625 0.007813-0.14453 0.10547-0.16797 0.17578-0.16016 0.51953-0.42969 0.96094-0.86328 1.293-0.3125 0.23828-0.66406 0.39062-1.0547 0.39062-0.20312 0-0.28906 0.089844-0.38672 0.24219-0.3125 0.48438-0.65234 0.94531-1.207 1.1797-0.60156 0.25391-1.1992 0.21484-1.7891-0.046875-0.074219-0.03125-0.19141-0.050781-0.26172-0.015625-0.96094 0.46094-1.668 0.22656-2.3828-0.49609-0.29688-0.30078-0.52734-0.66406-0.79688-0.99219-0.035156-0.046875-0.11719-0.10547-0.16016-0.09375-0.86328 0.21484-1.5195-0.12891-2-0.8125-0.41406-0.59375-0.76953-1.2266-1.1523-1.8438-0.027344-0.042969-0.046875-0.089844-0.078125-0.14844-0.32422 0.13281-0.64844 0.21875-1 0.11719-0.45312-0.13281-0.82422-0.38672-1.0977-0.76562-0.59375-0.82812-0.92187-1.7617-1.0625-2.7617-0.023437-0.17188-0.074218-0.23047-0.24609-0.24609-0.42188-0.039062-0.78125-0.24219-1.0469-0.55469-0.78906-0.9375-1.3047-2.0156-1.5-3.2227-0.09375-0.59375 0.054687-1.1836 0.21875-1.7578 0.31641-1.0898 0.67578-2.168 0.96875-3.2656 0.36719-1.3555 0.68359-2.7266 1.0234-4.0898 0.22266-0.89453 0.43359-1.793 0.68359-2.6836 0.097656-0.35156 0.035156-0.57422-0.23047-0.83203-1.168-1.125-2.0547-2.4609-2.7812-3.9023-0.38672-0.76953-0.73828-1.5625-1.1133-2.3398-0.03125-0.066406-0.10938-0.14062-0.17969-0.15234-0.48047-0.10156-0.96094-0.22266-1.4453-0.26953-0.44531-0.042969-0.90625-0.035156-1.3555 0.003906-1.9961 0.17188-3.9648 0.0625-5.8945-0.52734-0.60156-0.18359-1.2266-0.28906-1.8438-0.39844-0.22656-0.039063-0.46875-0.019531-0.69922 0.011719-1.0547 0.13672-2.1016 0.30469-3.1562 0.43359-0.92188 0.11328-1.8477 0.078124-2.7617-0.0625-0.53125-0.082032-0.86328-0.45313-1-0.96875-0.11328-0.4375-0.16797-0.89063-0.27734-1.332-0.10156-0.40234-0.25781-0.79297-0.36328-1.1953-0.066406-0.25781-0.12109-0.53125-0.12109-0.79688 0.003906-0.87109 0.70312-1.6211 1.6719-1.4297 1.3711 0.27344 2.7461 0.1875 4.1172 0.039063 1.3281-0.14062 2.6602-0.16406 3.9961-0.11328 1.7891 0.070313 3.5742 0.16797 5.3398 0.46875 0.57031 0.097657 1.1367 0.21875 1.7031 0.32813 0.070312 0.015624 0.14062 0.023437 0.23828 0.042968-0.015625-0.074218-0.019531-0.12891-0.039063-0.17969-1.332-3.8945-1.8281-7.8984-1.582-12 0.19922-3.3281 0.89453-6.543 2.2344-9.6055 1.0508-2.4023 2.4453-4.5703 4.3906-6.3594 0.37109-0.34375 0.77344-0.65234 1.1719-0.96484 0.12109-0.097656 0.17188-0.19141 0.18359-0.34375 0.070312-0.90625 0.13672-1.8125 0.23828-2.7148 0.12109-1.082 0.5625-2.0938 0.77734-3.1523 0.25391-1.2461 0.80469-2.3555 1.4258-3.4336 0.88281-1.5391 2.1328-2.7266 3.7344-3.4922 0.64062-0.30469 1.3555-0.45703 2.0469-0.64844 0.62891-0.17578 1.2617-0.33984 1.8984-0.45312 0.87891-0.16016 1.7617-0.17188 2.6328 0.09375 0.61328 0.1875 1.2617 0.28516 1.8516 0.53125 0.51953 0.21484 0.98047 0.57422 1.4648 0.87891 0.078126 0.050782 0.14063 0.12891 0.20313 0.19922 0.32422 0.35938 0.65625 0.71094 0.96875 1.0781 0.18359 0.21484 0.34766 0.44922 0.49219 0.69141 0.066406 0.10938 0.125 0.17188 0.26562 0.18359 0.94922 0.078125 1.9023 0.11719 2.8477 0.25781 1.457 0.21484 2.8398 0.70313 4.1797 1.3125 0.35938 0.16406 0.62109 0.40234 0.59766 0.83203-0.019531 0.35938-0.35547 0.73438-0.77344 0.83594-0.46484 0.10938-0.93359 0.1875-1.4023 0.26562-0.80859 0.13281-1.5781 0.37891-2.3242 0.71094-0.40234 0.17578-0.80859 0.34375-1.2109 0.51953-0.070312 0.03125-0.14062 0.070313-0.24219 0.125 0.17969 0.26172 0.35547 0.50781 0.51953 0.75391 0.52734 0.79297 1.0625 1.5781 1.5742 2.3828 0.42578 0.67578 0.94922 1.2656 1.4805 1.8516 0.38672 0.42578 0.66016 0.90625 0.79297 1.4727 0.070313 0.30469 0.035157 0.60156-0.12109 0.84766-0.15625 0.24609-0.12109 0.46875-0.027344 0.68359 0.22656 0.51563 0.46094 1.0273 0.72656 1.5234 0.36719 0.68359 0.55859 1.4062 0.54687 2.1719-0.007812 0.45703-0.089843 0.91406-0.13281 1.375-0.007812 0.0625 0.007812 0.14844 0.046875 0.19141 1.0664 1.2031 1.5859 2.6523 1.8945 4.1953 0.375 1.8711 0.41406 3.7617 0.23828 5.6484-0.61328 6.668-2.8477 12.793-6.2695 18.516-0.039062 0.066406-0.078125 0.13672-0.13281 0.22656 0.16406 0.078125 0.3125 0.15234 0.46484 0.21875 0.82422 0.36719 1.668 0.68359 2.5547 0.85938 0.14062 0.027344 0.36328-0.12891 0.48438-0.25781 0.49609-0.51953 0.94531-1.082 1.4492-1.5898 1.0781-1.0859 2.1719-2.1602 3.2773-3.2188 1.0664-1.0195 2.0469-2.1016 2.832-3.3516 0.09375-0.14453 0.13672-0.33984 0.14062-0.51562 0.027343-0.86328 0.046875-1.7266 0.042969-2.5938-0.003907-0.76172-0.10547-1.5312-0.035157-2.2812 0.085938-0.90625 0.30469-1.8008 0.47266-2.6992 0.070312-0.36719 0.16016-0.73047 0.25391-1.0938 0.14062-0.55859 0.53516-0.73438 1.0703-0.51953 0.32031 0.13281 0.54688 0.32422 0.66406 0.65234 0.027343 0.074218 0.070312 0.14844 0.12109 0.20703 0.63672 0.76562 0.83594 1.6875 0.89844 2.6406 0.054688 0.95703 0.23828 1.9023 0.47266 2.8828zm-19.043 9.0234c0.20703-0.30469 0.42578-0.59766 0.61328-0.90234 1.5312-2.4922 2.5781-5.1875 3.3945-7.9844 0.35938-1.2383 0.62109-2.5 0.78125-3.7812 0.039062-0.30859 0.27344-0.48828 0.54297-0.45312 0.28125 0.039063 0.45703 0.28125 0.42188 0.59375-0.027344 0.23828-0.058594 0.48047-0.09375 0.71875-0.28516 1.8242-0.78125 3.5938-1.3906 5.3281-0.6875 1.9688-1.5078 3.8789-2.5703 5.6758-0.30859 0.51563-0.65234 1.0078-0.98438 1.5195 0.046875 0.035156 0.097657 0.074218 0.14844 0.11328 0.058593 0.039063 0.11719 0.078125 0.1875 0.12109 0.050781-0.070313 0.097656-0.12891 0.13281-0.1875 0.91797-1.4375 1.7266-2.9297 2.4258-4.4805 1.7891-3.957 2.9805-8.0742 3.3203-12.418 0.10547-1.3789 0.11719-2.7539-0.050781-4.1289-0.070313-0.58984-0.17969-1.1719-0.27734-1.7578-0.054688-0.33984 0.10156-0.59375 0.40234-0.64062 0.26953-0.042969 0.49219 0.14062 0.5625 0.46484 0.22656 1.0547 0.35547 2.125 0.39453 3.2031 0.097656 2.6836-0.22656 5.3242-0.82812 7.9375-0.90625 3.9336-2.3672 7.6484-4.3945 11.141-0.25781 0.44141-0.52734 0.87891-0.79297 1.3164 0.13281 0.14062 0.20703 0.074218 0.28516-0.058594 0.5-0.84375 1.0312-1.6719 1.5-2.5352 2.3945-4.4219 3.9805-9.1211 4.6836-14.105 0.34766-2.4453 0.41016-4.8906-0.007812-7.3359-0.22656-1.3164-0.63281-2.5391-1.6055-3.5195-0.13281-0.13281-0.1875-0.37891-0.19922-0.57812-0.011719-0.21094 0.066406-0.42969 0.11328-0.64453 0.16797-0.73438 0.13281-1.4648-0.16797-2.1523-0.28516-0.66406-0.64844-1.293-0.94531-1.9531-0.25781-0.57031-0.43359-1.1797-0.17578-1.7852 0.14453-0.33984 0.027343-0.55078-0.14453-0.78906-0.054688-0.078125-0.11719-0.14844-0.18359-0.21875-0.66016-0.71094-1.25-1.4727-1.7695-2.2969-0.47656-0.75391-0.97656-1.4961-1.4883-2.2305-0.32422-0.46875-0.61719-0.9375-0.71484-1.5117-0.0625-0.36328 0-0.66406 0.30859-0.86719 0.32812-0.21875 0.66406-0.4375 1.0234-0.59375 0.9375-0.40625 1.8906-0.77734 2.8164-1.1523-0.027344-0.007812-0.097656-0.035156-0.16406-0.054687-1.4727-0.42969-2.9961-0.54688-4.5078-0.72656-0.54297-0.066406-0.92188-0.27344-1.1328-0.78906-0.058594-0.14453-0.16016-0.27734-0.26563-0.39453-0.32812-0.37109-0.66797-0.73828-1.0078-1.1055-0.042969-0.046875-0.09375-0.097656-0.14453-0.13281-0.69141-0.46484-1.4258-0.80859-2.2656-0.96094-0.78516-0.14453-1.5586-0.30469-2.3477-0.12109-0.91016 0.21094-1.8164 0.46094-2.7188 0.71094-1.0625 0.29297-1.9648 0.87109-2.7383 1.6445-0.80469 0.80469-1.3633 1.7773-1.8242 2.8047-0.17188 0.38672-0.32031 0.78516-0.45313 1.1875-0.10156 0.32031-0.14453 0.66016-0.24219 0.98047-0.26953 0.875-0.52734 1.7539-0.66797 2.6602-0.023437 0.14453-0.050781 0.25 0.125 0.33984 0.19531 0.097657 0.23438 0.35156 0.10547 0.53516-0.070313 0.10156-0.17578 0.17578-0.25 0.27344-0.074219 0.10156-0.15625 0.21094-0.17969 0.32422-0.058594 0.30078-0.089844 0.60938-0.12109 0.91406-0.019532 0.17188-0.042969 0.35156-0.019532 0.52344 0.046876 0.34766-0.058593 0.61719-0.33984 0.82422-0.1875 0.14063-0.38281 0.26953-0.56641 0.41797-1.8164 1.4375-3.1367 3.2734-4.1875 5.3125-1.5977 3.1055-2.3711 6.4336-2.5898 9.9023-0.15625 2.5 0 4.9805 0.44531 7.4453 0.14844 0.81641 0.33594 1.6289 0.50781 2.4414 0.019531-0.003906 0.035156-0.007813 0.054687-0.011719-0.007812-0.050781-0.011719-0.097656-0.019531-0.14844-0.19531-1.3477-0.44531-2.6914-0.57422-4.043-0.25391-2.7344-0.14844-5.4648 0.33203-8.1719 0.41797-2.3672 1.1094-4.6406 2.2461-6.7695 0.73438-1.375 1.6367-2.625 2.7891-3.6797 0.085937-0.078125 0.17969-0.15625 0.28516-0.20312 0.20703-0.09375 0.45312-0.003906 0.57812 0.1875 0.14062 0.22266 0.097656 0.46484-0.14453 0.68359-1.3125 1.1836-2.2695 2.625-3.0156 4.2109-1.3711 2.9062-1.9805 5.9961-2.1641 9.1836-0.12109 2.1016-0.027343 4.1914 0.26562 6.2734 0.10938 0.77344 0.25781 1.543 0.38672 2.3125 0.046875-0.054687 0.046875-0.10547 0.039063-0.15234-0.22266-1.3086-0.34375-2.6289-0.37891-3.957-0.058593-2.0781 0.070313-4.1484 0.39453-6.2031 0.35156-2.2383 0.91016-4.418 1.8047-6.5039 0.51562-1.2031 1.1367-2.3477 1.9766-3.3633 0.089844-0.10547 0.21484-0.20703 0.34375-0.25391 0.19922-0.074219 0.41797 0.027343 0.53125 0.21094 0.11328 0.17969 0.089844 0.40234-0.078124 0.60938-0.78516 0.96094-1.3828 2.0352-1.8672 3.1719-1.2148 2.8555-1.8086 5.8555-2.0469 8.9375-0.16406 2.1406-0.12109 4.2773 0.17188 6.4062 0.20703 1.5156 0.53516 3 1.0977 4.4258 0.14062 0.35937 0.14453 0.35937 0.58203 0.35547-0.019532-0.078125-0.035157-0.15625-0.058594-0.23047-0.34766-1.1758-0.55859-2.3828-0.69141-3.6016-0.26563-2.4883-0.20313-4.9805 0.089843-7.4609 0.34766-2.8984 0.99609-5.7266 2.0195-8.4648 0.66797-1.7891 1.4883-3.5078 2.5898-5.0781 0.12891-0.1875 0.26172-0.37109 0.41016-0.54297 0.17578-0.20312 0.45703-0.22656 0.65234-0.074219 0.20703 0.16016 0.25391 0.41406 0.11719 0.64844-0.03125 0.058593-0.078125 0.10547-0.11328 0.16406-0.51562 0.83594-1.082 1.6445-1.5352 2.5078-1.2344 2.3594-2.0195 4.8789-2.5859 7.4766-0.35547 1.6445-0.60156 3.3008-0.72656 4.9766-0.14453 1.8594-0.14844 3.7227 0.039063 5.5781 0.14062 1.3594 0.40234 2.6914 0.78125 4.0039 0.10938 0.38281 0.3125 0.49609 0.64453 0.5625 0.1875 0.039062 0.26562 0.003906 0.33984-0.17969 0.26953-0.65625 0.64844-1.2109 1.3672-1.4609 0.1875-0.0625 0.35547-0.17188 0.53516-0.25391 0.70312-0.33594 1.3633-0.26172 1.9805 0.20703 0.44531 0.33594 0.78906 0.76562 0.92578 1.3047 0.10156 0.39844 0.28906 0.50781 0.68359 0.5625 0.57422 0.078124 1.1406 0.26172 1.6992 0.4375 1.0859 0.34766 2.168 0.71875 3.2461 1.0859 0.4375 0.14844 0.87109 0.30469 1.3047 0.46094 0.16016 0.058594 0.27344 0.023438 0.41797-0.078124 0.92578-0.65625 1.9141-0.75 2.9492-0.26563 0.41016 0.19141 0.65234 0.5625 0.88281 0.92969 0.25 0.40234 0.47266 0.81641 0.72266 1.25zm-16.934 21.551c0.074218-0.16016 0.14062-0.26172 0.16797-0.375 0.58203-2.4375 1.1562-4.875 1.7344-7.3125 0.125-0.52734 0.24609-1.0547 0.37891-1.582 0.078125-0.30859 0.31641-0.46484 0.57812-0.40625 0.28516 0.0625 0.42578 0.30469 0.36719 0.62109-0.011718 0.050781-0.019531 0.10156-0.03125 0.15234-0.64844 2.7305-1.3008 5.457-1.9492 8.1875-0.054688 0.22656-0.125 0.46094-0.12109 0.6875 0.007812 0.45312 0.11328 0.90625 0.085937 1.3555-0.058593 0.92578 0.50391 1.5391 1.0156 2.1875 0.074219 0.09375 0.16797 0.10938 0.26953 0.027344 0.16016-0.12891 0.30859-0.27344 0.48437-0.37109 0.14844-0.082031 0.20313-0.1875 0.22266-0.34375 0.16016-1.3164 0.32422-2.6328 0.48438-3.9453 0.22656-1.832 0.44922-3.6641 0.67578-5.4961 0.28906-2.3633 0.58203-4.7266 0.875-7.0898 0.0625-0.50391 0.11719-1.0039 0.18359-1.5039 0.027343-0.21484 0.14062-0.37109 0.35547-0.42969 0.19531-0.054687 0.38672-0.015624 0.48828 0.15625 0.074219 0.12891 0.11719 0.30469 0.10156 0.44922-0.18359 1.5625-0.37891 3.125-0.57031 4.6875-0.26172 2.0938-0.52344 4.1875-0.78125 6.2812-0.25 2.0156-0.5 4.0273-0.73828 6.043-0.085938 0.73047-0.27344 1.457-0.14063 2.2031 0.085938 0.48047 0.25781 0.92578 0.62109 1.2578 0.29688 0.26953 0.63672 0.49609 0.96094 0.73437 0.14453 0.10547 0.30078 0.042969 0.33984-0.13672 0.015624-0.078125 0.011718-0.16016 0.015624-0.24219 0.035157-0.74609 0.066407-1.4922 0.10156-2.2422 0.14453-3.0234 0.28906-6.0508 0.43359-9.0742 0.015625-0.30859 0.023437-0.61719 0.046875-0.92188 0.023437-0.32031 0.24609-0.53125 0.51953-0.51562 0.30078 0.019531 0.48047 0.26562 0.46094 0.62891-0.082031 1.6523-0.16016 3.3086-0.24219 4.9648-0.11328 2.3555-0.21875 4.7148-0.34375 7.0742-0.046875 0.85156 0.3125 1.5078 0.92188 2.0391 0.50781 0.44531 0.72266 0.41406 1.2109-0.039062 0.027343-0.023438 0.050781-0.054688 0.082031-0.074219 0.13672-0.089844 0.17188-0.21094 0.16016-0.375-0.125-2.4453-0.24609-4.8906-0.36719-7.3359-0.19922-3.9609-0.39453-7.9219-0.59375-11.883-0.019532-0.35938 0.16016-0.58984 0.46094-0.60156 0.29297-0.011719 0.48438 0.1875 0.50391 0.53906 0.042969 0.82031 0.082031 1.6406 0.125 2.4609 0.17578 3.5234 0.35156 7.043 0.52734 10.566 0.10938 2.2109 0.22266 4.4219 0.33203 6.6328 0.007813 0.14844 0.015625 0.30078 0.019532 0.45312 0.70312-0.16406 1.3125-0.6875 1.2461-1.5195-0.074219-0.90625-0.13672-1.8125-0.21094-2.7188-0.16797-2.0664-0.33984-4.1367-0.50781-6.2031-0.16016-1.9414-0.31641-3.8867-0.47656-5.8281-0.027344-0.34375-0.058594-0.6875-0.082031-1.0312-0.019532-0.29297 0.15625-0.51953 0.42187-0.55469 0.26953-0.035156 0.49219 0.13672 0.54688 0.42578 0.011718 0.0625 0.015624 0.13281 0.019531 0.19531 0.12109 1.5195 0.24609 3.0391 0.36719 4.5586 0.15234 1.8867 0.3125 3.7695 0.46484 5.6523 0.13672 1.6953 0.26953 3.3906 0.41406 5.0859 0.011719 0.15234 0.097657 0.30469 0.15234 0.44922 0.046875 0.12109 0.13281 0.11328 0.23047 0.050781 0.26562-0.17578 0.45312-0.42188 0.50391-0.72266 0.074219-0.42969 0.15625-0.87891 0.12109-1.3086-0.11328-1.3438-0.27734-2.6836-0.42188-4.0234-0.18359-1.6953-0.36719-3.3945-0.55078-5.0938-0.16797-1.5664-0.33984-3.1328-0.51172-4.6992-0.070312-0.64062-0.14062-1.2812-0.19922-1.9258-0.03125-0.32031 0.15625-0.55078 0.44141-0.56641 0.28906-0.019532 0.49219 0.18359 0.52734 0.52344 0.050781 0.47266 0.10156 0.94531 0.15234 1.4219 0.16797 1.5586 0.33984 3.1172 0.50781 4.6758 0.15234 1.4297 0.30469 2.8555 0.46094 4.2852 0.18359 1.7109 0.375 3.4258 0.55469 5.1367 0.027344 0.26953 0.17578 0.43359 0.38281 0.59375 0.058594-0.082031 0.10938-0.14453 0.14844-0.21094 0.23828-0.42188 0.37109-0.87109 0.39844-1.3555 0.03125-0.60156 0.089844-1.1992 0.10547-1.8008 0.019531-0.67188 0.058593-1.3477 0.003906-2.0156-0.0625-0.71484-0.22266-1.418-0.34375-2.125-0.45703-2.7227-0.91797-5.4453-1.375-8.168-0.0625-0.38281-0.13672-0.76562-0.19531-1.1484-0.0625-0.40625 0.17188-0.69141 0.52734-0.65234 0.23438 0.027344 0.38672 0.18359 0.4375 0.48047 0.14062 0.80859 0.26953 1.6172 0.40625 2.4297 0.49609 2.9531 0.99219 5.9102 1.4883 8.8633 0.019531 0.10938 0.050781 0.21484 0.078124 0.32031 0.019532 0.007812 0.042969 0.011718 0.0625 0.019531 0.011719-0.027344 0.023438-0.054687 0.039063-0.078125 0.49219-0.82812 0.80078-1.7109 0.78906-2.6875-0.011719-1.0273-0.078126-2.0547-0.33984-3.0547-0.41016-1.5703-0.84375-3.1406-1.2695-4.707-0.22656-0.83203-0.46094-1.6602-0.6875-2.4883-0.17969 0.050781-0.36719 0.12891-0.56641 0.15234-0.40625 0.054687-0.66016-0.12891-0.71094-0.53125-0.019531-0.16016 0.054687-0.33984 0.10938-0.50391 0.035156-0.10938 0.10938-0.21094 0.16797-0.3125-0.10156 0.027343-0.17187 0.078124-0.24609 0.12109-0.25391 0.15234-0.44922 0.15625-0.63281 0.007813-0.19922-0.16016-0.23047-0.37891-0.14453-0.59766 0.089844-0.23047 0.21094-0.44922 0.33203-0.66797 0.10547-0.19531 0.22656-0.38281 0.35547-0.59375-0.60156 0.12891-0.70312 0.074219-0.88672-0.45703-0.29688 0.007812-0.47266-0.078126-0.57422-0.27734-0.089844-0.17969-0.085938-0.35938 0.035156-0.51953 0.28516-0.36719 0.33203-0.8125 0.44922-1.2539-0.21484-0.039062-0.40625-0.054687-0.58594-0.10547-1.2031-0.34766-2.4102-0.6875-3.6016-1.0625-0.54297-0.17188-1.0469-0.46094-1.5898-0.63281-0.93359-0.29688-1.8945-0.42969-2.8906-0.26953-0.007813 0.019531-0.03125 0.050781-0.035156 0.085937-0.10156 1.0117-0.29297 2.0312 0.25781 2.9883 0.015625 0.023438 0.023438 0.054688 0.035156 0.078126 0.11328 0.28516 0.058594 0.52344-0.15234 0.66406-0.22656 0.14844-0.46484 0.10547-0.68359-0.13672-0.21094-0.23438-0.41016-0.47656-0.62109-0.71094-0.039063-0.042969-0.11328-0.10547-0.15234-0.097656-0.25391 0.078124-0.45312-0.035157-0.6875-0.20313 0.042969 0.11328 0.066407 0.17969 0.097657 0.24219 0.28516 0.59375 0.58984 1.1797 0.85547 1.7812 0.23047 0.51953 0.44141 1.0508 0.625 1.5898 0.10547 0.3125 0.050782 0.64062-0.21094 0.87109-0.26562 0.23437-0.59375 0.26562-0.91016 0.13672-0.23437-0.097656-0.44141-0.25781-0.66016-0.38672-0.054687-0.03125-0.11328-0.078126-0.16797-0.074219-0.17969 0.015625-0.35547 0.050781-0.55469 0.082031-0.019531 0.089844-0.050781 0.19922-0.066406 0.3125-0.27734 2.0469-0.89062 4.0156-1.3906 6.0117-0.40625 1.6172-0.85547 3.2266-1.2695 4.8477-0.054688 0.20703-0.050782 0.46484 0.019531 0.66406 0.27344 0.82422 0.875 1.4336 1.3906 2.1836zm-0.15234-24.539c-0.3125-0.089844-0.61719-0.17578-0.91797-0.26953-0.67188-0.20703-1.3516-0.32813-2.0547-0.25781-0.79688 0.078125-1.5977 0.074219-2.3867-0.0625-1.6641-0.28516-3.3359-0.46094-5.0234-0.51172-0.82813-0.023437-1.6523-0.10156-2.4805-0.12109-0.94922-0.019531-1.9102-0.082031-2.8516 0.015626-1.0039 0.10156-2.0039 0.11719-3.0039 0.10547-0.53906-0.007812-1.0781-0.070312-1.6172-0.11328-0.25391-0.019531-0.50391-0.050781-0.79687-0.078125 0.0625 0.19141 0.09375 0.35156 0.16016 0.49609 0.18359 0.38672 0.19531 0.77344 0.078125 1.1758-0.011719 0.042969-0.015625 0.085937-0.019531 0.12891-0.015626 0.14062 0.046874 0.20703 0.1875 0.24219 0.32422 0.085937 0.64062 0.089843 0.97266 0.050781 0.83594-0.09375 1.6797-0.14844 2.5156-0.22266 0.86328-0.074219 1.7305-0.12891 2.5859 0.03125 1.2812 0.23438 2.5547 0.51953 3.8281 0.78125 0.73828 0.15234 1.4766 0.20703 2.2227 0.027344 0.94141-0.22656 1.9062-0.29688 2.8594-0.15234 1.5977 0.24219 3.1875 0.55469 4.7812 0.83594 0.33594 0.058594 0.67188 0.10547 0.96484 0.15234-0.003906-0.76953-0.003906-1.5078-0.003906-2.2539zm33.77-8.3438c-0.027343 0.003906-0.058593 0.007812-0.089843 0.011719 0.10937 1.0938 0.19531 2.1875 0.33984 3.2773 0.09375 0.71484 0.16406 1.4258 0.082031 2.1445-0.097656 0.86719-0.52344 1.582-1.1094 2.1992-1.1055 1.1641-2.2305 2.3125-3.3516 3.4609-0.63672 0.64844-1.3047 1.2695-1.9219 1.9336-0.8125 0.875-1.5859 1.7852-2.3789 2.6797-0.21875 0.24609-0.47266 0.36328-0.80469 0.23438-0.09375-0.035156-0.19922-0.046875-0.30078-0.0625-0.66797-0.09375-1.2969-0.29688-1.8867-0.62891-0.19141-0.10547-0.39062-0.20703-0.59766-0.27344-1.5781-0.52344-3.0586-1.2539-4.4492-2.1641-0.027343-0.019531-0.0625-0.027344-0.054687-0.023438-0.17969 0.39062-0.35156 0.76953-0.53125 1.1602 0.046875 0.03125 0.10938 0.082031 0.17969 0.11328 0.49219 0.22656 0.97266 0.48438 1.4805 0.66406 0.69531 0.24609 1.4062 0.46484 2.125 0.63281 1.0938 0.25781 2.1328 0.67578 3.1914 1.0352 0.55469 0.1875 1.1211 0.34375 1.668 0.55078 0.43359 0.16016 0.86328 0.37109 1.1094 0.78516 0.60938 1.0195 1.0156 2.1328 1.2891 3.2773 0.28516 1.1953 0.53906 2.4023 0.71094 3.6211 0.19922 1.4375 0.32031 2.8828 0.43359 4.3281 0.13672 1.7969 0.25 3.5977 0.33203 5.3984 0.058594 1.3086 0.09375 2.6211-0.027344 3.9336-0.046875 0.50781-0.26172 0.90625-0.64062 1.2305-0.11719 0.10156-0.24219 0.19141-0.35547 0.29297-0.33203 0.30469-0.66016 0.60938-0.98828 0.91406 0.015625 0.019531 0.027344 0.035157 0.042969 0.054688 0.30078-0.19922 0.60156-0.40234 0.90625-0.60156 0.25391-0.16016 0.49609-0.34375 0.76953-0.46094 0.42969-0.1875 0.78125-0.007813 0.9375 0.43359 0.046875 0.13672 0.09375 0.26953 0.14062 0.40625 0.023438-0.027343 0.027344-0.050781 0.023438-0.070312-0.29297-1.9375-0.37891-3.8906-0.36328-5.8516 0.011718-1.2695 0.039062-2.5391-0.046876-3.8047-0.11328-1.7188-0.32812-3.4258-0.5-5.1406-0.15234-1.5312-0.30859-3.0625-0.63672-4.5664-0.11328-0.52344-0.10938-1.082-0.42969-1.5508-0.039062-0.058594-0.050781-0.14063-0.050781-0.21094-0.003906-0.16797 0.015625-0.33594 0.015625-0.50391 0.003906-0.33203 0.1875-0.54688 0.51562-0.51172 0.28906 0.027344 0.58203 0.089844 0.85156 0.19531 0.87109 0.34766 1.7383 0.70703 2.5938 1.0859 1.4922 0.65625 2.9766 1.3438 4.4727 2 1.207 0.53125 2.4414 1 3.6289 1.5664 1.5312 0.73047 3.0312 1.5352 4.543 2.3086 0.14453 0.074219 0.28906 0.15234 0.4375 0.23047-0.11328-0.13672-0.23828-0.24609-0.38672-0.32422-0.71875-0.38281-1.4492-0.73828-2.1562-1.1367-2.3711-1.3281-4.8125-2.5234-7.2305-3.7617-2.2578-1.1562-4.6289-2.0195-6.9414-3.0312-0.61719-0.26953-1.2422-0.51563-1.8633-0.78125-0.41016-0.17578-0.51953-0.58984-0.25391-0.91016 0.57812-0.70703 1.1445-1.4297 1.7383-2.125 0.8125-0.95312 1.6289-1.9062 2.4805-2.8242 0.49219-0.53125 1.0859-0.96875 1.5859-1.4883 0.93359-0.97266 1.8359-1.9766 2.7383-2.9766 1.1172-1.2344 2.2969-2.4102 3.5703-3.4844 0.70703-0.59375 1.4453-1.1484 2.1484-1.7461 0.4375-0.37109 0.83594-0.78516 1.2539-1.1797-0.79297 0.46484-1.4727 1.0625-2.0977 1.7227-0.15625 0.16406-0.32031 0.32422-0.49609 0.46484-0.62891 0.50391-1.2656 1-1.8984 1.4961-0.60156 0.47266-1.1719 0.97266-1.6523 1.5742-0.31641 0.39844-0.89844 0.27734-1.0664-0.20703-0.039063-0.11719-0.082031-0.24219-0.085937-0.36328-0.023438-0.87109-0.21484-1.7109-0.47656-2.5352-0.0625-0.19922-0.070313-0.41797-0.09375-0.62891-0.035156-0.49609-0.074219-0.99219-0.12109-1.4883zm-28.355 8.4258c-0.22656 0.90234-0.43359 1.75-0.64453 2.6016 0.035157-0.003906 0.078125-0.003906 0.12109-0.007812 1.1211-0.078125 2.207 0.058594 3.2539 0.47266 0.25781 0.10156 0.5 0.25 0.76562 0.33594 1.0938 0.35156 2.1914 0.69141 3.293 1.0234 0.31641 0.09375 0.65234 0.13672 1.0039 0.20703 0-0.14062 0.019531-0.23828-0.003906-0.32812-0.10547-0.44531-0.19141-0.90234-0.34375-1.3359-0.19531-0.57031-0.53125-0.97656-1.1992-1.1133-0.64453-0.13281-1.2539-0.44141-1.8906-0.64062-1.1758-0.36719-2.3555-0.71484-3.5352-1.0586-0.27734-0.074219-0.56641-0.10547-0.82031-0.15625zm-1.7656 2.668c0.011718-0.011719 0.027343-0.019531 0.03125-0.027344 0.035156-0.097656 0.070312-0.19141 0.10156-0.28906 0.30469-0.94141 0.62109-1.8828 0.59766-2.8906-0.015625-0.60938-0.26172-1.1055-0.75-1.4727-0.27734-0.21094-0.57812-0.23047-0.89062-0.09375-0.19922 0.089844-0.39062 0.21094-0.59766 0.28125-0.42578 0.14844-0.65625 0.47266-0.82812 0.85547-0.074219 0.16797-0.14453 0.33984-0.19141 0.51562-0.40625 1.5234-0.13672 2.9609 0.58203 4.3359 0.011719 0.023438 0.035156 0.039063 0.085937 0.09375-0.035156-0.125-0.058593-0.21094-0.078124-0.29297-0.14844-0.72266-0.30078-1.4453-0.43359-2.1758-0.054688-0.30078 0.10547-0.52344 0.35938-0.55469 0.25391-0.03125 0.4375 0.12891 0.49609 0.41797 0.10156 0.49219 0.19922 0.98828 0.32031 1.4805 0.078125 0.32422 0.19141 0.64063 0.28906 0.96094 0.039062-0.070312 0.03125-0.125 0.027343-0.18359-0.050781-0.51172-0.12109-1.0195-0.13672-1.5312-0.011718-0.39453 0.035157-0.78906 0.089844-1.1797 0.039063-0.26562 0.28125-0.41016 0.53906-0.375 0.24219 0.035156 0.40625 0.23047 0.41016 0.49609 0 0.066407-0.019531 0.13281-0.019531 0.19531-0.003906 0.47266-0.003906 0.94922-0.003906 1.4336zm-6.5234-0.023438c0.97656 2.0352 1.9453 4.0039 3.332 5.7266-0.019531-0.089844-0.0625-0.16406-0.10547-0.23828-0.60547-1.0547-1.2148-2.1055-1.8125-3.1641-0.11328-0.20312-0.20703-0.42188-0.27734-0.64062-0.078125-0.25 0.046875-0.48047 0.26172-0.55469 0.23047-0.074219 0.43359 0.03125 0.55469 0.27344 0.12109 0.25 0.25 0.49609 0.39062 0.73438 0.58984 0.98438 1.1914 1.9688 1.7852 2.9531 0.37891 0.62891 0.78906 1.2344 1.3164 1.75 0.10156 0.10156 0.21094 0.19141 0.32031 0.28516-0.003906-0.15625-0.046875-0.28906-0.10156-0.41406-0.21094-0.44141-0.42578-0.88672-0.64062-1.3242-0.46484-0.94531-0.93359-1.8906-1.1367-2.9414-0.042969-0.22656-0.054688-0.46875-0.13672-0.67969-0.13672-0.35938-0.3125-0.71094-0.48828-1.0547-0.039063-0.074219-0.13281-0.15234-0.21484-0.16406-0.58203-0.10938-1.168-0.19922-1.75-0.30469-0.41406-0.070313-0.82422-0.15234-1.2969-0.24219zm19.078 0.83984c0.003906-0.035156 0.015625-0.058594 0.011719-0.074219-0.19141-0.56641-0.42188-1.1094-0.86328-1.5469-0.36719-0.36328-0.79687-0.47266-1.2812-0.43359-0.3125 0.027343-0.61328 0.10156-0.86719 0.29687 0.71094 1.0625 1.0898 2.1953 0.96875 3.4688 0.17969-0.49219 0.34375-0.98047 0.25391-1.5156-0.042969-0.25781 0.0625-0.46094 0.27734-0.53125 0.22266-0.070313 0.43359 0.023437 0.53906 0.26172 0.050781 0.11719 0.09375 0.25391 0.09375 0.37891-0.007813 0.3125-0.015626 0.63281-0.070313 0.94141-0.0625 0.34766-0.17188 0.68359-0.26562 1.0586 0.039062-0.058593 0.0625-0.085937 0.078125-0.11719 0.32031-0.55859 0.44922-1.1562 0.36328-1.7969-0.023437-0.1875 0.027344-0.35156 0.19531-0.45703 0.15625-0.097657 0.31641-0.09375 0.47656 0.011719 0.019531 0.023437 0.050781 0.035156 0.089844 0.054687zm1.6211 3.6562c-0.089844-0.039063-0.14453-0.054687-0.19141-0.089844-0.19141-0.12891-0.27344-0.058593-0.37109 0.13672-0.22656 0.44141-0.48438 0.86719-0.73438 1.2969-0.039063 0.070313-0.089844 0.13672-0.13672 0.20703 0.015625 0.007813 0.027344 0.019532 0.039063 0.027344 0.45703-0.51953 0.91406-1.0391 1.3945-1.5781zm-2.3438 0.089844c0.24609-0.31641 0.46875-0.59766 0.6875-0.87891-0.007813-0.019531-0.015625-0.035156-0.019531-0.054687-0.058594 0.003906-0.14453-0.011719-0.17188 0.019531-0.22266 0.25391-0.64844 0.39844-0.49609 0.91406z"/>
  <path d="m42.496 39.824c-0.22656-0.003907-0.39453-0.15234-0.4375-0.41016-0.03125-0.21094-0.058594-0.42187-0.058594-0.63281-0.003906-1.5352 0.14453-3.0547 0.57031-4.5391 0.046876-0.16797 0.10547-0.33984 0.19141-0.48828 0.074219-0.12891 0.18359-0.25 0.30469-0.33594 0.16406-0.11328 0.35156-0.097657 0.50781 0.039062s0.20703 0.33203 0.097656 0.49609c-0.29297 0.44531-0.37891 0.95703-0.43359 1.4609-0.11719 1.1211-0.1875 2.2461-0.27344 3.3672-0.015625 0.21875-0.011719 0.44141-0.035156 0.65625-0.03125 0.24609-0.20703 0.39062-0.43359 0.38672z"/>
  <path d="m46.773 28.555c0.10547-0.46484 0.19922-0.92969 0.32422-1.3867 0.29297-1.0547 0.64844-2.0859 1.2031-3.0312 0.10547-0.17578 0.26172-0.33594 0.42578-0.46094 0.16406-0.12891 0.39844-0.074219 0.53516 0.078125 0.13281 0.14844 0.15625 0.37109 0.027343 0.52734-0.42187 0.5-0.62109 1.1094-0.81641 1.7148-0.26953 0.82031-0.49219 1.6562-0.73828 2.4844-0.023437 0.085937-0.050781 0.16797-0.085937 0.25-0.09375 0.21875-0.28125 0.32812-0.48438 0.28906-0.22266-0.042969-0.35937-0.21484-0.39062-0.46484z"/>
  <path d="m50.043 39.438c-0.066407-0.82422-0.13281-1.6484-0.20703-2.4727-0.023438-0.25781 0.085937-0.45312 0.30859-0.51172 0.22656-0.058594 0.45312 0.039063 0.51953 0.28516 0.082032 0.29297 0.125 0.60156 0.15234 0.90625 0.11328 1.1367 0.23047 2.2773 0.11328 3.4219-0.019532 0.19531-0.042969 0.39453-0.078126 0.58594-0.050781 0.24609-0.21875 0.37891-0.44531 0.36719-0.21484-0.007812-0.38672-0.14844-0.40625-0.38672-0.023438-0.3125-0.015625-0.62891-0.019531-0.94531-0.003907-0.41797 0-0.83594 0-1.2539 0.019531 0.003906 0.042969 0.003906 0.0625 0.003906z"/>
  <path d="m46.844 35.766c-0.14453 1.2148-0.28516 2.4297-0.44141 3.6406-0.027344 0.20703-0.11719 0.40625-0.20312 0.60156-0.11719 0.27344-0.32031 0.375-0.55859 0.30078-0.24609-0.074219-0.34766-0.28125-0.29688-0.58203 0.12891-0.75781 0.26562-1.5156 0.375-2.2734 0.085938-0.60156 0.14453-1.207 0.19922-1.8125 0.03125-0.36328 0.18359-0.5625 0.46094-0.55469 0.26953 0.007812 0.41797 0.21094 0.42188 0.5625v0.10937c0.011719 0.007813 0.027344 0.007813 0.042969 0.007813z"/>
  <path d="m50.137 30.992c-0.15234 0.74609-0.28516 1.4922-0.46094 2.2305-0.10547 0.45312-0.26953 0.89453-0.41406 1.3398-0.023438 0.074219-0.066407 0.14453-0.11719 0.21094-0.13281 0.17187-0.30859 0.23047-0.50781 0.14844-0.19531-0.078125-0.30469-0.24219-0.26953-0.45312 0.035156-0.22266 0.10156-0.44141 0.15625-0.66016 0.23437-0.98828 0.47266-1.9727 0.69922-2.9609 0.0625-0.26953 0.23438-0.42969 0.48438-0.40625 0.25391 0.023438 0.39062 0.21875 0.42969 0.55078z"/>
  <path d="m39.969 44.781c0.039062-0.55469 0.089844-1.2617 0.14844-1.9688 0.019531-0.25781 0.19531-0.41016 0.42969-0.41016 0.24219 0 0.42578 0.16406 0.42969 0.43359 0.003907 0.32031-0.039062 0.64453-0.039062 0.96484 0 0.57812 0.019531 1.1562 0.023438 1.7305 0.003906 0.29297 0.011718 0.58594-0.011719 0.875-0.023438 0.30078-0.20312 0.46484-0.45703 0.45703-0.25-0.003906-0.41406-0.17578-0.4375-0.48047-0.03125-0.47656-0.050782-0.96094-0.085938-1.6016z"/>
  <path d="m47.102 13.758c0-0.63281 0.51563-1.1289 1.1641-1.125 0.55469 0.003907 1.0586 0.53906 1.0586 1.1172-0.003907 0.62109-0.50781 1.1211-1.1211 1.1172-0.60938-0.003907-1.1016-0.5-1.1016-1.1094z"/>
  <path d="m52.133 48.383c-0.11719 0.50391-0.23047 1.0117-0.35547 1.5156-0.125 0.48828-0.26172 0.97266-0.40625 1.457-0.046875 0.16016-0.11328 0.31641-0.19531 0.46484-0.12109 0.22266-0.35156 0.30469-0.55859 0.22656-0.20703-0.078125-0.32813-0.28906-0.26953-0.53516 0.085938-0.35547 0.19922-0.70312 0.29688-1.0547 0.20312-0.73828 0.40234-1.4805 0.59766-2.2227 0.0625-0.23438 0.25781-0.38281 0.48437-0.34766 0.23438 0.027343 0.37891 0.22266 0.40625 0.49609z"/>
  <path d="m47.855 49.434c0.042969-0.84766 0.085937-1.6953 0.13672-2.5469 0.011718-0.18359 0.019531-0.36719 0.0625-0.54297 0.050781-0.23828 0.24609-0.36719 0.46484-0.34375 0.22266 0.027344 0.39062 0.19922 0.38281 0.4375-0.035156 1.0625-0.078125 2.1211-0.12891 3.1836-0.007813 0.12891-0.039063 0.26172-0.085938 0.38672-0.074219 0.20703-0.25391 0.3125-0.46484 0.28906-0.21875-0.023437-0.35156-0.15625-0.38281-0.36328-0.023438-0.16406-0.003906-0.33594-0.003906-0.50391 0.003906 0.003906 0.011718 0.003906 0.019531 0.003906z"/>
  <path d="m53.734 28.156c-0.03125 0.23828-0.039063 0.42969-0.078125 0.61719-0.050781 0.24609-0.24609 0.39844-0.46484 0.38672-0.23438-0.015625-0.40234-0.19141-0.42188-0.45312-0.042969-0.67188-0.066406-1.3477-0.12891-2.0156-0.023437-0.29688-0.10547-0.58984-0.17578-0.87891-0.058594-0.23438 0.011718-0.44922 0.20312-0.54688 0.20312-0.10547 0.46875-0.050781 0.56641 0.17578 0.12109 0.26953 0.21484 0.5625 0.26172 0.85156 0.10156 0.62891 0.16406 1.2695 0.23828 1.8633z"/>
  <path d="m53.152 44.992c0.039062-0.13281 0.089844-0.35547 0.16406-0.56641 0.22266-0.62891 0.45312-1.25 0.67969-1.875 0.10156-0.28125 0.30469-0.40625 0.55078-0.33984 0.23047 0.0625 0.375 0.28906 0.28906 0.55859-0.26563 0.83594-0.55078 1.6641-0.84375 2.4922-0.082032 0.23438-0.30078 0.32031-0.51953 0.26562-0.1875-0.050782-0.32031-0.23047-0.32031-0.53516z"/>
  <path d="m54.105 36.805c-0.035157 0.51562-0.050781 0.88672-0.085938 1.2578-0.015625 0.13672-0.054687 0.27344-0.11328 0.39844-0.078125 0.17969-0.23438 0.26562-0.42969 0.23828-0.19141-0.023438-0.32812-0.13672-0.35937-0.33203-0.023438-0.14453-0.015626-0.28906-0.011719-0.4375 0.011719-0.6875 0.03125-1.375 0.039062-2.0625 0.003907-0.21875 0.13672-0.41406 0.33594-0.45703 0.23047-0.046875 0.46484 0.066406 0.50391 0.30859 0.070313 0.40625 0.09375 0.81641 0.12109 1.0859z"/>
  <path d="m52.824 51.305c0.125-0.33594 0.24609-0.67188 0.375-1.0039 0.14844-0.39062 0.30859-0.77344 0.45703-1.1641 0.10547-0.27734 0.30469-0.41016 0.55078-0.34375 0.23438 0.0625 0.35938 0.30078 0.28516 0.58203-0.066407 0.25391-0.14844 0.50391-0.23828 0.75-0.14453 0.39844-0.30078 0.79297-0.45312 1.1875-0.035156 0.089844-0.070312 0.17578-0.12109 0.25781-0.12109 0.19922-0.32422 0.27734-0.52344 0.21094-0.19141-0.0625-0.30078-0.24219-0.33203-0.47656z"/>
  <path d="m58.117 36.645c-0.13281 0.60547-0.25781 1.2148-0.40234 1.8164-0.058594 0.25-0.24219 0.36328-0.46875 0.33984-0.21875-0.023437-0.375-0.19141-0.36328-0.44531 0.007813-0.23828 0.054688-0.47656 0.097657-0.71484 0.070312-0.38672 0.16406-0.77344 0.22656-1.1602 0.046875-0.29297 0.19922-0.47266 0.44922-0.46484s0.41016 0.19531 0.42578 0.49219v0.13281c0.011719 0 0.023438 0 0.035157 0.003906z"/>
  <path d="m44.887 52.066c-0.011719 0.23047-0.10156 0.37891-0.29688 0.44531-0.19531 0.066406-0.41406 0-0.50391-0.20312-0.12109-0.26953-0.22656-0.55469-0.28906-0.84375-0.074219-0.34766-0.11328-0.70703-0.14062-1.0625-0.019531-0.29688 0.15234-0.48828 0.39844-0.50781 0.26172-0.019531 0.41797 0.15625 0.47266 0.46484 0.089844 0.49609 0.19922 0.98438 0.30469 1.4766 0.015625 0.089843 0.039063 0.17578 0.054688 0.23047z"/>
  <path d="m55.562 31.129c-0.03125-0.30469-0.0625-0.60938-0.10156-0.91406-0.035157-0.27734 0.078124-0.49219 0.31641-0.54688 0.23828-0.054688 0.46094 0.066406 0.52734 0.33984 0.16406 0.64453 0.17969 1.3008 0.11328 1.9609-0.019531 0.21484-0.20703 0.35547-0.41016 0.35938-0.20312 0.003906-0.38672-0.125-0.42187-0.34766-0.042969-0.28125-0.046876-0.56641-0.066407-0.85156h0.042969z"/>
  <path d="m52.82 32.879c-0.042968 0.35547-0.09375 0.82031-0.15625 1.2852-0.035156 0.25781-0.21875 0.40234-0.44531 0.39453-0.21875-0.011719-0.40234-0.16016-0.39844-0.41406 0.003907-0.38281 0.0625-0.76953 0.097657-1.1523 0.007812-0.085938 0.023437-0.17578 0.03125-0.26172 0.027343-0.36328 0.19141-0.54688 0.47656-0.53125 0.26953 0.015625 0.40234 0.20703 0.39453 0.67969z"/>
  <path d="m40.945 29.086c-0.03125 0.058593-0.066406 0.17187-0.13672 0.25781-0.23438 0.28516-0.48438 0.56641-0.73047 0.84375-0.0625 0.070312-0.12109 0.14844-0.19531 0.20703-0.15234 0.12109-0.32422 0.12891-0.49219 0.027344-0.16016-0.097656-0.21875-0.25-0.19141-0.43359 0.007812-0.058593 0.019531-0.125 0.054687-0.16406 0.32031-0.375 0.63672-0.75781 0.98047-1.1094 0.078125-0.082032 0.27344-0.09375 0.40625-0.070313 0.19531 0.03125 0.28125 0.19531 0.30469 0.44141z"/>
  <path d="m54.086 21.797c-0.035157 0.21094-0.054688 0.46875-0.125 0.71094-0.082032 0.28125-0.29688 0.40625-0.52734 0.34766-0.22656-0.054688-0.32812-0.23828-0.31641-0.52734 0.015624-0.38672 0.019531-0.77344 0.019531-1.1602 0-0.25781 0.12891-0.44531 0.35156-0.48438 0.23828-0.039063 0.44531 0.089844 0.50391 0.35156 0.046874 0.23047 0.058593 0.47266 0.09375 0.76172z"/>
  <path d="m43.402 30.883c0.023437-0.085937 0.058594-0.24219 0.11328-0.39453 0.082031-0.22656 0.16406-0.45703 0.27734-0.66797 0.082031-0.15625 0.19922-0.30859 0.33594-0.42187 0.15625-0.12891 0.34766-0.10156 0.50391 0.027343 0.15234 0.12891 0.19531 0.30078 0.12109 0.47656-0.16406 0.39062-0.34375 0.77344-0.51953 1.1562-0.023437 0.054687-0.058594 0.10156-0.09375 0.14844-0.12109 0.15625-0.28125 0.21484-0.46484 0.15234-0.1875-0.0625-0.28125-0.20703-0.27344-0.47656z"/>
  <path d="m37.156 35c0.089844-0.19141 0.14062-0.34766 0.23047-0.47656 0.19141-0.26953 0.39453-0.52734 0.60547-0.78125 0.15234-0.17969 0.39062-0.20313 0.57422-0.078126 0.17969 0.125 0.25391 0.37109 0.125 0.5625-0.24219 0.35547-0.50391 0.69922-0.77344 1.0352-0.12109 0.14844-0.3125 0.19531-0.47656 0.085937-0.12109-0.078125-0.19141-0.22656-0.28516-0.34766z"/>
  <path d="m56.949 27.004c-0.03125-0.21484-0.054688-0.43359-0.09375-0.64844-0.054688-0.27734 0.050781-0.5 0.28125-0.56641 0.23828-0.066406 0.45312 0.046876 0.54688 0.3125 0.14844 0.41406 0.19531 0.83984 0.082031 1.2695-0.078125 0.29688-0.25781 0.44531-0.48438 0.41406-0.23438-0.03125-0.36328-0.21484-0.36719-0.51953-0.003906-0.089844 0-0.17578 0-0.26562 0.011719 0.007812 0.023438 0.003906 0.035157 0.003906z"/>
  <path d="m36.98 37.078c0.003906-0.035156 0-0.074219 0.011719-0.10938 0.17969-0.44141 0.36719-0.87891 0.72266-1.2109 0.1875-0.17969 0.44531-0.16406 0.60938 0.003907 0.16016 0.16016 0.15234 0.38672 0.011719 0.59766-0.14063 0.21094-0.25391 0.44141-0.39453 0.65234-0.09375 0.14453-0.19922 0.30078-0.33984 0.39062-0.10547 0.0625-0.29297 0.070312-0.40625 0.019531-0.10937-0.050781-0.17578-0.20312-0.26172-0.3125 0.015625-0.007813 0.03125-0.019531 0.046875-0.03125z"/>
  <path d="m41.867 26.27c0.29297 0.003907 0.46094 0.13281 0.50781 0.35156 0.042969 0.19531-0.058594 0.36328-0.26172 0.48047-0.10547 0.0625-0.19141 0.15234-0.28125 0.23438-0.13281 0.125-0.25 0.26953-0.39062 0.38281-0.15234 0.11719-0.33203 0.11328-0.48828-0.003906-0.14062-0.10547-0.21875-0.26172-0.14844-0.42578 0.17578-0.42578 0.48047-0.74609 0.87109-0.98047 0.058594-0.035156 0.15234-0.03125 0.19141-0.039063z"/>
  <path d="m48.129 18.121c-0.089844 0.11328-0.15625 0.25781-0.26953 0.33984-0.25781 0.18359-0.53516 0.33203-0.80469 0.49609-0.24219 0.14844-0.46094 0.12891-0.61328-0.054687-0.14844-0.17578-0.14844-0.4375 0.074219-0.60547 0.3125-0.23438 0.65234-0.44531 1.0078-0.60547 0.27734-0.12891 0.55859 0.097656 0.60547 0.42969z"/>
  <path d="m39.262 31.309c0.10547 0.078125 0.24609 0.14453 0.33203 0.25391 0.10938 0.13672 0.085938 0.30859-0.015625 0.45312-0.17578 0.25-0.35547 0.5-0.53906 0.74219-0.058593 0.074219-0.125 0.14844-0.20312 0.19922-0.14844 0.097657-0.30469 0.09375-0.45313-0.003906-0.14844-0.10156-0.22266-0.25781-0.16406-0.42188 0.15234-0.43359 0.37891-0.82422 0.75781-1.1055 0.0625-0.046875 0.15625-0.066406 0.28516-0.11719z"/>
  <path d="m44.008 23.301c-0.34766-0.003906-0.5625-0.37109-0.375-0.64844 0.24219-0.36719 0.62109-0.57422 1.0195-0.72266 0.17969-0.066407 0.34766 0.03125 0.44141 0.20312 0.097656 0.17188 0.09375 0.36328-0.050781 0.48438-0.28516 0.23437-0.60156 0.4375-0.90625 0.65234-0.039063 0.027344-0.097657 0.023438-0.12891 0.03125z"/>
  <path d="m48.602 15.945c0.25391 0.015626 0.39844 0.10938 0.46094 0.30859 0.058594 0.19141-0.019531 0.38281-0.19141 0.49609-0.22266 0.14062-0.44141 0.28516-0.66016 0.42969-0.24609 0.16016-0.5 0.14062-0.64844-0.050782-0.15234-0.19922-0.125-0.44531 0.10547-0.64062 0.19141-0.16016 0.39844-0.30078 0.60938-0.42578 0.10938-0.070312 0.24609-0.089844 0.32422-0.11719z"/>
  <path d="m37.059 39.594c-0.23828-0.011719-0.46094-0.22656-0.39062-0.45703 0.10547-0.34375 0.24609-0.6875 0.44141-0.98828 0.16406-0.25781 0.45703-0.26172 0.65234-0.097657 0.1875 0.16016 0.18359 0.38281 0.019531 0.64844-0.12109 0.19922-0.19922 0.42188-0.30078 0.63281-0.085938 0.17188-0.22656 0.26953-0.42188 0.26172z"/>
  <path d="m36.84 46.871c0.35938-0.007813 0.55859 0.25391 0.5 0.53906-0.046875 0.23047-0.09375 0.45703-0.14453 0.6875-0.019531 0.085938-0.039062 0.17188-0.078124 0.25-0.082032 0.16797-0.22266 0.25-0.41016 0.23047-0.17969-0.015625-0.3125-0.11328-0.34766-0.28906-0.078125-0.42969-0.023437-0.85156 0.21484-1.2227 0.0625-0.10156 0.21094-0.15625 0.26562-0.19531z"/>
  <path d="m40.109 16.16c-0.10156-0.078125-0.26172-0.14844-0.3125-0.26953-0.054687-0.11719-0.054687-0.35156 0.023437-0.42188 0.28516-0.25781 0.60156-0.48047 0.92578-0.68359 0.15234-0.09375 0.33203-0.023437 0.44922 0.12891 0.10938 0.14063 0.11328 0.30078 0.027344 0.45313-0.046875 0.082031-0.10156 0.16406-0.17578 0.22266-0.21484 0.16406-0.4375 0.32422-0.66016 0.47266-0.070313 0.042969-0.15234 0.054688-0.27734 0.097656z"/>
  <path d="m36.055 43.906c0.097656-0.32031 0.17578-0.64844 0.29687-0.96094 0.09375-0.24609 0.33984-0.33594 0.5625-0.24609 0.20703 0.082031 0.30859 0.30469 0.24609 0.54688-0.054687 0.21094-0.10156 0.42578-0.17578 0.63281-0.046875 0.12891-0.11719 0.25391-0.20312 0.35547-0.12109 0.14453-0.29297 0.16406-0.46094 0.089844-0.17187-0.078125-0.24219-0.22656-0.26562-0.41797z"/>
  <path d="m47.219 12.023c-0.10938-0.019532-0.20703-0.023438-0.29688-0.050782-0.24609-0.070312-0.37109-0.26562-0.33594-0.49609 0.035156-0.21484 0.21094-0.34766 0.45703-0.35547 0.21094-0.011719 0.42188-0.035156 0.63281-0.050782 0.25781-0.015624 0.44531 0.11719 0.49219 0.33984 0.046875 0.23438-0.082031 0.44922-0.33594 0.51172-0.20312 0.054687-0.41406 0.070313-0.61328 0.10156z"/>
  <path d="m36.766 41.758c-0.26953 0-0.48047-0.23047-0.41797-0.49609 0.054688-0.23828 0.14062-0.48047 0.25391-0.69531 0.0625-0.11719 0.19922-0.21875 0.32422-0.27734 0.16797-0.082031 0.34375-0.046874 0.48047 0.097657 0.12891 0.14062 0.14844 0.30469 0.074219 0.46875-0.097657 0.21875-0.21094 0.42969-0.31641 0.64453-0.082031 0.16016-0.21094 0.25781-0.39844 0.25781z"/>
  <path d="m41.738 12.992c-0.28906-0.011719-0.42969-0.10156-0.49609-0.28906-0.066407-0.19531-0.027344-0.38281 0.15234-0.48438 0.24609-0.14062 0.50391-0.26562 0.76953-0.36328 0.25391-0.089844 0.48047 0.027343 0.5625 0.24219 0.082032 0.22266-0.007812 0.44141-0.25 0.5625-0.26953 0.13281-0.54297 0.24609-0.73828 0.33203z"/>
  <path d="m36.141 45.598c0.10156-0.25781 0.17188-0.53906 0.3125-0.76953 0.13672-0.22266 0.40625-0.24219 0.59766-0.11328 0.1875 0.12891 0.22266 0.33984 0.125 0.58594-0.046875 0.11719-0.078125 0.25-0.089843 0.37891-0.035157 0.35547-0.18359 0.53125-0.45703 0.52344-0.27344-0.011719-0.43359-0.22656-0.42969-0.57812-0.019531-0.015625-0.039063-0.019531-0.058594-0.027344z"/>
  <path d="m42.77 25.348c-0.39453 0.007813-0.63281-0.3125-0.48438-0.57422 0.19141-0.33203 0.46484-0.60547 0.86328-0.69141 0.24609-0.054687 0.45703 0.070313 0.52344 0.28516 0.066406 0.21484-0.023437 0.40234-0.24219 0.52734-0.10547 0.0625-0.19531 0.14844-0.30078 0.21484-0.13672 0.10156-0.28125 0.19141-0.35938 0.23828z"/>
  <path d="m45.629 21.008c-0.40625-0.007812-0.62891-0.38281-0.41797-0.62891 0.21094-0.24219 0.48047-0.44922 0.75781-0.60938 0.22266-0.12891 0.47656-0.003906 0.57422 0.20312 0.097656 0.21484 0.015625 0.42578-0.21484 0.57812-0.11328 0.074219-0.21484 0.17969-0.32812 0.25391-0.14062 0.085937-0.28906 0.15625-0.37109 0.20312z"/>
  <path d="m43.941 10.723c0.21484-0.003906 0.37109 0.085938 0.43359 0.29688 0.0625 0.21094-0.015625 0.39453-0.21094 0.48047-0.26562 0.11719-0.54297 0.21094-0.82422 0.28516-0.19531 0.050782-0.35938-0.054687-0.44531-0.23828-0.089843-0.19531-0.035156-0.37109 0.125-0.51562 0.17969-0.16406 0.63672-0.3125 0.92188-0.30859z"/>
  <path d="m39.09 19.141c-0.34766-0.003906-0.58203-0.36719-0.38672-0.62109 0.18359-0.23438 0.44141-0.41797 0.69531-0.57812 0.15625-0.097656 0.34766-0.023437 0.46875 0.13281 0.11328 0.14453 0.15234 0.33594 0.027343 0.46875-0.20312 0.21484-0.44922 0.39062-0.68359 0.57422-0.03125 0.027343-0.09375 0.019531-0.12109 0.023437z"/>
  <path d="m49.875 12.301c0.17969 0.027344 0.36328 0.042969 0.54297 0.082031 0.24219 0.054688 0.38672 0.23828 0.36719 0.44922-0.019531 0.22656-0.19141 0.39453-0.44922 0.39844-0.1875 0-0.37891-0.027344-0.56641-0.058594-0.29688-0.050781-0.44922-0.23438-0.42188-0.48828 0.027344-0.24609 0.22266-0.38672 0.52734-0.38281z"/>
  <path d="m45.914 10.797c0.22656 0.039063 0.39453 0.16016 0.44531 0.34766 0.050781 0.19141-0.019531 0.39453-0.21484 0.48047-0.22656 0.10156-0.46484 0.17969-0.70703 0.23438-0.19141 0.046875-0.38281-0.09375-0.44922-0.27734-0.066406-0.1875-0.011719-0.41016 0.17188-0.49609 0.24609-0.11719 0.50391-0.19531 0.75391-0.28906z"/>
  <path d="m41.625 13.789c0.007812 0.37109-0.74609 0.87109-1.0898 0.71875-0.25781-0.11328-0.35547-0.47266-0.14453-0.65625 0.21094-0.18359 0.46094-0.33594 0.71875-0.44141 0.25781-0.10156 0.50781 0.10938 0.51562 0.37891z"/>
  <path d="m45.637 44.414c-0.046875 0.1875-0.070313 0.38672-0.14062 0.56641-0.085938 0.21484-0.27344 0.30078-0.47656 0.25391s-0.33203-0.22266-0.32031-0.45703c0.007812-0.16016 0.019531-0.32031 0.046875-0.48047 0.054687-0.33594 0.24609-0.50781 0.51562-0.46875 0.25391 0.039063 0.375 0.23828 0.375 0.58594z"/>
  <path d="m48.98 12.434c-0.10156-0.015625-0.26953-0.027344-0.42969-0.070313-0.22266-0.0625-0.32812-0.25-0.30078-0.47266 0.027344-0.20312 0.18359-0.35156 0.40625-0.35938 0.15234-0.007812 0.30859 0.011719 0.46094 0.027344 0.28125 0.027344 0.46484 0.22656 0.44141 0.47266-0.027344 0.24609-0.23438 0.41406-0.57812 0.40234z"/>
  <path d="m37.621 49.531c-0.023438 0.14844-0.039063 0.33203-0.078125 0.50781-0.046875 0.20703-0.22656 0.33594-0.43359 0.32813-0.20703-0.007813-0.40625-0.14453-0.40234-0.35547 0.003907-0.25 0.046875-0.50781 0.13281-0.74219 0.066406-0.18359 0.26562-0.23828 0.46484-0.19141 0.19141 0.050781 0.31641 0.21484 0.31641 0.45312z"/>
  <path d="m51.68 20.309c-0.074219 0.15234-0.16016 0.38672-0.29297 0.58984-0.10547 0.16406-0.30078 0.18359-0.47656 0.10937-0.1875-0.078124-0.30469-0.24219-0.25391-0.4375 0.058594-0.22656 0.16016-0.45312 0.28906-0.65234 0.10156-0.16016 0.29297-0.1875 0.47266-0.11328 0.17969 0.078124 0.26562 0.22266 0.26172 0.50391z"/>
  <path d="m39.875 17.539c-0.31641-0.003906-0.54297-0.35156-0.36719-0.62891 0.12891-0.19922 0.32031-0.38281 0.52734-0.5 0.26172-0.15234 0.58203 0.078125 0.58203 0.38281 0 0.26953-0.47656 0.74609-0.74219 0.74609z"/>
  <path d="m49.582 15.332c-0.050781-0.042969-0.10156-0.078125-0.14844-0.125-0.15234-0.14453-0.20312-0.32031-0.11328-0.51562 0.089844-0.1875 0.24609-0.26172 0.44922-0.23828 0.10156 0.011719 0.20312 0.03125 0.30078 0.054687 0.22266 0.050782 0.35547 0.22266 0.34766 0.44141-0.007813 0.21484-0.15625 0.38281-0.38672 0.40234-0.12891 0.011719-0.26172-0.011718-0.39062-0.019531h-0.058594z"/>
  <path d="m50.211 14.336c-0.078126-0.019532-0.17969-0.035157-0.27734-0.066407-0.22266-0.078125-0.33594-0.27734-0.28516-0.5 0.042968-0.20312 0.23047-0.34375 0.44922-0.33594 0.085938 0.003906 0.17578 0.011718 0.26172 0.019531 0.23828 0.019531 0.40625 0.17188 0.42578 0.39062 0.019532 0.21094-0.13281 0.40234-0.35938 0.45312-0.0625 0.015625-0.125 0.023437-0.21484 0.039063z"/>
  <path d="m49.582 15.332h0.058594c0.035156 0.039063 0.070313 0.074219 0.10156 0.11328 0.14844 0.17578 0.16406 0.39063 0.03125 0.5625-0.11719 0.15234-0.33203 0.21094-0.51172 0.12891-0.17969-0.078125-0.28516-0.27734-0.25-0.46484 0.042969-0.21484 0.20312-0.34766 0.43359-0.35547 0.050782 0 0.09375 0.007813 0.13672 0.015625z"/>
 </g>
<text x="0.0" y="117.5" font-size="5.0" font-weight="bold" font-family="Arbeit Regular, Helvetica, Arial-Unicode, Arial, Sans-serif" fill="#000000">Created by kukuh amaliawan</text><text x="0.0" y="122.5" font-size="5.0" font-weight="bold" font-family="Arbeit Regular, Helvetica, Arial-Unicode, Arial, Sans-serif" fill="#000000">from Noun Project</text></svg>