<svg xmlns="http://www.w3.org/2000/svg" xmlns:xlink="http://www.w3.org/1999/xlink" xml:space="preserve" version="1.1" style="shape-rendering:geometricPrecision;text-rendering:geometricPrecision;image-rendering:optimizeQuality;" viewBox="0 0 50800 63500" x="0px" y="0px" fill-rule="evenodd" clip-rule="evenodd"><defs><style type="text/css">
   
    .fil0 {fill:black}
   
  </style></defs><g><path class="fil0" d="M10910 33119l1429 -221 31 522 256 -1 814 2352c152,414 279,824 443,1128 179,335 373,764 498,1196 -567,-154 -585,207 -2123,173 -1194,-27 -659,-341 -1402,-310 -287,12 -272,-12 -528,-86 -90,-517 415,-4181 582,-4753zm5782 3796c108,-294 69,-277 315,-281 -100,292 -189,170 -315,281zm24558 -2990c269,654 111,144 726,1020 513,730 1946,2785 1925,3570 -234,35 -813,461 -1307,590 -651,170 -403,121 -465,237l-185 -125c-218,-64 -357,56 -783,133 -362,65 -715,181 -1160,159 -120,-1166 -192,-2369 -281,-3508 -182,-2333 199,-1596 793,-1810 294,-107 466,-217 737,-266zm-1551 5693c-600,-20 -232,-170 -703,-234 57,234 23,58 174,345 -1057,-158 -1879,-379 -2877,-657 67,-463 269,-884 423,-1317 346,-972 517,-2655 1410,-3909 209,96 1125,398 1384,423 -180,618 -37,1939 25,2681l47 553c12,233 36,484 59,672 64,538 49,915 58,1443zm-29681 -1866c-267,-49 -632,-175 -841,-296 -343,-198 -311,-285 -760,-442 -440,-154 -1296,-560 -1560,-820l1320 -1759c250,-386 630,-1149 898,-1403 185,-175 260,-267 422,-419l963 319c-31,945 177,481 -142,2450 -131,804 -167,1555 -300,2370zm31508 -4021l1111 -1122 2067 1538c523,415 1619,1211 1899,1792 -447,429 -472,775 -1021,1199l-69 -246c-508,659 -549,1036 -1280,1224l-2707 -4385zm-8665 2857c-223,-628 -1233,-1740 -1353,-2489 648,-231 3639,-301 4726,-511 751,-145 1055,-75 1664,100l-138 221c-481,679 -628,1542 -884,2349l-844 2751c-349,-95 -1374,-629 -1644,-894 -203,-199 -466,-549 -615,-675 -189,-160 -182,-59 -396,-247 -154,-135 -195,-235 -280,-359 77,-101 2990,-2569 3384,-2724 134,-52 219,-45 343,-118 317,-188 104,20 184,-256 -1129,-112 -3108,2629 -4147,2852zm-4719 -3620c532,-1098 569,-1024 794,-2065l1515 -53c-224,1064 225,1959 293,2967l-3126 267c226,-360 412,-357 672,-813l-148 -303zm-15467 -269c832,-260 668,-661 1241,-919 386,279 601,558 966,893 1100,1009 2100,1412 3074,2714 -702,977 -1090,828 -1091,828 -124,94 -559,988 -1581,1363 -742,272 -118,180 -658,379 -122,-408 -294,-830 -511,-1196 -252,-424 -1371,-3536 -1440,-4062zm-6083 3275c-259,-514 -1129,-396 -2035,-2510 1088,-590 2131,-862 3077,-1320l943 -523 587 822c-231,407 -351,564 -594,913 -199,285 -345,594 -547,924 -187,305 -374,562 -634,840 -394,419 -461,651 -797,854zm36132 -3623c138,-316 230,-414 335,-759 821,67 1674,34 2525,85 747,45 1618,165 2385,244 7,585 -92,584 -173,993 -86,440 54,606 -145,1046 -240,531 -376,248 -537,661 -148,380 -74,546 -335,881 -521,-179 -601,-553 -1502,-1185l-1493 -1180c-143,-121 -350,-266 -522,-398l-538 -388zm-11731 -473c1928,-100 3484,-701 5390,-624 99,370 72,730 177,1081 97,328 271,634 385,954 -1749,371 -3689,440 -5590,511l-151 -863 279 255c-68,-640 -494,-608 -490,-1314zm-6809 1991c135,-488 348,-808 570,-1264 315,-648 1234,-1382 2004,-1486 442,-60 1215,-212 1571,-201 223,1061 -398,2036 -1126,2660 -995,854 -1777,686 -3019,291zm-5941 1317c-238,-175 -308,-237 -474,-425 -947,-1068 -2688,-1988 -3690,-3238l278 -961c503,48 809,189 1378,244 1409,135 3284,587 4234,464 -72,411 -531,1205 -570,1563 -22,207 70,164 -41,523 -248,806 -678,1382 -1115,1830zm6676 -3387l-969 1766c-290,-60 -72,60 -278,-105l-526 -674c-286,-329 -466,-603 -472,-1169 -9,-843 411,-1969 908,-2303l160 302c507,1163 644,782 697,1630 12,194 18,217 115,311l365 242zm2081 -994c67,-438 511,-1155 816,-1492l119 67c394,338 467,738 421,1302l-1356 123zm12507 428c-1067,-718 -291,-1162 93,-1209 229,-28 429,19 574,99 249,138 153,153 323,387 -181,537 -300,695 -990,723zm-3140 -295c-359,97 -4743,671 -5403,649 -24,-324 31,-560 166,-785 1683,-186 3745,-473 5314,-447l-77 583zm6709 -1180c985,-221 3682,-1184 4660,-1037l300 1430c48,337 -91,1181 -244,1457 -741,17 -1583,-170 -2300,-191 -423,-12 -860,22 -1282,-10 -535,-41 -708,-27 -1057,-252 -5,-489 53,-982 -77,-1397zm-34547 1726c-477,-17 -564,247 -948,427l-3158 1260c-388,-385 -337,-344 -385,-1004 -732,-618 205,-789 -436,-1381 13,-1049 417,-1580 343,-2531 902,157 1585,378 2323,691 362,154 1953,554 2392,558 -104,524 -223,1437 -131,1980zm23132 -3179c1141,-91 597,-113 1126,270 425,-83 167,-163 719,-286 286,-64 697,-83 999,-112 603,-56 1378,-125 1964,-115 435,299 552,337 685,884 -228,480 -371,508 -566,1118 -1764,-33 -3640,483 -5477,468 -12,-795 253,-871 273,-1214 16,-266 -63,-292 277,-1013zm-17188 455c1051,-559 3979,-1308 5334,-1581 664,1023 278,2442 323,3755 -661,224 -2198,-53 -2874,-187 -853,-168 -1890,-223 -2728,-419l-55 -1568zm16034 1794l-1790 89c-68,-1514 -1011,-1585 -435,-2062 574,-317 1800,-76 2495,-165l-270 2138zm464 -1432c-72,-103 -78,19 -80,-172 -3,-252 119,-416 217,-544l-137 716zm-4812 1290c-274,-318 -139,-384 83,-832 165,-333 251,-616 399,-1001 311,180 223,5 677,41 -208,385 -697,1386 -1000,1681 -128,123 -18,31 -159,111zm16850 -974c-1033,-1550 -75,-1721 1793,-3205 353,-281 725,-660 1241,-772 759,562 1492,2037 1577,2947l-4611 1030zm-17366 896l-601 32c-202,-711 -745,-1521 -829,-1729 597,-384 1122,-609 2098,-395 -105,294 -153,731 -274,1045 -132,345 -261,721 -394,1047zm-15425 -2306c533,-228 1110,-738 1590,-537l1607 389c95,61 476,561 541,660 743,1137 -5,3333 -1402,3927 -1304,554 -4502,377 -3574,-2831 238,-825 577,-960 1007,-1395l346 191c-100,-246 -52,-188 -115,-404zm28741 -186c400,-193 837,-177 1284,-216 134,155 63,-7 184,293 322,-117 739,-625 1690,533 679,828 894,1951 656,3008 -103,455 -198,563 -378,927 -299,600 -881,933 -1419,1247 -754,440 -1127,500 -2029,201 -1283,-424 -906,-466 -1279,-625 -280,-119 -331,-33 -510,-264 -267,-346 -526,-1653 -421,-2254 47,-268 143,-253 202,-419 67,-192 -76,-82 31,-453 193,-665 572,-568 674,-890 172,-542 115,-347 298,-476 142,100 58,-2 166,140 37,49 94,183 132,241 150,231 168,212 457,276l-9 442 391 203c-143,232 -572,436 -443,987 84,356 427,475 667,769 417,-9 775,-127 1043,-345 237,-193 405,-705 426,-1025 -305,-204 -344,-270 -686,-377 -1127,-352 -67,-182 -675,-1183 -58,-95 -443,-730 -452,-740zm-34866 92c-93,-530 -25,-216 83,-519l303 -631c95,-166 31,-100 97,-279 76,-204 196,-336 256,-473 162,-364 19,-375 477,-905 375,-434 159,-514 727,-465 73,-329 171,-467 332,-673l2681 2921c240,321 633,837 788,1115 -741,810 -57,-143 -1081,1271 -512,-82 -4307,-1148 -4663,-1362zm28871 -2031l370 -310c387,149 2492,1740 2676,2082 -1925,143 -2001,226 -4186,277 97,-1143 932,-1687 981,-1747 97,-121 104,-170 159,-302zm-18680 2501l-633 -736c66,-470 520,-842 806,-1126 350,-348 601,-629 947,-985 328,-336 617,-618 950,-983 375,-411 666,-821 1000,-1012 190,182 432,322 705,598 256,259 465,468 646,826 138,271 249,721 717,1495 185,306 176,122 280,427 -874,262 -1833,467 -2686,715 -660,192 -2196,752 -2732,781zm18680 -2501l144 -411c127,-141 34,-46 179,-161 -81,457 -69,212 -323,572zm9212 2059c-548,-267 -453,-575 -1259,-677 556,-1708 822,-2238 1582,-3719l322 -540c204,50 309,91 492,187 654,342 368,105 1078,664 417,329 1109,910 1381,1296l-1780 1357c-318,254 -518,463 -852,712 -347,259 -665,453 -964,720zm-8754 -2881c276,-259 321,-179 612,-223 259,-366 235,-520 801,-739 132,338 1236,1669 1510,2007 236,290 703,704 820,932l579 1164c-221,212 -86,150 -364,256l-208 -261c173,-441 148,-38 212,-476 -414,-233 -343,-98 -915,-103l-2849 -2285c97,-242 78,-121 149,-330 -77,80 -10,124 -173,132 -12,1 -45,-5 -57,-6l-117 -68zm-26901 -1472l312 -271c2034,-1543 908,-702 2670,-1385 273,1059 645,1731 932,2658 292,946 877,1560 1091,2495 -287,193 -496,190 -766,343 -285,162 -449,261 -710,370 -457,-552 -1714,-2286 -2116,-2646l-979 -957c-473,-481 -256,-285 -434,-607zm28941 -92c486,-518 570,-286 869,-339 554,-99 887,-739 1861,-657l252 2241c51,281 119,343 184,641l300 2125c-184,308 -1090,-842 -1269,-1062l-1460 -1942c-269,-305 -561,-625 -737,-1007zm-4615 4414l-1953 29c272,-718 198,-6 394,-843 89,-382 291,-475 484,-816l955 -1530c165,-253 303,-465 426,-772 652,-1626 507,-1087 1288,-2586l926 1062c116,155 308,539 406,620 273,228 40,-145 552,422 -228,357 -668,470 -1081,823 -1273,1086 -411,579 -897,1130 -1174,1329 -776,1306 -1133,1809 -213,302 -229,300 -367,652zm-12885 -4510l392 316c-439,-108 -189,-120 -392,-316zm-4695 3850c25,-762 388,-739 544,-1194 191,-560 140,-738 414,-1329 89,-192 148,-399 206,-629 184,-733 47,-271 335,-588 225,-248 312,-924 391,-1354 544,196 527,285 786,508 316,274 640,278 711,743 310,-127 164,-200 462,-81 -110,317 -587,684 -903,993 -289,281 -207,368 -913,1019l-1695 1713c-295,278 -63,122 -338,199zm25963 198c62,-556 -271,-1730 -362,-2406 -59,-435 -291,-2163 -220,-2357 94,279 -67,116 184,146 64,-436 -93,-169 209,-353 489,-297 2230,-45 2400,5 94,28 751,320 834,369l-1622 4090c-237,573 -111,358 -1423,506zm3532 -5115c303,54 206,-14 312,237 -373,-68 -90,68 -312,-237zm-30742 -677l163 58c358,28 294,-118 904,-93 392,16 908,20 1181,-20 -99,416 -349,852 -494,1286 -162,486 -325,831 -484,1364 -85,285 -110,451 -244,676 -159,268 -171,316 -265,663 -117,437 -244,978 -430,1392l-459 54c-108,-138 -1111,-2198 -1198,-2444 -366,-1042 -717,-1501 -775,-2684 347,-104 741,-426 1228,-160 -227,261 -284,139 -417,329 1304,-362 586,-516 1190,-644 157,-34 523,-24 697,-23l-597 246zm7831 -615c456,-53 2027,81 2847,-5 1019,-106 2092,62 3093,-8 974,-67 1952,-92 2946,-116 562,-14 1072,66 1564,54 522,-13 1048,-140 1562,-40l-2619 4455c-202,336 -368,555 -582,895 -227,360 -223,554 -441,940 -179,320 -425,556 -681,815 -668,-37 -1197,-146 -1936,-116 -1032,43 -1182,362 -1562,473 -132,-172 -477,-669 -563,-835l-443 -1029c-346,-1001 -906,-1257 -1076,-1858 -203,-716 -1073,-2137 -1599,-2736 -216,-245 -396,-579 -510,-889zm12427 -4765l376 43c-199,139 -135,151 -376,-43zm5596 -141c19,-210 76,-124 100,-8 17,79 -111,132 -100,8zm-5869 -317c-391,35 -148,37 -264,-154 236,101 108,4 264,154zm1366 97c74,-46 210,-134 307,-165 361,-117 360,13 413,54l-720 111zm5788 -1068c17,-101 29,-35 91,-38 129,-7 -140,317 -91,38zm-1253 -696l-357 67c20,-183 256,-152 357,-67zm-5435 143c252,-178 107,-121 584,-196 108,-17 236,-48 311,-50 517,-12 90,-16 235,63 -294,229 -665,192 -1130,183zm7277 -287l-57 132c-60,-74 -242,176 0,-304 19,33 46,9 57,172zm-1929 -923c664,-144 1265,-319 1617,282 -413,-95 -100,71 -361,-261 -764,-28 -897,181 -1256,-21zm-20429 -4023c329,-59 374,-13 569,-37 617,-76 519,-309 1772,-246 21,681 190,542 906,537 520,-3 1701,463 1521,-502 -254,-145 -306,-112 -545,-184 -689,-208 263,-100 -1621,-607 -469,312 122,165 -695,335 -1642,340 -3751,717 -4366,2441 127,260 168,185 179,547 36,1257 -115,1183 543,2132 498,719 318,400 986,924 -273,517 -957,2737 -1130,3410 -156,604 -396,1108 -610,1704 -194,537 -295,1262 -615,1745 -822,-152 -1053,-256 -2025,-242 -639,8 -1429,76 -2029,178 -643,108 -1166,224 -1736,469 -643,277 -2315,1175 -2799,1617 -257,234 -693,913 -944,1265 -1191,1675 -2233,4941 -1731,6989 88,361 188,412 258,827 69,413 116,592 201,921 314,1212 1067,1770 1781,2637 916,1114 2642,1999 4049,2573 341,140 1385,321 1815,414 1467,318 611,86 1776,78 1000,-6 1877,-247 2685,-672 796,-419 478,-45 1369,-831 118,-104 174,-191 274,-279 372,-330 579,-174 924,-732 749,-1211 1328,-1350 2184,-3338 228,-527 257,-1234 382,-1826 558,-2640 176,-1829 -132,-3714 -235,-1439 -416,-1989 -1250,-3168 -726,-1027 -1239,-1413 -2406,-2008 -523,-267 -836,-573 -1357,-854l-240 160c-10,-18 -36,36 -54,54 161,-603 361,-1475 597,-2029 165,-389 323,-400 423,-860 94,-429 67,-543 235,-974 325,472 568,914 838,1484 303,639 671,849 975,1324 336,526 504,1134 795,1506 286,366 714,954 933,1368 280,531 1242,1633 1327,2126 153,883 246,710 661,1501 141,269 197,504 340,764 574,1046 267,1292 508,1581 -372,588 -723,1751 -530,2668 163,779 868,1206 1360,1739l-719 1753c-273,12 -539,69 -740,75 -368,11 -273,-102 -739,-68l116 384c69,207 22,140 104,307 735,-340 2278,209 2659,-325 -235,-378 -526,-311 -984,-326 -74,-415 361,-1318 604,-1615 453,80 1198,380 1656,388 284,4 561,-181 789,-127 372,86 -184,158 376,91 32,-4 276,-85 358,-105 840,-195 2786,-444 3579,-366 333,666 423,1441 615,1775 319,556 583,937 903,1398 366,529 675,753 1314,1078 451,230 980,719 1425,884 395,147 228,-180 826,178 883,527 1576,800 2708,839 1248,42 2881,0 3908,-549 274,-145 559,-149 920,-283 1131,-419 3349,-2065 3895,-3093l399 -703c172,-233 193,-506 381,-819 325,-540 217,-260 235,-948 11,-418 206,-521 300,-911 81,-331 47,-663 73,-1022 79,-1092 42,-1978 -288,-3014 -100,-312 -44,-217 -74,-478l-166 -369c355,-438 -348,-926 -885,-1897 -172,-310 -63,-211 -48,-603 -1218,-1086 -2182,-2171 -3714,-2903 -487,-233 -67,-343 -582,-509 -293,-94 -639,3 -936,-74 -1567,-407 -1914,-478 -3731,-128 -1543,297 -1882,514 -3190,1112 -528,-382 -1120,-1361 -1537,-1929 -163,-223 -338,-425 -508,-614 193,-724 1721,-2774 2171,-3823 584,-1 972,82 1524,37 2131,-174 2654,111 3133,-1639 127,-463 338,-849 210,-1318 -453,-1651 -2037,-995 -3183,-640 -684,212 -3255,760 -4062,706 -2010,-134 -2038,2112 -1415,2529 824,552 1779,445 2723,403 -217,477 -1288,2446 -1646,2889 -2766,70 -5555,271 -8364,308 -627,8 -1073,-93 -1656,-76 -1126,34 -2231,133 -3357,106 -383,-813 -558,-719 -1267,-2406 -196,-466 -547,-610 -725,-1124 -144,-416 153,-1025 250,-1504l-453 30 33 -275c264,98 245,146 478,253 725,332 703,495 1525,465l-47 454c587,-10 373,-163 1094,2 346,79 671,138 1010,192 54,-135 42,-198 123,-293 85,-101 124,21 165,-120 8,-29 42,-20 61,-33 -139,-239 -280,-385 -456,-650 -644,191 -1076,-249 -1650,-433l-161 386c-2298,-581 -450,-210 -2053,-777 -429,-152 -416,-249 -546,-656 -151,39 -174,66 -214,86 -9,4 -93,69 -134,91 -487,-869 -509,-1033 -709,-2053 -67,-339 138,-686 191,-982 30,-167 75,-276 245,-407 266,-205 291,-24 450,-235 267,-354 -247,-578 1083,-578l-24 -314z"/><path class="fil0" d="M11431 30512c174,-319 92,-610 487,-587 264,304 282,698 -104,1032 -195,-53 -90,-13 -199,-179 -687,217 -843,133 -737,-662 190,-169 241,-282 528,-278 -58,281 -145,408 25,674zm1149 -370c-440,-617 -408,-188 -782,-663 -629,-23 -948,-18 -1140,440 -882,2103 1820,1454 1922,223z"/></g><text x="0" y="50815" fill="#000000" font-size="5px" font-weight="bold" font-family="'Helvetica Neue', Helvetica, Arial-Unicode, Arial, Sans-serif">Created by Alex Muravev</text><text x="0" y="50820" fill="#000000" font-size="5px" font-weight="bold" font-family="'Helvetica Neue', Helvetica, Arial-Unicode, Arial, Sans-serif">from the Noun Project</text></svg>