<svg xmlns="http://www.w3.org/2000/svg" xmlns:xlink="http://www.w3.org/1999/xlink" version="1.1" x="0px" y="0px" viewBox="0 0 100 125" style="enable-background:new 0 0 100 100;" xml:space="preserve"><path d="M92.679,64.132l-0.821-0.761c-0.002-0.002-0.003-0.003-0.005-0.005l0,0l-4.84-4.487c-0.108-0.309-0.264-0.603-0.468-0.87  L75.879,44.114l2.997-3.494c1.118-1.304,0.967-3.274-0.336-4.392L63.047,22.939c-0.86-0.737-2.009-0.919-3.013-0.586l1.922-6.127  c0.514-1.639-0.401-3.39-2.04-3.904L40.439,6.213c-0.794-0.249-1.637-0.174-2.375,0.211c-0.737,0.385-1.281,1.035-1.53,1.829  l-2.573,8.203l-1.056-9.731c-0.086-0.793-0.476-1.505-1.097-2.005c-0.622-0.5-1.402-0.728-2.194-0.642L9.068,6.306  C8.275,6.392,7.562,6.782,7.063,7.404S6.334,8.805,6.42,9.598l3.629,33.458c0.166,1.528,1.463,2.665,2.967,2.665  c0.107,0,0.215-0.006,0.324-0.018l15.3-1.66l9.613,3.015l-1.344,1.566c-0.542,0.632-0.805,1.436-0.742,2.266  c0.063,0.83,0.446,1.585,1.078,2.126l8.103,6.95l-2.096,1.608c-1.363,1.046-1.62,3.005-0.575,4.367l0.754,0.983l-1.792,0.997  c-0.275,0.136-0.5,0.282-0.681,0.432c-1.069,0.745-1.108,1.298-1.108,3.642v7.871c0,0.826,0.348,1.622,0.953,2.184l14.957,13.865  c0.513,0.476,1.171,0.722,1.835,0.721c0.449,0,0.902-0.112,1.315-0.342l33.759-18.785c0.536-0.298,0.925-0.96,0.925-1.574v-9.701  C93.597,65.522,93.202,64.617,92.679,64.132z M92.182,73.394L58.189,92.309c-0.505,0.281-1.127,0.206-1.55-0.187L41.268,77.874  v-1.581l14.986,13.892c0.36,0.334,0.821,0.507,1.288,0.507c0.315,0,0.633-0.079,0.923-0.24l33.717-18.762V73.394z M41.632,72.041  L53.411,82.82c2.062,1.855,3.094,2.711,4.287,2.711c0.997,0,2.107-0.6,4.027-1.716l29.684-16.518  c0.289-0.155,0.547-0.309,0.773-0.469v1.754L58.189,87.497c-0.505,0.281-1.127,0.206-1.55-0.187L41.268,73.062v-1.064  c0-0.089,0-0.171,0-0.255C41.426,71.886,41.56,71.989,41.632,72.041z M92.182,71.041L58.189,89.956  c-0.505,0.281-1.128,0.205-1.55-0.187L41.268,75.521v-1.687l14.986,13.892c0.36,0.334,0.822,0.506,1.288,0.506  c0.315,0,0.633-0.079,0.923-0.24L92.182,69.23V71.041z M85.635,62.633l1.785,1.655c0.646,0.599,0.696,0.821,0.687,0.888  c-0.008,0.062-0.105,0.25-0.84,0.643L65.923,77.762L85.635,62.633z M48.055,50.133c0.308,0.096,0.623,0.144,0.936,0.144  c0.495,0,0.987-0.12,1.439-0.356c0.737-0.385,1.281-1.035,1.53-1.828l0.807-2.573l-0.381,5.523l9.282-2.092l0.654-9.493  l-8.237,1.857l3.599-11.475l2.947-3.436c0.129-0.15,0.309-0.241,0.506-0.256c0.196-0.015,0.388,0.047,0.539,0.176l13.725,11.773  c0.31,0.266,0.346,0.735,0.08,1.045L55.155,62.841c-0.129,0.15-0.309,0.241-0.506,0.257c-0.196,0.014-0.388-0.048-0.539-0.176  L40.385,51.148c-0.31-0.266-0.346-0.735-0.08-1.045l1.623-1.892L48.055,50.133z M36.536,40.183L34.915,25.24l4.671-14.89  c0.122-0.39,0.538-0.608,0.929-0.485l17.254,5.412c0.39,0.122,0.607,0.539,0.485,0.929l-9.344,29.791  c-0.059,0.189-0.188,0.343-0.364,0.435c-0.176,0.092-0.376,0.109-0.565,0.05L35.671,42.62  C36.291,42.002,36.637,41.119,36.536,40.183z M13.186,44.268c-0.849,0.093-1.608-0.522-1.7-1.367L7.856,9.442  C7.812,9.032,7.929,8.63,8.188,8.309c0.258-0.321,0.626-0.522,1.036-0.567l20.547-2.229c0.056-0.006,0.112-0.009,0.168-0.009  c0.777,0,1.447,0.587,1.533,1.376L35.1,40.339c0.092,0.846-0.522,1.608-1.367,1.7L13.186,44.268z M33.889,43.474  c0.234-0.025,0.457-0.08,0.67-0.155l13.122,4.116c0.173,0.054,0.348,0.08,0.52,0.08c0.741,0,1.429-0.477,1.662-1.22l9.344-29.791  c0.287-0.916-0.224-1.895-1.14-2.182L40.813,8.911c-0.916-0.287-1.895,0.224-2.182,1.14l-3.986,12.707l-0.295-2.717l3.562-11.356  c0.134-0.426,0.425-0.774,0.821-0.981c0.395-0.207,0.848-0.247,1.274-0.113l19.476,6.109c0.879,0.276,1.37,1.215,1.094,2.094  l-9.996,31.867c-0.134,0.426-0.425,0.774-0.821,0.981c-0.396,0.207-0.848,0.247-1.274,0.113l-16.261-5.101L33.889,43.474z   M37.609,50.781c-0.034-0.445,0.107-0.877,0.398-1.215l1.747-2.036l1.136,0.356l-1.344,1.567c-0.625,0.728-0.54,1.83,0.188,2.455  L53.459,63.68c0.318,0.273,0.715,0.419,1.131,0.419c0.045,0,0.09-0.002,0.136-0.005c0.464-0.035,0.886-0.249,1.188-0.602  L76.24,39.793c0.625-0.729,0.541-1.83-0.188-2.455L62.328,25.566c-0.353-0.303-0.801-0.45-1.266-0.414  c-0.464,0.036-0.886,0.25-1.188,0.603l-1.429,1.666l0.832-2.651l0.475-0.554c0.6-0.7,1.657-0.78,2.356-0.181L77.6,37.324  c0.699,0.6,0.78,1.657,0.18,2.356L56.036,65.03c-0.6,0.699-1.656,0.781-2.356,0.181L38.187,51.921  C37.848,51.631,37.643,51.226,37.609,50.781z M52.74,66.307c0.586,0.503,1.308,0.749,2.026,0.749c0.878,0,1.751-0.368,2.366-1.086  l2.255-2.629c0.711,0.377,1.552,0.506,2.106,0.548c-1.163,0.677-2.511,1.413-3.167,1.593c-0.149,0.041-0.206,0.221-0.112,0.343  l0.512,0.667l0.512,0.668c0.094,0.123,0.282,0.114,0.361-0.02c0.344-0.586,1.403-1.698,2.358-2.646  c-0.231,1.23-0.422,3.977,2.457,4.104c4.646,0.205,4.617-8.544,4.588-9.831c-0.002-0.095-0.064-0.176-0.155-0.202  c-0.549-0.16-2.521-0.7-4.631-0.854l9.36-10.913l9.513,12.395c0.249,0.324,0.187,0.79-0.137,1.039L58.183,79.241  c-0.157,0.121-0.352,0.173-0.548,0.147c-0.196-0.026-0.371-0.127-0.491-0.284L46.135,64.76c-0.121-0.157-0.173-0.352-0.147-0.548  c0.026-0.196,0.126-0.371,0.284-0.491l1.822-1.399L52.74,66.307z M44.133,62.722l2.336-1.793l0.849,0.728l-1.656,1.271  c-0.369,0.283-0.606,0.693-0.666,1.154c-0.061,0.461,0.062,0.918,0.345,1.287l11.009,14.345c0.283,0.369,0.693,0.605,1.154,0.666  c0.077,0.01,0.154,0.015,0.231,0.015c0.381,0,0.749-0.124,1.056-0.36L83.56,61.026c0.761-0.585,0.905-1.68,0.321-2.441l-9.64-12.561  l0.677-0.79l10.48,13.655c0.272,0.354,0.389,0.793,0.331,1.235c-0.058,0.443-0.285,0.836-0.639,1.107L58.595,81.565  c-0.354,0.272-0.791,0.391-1.235,0.331c-0.443-0.058-0.836-0.285-1.107-0.639L43.825,65.064  C43.264,64.334,43.403,63.283,44.133,62.722z M45.416,69.509l2.522,3.287l-2.006-1.836l-0.047-0.038  c-0.255-0.179-0.773-0.666-0.744-1.028C45.152,69.749,45.267,69.62,45.416,69.509z M44.305,68.061l0.549,0.715  c-0.389,0.293-0.603,0.644-0.634,1.048c-0.072,0.931,0.902,1.686,1.11,1.836l5.835,5.339l3.943,5.138  c0.506,0.66,1.24,1.083,2.065,1.192c0.138,0.018,0.276,0.027,0.412,0.027c0.681,0,1.341-0.223,1.89-0.644l1.296-0.994  c0.249-0.141,0.517-0.297,0.814-0.469L87.71,66.629c0.735-0.393,1.24-0.771,1.313-1.335c0.074-0.578-0.336-1.091-0.975-1.684  l-1.703-1.578c0.321-0.342,0.559-0.748,0.698-1.195l3.878,3.595c0.739,0.691,0.768,0.919,0.77,0.935  c-0.011,0.035-0.108,0.232-0.959,0.687l-29.706,16.53c-1.775,1.032-2.757,1.601-3.454,1.515c-0.715-0.086-1.602-0.884-3.209-2.329  L42.556,70.968l-0.072-0.058c-0.374-0.263-0.879-0.804-0.853-1.133c0.008-0.102,0.089-0.214,0.227-0.328  c0.123-0.079,0.271-0.169,0.46-0.282L44.305,68.061z M91.984,76.274L58.225,95.059c-0.488,0.271-1.09,0.198-1.5-0.181L41.768,81.014  c-0.318-0.295-0.5-0.712-0.5-1.146v-1.223l14.986,13.892c0.36,0.334,0.821,0.506,1.288,0.506c0.315,0,0.633-0.079,0.923-0.24  l33.717-18.762v1.895C92.182,76.035,92.069,76.227,91.984,76.274z"/><path d="M33.888,39.314L30.507,8.142c-0.048-0.445-0.267-0.844-0.615-1.124c-0.349-0.28-0.785-0.408-1.23-0.36L10.552,8.622  c-0.918,0.1-1.583,0.928-1.484,1.845l3.381,31.172c0.093,0.857,0.821,1.494,1.663,1.494c0.06,0,0.121-0.003,0.182-0.01l18.109-1.964  c0.445-0.048,0.844-0.267,1.124-0.615C33.809,40.195,33.936,39.758,33.888,39.314z M32.749,39.917  c-0.113,0.14-0.274,0.228-0.453,0.248l-18.109,1.964c-0.37,0.039-0.703-0.228-0.744-0.598l-3.381-31.172  c-0.04-0.37,0.228-0.703,0.598-0.744l18.109-1.964c0.025-0.003,0.049-0.004,0.074-0.004c0.153,0,0.301,0.052,0.421,0.149  c0.14,0.113,0.228,0.274,0.248,0.453l3.381,31.172C32.913,39.6,32.862,39.776,32.749,39.917z"/><path d="M21.164,21.264c0,0-3.142-3.545-5.213-0.456c-2.549,3.802,4.667,8.244,5.957,8.996c0.116,0.067,0.261,0.052,0.36-0.039  c1.099-1.012,7.195-6.898,3.89-10.064C23.472,17.128,21.164,21.264,21.164,21.264z"/><path d="M38.536,31.175c1.291,0.794,2.945,0.586,4.014-0.409c0.053-0.049,0.132,0.008,0.102,0.073  c-0.485,1.021-1.009,2.037-1.37,2.491c-0.107,0.135-0.041,0.335,0.123,0.387l0.762,0.239l0.762,0.239  c0.165,0.052,0.333-0.075,0.322-0.247c-0.037-0.579,0.113-1.712,0.298-2.828c0.012-0.071,0.11-0.072,0.125-0.002  c0.309,1.427,1.547,2.543,3.061,2.628c1.878,0.106,3.426-1.416,3.312-3.34c-0.101-1.706-1.54-3.03-3.246-3.126  c-0.113-0.006-0.328-0.008-0.277-0.035l0.025-0.014c1.529-0.827,2.265-2.684,1.585-4.283c-0.769-1.806-2.914-2.479-4.576-1.435  c-1.472,0.925-1.927,2.87-1.144,4.422l0.012,0.024c0.029,0.058-0.274-0.146-0.248-0.13c-1.455-0.896-3.393-0.63-4.45,0.712  C36.533,28.056,36.934,30.189,38.536,31.175z"/><text x="0" y="115" fill="#000000" font-size="5px" font-weight="bold" font-family="'Helvetica Neue', Helvetica, Arial-Unicode, Arial, Sans-serif">Created by Lucas Helle</text><text x="0" y="120" fill="#000000" font-size="5px" font-weight="bold" font-family="'Helvetica Neue', Helvetica, Arial-Unicode, Arial, Sans-serif">from the Noun Project</text></svg>