<svg xmlns="http://www.w3.org/2000/svg" xmlns:xlink="http://www.w3.org/1999/xlink" version="1.1" x="0px" y="0px" viewBox="0 0 74 92.5" style="enable-background:new 0 0 74 74;" xml:space="preserve"><path d="M56.86,8.74c-4.97-5.39-16.04-4.59-20.04,0.05c-0.01,0.01-0.02,0.03-0.03,0.04c-4.1,2.89-4.35,6.96-1.79,9.87l0,0.03  c-0.01,0-0.01-0.01-0.02-0.02c-5.11-3.16-14.16-2.5-17.91,1.86c-1.75,1.24-2.67,2.56-3.04,3.62c-0.25,0.71-0.84,2.37,0.16,4.58  c0.32,0.71,0.75,1.26,1.11,1.67c0.35,5.74,1.68,14.27,3.98,19.57c1.08,2.46,1.87,3.3,2.61,4.1c2.63,2.4,8.31,2.24,10.67-0.03  c0.85-0.84,1.55-1.95,2.15-3.19l1.21-1.08l-0.01,2.66l-8.47,10.45c-1.15,1.37,1,3.01,2.05,1.66l5.58-6.86l-2.81,9.54  c-0.56,1.92,2.76,2.34,3.21,0.75l3.68-12.67l5.37,9.08c0.85,1.45,3.59,0.33,2.57-1.36l-6.1-10.05c0-0.01,0.01-0.02,0.01-0.04  l0.03-7.72l2.13-1.9c2.78,1.25,6.99,0.97,9.13-1.01c2.36-2.37,3.62-6.57,4.62-10.75c0.46-1.86,1.08-5.4,1.33-7.58  c0.28-2.34,0.43-3.92,0.5-5.39C61.45,15.43,60.78,11.4,56.86,8.74z M52.62,23.84c-0.44,0.6-0.62,0.83-1.06,1.43l0.78,2.62h0.42  l-2.23,14.73c-0.13,0.06-0.26,0.13-0.4,0.18l-2.16-14.91h0.42l0.78-2.62c-0.45-0.6-0.62-0.83-1.07-1.43h-0.25v-0.83  c1.48-0.07,3.22-0.31,5.02-0.86v1.69H52.62z M35.14,47.88l-1.43-7.98h0.39l0.78-2.62c-0.44-0.6-0.62-0.83-1.07-1.43h-0.24v-2.09  c1.65-0.56,3.35-1.38,4.66-2.57C37.9,36.1,36.89,42.74,35.14,47.88z M30.05,54.67c-0.13,0.04-0.26,0.08-0.4,0.12L27.5,39.9h0.41  l0.78-2.62c-0.44-0.6-0.62-0.83-1.07-1.43h-0.25v-1.08c1.43-0.02,3.17-0.17,5.02-0.66v1.74h-0.26c-0.44,0.6-0.62,0.83-1.06,1.43  l0.78,2.62h0.41L30.05,54.67z M21.32,39.9h0.42l0.78-2.62c-0.45-0.6-0.62-0.83-1.07-1.43H21.2v-1.91c1.81,0.54,3.57,0.75,5.02,0.81  v1.1h-0.25c-0.44,0.6-0.62,0.83-1.06,1.43l0.78,2.62h0.41l-2.12,14.64c-0.17-0.07-0.32-0.16-0.48-0.24L21.32,39.9z M40.33,28.15  l-1.42,7.84c-0.1-0.3-0.2-0.62-0.31-0.95c0.2-1.66,0.34-3.28,0.41-4.68C39.74,29.5,40.11,28.8,40.33,28.15z M38.39,36.75  c0.33,0.92,0.6,1.56,0.95,2.29c-0.41-0.1-0.86-0.12-1.29-0.06C38.17,38.25,38.28,37.5,38.39,36.75z M39.72,38.08l1.33-7.37  l1.76,11.65C41.37,41.44,40.41,39.64,39.72,38.08z M40.27,23.84c-0.04,0.05-0.07,0.09-0.1,0.14c-0.64-1.47-1.63-2.47-2.61-3.2  c0.97,0.56,1.97,0.98,2.97,1.3v1.76H40.27z M41.8,27.88h0.41L43,25.27c-0.44-0.6-0.62-0.83-1.07-1.43h-0.25v-1.43  c1.68,0.42,3.5,0.63,5.02,0.63v0.8h-0.25c-0.45,0.6-0.62,0.83-1.06,1.43l0.78,2.62h0.42l-2.19,15.15c-0.11-0.03-0.21-0.07-0.32-0.1  L41.8,27.88z M58.08,13.53c0,1.71-1.2,3.32-3.38,4.54c-8.98,4.99-24.36-0.65-17.31-8.79C42.44,3.41,57.85,4.92,58.08,13.53z   M38.36,25.27c0,1.71-1.2,3.32-3.38,4.54c-6.99,3.88-19.02,1.15-19.07-4.46C16.37,14.81,38.09,14.96,38.36,25.27z M16.09,31.23  c1.17,1.04,2.42,1.74,3.95,2.32v2.3h-0.25c-0.44,0.6-0.62,0.83-1.06,1.43l0.78,2.62h0.4l-1.17,6.41  C17.3,41.48,16.45,36.06,16.09,31.23z M19.95,49.72c-0.15-0.35-0.3-0.72-0.44-1.1l1.06-5.9l1.59,10.61  C21.55,52.66,20.89,51.84,19.95,49.72z M25.11,54.89l1.69-11.73l1.71,11.86C27.38,55.18,26.2,55.14,25.11,54.89z M31.31,54.09  l1.72-11.4l1.31,7.24C33.68,51.42,32.69,53.24,31.31,54.09z M37.75,43.95l-0.92,0.82c0.4-1.56,0.58-2.37,0.72-3.09  c0.9,0.22,1.89,0.17,2.73-0.34c-0.05,12.67,0.14,11.83-0.5,12.2c-1.26,0.73-3.14,0.1-3.14-0.57l0.02-3.82l1.08-0.97  C38.5,47.64,38.13,43.95,37.75,43.95z M45.53,43.28l1.75-12.13l1.73,12C47.9,43.4,46.68,43.44,45.53,43.28z M51.83,41.73l1.68-11.05  l1.1,6.12C53.89,38.76,53,40.52,51.83,41.73z M56.17,31.43c-0.24,1-0.51,2.03-0.8,3.05l-1.19-6.59h0.39l0.78-2.62  c-0.45-0.6-0.62-0.83-1.07-1.43h-0.24v-2.1c1.46-0.57,2.75-1.24,3.89-2.28c-0.08,1.23-0.22,2.61-0.45,4.48  C57.24,26.09,56.63,29.59,56.17,31.43z"/><text x="0" y="89" fill="#000000" font-size="5px" font-weight="bold" font-family="'Helvetica Neue', Helvetica, Arial-Unicode, Arial, Sans-serif">Created by Azam Ishaq</text><text x="0" y="94" fill="#000000" font-size="5px" font-weight="bold" font-family="'Helvetica Neue', Helvetica, Arial-Unicode, Arial, Sans-serif">from the Noun Project</text></svg>