<svg xmlns="http://www.w3.org/2000/svg" data-name="Слой 1" viewBox="0 0 100 125" x="0px" y="0px"><title>airplane</title><g><path d="M32.52022,47.09243a12.06817,12.06817,0,0,0-3.15371-1.34253,0.60207,0.60207,0,0,1-.57669-0.63,0.63331,0.63331,0,0,1,.78417-0.50641c1.6721,0.12529,3.3981.02668,4.86476,1.07544a5.81525,5.81525,0,0,0,.94431.41125c0.80634,0.38878,1.35666-.19711,1.97884-0.50171a0.4689,0.4689,0,0,0,.12814-0.4206,16.99022,16.99022,0,0,0,.09107-1.971,3.103,3.103,0,0,1,.33775-1.147c0.42763-.799.80025-1.62718,1.214-2.43388a1.48775,1.48775,0,0,0,.13439-0.72831A0.38574,0.38574,0,0,1,39.603,38.421a0.52086,0.52086,0,0,1,.53743.30835,1.18825,1.18825,0,0,1,.13946.633,32.33688,32.33688,0,0,1-.51412,3.79182,9.66864,9.66864,0,0,1-.78389,1.69938,0.42459,0.42459,0,0,0,.28367.70706,2.43222,2.43222,0,0,0,1.19808.16161,5.16227,5.16227,0,0,0,2.504-1.01185,3.16129,3.16129,0,0,1,2.64865-.62792,2.34327,2.34327,0,0,1,.73393.15794,3.4955,3.4955,0,0,0,3.13619-.31463A20.95308,20.95308,0,0,1,52.86084,42.762c1.51858-.39054,3.007-0.87648,4.51314-1.3043,1.99211-.56587,4.02275-0.96437,6.02793-1.46686,2.06348-.5171,4.07778-1.22761,6.13352-1.7792,2.60206-.69817,5.22288-1.323,7.80267-2.10811a31.13566,31.13566,0,0,1,3.11774-.68528,9.04907,9.04907,0,0,0,1.165-.35238,7.084,7.084,0,0,1,7.299,1.31147,1.45415,1.45415,0,0,1-.39778,2.51121,29.62087,29.62087,0,0,1-5.95561,1.97115c-2.19121.52739-4.40986,0.93892-6.579,1.55908a4.29286,4.29286,0,0,1-1.24481.40371,0.39862,0.39862,0,0,0-.31672.17242c-0.27265.76749-.99564,1.31051-1.02925,2.207a7.96062,7.96062,0,0,1-.52356,2.28344,0.59516,0.59516,0,0,0-.0276.62147,0.55918,0.55918,0,0,0,.692.00775,28.155,28.155,0,0,1,3.70024-1.05392,4.45735,4.45735,0,0,1,2.73266.34815,2.88773,2.88773,0,0,1,1.97417,2.1699,1.09062,1.09062,0,0,1-.42618,1.37966,11.49663,11.49663,0,0,1-2.783,1.34377c-2.00726.61856-4.0618,1.053-6.07772,1.63423-0.78095.22516-.80642,0.283-0.72422,1.12567a6.63211,6.63211,0,0,1-.18653,3.24022,2.51463,2.51463,0,0,1-1.36078,1.431,4.20363,4.20363,0,0,1-2.3089.51845c-0.47036-.04822-0.48419.24273-0.42159,0.60381a1.28825,1.28825,0,0,0,.45989.68953c0.65513,0.64839.67221,0.88149,0.10811,1.6599a1.43165,1.43165,0,0,1-2.27156.17349,1.35343,1.35343,0,0,1,.25554-2.15141c0.10623-.06458.23705-0.08941,0.34143-0.15617,0.29843-.19086.11222-0.37411-0.03872-0.52775a0.37164,0.37164,0,0,0-.26788-0.044c-1.66512.19248-3.29359-.35567-4.96269-0.22489a9.57779,9.57779,0,0,1-2.87836-.39261,10.39975,10.39975,0,0,1-2.81786-.67517,3.15594,3.15594,0,0,0-2.43881.046,1.07629,1.07629,0,0,0,.50125.63346,1.36131,1.36131,0,0,1,.42838,1.68984,2.31816,2.31816,0,0,1-1.64259,1.74431,2.38513,2.38513,0,0,1-2.29691-.688,1.86836,1.86836,0,0,1-.33132-2.38647c0.31087-.68932.19334-0.83379-0.554-0.74965-0.71455.08044-1.427,0.194-2.13328,0.33a17.762,17.762,0,0,1-2.98595.33528c-0.68269.01475-1.35985,0.15752-2.05091,0.16742a1.86582,1.86582,0,0,0-1.06729.71864c-0.08712.07459-.08908,0.25114-0.17744,0.32138a1.19634,1.19634,0,0,0-.50362,1.76633,1.55488,1.55488,0,0,1-.99942,1.89165,7.43084,7.43084,0,0,1-.98386.31336,1.40679,1.40679,0,0,1-1.47412-.36089,6.60362,6.60362,0,0,1-.51182-0.54566,1.89578,1.89578,0,0,1,1.28019-3.10555c0.12167-.01789.25489,0.03442,0.37425,0.01094a0.35745,0.35745,0,0,0,.26606-0.43445,0.28022,0.28022,0,0,0-.35533-0.21938c-0.59283.04489-1.18853,0.07623-1.77613,0.16127-1.82762.26451-3.64685,0.59351-5.47906,0.81817-2.05313.25175-4.0478,0.83119-6.1138,1.0135-0.7546.06659-1.50267,0.0647-2.25426,0.069a1.6681,1.6681,0,0,1-1.36556-.72215,12.20066,12.20066,0,0,1-1.25234-2.08945,1.41874,1.41874,0,0,1,.93776-2.08307,19.09951,19.09951,0,0,1,2.46538-.56728,1.072,1.072,0,0,1,.64088.08624,2.25547,2.25547,0,0,0,1.46592.11342c0.87094-.14905.895-0.13854,0.84-0.99385-0.04609-.717-0.12531-1.43437-0.23823-2.14387-0.10816-.67961-0.23253-0.7259-0.969-0.65428a32.23063,32.23063,0,0,0-4.52079.87712,41.02583,41.02583,0,0,1-6.221.95033,1.32306,1.32306,0,0,1-1.188-.45222c-0.62134-.79015-1.39565-1.43671-2.00174-2.2454a2.63822,2.63822,0,0,1-.16881-2.41177,0.35247,0.35247,0,0,1,.17774-0.209,7.24973,7.24973,0,0,1,2.56573-1.053,37.87373,37.87373,0,0,0,4.37643-.57682,38.08256,38.08256,0,0,1,4.219-.29854c1.37818-.10032,2.72386-0.40719,4.10034-0.51291,0.71847-.05518,1.43915-0.11346,2.15685-0.12865,1.35044-.02859,2.66678-0.38,4.01754-0.37994A0.59328,0.59328,0,0,0,32.52022,47.09243ZM67.69294,45.952l0.01593,0.01864c0.08853-.44913.48728-0.28519,0.7543-0.38249a3.26879,3.26879,0,0,0,1.30427-.25417c-0.93209-.79986-1.90562.01885-2.9928-0.15674a10.86987,10.86987,0,0,1,2.81781-.66466,0.277,0.277,0,0,0-.38368-0.234c-0.61271.10758-1.22121,0.23881-1.83221,0.35646a2.06248,2.06248,0,0,0-1.90212,1.60269,4.80491,4.80491,0,0,1-.36093.65427,4.79048,4.79048,0,0,0-.529,1.94372,29.45656,29.45656,0,0,0,4.17374-2.77952,0.52908,0.52908,0,0,0-.13385-0.09167C68.314,45.95791,68.00346,45.95547,67.69294,45.952ZM64.76265,58.46l-0.02322-.0181a27.24333,27.24333,0,0,0,3.30241.65661,5.20363,5.20363,0,0,0,2.13133-.22982,1.42023,1.42023,0,0,0,.8421-1.24942c0.02748-.55306-0.48492-0.23324-0.67084-0.43174a0.40276,0.40276,0,0,1-.0471-0.16357,3.32114,3.32114,0,0,1,.68022-0.25045c0.2797-.25967.09873-0.49283-0.01042-0.75082a1.76613,1.76613,0,0,1,.1807-0.30465,0.816,0.816,0,0,0-1.04461-1.1201,1.19607,1.19607,0,0,0-.24117.12262,0.58832,0.58832,0,0,0,.44455.125,0.30066,0.30066,0,0,1,.3584.29391l-2.67638.41533c0.36653-.22789.69-0.17538,0.7156-0.49515a57.97993,57.97993,0,0,0-8.26583,2.22964A11.41844,11.41844,0,0,0,64.76265,58.46ZM48.78777,44.96293c1.94618,0.83405,3.697,1.58544,5.44892,2.334a1.14936,1.14936,0,0,0,.82166.06765c1.25645-.38123,2.549-0.66493,3.77007-1.13559a36.532,36.532,0,0,1,4.2441-1.43817c1.48619-.37232,2.986-0.70439,4.44578-1.1627,0.905-.28413,1.86343-0.29118,2.74145-0.62892a37.97731,37.97731,0,0,1,3.884-1.08158c2.0257-.54194,4.04455-1.10478,6.09588-1.56036a40.48451,40.48451,0,0,0,5.15881-1.39112A25.355,25.355,0,0,0,87.802,37.92865c0.409-.19964.50269-0.60988,0.20262-0.82731a3.87267,3.87267,0,0,0-1.59757-1.04891c-1.22527-.20875-2.40519-0.68511-3.69125-0.24559-1.03176.35261-2.11321,0.55723-3.15618,0.88056-0.75144.233-1.536,0.2383-2.29656,0.46551-0.9588.28645-1.89758,0.66471-2.87139,0.87225-2.2381.477-4.44732,1.0478-6.62965,1.73262a18.30749,18.30749,0,0,1-1.77333.60374c-1.65391.34283-3.29671,0.74517-4.93253,1.16785-2.02582.52346-4.0437,1.07875-6.05851,1.64344C52.98327,43.7374,50.97686,44.33055,48.78777,44.96293ZM14.556,54.46032a22.93585,22.93585,0,0,0,3.35064-.41234,76.39516,76.39516,0,0,1,8.941-1.60808c2.229-.32569,4.45314-0.67383,6.67159-1.05992a17.29111,17.29111,0,0,1,2.31567-.36608c0.53073-.02.606-0.20776,0.38158-0.73966a3.52889,3.52889,0,0,1-.49856-2.15624c0.05822-.27479-0.15535-0.37849-0.39675-0.414a3.89823,3.89823,0,0,0-1.68-.00891,11.98919,11.98919,0,0,1-2.12917.34935c-1.52389.15669-3.05747,0.26232-4.56619,0.51408-2.71971.45383-5.46142,0.69514-8.19709,1.003a31.39488,31.39488,0,0,0-4.27088.53338,6.93529,6.93529,0,0,0-2.31854.63408c-0.61389.40356-.65182,0.47479-0.41457,1.20649a7.3044,7.3044,0,0,0,1.27555,1.78768A1.57821,1.57821,0,0,0,14.556,54.46032Zm66.17177-4.76824a2.80594,2.80594,0,0,0-1.94582-1.5387,3.26167,3.26167,0,0,0-1.18427.07636,12.87965,12.87965,0,0,0-4.53194,1.13481c-1.0149.416-2.08037,0.64636-3.09551,1.04944a15.31838,15.31838,0,0,1-1.50775.49832c-3.10587.86938-6.23659,1.63925-9.38179,2.34558-1.40366.31522-2.784,0.74355-4.21788,0.92337-0.65276.08186-1.3106,0.145-1.9535,0.27782-0.68321.14115-.6598,0.18725-0.69483,0.86634-0.04008.777-.1285,1.55191-0.20782,2.3265-0.04985.48678,0.07474,0.65792,0.53334,0.55176a14.10668,14.10668,0,0,1,2.86577-.53944,6.30043,6.30043,0,0,0,1.23063-.439c2.90615-.65277,5.66838-1.81192,8.58672-2.43447,1.43461-.306,2.83391-0.77517,4.26542-1.09873q2.52277-.57023,4.99447-1.31835c1.01117-.30359,2.02047-0.61845,3.035-0.90283a4.77766,4.77766,0,0,0,1.864-.80755A6.80377,6.80377,0,0,1,80.72776,49.69208ZM61.487,51.73689a0.59129,0.59129,0,0,0-.49762-0.367c-1.191-.47813-2.35721-1.01982-3.52668-1.54135-2.315-1.03238-4.62348-2.08213-6.93948-3.11382-0.83857-.37355-0.84934-0.35632-1.31139.43956a0.67729,0.67729,0,0,1-.6731.52415,8.2208,8.2208,0,0,1-2.67588-.40886,25.6298,25.6298,0,0,0-3.33922-.94254,3.604,3.604,0,0,0-1.98687.1291,4.52371,4.52371,0,0,1,.2249.92051c0.02185,0.77775.13673,0.95524,0.90058,1.00551a4.03961,4.03961,0,0,1,2.23509.86912,4.30663,4.30663,0,0,0,.93008.44143,3.37534,3.37534,0,0,1,1.63743,1.27384,1.70068,1.70068,0,0,1-.56407.23919,5.01064,5.01064,0,0,1-1.57263-.12275,4.3837,4.3837,0,0,1-2.59673-.93155,3.46918,3.46918,0,0,0-1.35313-.63053,0.59723,0.59723,0,0,0-.71941.46358c-0.08079.271,0.22469,0.33646,0.41039,0.42718a16.95753,16.95753,0,0,1,1.60932.76871,27.189,27.189,0,0,0,4.29246,1.848c0.62485,0.25687,1.31111.38071,1.95666,0.62738a3.67966,3.67966,0,0,0,1.63726.30154c1.8325-.20426,3.665-0.45178,5.47568-0.79721C57.18938,52.75021,59.31546,52.22188,61.487,51.73689ZM24.85641,61.44951a33.10431,33.10431,0,0,0,5.00046-.7048c1.60915-.215,3.20039-0.54639,4.82006-0.71747,1.024-.10816,2.04281-0.27517,3.07294-0.35456,0.71078-.05478.724-0.11731,0.60534-0.79658-0.07525-.4308-0.13043-0.86655-0.16686-1.3024-0.07475-.89452-0.36352-1.12966-1.25306-0.95208a48.89181,48.89181,0,0,1-4.93809.6031c-1.49639.14316-2.98363,0.33557-4.45885,0.624a11.39546,11.39546,0,0,1-1.27057.31092c-1.02634.08546-2.04424,0.23183-3.07993,0.256a4.97525,4.97525,0,0,0-1.997.47565c-0.58473.275-.724,0.70722-0.25831,1.10006a1.19159,1.19159,0,0,1,.35607.49042,1.56112,1.56112,0,0,0,1.902,1.10442C23.7455,61.51484,24.29883,61.46916,24.85641,61.44951ZM56.36123,48.12282a3.934,3.934,0,0,0,1.07367.61941,12.28188,12.28188,0,0,1,1.55314.63942,11.9168,11.9168,0,0,0,3.64909,1.40916c0.64825,0.12453.70478,0.12877,0.74774-.52344a11.68374,11.68374,0,0,1,1.31592-4.23866,0.38788,0.38788,0,0,0,.11547-0.41691,0.443,0.443,0,0,0-.5016-0.15307c-0.15307.03146-.3048,0.071-0.45505,0.11424C61.366,46.28985,58.948,47.22761,56.36123,48.12282ZM43.41458,54.46025c-1.75993-1.2439-3.8-1.87356-5.65931-3.14432a3.66676,3.66676,0,0,1-.34683,1.79906c-0.4559.65874-.5,1.46807-0.92312,2.1304-0.21161.33124-.05547,0.54655,0.34084,0.5104,0.36987-.03373.73154-0.149,1.10078-0.19935C39.76916,55.30542,41.57846,54.8869,43.41458,54.46025ZM35.706,52.27145a1.593,1.593,0,0,0-1.44468.23011c-1.55155,1.10521-2.95646,2.40026-4.54423,3.4577a3.18622,3.18622,0,0,0-1.04067.82909c1.049-.10434,1.93936-0.17421,2.82442-0.28591,0.99049-.125,1.97595-0.28957,2.96408-0.43357a0.5896,0.5896,0,0,0,.61966-0.73749A4.05453,4.05453,0,0,1,35.706,52.27145Zm-3.05274.40512a2.29378,2.29378,0,0,0-1.51694.08141c-1.23152.19348-2.46672,0.36617-3.69365,0.58523-0.77973.13922-.85427,0.29347-0.72626,1.08728,0.09391,0.58238.20033,1.16373,0.26465,1.74955,0.04149,0.3779.23881,0.39578,0.51089,0.28487a1.46176,1.46176,0,0,0,.39316-0.25037,29.16156,29.16156,0,0,1,3.13073-2.21823A7.53429,7.53429,0,0,0,32.65331,52.67657ZM70.0965,48.67908a3.573,3.573,0,0,0-.07609-1.14316c-0.03261-.88072-0.2673-0.9673-1.01659-0.48693a26.92037,26.92037,0,0,1-3.46168,2.199c-0.62074.276-.77378,1.02567-1.387,1.31468-0.13091.0617-.05919,0.29111,0.09487,0.38376a0.51682,0.51682,0,0,0,.45237.01641c1.55281-.56947,3.20659-0.79021,4.75228-1.39893A0.7666,0.7666,0,0,0,70.0965,48.67908ZM40.75334,59.323a1.13623,1.13623,0,0,0,.8623-0.26427,31.3585,31.3585,0,0,0,3.0699-3.01848,0.432,0.432,0,0,0,.15456-0.5,0.41775,0.41775,0,0,0-.50532-0.12383c-0.99459.23462-2.00845,0.34713-3.01477,0.50647a0.84869,0.84869,0,0,0-.70959.87357c-0.06734.71651-.11121,1.43461-0.23593,2.14478C40.3247,59.22481,40.448,59.35393,40.75334,59.323Zm2.3063-.25164a19.09453,19.09453,0,0,0,5.62352-.55556,1.30143,1.30143,0,0,0-.20206-0.32793q-1.20407-.80558-2.4192-1.59458a0.60494,0.60494,0,0,0-.89861.18781A13.03731,13.03731,0,0,1,43.05965,59.0714Zm7.64533-.70149a8.71549,8.71549,0,0,0-1.037-2.83965,1.003,1.003,0,0,0-.68388-0.4565,5.29706,5.29706,0,0,0-2.31809.05751,0.45,0.45,0,0,0-.376.373,0.34428,0.34428,0,0,0,.263.34206q1.91593,1.26406,3.83715,2.52008A0.97409,0.97409,0,0,0,50.705,58.36992ZM70.81849,46.37677q0.05281,0.79217.10566,1.58434c0.02155,0.3221-.1366.78068,0.34323,0.83695a0.78763,0.78763,0,0,0,.7094-0.74138,1.36076,1.36076,0,0,0,.06189-0.27344,14.88834,14.88834,0,0,1,.46834-2.09437,0.5386,0.5386,0,0,0-.02731-0.61558c-0.25764-.19864-0.4515.07965-0.64875,0.20749-0.2615.16946-.51025,0.35848-0.76556,0.53755A0.525,0.525,0,0,0,70.81849,46.37677ZM56.6795,58.495a2.031,2.031,0,0,1,1.089.27361,1.59891,1.59891,0,0,0,1.23964.01684c0.39053-.10156.64253,0.60412,1.1886,0.57956a20.27254,20.27254,0,0,0,2.597-.08394,9.67343,9.67343,0,0,0-3.12714-.69156,7.95546,7.95546,0,0,1-1.89264-.36986A0.94072,0.94072,0,0,0,56.6795,58.495Zm-16.701-1.409c-0.001-.58717-0.212-0.7987-0.619-0.78582-0.45407.01437-.3304,0.37037-0.3548,0.6215-0.04542.46751,0.24585,0.892,0.1959,1.36738a0.26539,0.26539,0,0,0,.17372.18734,0.25578,0.25578,0,0,0,.27589-0.2C39.78326,57.83158,39.89828,57.38143,39.97854,57.086Zm32.746-13.60266a4.92138,4.92138,0,0,0-1.9273.38713c-0.34252.10453-.26714,0.37518-0.18026,0.61275a0.33785,0.33785,0,0,0,.59162.155A8.53169,8.53169,0,0,0,72.72456,43.48335ZM51.2377,55.481c0.03264-.54559-0.00643-0.64749-0.2546-0.67389-0.38481-.04094-0.56154.24394-0.37883,0.6888,0.0962,0.23423.11446,0.64555,0.45563,0.60186C51.389,56.05563,51.12339,55.6732,51.2377,55.481ZM45.1788,45.2402a1.14184,1.14184,0,0,0,1.28883.11133A1.01036,1.01036,0,0,0,45.1788,45.2402Zm-0.05075.99119a0.69465,0.69465,0,0,0,.90413.20174,0.17571,0.17571,0,0,0,.06333-0.15133,0.79212,0.79212,0,0,0-.83659-0.09491A0.582,0.582,0,0,0,45.12806,46.23139Zm2.04026-.84507c-0.12876.01148-.33476,0.01326-0.29211,0.22139a0.4224,0.4224,0,0,0,.44005.27552c0.16287,0.00727.35837-.06967,0.325-0.23895A0.426,0.426,0,0,0,47.16832,45.38631Zm-4,.42894a1.39045,1.39045,0,0,0,1.10168.21663A1.14494,1.14494,0,0,0,43.1683,45.81525Zm4.0789,0.99646a0.56449,0.56449,0,0,0-.678-0.39549,0.17048,0.17048,0,0,0-.0848.13769A0.50663,0.50663,0,0,0,47.2472,46.81171ZM38.27928,63.97158c-0.34411-.22546-0.42316-0.6247-0.84078-0.45144a0.18426,0.18426,0,0,0-.0654.16043C37.461,64.11745,37.779,64.06016,38.27928,63.97158Zm10.4148-17.94349a0.49031,0.49031,0,0,0-.60793-0.37989c-0.10619.01541-.07425,0.14971-0.03757,0.22732A0.37487,0.37487,0,0,0,48.69408,46.02809Zm2.66607,15.86577a0.48912,0.48912,0,0,0-.68568-0.213A0.42082,0.42082,0,0,0,51.36015,61.89386ZM48.221,46.67753a0.21643,0.21643,0,0,0-.27966-0.12773c-0.08205.00309-.18836,0.01569-0.16138,0.13982a0.21183,0.21183,0,0,0,.27335.15116A0.1629,0.1629,0,0,0,48.221,46.67753Z"/><path d="M51.03319,48.1989a0.80733,0.80733,0,0,1,.86264.96275,0.92263,0.92263,0,0,1-.87935.908,1.15312,1.15312,0,0,1-.98126-1.06849A1.1066,1.1066,0,0,1,51.03319,48.1989Zm-0.20812.58529a0.40106,0.40106,0,0,0-.429.27857,0.341,0.341,0,0,0,.25263.33449,0.56152,0.56152,0,0,0,.75022-0.00219,0.24251,0.24251,0,0,0,.06254-0.32557A0.74,0.74,0,0,0,50.82508,48.78419Z"/><path d="M55.968,50.42391a0.71836,0.71836,0,0,1-.64119.85173,0.79526,0.79526,0,0,1-.76946-0.76541,0.96347,0.96347,0,0,1,.80537-0.98187A0.77708,0.77708,0,0,1,55.968,50.42391Zm-0.28877.0272a0.27533,0.27533,0,0,0-.20023-0.2832,0.5808,0.5808,0,0,0-.7.28457,0.18258,0.18258,0,0,0,.1606.19379A0.60885,0.60885,0,0,0,55.67918,50.45111Z"/><path d="M52.49806,49.47162a1.0087,1.0087,0,0,1,1.12969-.54142,0.59546,0.59546,0,0,1,.422.73713,0.95392,0.95392,0,0,1-.80038.81419c-0.361.07433-.59517-0.05666-0.659-0.56279a0.68045,0.68045,0,0,0,.92513-0.139c0.1287-.21853-0.19775-0.42579-0.574-0.35C52.8093,49.45626,52.71925,49.6781,52.49806,49.47162Z"/><path d="M57.3443,50.25421a0.74275,0.74275,0,0,1,.699.73467,0.57066,0.57066,0,0,1-.62294.64508,0.71182,0.71182,0,0,1-.83266-0.56448A0.89823,0.89823,0,0,1,57.3443,50.25421Zm0.35334,0.7435a0.29255,0.29255,0,0,0-.29431-0.27976,0.3131,0.3131,0,0,0-.43239.201,0.249,0.249,0,0,0,.27959.27429A0.35352,0.35352,0,0,0,57.69763,50.9977Z"/><path d="M67.63246,58.80449c0.38345-.32779.82272-0.09,0.93842-0.507a4.35784,4.35784,0,0,1-.61892-0.2506c0.31076-.07235.59242-0.15952,0.88066-0.20027a0.93691,0.93691,0,0,1,1.27734.51678A13.09388,13.09388,0,0,1,67.63246,58.80449Z"/><path d="M69.92858,55.92024c0.11535,0.035.32907-.03,0.297,0.21108a0.61214,0.61214,0,0,1-.67777.48919A0.2423,0.2423,0,0,1,69.286,56.32,0.53035,0.53035,0,0,1,69.92858,55.92024Z"/><path d="M68.65793,56.96351a1.75225,1.75225,0,0,1-1.08645.50291A0.84685,0.84685,0,0,1,68.65793,56.96351Z"/><path d="M67.63309,56.47117c0.25554-.06314.43248-0.49157,0.81395-0.21273A0.95517,0.95517,0,0,1,67.63309,56.47117Z"/><path d="M65.30671,57.9036c-0.02882-.01181-0.05846-0.02194-0.08632-0.03572-0.15353-.07594-0.40008.00611-0.452-0.23364-0.02433-.11239.099-0.13086,0.19068-0.142,0.33415-.04068.34,0.18231,0.3327,0.41546Z"/><path d="M64.76265,58.46c-0.01341-.16979-0.32227-0.17339-0.2239-0.38872a0.32594,0.32594,0,0,1,.25833.01516c0.241,0.152-.03078.23383-0.06053,0.35308Z"/><path d="M65.29178,57.90768a1.99033,1.99033,0,0,1,.8078-0.0206,1.05545,1.05545,0,0,1-.78727.01391Z"/><path d="M69.22084,49.18029a1.012,1.012,0,0,1-1.02693.25146A0.98757,0.98757,0,0,1,69.22084,49.18029Z"/><path d="M67.69294,45.952a0.59449,0.59449,0,0,1-.72916.29834,0.65319,0.65319,0,0,1,.74493-0.27987Z"/></g><text x="0" y="115" fill="#000000" font-size="5px" font-weight="bold" font-family="'Helvetica Neue', Helvetica, Arial-Unicode, Arial, Sans-serif">Created by Olga</text><text x="0" y="120" fill="#000000" font-size="5px" font-weight="bold" font-family="'Helvetica Neue', Helvetica, Arial-Unicode, Arial, Sans-serif">from the Noun Project</text></svg>