<svg xmlns="http://www.w3.org/2000/svg" xmlns:xlink="http://www.w3.org/1999/xlink" version="1.1" x="0px" y="0px" viewBox="0 0 80 100" enable-background="new 0 0 80 80" xml:space="preserve"><path d="M54.3,52.4c-0.3,0-0.6-0.1-0.8-0.1c-0.1,0.5-0.1,0.8-0.2,1.2c0,0.1-0.3,0.1-0.4,0.2c-0.2,0.1-0.4,0.1-0.6,0.3  c-0.5,0.4-0.9,0.9-1.4,1.3c-0.2,0.2-0.3,0.4-0.4,0.6c-0.2,0.4,0,0.6,0.4,0.6c0.2,0,0.5-0.1,0.7-0.1c0.3,0,0.8,0.1,0.9,0.2  c0.1,0.3,0,0.8-0.1,1.1c-0.5,0.7-1.3,1-2.1,1.2c-0.2,0-0.5,0.1-0.7,0.1c-0.3,0-0.5-0.1-0.8-0.2c0.1-0.2,0.2-0.4,0.3-0.6  c0.3-0.7,0.5-1.5,0.9-2.2c0.4-0.8,0.9-1.5,1.5-2.2c1.5-1.7,2.6-3.5,3.3-5.7c0.2-0.6,0.3-1.1,0.6-1.7c0.3-0.7,0.3-1.4,0-2.1  c-0.3-0.7-0.6-1.4-0.8-2.2c-0.1-0.3-0.2-0.7-0.3-1.1c0.1,0,0,0-0.1,0.1c-0.2-0.5-0.5-1.1-0.6-1.4c-2.2-0.1-4.3-0.2-6.5-0.3  c0,1-0.1,2-0.1,3c0,1.4-0.1,2.7,0.1,4.1c0.2,1.3,0.7,2.6,0.9,3.9c0.3,1.7,0.5,3.4,0.8,5c0.1,0.8-0.4,1.2-0.7,1.7  c-0.3,0.5-0.5,0.9-0.8,1.4c-0.2,0.3-0.4,0.5-0.7,0.7c-0.4,0.2-0.8,0.2-0.8,0.8c0,0.1-0.4,0.3-0.6,0.3c-0.6,0-1.2,0-1.8-0.1  c-0.5,0-0.6-0.3-0.3-0.7c0.5-0.8,1-1.5,1.6-2.3c0.4-0.6,0.8-1.1,0.9-1.9c0.3-1.8-0.2-3.4-0.5-5.1c-0.1-0.4-0.4-0.8-0.6-1.1  c-0.2-0.4-0.4-0.9-0.4-1.3c0.2-1.8-0.7-3.3-1.5-4.8c-0.5-1-1-1.9-1.4-2.9c-0.2-0.5-0.5-0.6-1-0.6c-0.3,0-0.6,0-1,0  c-0.3,0-0.7,0.1-0.7-0.4c0,0-0.3-0.1-0.5-0.1c0,0.1,0,0.1,0,0.2c0.1,0,0.2,0.1,0.3,0.1c0,0,0,0.1,0,0.1c-0.2,0-0.5,0.1-0.7,0.1  c-0.7-0.2-1,0.3-1.4,0.7c-1.2,1.3-2.3,2.7-3.2,4.3c-0.3,0.7-0.6,1.3-1,2c0,0.1-0.1,0.2-0.1,0.3c-0.8,1.5-1.7,3-2.5,4.5  c-0.4,0.7-0.6,1.6-1,2.3c-0.3,0.5-0.8,0.8-1.2,1.2c-0.2,0.2-0.2,0.4-0.4,0.5c-0.1,0.1-0.3,0.2-0.4,0.3c-0.1-0.2-0.3-0.4-0.2-0.5  c0.3-0.5,0.5-1.2,1-1.5c0.7-0.3,0.9-0.9,1.2-1.5c0.5-1.3,1.2-2.5,1.6-3.8c0.3-1,1-1.7,1.5-2.5c0.1-0.3,0.1-0.6,0.2-0.9  c0-0.2,0.1-0.4,0.2-0.4c0.4-0.2,0.7-0.4,0.5-1c0-0.1,0.2-0.3,0.3-0.5c-0.1-0.1-0.3-0.2-0.6-0.3c0.4-0.5,0.7-1,1-1.4  c0.6-0.7,0.6-2.4-0.1-3c-0.2-0.2-0.2-0.4-0.5-0.8c-0.2,0.5-0.4,0.8-0.5,1.1c-0.3,0.9-0.3,1.8-0.9,2.6c-0.4,0.5-0.3,1.4-0.5,2  c-0.2,0.7-0.6,1.3-0.9,1.9c-0.3,0.5-0.6,0.9-0.9,1.4c-0.1,0.1-0.2,0.3-0.2,0.4c0.5,1.5-0.5,2.5-1,3.7c-0.5,1-1.1,1.9-1.7,2.7  c-0.4,0.5-0.9,0.9-1.3,1.3c-0.2,0.2-0.4,0.5-0.6,0.7c0.3,0.6,0.8,0.6,1.4,0.7c0.2,0,0.4,0.2,0.6,0.3c-0.1,0.2-0.2,0.4-0.3,0.6  c-0.6,1.1-1.7,0.9-2.7,1.1c-0.3,0.1-0.6,0-1,0c-0.3-0.4-0.4-0.9,0.2-1.3c0.3-0.3,0.7-0.6,1-0.9c0,0,0.1-0.1,0.1-0.1  c0-0.9,0.7-1.3,1.3-1.9c0.9-0.9,1.6-2,2.2-3c0.5-0.8,0.7-1.7,1.1-2.5c0-0.1,0.1-0.1,0.1-0.2c-0.4-1.5,0.7-2.4,1.4-3.5  c0.3-0.4,0.5-1,0.5-1.5c0.1-1.4,0.7-2.7,1.3-3.9c0.5-1.2,0.9-2.5,0.6-3.8c0-0.2,0-0.3,0.1-0.7c-0.6,0.2-1.1,0.2-1.5,0.5  c-1.9,1.2-3.8,2.4-5.7,3.6c-0.2,0.1-0.4,0.4-0.6,0.5c-0.4,0.4-0.6,0.7-0.4,1.4c0.1,0.7,0.1,1.5-0.2,2.2c-0.3,0.8-0.6,1.7-1.5,2.2  c-1.2,0.7-1.8,1.9-2.1,3.2c0,0.1,0,0.2-0.1,0.3c-1.1,1.2-1.7,2.8-2.8,3.9c-0.2,0.2-0.5,0.3-0.8,0.4c-0.6,0.2-1.4,0.1-2,0.5  c-0.6,0.4-1.5-0.1-1.8-0.8c-0.3-0.7-0.7-1.4-0.9-2.1C11,50,11.3,49.5,11.4,49c0.7-1.7,1.4-3.3,2-5c0.3-0.9,0.2-1.9-0.8-2.6  c-0.2-0.1-0.4-0.4-0.4-0.7c0-1.4,0.1-2.8,1.3-3.7c0.5-0.4,0.7-0.9,0.6-1.6c-0.1-0.7-0.1-1.6,0.4-2.2c0.1-0.1,0.1-0.4,0.2-0.6  c0.1-0.2,0.3-0.3,0.5-0.5c0.1,0.2,0.3,0.3,0.3,0.5c0.1,0.5,0.2,1,0.4,1.5c0.1,0.2,0.4,0.4,0.6,0.6c0.2-0.2,0.4-0.4,0.5-0.6  c0.3-0.6,0.5-1.3,0.8-2c0.2-0.5,0.6-0.6,0.9-0.1c0.3,0.5,0.6,0.4,1.1,0.1c1.5-1,3-2,4.6-3c0.2-0.1,0.3-0.2,0.5-0.4  c1.3-1.7,3-2.9,4.8-4.1c1.6-1,3.2-2.1,4.8-3.1c0.3-0.2,0.6-0.2,0.9-0.2c0.1,0,0.3,0,0.3-0.1c1.4-1.2,3.1-1.5,4.9-1  c1.4,0.4,2.8,0.9,4.2,1.7c0.8,0.5,1.9,0.6,2.9,0.7c1.3,0.3,2.7,0.4,4,0.7c1.4,0.3,2.7,0.1,4-0.1c0.3-0.1,0.6-0.4,0.9-0.5  c0,0,0.1,0.1,0.1,0.1c-0.1,0-0.2,0.1-0.4,0.2c0.8,0,1.5,0.1,2.2,0c2.6-0.4,5,0.2,7,2c0.5,0.5,0.9,1,1.7,1c0.2,0,0.4,0,0.5,0  c0.8-0.3,1.6-0.1,2.2,0.4c1.3,0.9,2.7,1.8,3.4,3.3c0.3,0.5,0.3,1.2,0.5,1.7c0,0.1,0,0.2,0,0.3c1.2,2.1,0.9,4.3,0,6.4  c-0.7,1.8-0.8,3.6-0.1,5.5c0.2,0.6,0.6,1.2,0.7,1.8c0,0.8-0.2,1.6-0.4,2.3c0,0-0.1,0.1-0.1,0.1c-0.2,0.2-0.3,0.5-0.5,0.7  c-0.1-0.3-0.3-0.5-0.4-0.8c-0.2-0.7-0.3-1.5-1.3-1.7c-0.3-0.1-0.5-0.6-0.7-0.9c-0.1-0.1-0.3-0.2-0.4-0.4c-0.1,0.2-0.2,0.3-0.2,0.5  c-0.1,1.1-0.2,2.2-0.3,3.3c0,0.6,0,1.1,0,1.7c0,0.2,0,0.5-0.1,0.7c0,0.4-0.2,0.8-0.1,1.1c0.1,1.3,0.3,2.6,0.5,3.9  c0.1,0.8-0.4,1.5-1.2,1.7c-0.2,0-0.4,0-0.5-0.1c-0.1-0.1-0.1-0.4,0-0.4c1.1-0.8,0.6-1.9,0.6-2.8c-0.2-2.6-0.2-5.2,0.3-7.7  c0.2-1.1-0.3-1.9-1-2.5c-1.6-1.3-2.5-3.1-2.8-5.1c-0.1-0.9,0.1-1.8,0.3-2.7c0.3-1.8,0.9-3.5,1-5.2c0-2.5-0.6-4.9-3.1-6.2  c-1.1-0.6-2.2-1.3-3.5-0.9c-0.4,0.1-1-0.1-1.4,0c-1.8,0.2-3.7,0.4-5.5,0.5c-0.8,0-1.7-0.2-2.6-0.3c-1.6-0.3-3.3-0.5-4.9-0.9  c-0.7-0.1-1.3-0.5-1.9-0.7c-1.3-0.5-2.5-1.1-3.8-1.4c-1-0.2-2,0.1-3.1,0.3c0.9,0.4,0.7,1,0.5,1.6c-0.2,0.6-0.4,1.2-0.6,1.8  c-0.1,0.2-0.3,0.3-0.4,0.5c0,0-0.2,0-0.2,0.1c-0.3,0.3-0.7,0.7-1,1c-0.2-0.4-0.3-0.8-0.5-1.2c-0.1,0-0.2,0-0.3,0.1  c0.1,1.1,0.2,2.2,0.3,3.2c0,0.4,0.1,0.8,0.1,1.2c0,0.2-0.1,0.4-0.2,0.6c-0.2-0.1-0.5-0.2-0.6-0.3c-0.4-0.5-0.7-1-1-1.6  c0,0-0.1,0.1-0.1,0.1c0,0.5,0,1,0,1.4c-0.8,0.1-1.3-0.5-1.7-2.2c-0.1,0-0.1,0-0.2,0c0,0.2-0.1,0.4-0.1,0.6c0.2,0.9,0.4,1.7,0.6,2.6  c-0.8,0.2-1.3-0.2-1.3-1c0-0.3,0-0.6,0-0.8c0-0.2-0.2-0.3-0.3-0.5c-0.1,0.2-0.2,0.4-0.2,0.5c0,0.7,0.2,1.4,0.2,2  c0,0.8,0,1.7-0.1,2.5c-0.1,0-0.2,0.1-0.2,0.1c-0.8-0.5-1.7-1.1-2.6-1.7c0,0.6,0,1.1,0,1.8c-0.4-0.2-0.7-0.3-1.1-0.4  c-0.1,0.8-0.1,1.6-0.2,2.4c0,0.5-0.1,0.9-0.9,0.9c0-0.5,0.1-0.9,0.1-1.4c0-0.4,0.1-0.9-0.6-1.2c-0.1,0.7-0.1,1.3-0.2,2  c-1-0.9-0.8-2.1-0.8-3.3c-0.1,0-0.2,0-0.3,0c0,0.6-0.1,1.1-0.1,1.7c-0.1,0.9-0.1,1.7-0.3,2.6c0,0.2-0.2,0.3-0.4,0.4  c-0.1,0-0.3-0.1-0.4-0.2c0-0.2,0-0.5,0.1-0.6c0.4-0.6,0.5-1.7,0.1-2.3c-0.1-0.1-0.2-0.2-0.4-0.3c0,1,0,1.9,0,2.9  c-0.9,0.5-1.1-0.6-1.8-0.7c-0.1,0.4-0.2,0.8-0.4,1.1c-0.1,0.2-0.4,0.3-0.7,0.4c0-0.3-0.2-0.6,0-0.8c0.9-1.4,0.1-2.6-0.4-3.8  c-0.5,1-1,2-0.7,3.2c0.1,0.4,0.1,0.7-0.5,0.8c-0.2,0-0.5,0.2-0.6,0.4c-0.2,0.7-0.2,1.4-0.3,2.1c0,0.2-0.1,0.5-0.2,0.6  c-0.2,0.1-0.4,0-0.7-0.1c-0.3-0.1-0.6-0.3-1-0.6c0,0.7-0.2,1.4-0.1,2c0.3,1.6,0.2,3.1-0.5,4.6c-0.5,1.2-1.1,2.4-1.7,3.6  c-0.5,1-0.1,2.6,0.8,3.2c0.6,0.3,1,0.2,1.4-0.4c0.3-0.6,0.6-1.2,0.9-1.8c0.2-0.3,0.4-0.6,0.7-0.3c0.1,0.1,0.1,0.5,0,0.7  c-0.1,0.4-0.3,0.8-0.4,1.2c0.1,0,0.1,0.1,0.2,0.1c0.1-0.1,0.3-0.1,0.4-0.2c0.3-0.4,0.7-0.7,1-1.1c0.2-0.2,0.2-0.6,0.2-0.9  c0-0.5,0-0.8,0.6-0.9c0.3,0,0.6-0.3,0.7-0.5c0.3-0.6,0.5-1.2,0.7-1.8c0-0.1,0.1-0.4,0-0.4c-0.7-0.5-0.2-0.7,0.2-0.9  c0.9-0.4,1.6-1.1,2.3-1.8c0.7-0.8,1-1.6,0.6-2.6c-0.3-0.8-0.4-1.7,0-2.5c0.1-0.1,0.2-0.3,0.4-0.6c0.1,0.6,0.1,0.9,0.2,1.3  c0.1,0,0.1,0,0.2,0.1c0.5-1.3,1.7-1.6,2.7-2.2c1.3-0.9,2.8-1.7,4.2-2.5c0.5-0.3,1.1-0.7,1.7-0.7c1-0.1,2-0.5,2.9,0.2  c0.4,0.3,0.2,0.6,0.1,0.9c-0.1,0.4-0.4,0.4-0.7,0.3c-0.2-0.1-0.3-0.2-0.5-0.3c-0.8-0.5-0.8-0.5-1.6-0.1c0.5,0.5,1,1.1,1.5,1.6  c0,0,0,0,0-0.1c0.3,0.2,0.6,0.4,0.9,0.6c1.3,0.6,2.3,1.9,4,1.6c0.5-0.1,1.1-0.1,1.8-0.1c-0.2-0.5-0.3-0.8-0.4-1.1  c0-0.2,0.1-0.4,0.2-0.6c0.2,0.1,0.5,0.1,0.6,0.3c0.4,0.7,0.6,1.4,1,2.1c0.1,0.3,0.5,0.4,0.6,0.7c0.4,1.1,0.8,2.2,1.2,3.3  c0.3,0.9,0.6,1.9,1.1,2.7c0.5,0.6,0.3,1,0.2,1.6c-0.2,0.9,0.3,1.7,1,2.3c0.3,0.3,0.5,0.4,0.2,0.8c-0.1,0.1,0,0.3,0,0.5  c0.2,1.7,0.6,3.4,0.3,5.1c-0.1,0.6-0.6,1.2-0.9,1.8c-0.1,0.2-0.3,0.3-0.5,0.5c0.5,0.1,1,0.2,1.4,0.2c0.1,0,0.3-0.1,0.4-0.3  c0.4-0.5,0.8-1.1,1.1-1.6c0.2-0.3,0.2-0.8,0.2-1.1c-0.2-2.2-0.5-4.5-0.8-6.7c-0.1-0.5-0.2-1.1-0.4-1.6c-0.5-1.6-0.2-3.3-0.1-5  c0.1-1.5,0.2-2.9,0.4-4.4c0-0.3,0-0.7-0.1-0.9c-0.5-0.7-0.1-1.4-0.1-2.1c0-0.1,0.2-0.3,0.3-0.4c-0.2,1.2,0.8,2.2,0.4,3.5  c-0.1,0.4,0,0.8,0.5,0.9c1.2,0.1,2.4,0.2,3.6,0.3c1.4,0.1,2.5-0.6,3.8-0.9c1-0.3,1.7-0.9,2.5-1.4c0.2-0.1,0.2-0.5,0.2-0.7  c-0.2-0.9-0.5-1.8-0.7-2.6c0.1,0,0.2-0.1,0.2-0.1c0.3,0.8,0.6,1.6,0.9,2.4c0.5,1.3,1,2.6,2.1,3.6c0.1,0.1,0.3,0.2,0.3,0.4  C61,41,62,42,63.1,42.8c0.3,0.3,0.7,0.5,1,0.7c1.4,0.8,2,2.2,2.6,3.6c0.2,0.4,0.2,0.9,0.3,1.4c0.1,1.5,0.2,3,0.2,4.5  c0.1,1.8-0.3,3.4-1.2,4.9c0.4,0.2,0.8,0.3,1.2,0.6c0.2,0.1,0.6,0.4,0.5,0.5c-0.1,0.3-0.3,0.9-0.6,0.9c-0.9,0.2-1.8,0.2-2.7,0.2  c-0.1,0-0.3-0.4-0.2-0.5c0.3-0.8,0.4-1.6,1.2-2.2c0.5-0.3,0.7-1.1,0.8-1.7c0.3-2,0.2-4,0.1-6c-0.1-1.6-0.5-3.1-1.3-4.4  c-0.4-0.7-1.1-1.2-1.7-1.7c-0.6-0.5-1.2-1-1.8-1.6c-0.3-0.3-0.5-0.7-0.7-1.1c-0.2-0.2-0.4-0.4-0.6-0.5c-0.1,0-0.4,0.3-0.5,0.5  c-0.3,1.1-0.6,2.1-0.9,3.2c0,0.2,0.2,0.5,0.3,0.7c0.6,0.9,0.9,1.9,0.4,2.9c-0.4,0.7-1.1,1.3-1.6,1.9c-0.6,0.8-1.2,1.5-1.7,2.3  c-0.8,1.2-1.5,2.5-2.3,3.7c-0.1,0.2-0.4,0.4-0.6,0.5c-0.2,0.1-0.4,0.1-0.6,0.2c0-0.2,0-0.4,0.1-0.6c0.2-0.5,0.4-1.1,0.8-1.5  C54.2,53.7,54.4,53.2,54.3,52.4c0.2,0,0.4,0,0.4-0.1c0-0.4-0.1-0.7-0.1-1.1C53.8,51.5,53.7,51.7,54.3,52.4z M67.6,31  c-0.1,0-0.2,0-0.3,0c0,0.1-0.1,0.3-0.1,0.4c-0.2,1.4-0.4,2.7-0.7,4.1c-0.3,1.5-1,2.9-0.2,4.5c0.4,0.7,0.7,1.5,1.2,2.2  c0.3,0.5,0.8,0.8,1.2,1.3c0.1-0.1,0.1-0.1,0.2-0.2c-0.3-0.4-0.6-0.7-0.8-1.1c-0.7-1.4-0.7-2.9-0.4-4.4c0.2-1.4,0.9-2.7,0.6-4.1  C68,32.8,67.8,31.9,67.6,31z M57.1,42.6c0.2-0.2,0.8-0.6,0.9-1.1c0.1-0.5-0.3-1.1-0.4-1.6c-0.1,0-0.2,0-0.3,0.1  c0.1,0.3,0.1,0.6,0.2,0.9c0.1,0.2,0.2,0.4,0.2,0.6c0,0.1-0.3,0.3-0.4,0.2c-0.2-0.1-0.3-0.3-0.4-0.5c-0.1,0.3-0.2,0.7-0.2,1  c0,0.5-0.1,0.7-0.5,0.9c-0.5,0.2-0.5,0.6-0.2,0.9c0.5,0.6,0.8,1.2,0.6,2.1c0.2-0.2,0.3-0.3,0.3-0.3c0.3,0.1,0.5,0.2,0.7,0.3  c-0.3-1-0.3-1,0.7-1.7C57.9,43.9,57.6,43.3,57.1,42.6z M71.5,39.7c0.1-1.1,0.1-2.3,0.2-3.5c0-0.2-0.2-0.4-0.3-0.5  c-0.2-0.2-0.5-0.2-0.9-0.4c0.1,0.6,0.2,1.3,0.3,2c-0.3-0.1-0.5-0.3-0.9-0.5C70.5,37.8,71,38.7,71.5,39.7z M70,40.5c0,0-0.1,0-0.1,0  c-0.1-0.2-0.1-0.4-0.3-0.5c-0.1-0.1-0.3,0-0.5,0c0,0.1,0,0.4,0.1,0.4c0.5,0,0.3,0.3,0.4,0.6c0,0.1,0.1,0.2,0.2,0.3  c0.5,0.4,0.7,0.9,0.6,1.4c-0.2,0.7,0.2,1,0.5,1.4c0-0.5,0-0.9,0-1.4c0-0.1,0-0.3-0.1-0.4c-0.2-0.4-0.3-0.7-0.5-1.2  c0.3-0.1,0.5-0.2,0.7-0.3c0-0.2,0-0.3-0.1-0.4c-0.3-0.5-0.6-1-0.4-1.6c0,0-0.3-0.2-0.6-0.3C70,39.3,70,39.9,70,40.5z M70.1,35.6  c0.2-0.7,0.3-1.3,0.4-2c0.1,0,0.1,0,0.2,0c0,0.2,0,0.4,0,0.6c0.1,0,0.1,0,0.2,0c0.1-0.3,0.2-0.7,0.2-1c0.1-0.4,0.1-0.8,0.3-1.2  c0.1-0.3,0.3-0.5,0.5-0.7c0,0-0.1-0.1-0.1-0.1c-0.2,0.2-0.3,0.3-0.5,0.5c-0.2,0-0.4-0.1-0.7-0.1c0,0.5,0.6,0.9-0.1,1.3  c-0.2,0.1-0.4,0.5-0.4,0.7C70.1,34.2,70.1,34.9,70.1,35.6z M57.4,47.1c-0.2-0.2-0.3-0.4-0.5-0.6c-0.1,0.2-0.2,0.4-0.3,0.5  c-0.1,0.1-0.2,0.3-0.3,0.4c-0.5,0.4-0.6,0.9-0.1,1.3c0.1,0.1,0.3,0.2,0.4,0.2c0.1,0,0.2-0.2,0.2-0.4c0.1-0.3,0.2-0.6,0.3-0.9  C57.1,47.5,57.2,47.3,57.4,47.1z M54.7,50.4c0,0.1-0.1,0.2-0.1,0.2c0.3,0,0.5,0.1,0.8,0.1c0.5,0,0.7-0.4,0.8-0.8  c0-0.4,0.1-0.9-0.5-1.1c-0.6,0.6-0.6,0.9,0,1.5C55.3,50.4,55,50.4,54.7,50.4z M56.4,38.8c-0.2,0.3-0.3,0.6-0.5,0.8  c-0.1,0.1-0.4,0.2-0.4,0.3c0,0.3,0,0.6,0.1,0.8c0.2-0.1,0.4-0.2,0.6-0.3c0.2-0.1,0.3-0.3,0.5-0.5C57.1,39.5,56.9,38.9,56.4,38.8z   M33.6,38c-0.1,0.4-0.2,0.7-0.3,1.2c0.4,0,1,0.2,1,0.1C34.8,38.5,34,38.4,33.6,38z M15.2,34.3c-0.1,0-0.1,0-0.2,0  c-0.1,0.3-0.2,0.6-0.3,0.9c0,0.2,0.1,0.4,0.1,0.5c0,0.1,0.3,0.1,0.4,0c0.1-0.1,0.2-0.4,0.2-0.5C15.4,34.9,15.3,34.6,15.2,34.3z   M55.5,41.7c0,0-0.1,0-0.1,0c0.1-0.3,0.2-0.5,0.3-0.8c-1,0.2-1,0.5-0.2,1.6C55.4,42.2,55.5,41.9,55.5,41.7z M72.3,34.2  c-0.1,0-0.1,0-0.2,0.1c-0.1,0.4-0.1,0.9-0.2,1.3c0,0.1,0.1,0.2,0.2,0.3c0,0,0.3-0.1,0.3-0.2C72.5,35.2,72.4,34.7,72.3,34.2z   M58.2,38.1c-0.2,0.5-0.2,0.8-0.3,1.1c0.1,0,0.1,0,0.2,0.1c0.2-0.2,0.4-0.4,0.7-0.6C58.6,38.5,58.4,38.4,58.2,38.1z M68.8,36.8  c-0.1,0-0.1,0-0.2,0c-0.1,0.6-0.1,1.3-0.2,1.9c0.1,0,0.2,0,0.2,0C68.7,38.1,68.7,37.5,68.8,36.8z M72.7,37.2c0.1,0,0.2,0,0.2,0  c0-0.7,0.1-1.3,0.1-2c-0.1,0-0.1,0-0.2,0C72.8,35.9,72.8,36.6,72.7,37.2z"/><path d="M39.5,23.8c-0.1,0.2-0.1,0.3-0.2,0.4c-0.6,1.2-1.3,2.4-1.8,3.7c-0.3,0.7-0.2,1.5-0.1,2.3c0,0.7,0.1,1.5-0.4,2.1  c-0.1,0.1-0.3,0.2-0.4,0.2c-0.1-0.2-0.2-0.4-0.1-0.5c0.4-0.9,0.2-1.7,0.1-2.6c-0.2-1.3,0.4-2.4,1-3.4c0.4-0.8,0.8-1.5,1.2-2.2  c0.1-0.2,0.4-0.2,0.6-0.3C39.3,23.5,39.4,23.7,39.5,23.8z"/><path d="M11.1,56.7c0.4-0.4,0.6,0,0.9,0.2c0.2,0.2,0.5,0.4,0.9,0.7c0.3-1,0.4-1.9,1.1-2.6c-0.2,1.2-0.4,2.3-0.6,3.4  C12.5,58.2,11.7,57.5,11.1,56.7z"/><path d="M43,56.6c-0.2-0.6-0.7-0.7-1.2-0.9c-0.9-0.3-0.7,0.7-1.3,0.8C40.2,56,41,55.3,42.2,55c-0.1-0.3-0.2-0.6-0.3-1  c0-0.1,0.1-0.2,0.2-0.3c0,0,0.2,0,0.3,0.1c0.3,0.8,0.6,1.7,0.9,2.5C43.1,56.5,43.1,56.6,43,56.6z"/><path d="M17.1,42.3c-0.4,0.4-0.7,0.7-0.9,1c-0.3-0.3-0.7-0.5-0.7-0.8c-0.1-0.5,0.4-0.8,0.8-0.8C16.4,41.7,16.7,42.1,17.1,42.3z"/><path d="M61.4,56.4c-0.2,0.2-0.4,0.4-0.7,0.7c-0.2-0.7-0.1-0.7,1.8-1.8c0.3,0.6-0.2,0.9-0.5,1.2C62,56.6,61.7,56.5,61.4,56.4z"/><path d="M13.7,51.2c-0.1,0.1-0.3,0.3-0.5,0.5c-0.2-0.3-0.6-0.5-0.7-0.9c0-0.3,0.3-0.9,0.5-0.9C13.6,50,13.5,50.6,13.7,51.2z"/><path d="M46.5,33.1c-0.2-1.3-0.4-2.5-0.7-3.8C46.6,29.9,47,32.3,46.5,33.1z"/><path d="M32.4,54.5c0,1,0,2,0,3c-0.6-0.7-0.7-1.5-0.6-2.3c0.1-0.3,0.3-0.5,0.5-0.8C32.4,54.4,32.4,54.5,32.4,54.5z"/><path d="M17.7,56.2c0.1,0.2,0.1,0.5,0.2,0.7c0,0.3,0.1,0.6,0,0.9c-0.1,0.2-0.3,0.3-0.5,0.4c0-0.2,0-0.4,0-0.6c0-0.3,0-0.5,0-0.8  c0-0.2-0.1-0.4-0.2-0.6c0-0.2,0.1-0.4,0.1-0.6c0,0,0.3-0.1,0.3,0c0.1,0.2,0.2,0.3,0.2,0.5C17.8,56.2,17.8,56.2,17.7,56.2z"/><path d="M18.9,54.4c0.4,0.9,0.7,2.8,0.4,3.3c-0.1,0-0.1,0-0.2,0c-0.1-1.1-0.3-2.2-0.4-3.3C18.7,54.4,18.8,54.4,18.9,54.4z"/><path d="M58.8,53.8c0.3,0.4,0,1.9-0.5,2.5C58.1,55.8,58.4,54.2,58.8,53.8z"/><path d="M34,55c0.2,0.9,0.5,1.7,0.7,2.6c0,0.1-0.1,0.2-0.1,0.3c-0.1,0-0.3,0-0.3-0.1c-0.2-0.8-0.4-1.7-0.5-2.5  C33.7,55.2,33.8,55.2,34,55z"/><path d="M60.9,54.7c0,0.2-0.1,0.4-0.1,0.5c-0.3,0.4-0.5,0.9-0.8,1.3c-0.1,0.1-0.2,0.3-0.4,0.4c0-0.2-0.1-0.4-0.1-0.6  c0.4-0.6,0.8-1.2,1.1-1.7C60.7,54.6,60.8,54.7,60.9,54.7z"/><path d="M8.3,58c-0.7-0.6-1.4-1.1-2-1.7c0.7-0.1,2,0.9,2.2,1.5C8.4,57.9,8.4,57.9,8.3,58z"/><path d="M39.5,56.8c-0.7-0.7-0.4-1.2-0.2-1.7c0.2-0.5,0.6-0.7,1.2-0.5C39.7,55,39.5,55.7,39.5,56.8z"/><path d="M72.4,57.8c-0.1-0.1-0.2-0.1-0.2-0.2c0-0.1,0-0.2,0.1-0.3c0.3-0.3,0.7-0.7,1-1c0.1-0.1,0.3,0,0.5,0c0,0.2,0,0.4-0.1,0.5  C73.2,57.2,72.8,57.5,72.4,57.8z"/><path d="M57.5,54.3c0,0.7,0,1.4,0,2.1c-0.1,0-0.1,0.1-0.2,0.1C57.2,56.2,57,56,57,55.8c0.1-0.5-0.3-1.2,0.2-1.6  C57.4,54.2,57.4,54.2,57.5,54.3z"/><path d="M38.3,54.5c0,1,0,1.8,0,2.6c-0.7-0.6-0.5-1.4-0.4-2.1C37.9,54.9,38.1,54.8,38.3,54.5z"/><path d="M72.5,55.4c0,0.2,0.1,0.4,0,0.5c-0.3,0.4-0.6,0.8-0.9,1.2c-0.1,0.1-0.2,0.1-0.3,0.1c0-0.1-0.1-0.3,0-0.4  c0.3-0.5,0.7-0.9,1-1.3C72.4,55.4,72.5,55.4,72.5,55.4z"/><path d="M15.4,55.4c-0.3,0.5-0.5,0.9-0.7,1.3c-0.1,0.4-0.1,0.8-0.1,1.3c-0.6-0.4-0.4-1-0.3-1.4C14.5,56.2,14.6,55.7,15.4,55.4z"/><path d="M64.8,54.9c0.3,0.6,0.2,1.1-0.2,1.5c-0.2,0.2-0.5,0.2-0.8,0.4c0-0.1,0-0.1,0-0.2C64.1,56.1,64.4,55.6,64.8,54.9z"/><path d="M9.9,58.2c-0.5,0-1.4-0.8-1.6-1.4C8.9,56.7,9.5,57.2,9.9,58.2z"/><path d="M36.4,54.2c0.3,0.8,0.5,1.6,0.5,2.4c-0.1,0-0.2,0-0.2,0.1c-0.2-0.8-0.3-1.6-0.5-2.4C36.2,54.2,36.3,54.2,36.4,54.2z"/><path d="M16.7,57.2c-0.2-0.1-0.3-0.2-0.5-0.3c-0.2,0.2-0.4,0.5-0.6,0.8c-0.3-0.6,0-0.9,0.3-1.2c0.1-0.1,0.4-0.2,0.5-0.1  c0.2,0.2,0.3,0.4,0.5,0.7C16.8,57.1,16.7,57.2,16.7,57.2z"/><path d="M35.6,57.3c-0.5-0.5-0.6-1.2-0.8-1.9C35.5,55.8,35.9,56.7,35.6,57.3z"/><path d="M71.2,55.4c0.2,0.6-0.2,1.5-0.8,1.7c-0.1,0-0.2,0-0.3-0.1c0,0,0-0.2,0-0.2C70.5,56.3,70.8,55.9,71.2,55.4z"/><path d="M30.7,55.1c0,0.8,0,1.5,0,2.2C30.1,56.9,30.1,55.5,30.7,55.1z"/><path d="M56.4,56.7c-0.7-0.3-0.9-0.8-0.6-1.6c0.3,0.6,0.6,1,0.8,1.5C56.6,56.6,56.5,56.6,56.4,56.7z"/><path d="M43.4,54.5c0.3,0.7,0.5,1.2,0.7,1.7c0,0.1-0.1,0.1-0.1,0.2c-0.2-0.1-0.4-0.2-0.4-0.4C43.3,55.5,43,55.1,43.4,54.5z"/><path d="M28.9,56.9c0-0.6,0-1.2,0-1.8c0.1,0,0.1,0,0.2,0c0,0.6,0,1.2,0,1.8C29,57,29,56.9,28.9,56.9z"/><path d="M63.9,55.6c0,0.7-0.7,0.8-1,1.3C62.7,56.2,62.7,56.2,63.9,55.6z"/><path d="M20.9,57.3c-0.5-0.8-0.3-1.4,0.4-1.6C21.2,56.2,21.1,56.7,20.9,57.3z"/><path d="M54.9,56c0.2,0.2,0.4,0.5,0.7,0.7c-0.2,0-0.4,0.2-0.5,0.1c-0.2-0.1-0.3-0.4-0.5-0.6C54.7,56.2,54.8,56.1,54.9,56z"/><text x="0" y="95" fill="#000000" font-size="5px" font-weight="bold" font-family="'Helvetica Neue', Helvetica, Arial-Unicode, Arial, Sans-serif">Created by Francesco Cesqo Stefanini</text><text x="0" y="100" fill="#000000" font-size="5px" font-weight="bold" font-family="'Helvetica Neue', Helvetica, Arial-Unicode, Arial, Sans-serif">from the Noun Project</text></svg>