<svg xmlns="http://www.w3.org/2000/svg" xmlns:xlink="http://www.w3.org/1999/xlink" version="1.1" x="0px" y="0px" viewBox="0 0 100 125" enable-background="new 0 0 100 100" xml:space="preserve"><g><path fill="#000000" d="M90.293,22.634c0-0.121-0.029-0.235-0.069-0.345c-0.011-0.028-0.021-0.054-0.034-0.081   c-0.048-0.1-0.106-0.194-0.185-0.273c-0.002-0.002-0.004-0.005-0.006-0.008c-0.062-0.062-0.134-0.117-0.213-0.162L56.217,2.752   c-0.311-0.175-0.689-0.174-0.997,0.006L43.544,9.57c-0.071,0.042-0.134,0.093-0.192,0.149c-0.004,0.004-0.009,0.006-0.013,0.01   c-0.081,0.082-0.141,0.178-0.189,0.281c-0.013,0.026-0.022,0.053-0.033,0.081c-0.038,0.104-0.063,0.212-0.066,0.325   c0,0.006-0.003,0.012-0.003,0.018v12.042c-3.624,1.546-13.723,6.635-18.487,16.937c-3.298,7.131-4.032,16.936-4.195,21.148   l-6.688,3.781l-0.396-0.211c-0.057-0.03-0.117-0.034-0.176-0.053c-0.013-0.004-0.026-0.009-0.04-0.013   c-0.318-0.085-0.651-0.023-0.898,0.186l-2.044,1.161c-0.003,0.002-0.004,0.005-0.007,0.006c-0.004,0.003-0.009,0.003-0.013,0.006   c-0.098,0.059-0.178,0.137-0.249,0.223c-0.019,0.021-0.035,0.044-0.051,0.067c-0.062,0.089-0.113,0.185-0.143,0.289   c-0.002,0.006-0.005,0.011-0.007,0.017c-0.023,0.084-0.036,0.172-0.036,0.262v12.692c0,0.365,0.199,0.701,0.519,0.876   l30.316,16.656c0.002,0.001,0.003,0.002,0.005,0.003l0.011,0.006c0.041,0.022,0.085,0.034,0.128,0.051   c0.034,0.013,0.066,0.031,0.102,0.04c0.083,0.021,0.167,0.033,0.251,0.033h0h0c0.085,0,0.172-0.012,0.257-0.034   c0.023-0.007,0.044-0.02,0.067-0.027c0.057-0.02,0.115-0.038,0.169-0.068l1.722-0.978c0.351-0.199,0.53-0.58,0.498-0.957   l9.539-5.338c0.018,0.014,0.027,0.033,0.046,0.045l1.784,1.135c0.164,0.104,0.351,0.156,0.537,0.156   c0.052,0,0.103-0.012,0.154-0.02c0.035,0.004,0.067,0.02,0.104,0.02c0.022,0,0.046-0.001,0.069-0.002   c0.328-0.022,0.594-0.21,0.759-0.467l33.132-18.952c0.037-0.021,0.06-0.056,0.093-0.081c0.057-0.043,0.111-0.084,0.157-0.138   c0.042-0.048,0.072-0.1,0.104-0.153c0.033-0.056,0.063-0.11,0.085-0.173c0.023-0.065,0.032-0.131,0.041-0.2   c0.005-0.042,0.024-0.079,0.024-0.123V22.634C90.293,22.635,90.293,22.635,90.293,22.634L90.293,22.634z M43.141,80.087   l-4.222-2.257l8.963-5.068l4.236,2.262L43.141,80.087z M36.831,76.715l-0.769-0.411l8.974-5.062l0.757,0.404L36.831,76.715z    M32.096,74.185l-2.536-1.355l8.945-5.074l2.535,1.354L32.096,74.185z M36.416,66.641l-8.943,5.073l-0.714-0.382l8.94-5.075   L36.416,66.641z M23.361,69.517l-3.484-1.862l8.952-5.064l3.47,1.853L23.361,69.517z M17.789,66.539l-0.716-0.383l8.936-5.072   l0.731,0.391L17.789,66.539z M12.847,66.165l0.347,0.186c0.001,0.001,0.002,0.001,0.003,0.002l9.683,5.174l0,0.001l8.59,4.59   c0.102,0.08,0.213,0.144,0.335,0.18l1.68,0.897c0.001,0.001,0.002,0.001,0.003,0.002l7.654,4.09l-0.157,0.09L12.69,66.255   L12.847,66.165z M43.659,84.059l9.537-5.391v8.319c-0.054,0.019-0.11,0.022-0.162,0.052l-9.375,5.246V84.059z M60.763,60.099   c5.305-10.686,17.386-16.137,17.505-16.188c0.013-0.005,0.021-0.017,0.033-0.023c0.026-0.012,0.055-0.018,0.08-0.033   c0.079-0.046,0.15-0.102,0.212-0.165c0.005-0.005,0.008-0.011,0.013-0.016c0.074-0.079,0.131-0.171,0.177-0.27   c0.012-0.026,0.022-0.051,0.032-0.079c0.038-0.104,0.064-0.213,0.065-0.328c0-0.003,0.001-0.005,0.001-0.008c0,0,0-0.001,0-0.001   V29.703l9.412-5.35v45.35L56.749,87.746C56.585,82.815,56.53,68.626,60.763,60.099z M45.048,12.128l31.833,17.583v11.544   L45.048,22.864V12.128z M55.731,4.776l31.535,17.86l-9.393,5.339L46.073,10.41L55.731,4.776z M37.294,30.716   c0.312,0.165,0.413,0.551,0.445,0.767c0.071,0.479-0.043,1.048-0.315,1.563c-0.587,1.114-1.521,1.457-1.997,1.207   c-0.502-0.265-0.679-1.288-0.129-2.33c0.466-0.882,1.19-1.284,1.666-1.284C37.088,30.639,37.196,30.665,37.294,30.716z    M26.376,40.252c1.843-3.984,4.553-7.133,7.342-9.574c-0.064,0.103-0.131,0.203-0.189,0.312c-1.046,1.984-0.623,4.195,0.964,5.032   c0.047,0.025,0.099,0.034,0.147,0.056c0.02,0.017,0.029,0.04,0.05,0.056c0.65,0.48,1.421,0.731,2.222,0.731   c0.226,0,0.454-0.02,0.683-0.061c1.021-0.18,1.928-0.746,2.556-1.595c0.627-0.85,0.901-1.884,0.772-2.913   c-0.131-1.047-0.663-1.962-1.499-2.579l-0.771-0.565c-0.115-0.084-0.242-0.138-0.373-0.167c-0.019-0.01-0.033-0.027-0.052-0.037   c-0.388-0.205-0.813-0.309-1.264-0.309c-0.301,0-0.601,0.053-0.896,0.142c3.07-2.266,5.958-3.685,7.609-4.4l32.092,18.542   c-3.685,1.964-12.35,7.328-16.797,16.287c-2.2,4.433-3.304,10.17-3.835,15.468c-0.009-0.024-0.026-0.045-0.037-0.068   c-0.014-0.033-0.015-0.068-0.032-0.101c-0.014-0.024-0.038-0.039-0.054-0.062c-0.036-0.055-0.08-0.102-0.128-0.149   c-0.05-0.049-0.101-0.093-0.158-0.13c-0.022-0.015-0.036-0.037-0.061-0.05l-18.235-9.736c-0.144-0.141-0.315-0.234-0.507-0.271   l-10.683-5.704c-0.175-0.093-0.361-0.111-0.544-0.099c-0.184-0.01-0.371,0.013-0.544,0.11l-1.731,0.979   C22.671,54.848,23.515,46.439,26.376,40.252z M39.952,93.948L11.619,78.382V67.949l28.333,15.142V93.948z"/><path fill="#000000" d="M75.073,30.014L47.037,13.752c-0.31-0.18-0.692-0.18-1.001-0.001c-0.31,0.179-0.501,0.509-0.501,0.867   v7.727c0,0.359,0.193,0.691,0.505,0.869l28.036,15.958c0.154,0.087,0.324,0.131,0.495,0.131c0.174,0,0.348-0.045,0.503-0.136   c0.308-0.179,0.497-0.508,0.497-0.864v-7.423C75.571,30.523,75.382,30.193,75.073,30.014z M73.571,33.498L50.605,20.66v-2.525   l22.966,13.321V33.498z M47.535,21.763v-5.41l1.088,0.631c-0.002,0.031-0.018,0.057-0.018,0.088v4.174   c0,0.362,0.196,0.696,0.512,0.873l24.454,13.67v0.792L47.535,21.763z"/><path fill="#000000" d="M26.825,57.102c0.042,0.006,0.08,0.025,0.125,0.025c0.001,0,0.003,0,0.004,0l0.943-0.004   c0.003,0,0.006,0.002,0.009,0.002c2.119,0,3.842-1.794,3.842-4s-1.724-4-3.846-4l-0.957,0.003c-0.037,0-0.069,0.018-0.105,0.021   c-0.074-0.005-0.145-0.025-0.22-0.025c-1.96,0-3.556,1.794-3.556,4s1.595,4,3.556,4C26.691,57.125,26.756,57.106,26.825,57.102z    M25.066,53.125c0-1.103,0.698-2,1.556-2s1.556,0.897,1.556,2s-0.698,2-1.556,2S25.066,54.228,25.066,53.125z"/><path fill="#000000" d="M29.682,46.714c0.01,0,0.067,0.001,0.077,0.001c0.011,0,0.021-0.003,0.031-0.004   c0.025,0.002,0.047,0.015,0.072,0.015c0.001,0,0.002,0,0.003,0l0.957-0.003c0.031,0,0.056-0.015,0.086-0.018   c2.077-0.051,3.753-1.811,3.753-3.978c0-2.198-1.724-3.987-3.846-3.987l-0.799,0.003c-0.061-0.005-0.118-0.024-0.18-0.026   c-1.753,0-3.176,1.716-3.239,3.906C26.532,44.866,27.887,46.663,29.682,46.714z M29.786,40.729   c0.026,0.002,0.049,0.015,0.076,0.015c0.001,0,0.002,0,0.003,0l0.119,0c0.528,0.127,1.047,0.918,1.015,2.007   c-0.034,1.158-0.681,1.965-1.241,1.965v0.031c-0.006,0-0.012,0.003-0.019,0.004l0-0.035c-0.568-0.017-1.178-0.856-1.144-2.034   C28.628,41.569,29.226,40.789,29.786,40.729z"/><path fill="#000000" d="M40.685,53.367c0.244,0.055,1.486,0.342,1.956,0.342c0.539,0,1.08-0.117,1.592-0.352   c0.943-0.432,1.679-1.209,2.071-2.188c0.393-0.979,0.398-2.049,0.014-3.012c-0.391-0.98-1.135-1.733-2.097-2.118   c-0.035-0.014-0.07-0.026-0.106-0.036l-0.889-0.245c-0.002-0.001-0.005,0-0.008,0c-0.228-0.125-0.466-0.226-0.72-0.284   c-1.784-0.412-3.676,1.052-4.169,3.197c-0.232,1.008-0.142,2.038,0.252,2.897C39.012,52.503,39.777,53.164,40.685,53.367z    M40.279,49.118c0.247-1.075,1-1.717,1.585-1.717c0.063,0,0.126,0.007,0.187,0.021c0.408,0.094,0.635,0.469,0.734,0.685   c0.208,0.455,0.253,1.042,0.121,1.615c-0.273,1.191-1.14,1.846-1.773,1.696c-0.407-0.094-0.634-0.469-0.732-0.685   C40.192,50.279,40.147,49.691,40.279,49.118z"/><path fill="#000000" d="M50.112,54.944c-0.207,1.014-0.092,2.04,0.324,2.891c0.419,0.856,1.126,1.449,1.953,1.682   c0.006,0.004,0.009,0.01,0.015,0.014c0.597,0.369,1.27,0.558,1.959,0.558c0.328,0,0.66-0.043,0.989-0.129   c1.004-0.264,1.861-0.903,2.416-1.802c1.154-1.87,0.628-4.298-1.25-5.454l-1.563-0.787c-0.018-0.009-0.036-0.007-0.054-0.015   c-0.223-0.112-0.454-0.205-0.699-0.255C52.403,51.279,50.554,52.774,50.112,54.944z M52.071,55.344   c0.224-1.099,0.97-1.755,1.562-1.755c0.057,0,0.112,0.006,0.169,0.018c0.312,0.062,0.521,0.293,0.642,0.476   c0.305,0.46,0.405,1.133,0.27,1.8c-0.246,1.204-1.084,1.865-1.73,1.741c-0.409-0.084-0.646-0.454-0.75-0.667   C52.013,56.507,51.954,55.919,52.071,55.344z"/><path fill="#000000" d="M36.76,63.643c0.05,0.011,0.102,0.008,0.152,0.016c0.016,0.007,0.026,0.021,0.043,0.026   c0.458,0.165,0.932,0.248,1.407,0.248c0.649-0.001,1.3-0.154,1.91-0.46c1.069-0.535,1.878-1.482,2.218-2.6   c0.324-1.062,0.263-2.18-0.171-3.145c-0.455-1.012-1.26-1.737-2.269-2.044l-0.916-0.275c-0.062-0.018-0.122-0.01-0.184-0.017   c-0.14-0.049-0.277-0.104-0.423-0.135c-0.227-0.048-0.459-0.072-0.691-0.072c-1.812,0-3.437,1.468-3.862,3.49   C33.489,60.985,34.737,63.213,36.76,63.643z M35.932,59.088c0.228-1.085,1.047-1.902,1.905-1.902c0.092,0,0.185,0.01,0.279,0.029   c0.47,0.099,0.766,0.422,0.932,0.676c0.341,0.521,0.452,1.22,0.305,1.917c-0.253,1.202-1.276,2.069-2.179,1.878   C36.23,61.485,35.673,60.32,35.932,59.088z"/><path fill="#000000" d="M52.142,62.294l-0.916-0.275c-0.104-0.031-0.209-0.031-0.312-0.028c-0.139-0.051-0.277-0.105-0.422-0.136   c-0.212-0.045-0.429-0.067-0.646-0.067c-1.761,0-3.35,1.478-3.778,3.513c-0.486,2.31,0.705,4.525,2.656,4.939   c0.142,0.029,0.288,0.035,0.433,0.045c0.03,0.013,0.053,0.037,0.085,0.047c0.432,0.136,0.872,0.203,1.307,0.203   c0.673,0,1.333-0.161,1.934-0.478c1.012-0.534,1.758-1.448,2.101-2.574c0.323-1.062,0.263-2.18-0.171-3.145   C53.956,63.326,53.151,62.601,52.142,62.294z M48.024,65.712c0.231-1.098,1.014-1.925,1.821-1.925c0.078,0,0.155,0.008,0.234,0.024   c0.402,0.084,0.664,0.372,0.812,0.6c0.336,0.515,0.447,1.25,0.296,1.966c-0.254,1.204-1.205,2.083-2.05,1.905   C48.278,68.101,47.769,66.923,48.024,65.712z"/><path fill="#000000" d="M45.076,42.285c0.007,0.005,0.01,0.013,0.017,0.018c0.031,0.022,0.066,0.038,0.098,0.06   c0.011,0.006,0.019,0.015,0.029,0.02c0.003,0.001,0.006,0.002,0.009,0.003c0.734,0.499,1.646,0.784,2.564,0.784   c0.077,0,0.153-0.002,0.229-0.006c1.185-0.06,2.189-0.568,2.827-1.432c0.626-0.848,0.835-1.997,0.574-3.151   c-0.239-1.054-0.837-1.999-1.637-2.601c-0.242-0.266-0.513-0.504-0.832-0.672c-0.454-0.24-0.949-0.361-1.471-0.361   c-1.392,0-2.76,0.889-3.488,2.266C42.998,39.105,43.494,41.331,45.076,42.285z M45.764,38.147c0.379-0.717,1.07-1.199,1.719-1.199   c0.194,0,0.375,0.043,0.538,0.129c0.322,0.17,0.549,0.498,0.639,0.924c0.103,0.486,0.012,1.048-0.249,1.543   c-0.492,0.933-1.544,1.447-2.257,1.07C45.437,40.236,45.258,39.106,45.764,38.147z"/><path fill="#000000" d="M58.15,49.424c0.038,0.02,0.08,0.027,0.119,0.045c0.715,0.503,1.594,0.786,2.472,0.785   c0.108,0,0.216-0.004,0.323-0.012c1.116-0.088,2.08-0.609,2.715-1.469c0.626-0.848,0.834-1.998,0.57-3.155   c-0.24-1.053-0.836-1.994-1.633-2.596c-0.242-0.267-0.513-0.504-0.832-0.672c-0.454-0.24-0.949-0.361-1.472-0.361   c-1.392,0-2.761,0.889-3.487,2.266C55.897,46.206,56.446,48.525,58.15,49.424z M58.695,45.188c0.378-0.717,1.069-1.199,1.718-1.199   c0.194,0,0.375,0.043,0.538,0.129c0.322,0.17,0.549,0.498,0.64,0.923c0.103,0.486,0.012,1.048-0.25,1.543   c-0.492,0.931-1.542,1.448-2.257,1.07C58.367,47.277,58.189,46.147,58.695,45.188z"/></g><text x="0" y="115" fill="#000000" font-size="5px" font-weight="bold" font-family="'Helvetica Neue', Helvetica, Arial-Unicode, Arial, Sans-serif">Created by Andy Ivandikov</text><text x="0" y="120" fill="#000000" font-size="5px" font-weight="bold" font-family="'Helvetica Neue', Helvetica, Arial-Unicode, Arial, Sans-serif">from the Noun Project</text></svg>