<?xml version="1.0" encoding="UTF-8"?>
<svg id="Layer_1" data-name="Layer 1" xmlns="http://www.w3.org/2000/svg" viewBox="0 0 1716.15 312.59">
  <g>
    <path d="M695.72,0v299h-288V0h288ZM501.22,293c10.05,1.19,22.2-.88,32.5,0,4.76-12.39.09-27.87,2.06-40.44.64-4.08,3.46-6.12,7.42-6.58,14.8-1.73,32.13-.07,48.02-1.98,50.42-6.07,87.34-32.52,98.04-83.96,26.45-127.17-117.87-202.19-214.01-123.01-61.24,50.44-40.29,128.9-42.83,198.77,4.22,28.56,42.32,54.06,68.8,57.2Z" style="fill: #fff;"/>
    <path d="M501.22,293.13c-26.48-3.15-64.58-28.64-68.8-57.2.12-3.8-18.41-148.33,42.83-198.77,96.14-79.18,240.45-4.16,214.01,123.01-10.7,51.44-47.62,77.89-98.04,83.96-15.88,1.91-33.22.25-48.02,1.98-3.96.46-6.78,2.5-7.42,6.58-1.97,12.57,1.76,40.44,1.76,40.44-24,1-26.27,1.19-36.32,0ZM572.22,136.13h65c4.5-6.8,2.63-20.16,1.07-28.06-10.92-55.24-78.59-75.72-122.05-42.92-41.58,31.39-38.67,94,3.15,123.81,25.38,18.09,70.66,17.32,93.31-5.37l-28.98-35.98c-2.17,1.52-10.42,5.4-14.72,6.29-19.57,4.07-26.66-19.97-25.26-35.25.83-9.01,8.52-23.31,18.46-24.54,10.44-1.29,18.53,3.46,20.52,14.01-5.51-1.08-7.51-1.78-10.88-.16-6.16,2.96-10.02,9.41-9.75,16.24.39,9.85,8.51,11.46,10.14,11.93Z"/>
    <path d="M572.48,136c-.21,0-.41-.04-.59-.14-2.07-1.15-9.02-8.07-9.63-9.9-2.61-7.78,2.29-16.77,10.48-18.51,3.58-.76,6.4,1.09,9.98.55-2-10.55-10.08-15.3-20.52-14.01s-17.63,15.53-18.46,24.54c-1.4,15.28,5.68,39.32,25.26,35.25,4.3-.89,14.55-5.63,14.72-6.29l28.98,35.98c-22.64,22.69-67.93,23.46-93.31,5.37-41.81-29.81-44.73-92.42-3.15-123.81,43.46-32.8,111.13-12.32,122.05,42.92,1.56,7.9,3.43,21.26-1.07,28.06h-64.74Z" style="fill: #fff;"/>
  </g>
  <g>
    <path d="M0,207.77V66.57h31.6v141.2H0ZM24.2,93.77v-27.2h76.4v27.2H24.2ZM24.2,148.97v-26.6h70.4v26.6H24.2ZM24.2,207.77v-27.2h77.6v27.2H24.2Z"/>
    <path d="M114.6,207.77l55.8-141.2h28.6l55.4,141.2h-33.4l-42.2-117h11.6l-43.2,117h-32.6ZM146.6,182.37v-25.6h76.8v25.6h-76.8Z"/>
    <path d="M268.8,207.77V66.57h31.6v141.2h-31.6ZM293,149.77v-23.6h29.8c6.13,0,10.93-1.57,14.4-4.7,3.47-3.13,5.2-7.37,5.2-12.7s-1.7-9.27-5.1-12.6c-3.4-3.33-8.17-5-14.3-5h-30v-24.6h33.6c9.47,0,17.73,1.77,24.8,5.3,7.07,3.53,12.57,8.43,16.5,14.7,3.93,6.27,5.9,13.4,5.9,21.4,0,8.53-2,15.9-6,22.1-4,6.2-9.6,11.03-16.8,14.5-7.2,3.47-15.67,5.2-25.4,5.2h-32.6ZM345.6,207.77l-44-60.8,29-8,52.4,68.8h-37.4Z"/>
  </g>
  <path d="M748.83,201.23V60.03h31.6v141.2h-31.6ZM773.03,149.83v-24.6h30.4c3.87,0,7.37-.77,10.5-2.3,3.13-1.53,5.63-3.83,7.5-6.9,1.87-3.07,2.8-6.73,2.8-11s-.93-8.13-2.8-11.2c-1.87-3.07-4.37-5.37-7.5-6.9-3.13-1.53-6.63-2.3-10.5-2.3h-30.4v-24.6h35c8.93,0,17.03,1.8,24.3,5.4,7.27,3.6,13,8.77,17.2,15.5,4.2,6.73,6.3,14.77,6.3,24.1s-2.1,17.17-6.3,23.9c-4.2,6.73-9.93,11.9-17.2,15.5-7.27,3.6-15.37,5.4-24.3,5.4h-35Z"/>
  <path d="M873.03,201.23V60.03h31.6v141.2h-31.6ZM897.23,143.23v-23.6h29.8c6.13,0,10.93-1.57,14.4-4.7,3.47-3.13,5.2-7.37,5.2-12.7s-1.7-9.27-5.1-12.6c-3.4-3.33-8.17-5-14.3-5h-30v-24.6h33.6c9.46,0,17.73,1.77,24.8,5.3,7.07,3.53,12.57,8.43,16.5,14.7,3.93,6.27,5.9,13.4,5.9,21.4,0,8.53-2,15.9-6,22.1-4,6.2-9.6,11.03-16.8,14.5-7.2,3.47-15.67,5.2-25.4,5.2h-32.6ZM949.83,201.23l-44-60.8,29-8,52.4,68.8h-37.4Z"/>
  <path d="M995.83,201.23l55.8-141.2h28.6l55.4,141.2h-33.4l-42.2-117h11.6l-43.2,117h-32.6ZM1027.83,175.83v-25.6h76.8v25.6h-76.8Z"/>
  <path d="M1209.03,203.43c-10.53,0-20.3-1.83-29.3-5.5s-16.87-8.83-23.6-15.5c-6.73-6.67-11.97-14.43-15.7-23.3-3.73-8.87-5.6-18.43-5.6-28.7s1.87-19.83,5.6-28.7c3.73-8.87,8.97-16.57,15.7-23.1,6.73-6.53,14.57-11.63,23.5-15.3,8.93-3.67,18.73-5.5,29.4-5.5,11.2,0,21.17,1.8,29.9,5.4,8.73,3.6,16.37,8.53,22.9,14.8l-21.2,21.4c-3.6-4-8.03-7.13-13.3-9.4-5.27-2.27-11.37-3.4-18.3-3.4-6.13,0-11.73,1.03-16.8,3.1-5.07,2.07-9.47,5.03-13.2,8.9-3.73,3.87-6.6,8.53-8.6,14-2,5.47-3,11.4-3,17.8s1,12.7,3,18.1c2,5.4,4.87,10.07,8.6,14,3.73,3.93,8.13,6.93,13.2,9,5.07,2.07,10.67,3.1,16.8,3.1,7.2,0,13.47-1.1,18.8-3.3,5.33-2.2,9.87-5.37,13.6-9.5l21.4,21.4c-6.67,6.4-14.4,11.37-23.2,14.9-8.8,3.53-19,5.3-30.6,5.3Z"/>
  <path d="M1270.23,87.63v-27.6h120v27.6h-120ZM1314.43,201.23V61.83h31.8v139.4h-31.8Z"/>
  <path d="M1407.63,201.23V60.03h31.6v141.2h-31.6Z"/>
  <path d="M1533.23,203.43c-10.54,0-20.3-1.83-29.3-5.5s-16.87-8.83-23.6-15.5c-6.73-6.67-11.97-14.43-15.7-23.3-3.73-8.87-5.6-18.43-5.6-28.7s1.87-19.83,5.6-28.7c3.73-8.87,8.97-16.57,15.7-23.1,6.73-6.53,14.57-11.63,23.5-15.3,8.93-3.67,18.73-5.5,29.4-5.5,11.2,0,21.17,1.8,29.9,5.4,8.73,3.6,16.37,8.53,22.9,14.8l-21.2,21.4c-3.6-4-8.03-7.13-13.3-9.4-5.27-2.27-11.37-3.4-18.3-3.4-6.13,0-11.73,1.03-16.8,3.1-5.07,2.07-9.47,5.03-13.2,8.9-3.73,3.87-6.6,8.53-8.6,14-2,5.47-3,11.4-3,17.8s1,12.7,3,18.1c2,5.4,4.87,10.07,8.6,14,3.73,3.93,8.13,6.93,13.2,9,5.07,2.07,10.67,3.1,16.8,3.1,7.2,0,13.46-1.1,18.8-3.3,5.33-2.2,9.87-5.37,13.6-9.5l21.4,21.4c-6.67,6.4-14.4,11.37-23.2,14.9-8.8,3.53-19,5.3-30.6,5.3Z"/>
  <path d="M1604.03,201.23V60.03h31.6v141.2h-31.6ZM1628.22,87.23v-27.2h76.4v27.2h-76.4ZM1628.22,142.43v-26.6h70.4v26.6h-70.4ZM1628.22,201.23v-27.2h77.6v27.2h-77.6Z"/>
  <text transform="translate(1452.51 281.87)" style="font-family: Outfit-Light, Outfit; font-size: 120px; font-variation-settings: &apos;wght&apos; 300; font-weight: 300;"><tspan x="0" y="0">.com</tspan></text>
</svg>